<?xml version="1.0" encoding="utf-8"?>
<!-- Generator: Adobe Illustrator 23.0.1, SVG Export Plug-In . SVG Version: 6.00 Build 0)  -->
<svg version="1.1" id="aquarius" xmlns="http://www.w3.org/2000/svg" xmlns:xlink="http://www.w3.org/1999/xlink" x="0px" y="0px"
	 viewBox="0 0 509.1 509.1" style="enable-background:new 0 0 509.1 509.1;" xml:space="preserve">
<g>
	<path id="top" d="M62.5,233c0.3-0.2,0.6-0.4,0.9-0.7c18.4-15.9,36.7-31.8,55.1-47.7c5.3,6.6,10.5,13.2,15.8,19.8
		c7.2,9.1,13.9,19.4,22.3,27.4c10.4,10,26.7,12.8,40,7.4c5.6-2.3,10-5.9,14.5-9.7c10.7-9,21.4-18.1,32.1-27.1c7-5.9,14-11.8,21-17.8
		c4.7,6.2,9.5,12.4,14.2,18.6c4.4,5.8,8.8,11.5,13.3,17.3c3.1,4,6,8.4,9.8,11.8c10.4,9.5,26,12.2,39.1,7.1c5.6-2.2,10-5.8,14.6-9.5
		c10.7-8.9,21.5-17.7,32.2-26.6c7.5-6.2,14.9-12.3,22.4-18.5c4.7,6.4,9.4,12.7,14.1,19.1c4.2,5.7,8.4,11.4,12.6,17.1
		c3.7,5,7.2,9.9,12.2,13.6c11.8,8.8,26.8,9.2,39.8,3.2c12.1-5.6,18.9-18.1,20.5-30.8c1.8-14-6.5-24.4-14.1-34.7
		c-15.7-21.2-31.3-42.3-47-63.5c-13.7-18.5-38.7-22.1-56.6-7.2c-8.4,7-16.9,13.9-25.3,20.9c-11,9.1-22,18.2-33,27.3
		c-4.8-6.3-9.6-12.5-14.4-18.8c-4.4-5.8-8.9-11.6-13.3-17.4c-3.1-4-6.1-8.4-9.8-11.8c-10.3-9.3-25.4-12.1-38.4-7.3
		c-5.8,2.1-10.5,5.8-15.1,9.8c-10.5,8.9-21,17.8-31.5,26.6c-7.5,6.3-15,12.7-22.5,19c-5.2-6.6-10.4-13.1-15.6-19.7
		c-7.1-8.9-13.7-18.4-21.5-26.7c-9.5-10.2-24.5-13.3-37.6-9.9c-6.4,1.7-11.8,5.6-16.7,9.9c-8.7,7.5-17.4,15-26,22.6
		c-18.6,16.1-37.3,32.3-55.9,48.4C1.1,185.8-3.9,204.2,3.8,220.4C14.7,243.3,43.4,247.9,62.5,233z M22.1,191.9
		c1.6-2.5,4.7-4.6,6.9-6.5c3.9-3.4,7.9-6.8,11.8-10.2c21.8-18.9,43.6-37.8,65.4-56.7c6-5.2,11.4-8.9,19.9-8.3
		c9.1,0.6,14.6,9.3,19.7,15.8c11.4,14.3,22.8,28.7,34.2,43c3.2,4.1,9.3,2.9,12.7,0c18.9-16,37.9-32,56.8-48c2.6-2.2,5.2-4.4,7.8-6.6
		c7.6-6.4,19.1-5.3,26.1,1.1c0,0,3.1,3.6,1.6,1.5c0.1,0.1,0.1,0.2,0.2,0.2c0.3,0.4,0.7,0.9,1,1.3c1.5,1.9,3,3.9,4.5,5.8
		c4.6,6,9.3,12.1,13.9,18.1c6.3,8.2,12.6,16.5,18.9,24.7c3.7,4.9,9.3,5.8,14.1,1.8c19.2-15.8,38.3-31.6,57.5-47.4
		c2.9-2.4,5.8-4.8,8.7-7.2c7.4-6.1,17.4-5.1,24.9,0.1c0.8,0.5,4.1,4.5,3.1,3c0.2,0.2,0.3,0.4,0.5,0.7c0.9,1.3,1.9,2.6,2.8,3.8
		c3.5,4.8,7.1,9.6,10.6,14.4c9.4,12.7,18.8,25.5,28.2,38.2c5.4,7.3,13.7,15.6,16.3,24.5c2.8,9.6-2.9,20.1-12,23.7
		c-5,1.9-10.8,1.8-15.6-0.4c-2.6-1.2-4.7-2.9-6.6-4.9c-0.3-0.3-0.6-0.6-0.7-0.8c0-0.1-0.1-0.2-0.3-0.4c-7.8-10.5-15.6-21-23.4-31.6
		c-4.2-5.7-8.5-11.5-12.7-17.2c-3.7-4.9-9.3-5.8-14.1-1.8c-19.2,15.8-38.3,31.7-57.5,47.5c-2.8,2.3-5.5,4.6-8.3,6.9
		c-7.6,6.3-19,5.1-26-1.3c0,0-3.1-3.5-1.5-1.5c-0.1-0.1-0.1-0.2-0.2-0.2c-0.3-0.4-0.7-0.9-1-1.3c-1.5-1.9-3-3.9-4.5-5.8
		c-4.6-6-9.2-12-13.8-18c-6.3-8.2-12.6-16.4-18.8-24.5c-3.7-4.8-9.3-5.9-14.1-1.8c-18.9,16-37.9,32-56.8,48c-2.5,2.1-5,4.2-7.4,6.3
		c-9.1,7.7-21.7,4.3-28.7-4c-7.2-8.6-14-17.6-21-26.3c-6.4-8-12.7-16-19.1-24c-3.2-4-9.4-2.9-12.7,0c-20.9,18.1-41.7,36.1-62.6,54.2
		c-7.7,6.3-18.9,5.7-26.2-0.9C16.6,211.6,16.4,200.4,22.1,191.9z"/>
	<path id="bot" d="M447.4,283.3c-0.2-0.3-0.5-0.6-0.8-1c-0.2-0.3-0.4-0.6-0.6-0.9c-13.4-17.2-38.3-18.5-54.7-5
		c-6.3,5.2-12.6,10.4-18.9,15.6c-13.2,10.9-26.4,21.8-39.6,32.7c-4.8-6.3-9.6-12.5-14.4-18.8c-4.4-5.8-8.9-11.6-13.3-17.4
		c-3.1-4-6.1-8.4-9.8-11.8c-10.3-9.3-25.4-12.1-38.4-7.3c-5.8,2.1-10.5,5.8-15.1,9.8c-10.5,8.9-21,17.8-31.5,26.6
		c-7.5,6.3-15,12.7-22.5,19c-5.2-6.6-10.4-13.1-15.6-19.7c-7.1-8.9-13.7-18.4-21.5-26.7c-9.5-10.2-24.5-13.3-37.6-9.9
		c-6.4,1.7-11.8,5.6-16.7,9.9c-8.7,7.5-17.4,15-26,22.6C51.1,317.5,32,334,12.9,350.6c-8,6.9-12.1,16.7-12.8,27.1
		c-1,13.3,6.5,25.3,16.8,32.9c9.9,7.3,24.3,8.3,35.5,3.6c5.5-2.3,9.9-5.8,14.3-9.6c17.3-15,34.6-30,51.9-44.9
		c5.3,6.6,10.5,13.2,15.8,19.8c7.2,9,13.9,19.4,22.3,27.4c10.4,10,26.7,12.8,40,7.4c5.6-2.3,10-5.9,14.5-9.7
		c10.7-9,21.4-18.1,32.1-27.1c7-5.9,14-11.8,21-17.8c4.7,6.2,9.5,12.4,14.2,18.6c4.4,5.8,8.8,11.5,13.3,17.3c3.1,4,6,8.4,9.8,11.8
		c10.4,9.5,26,12.2,39.1,7.1c5.6-2.2,10-5.8,14.6-9.5c10.7-8.9,21.5-17.7,32.2-26.6c7.5-6.2,14.9-12.3,22.4-18.5
		c4.7,6.4,9.4,12.7,14.1,19.1c4.2,5.7,8.4,11.4,12.6,17.1c3.7,5,7.2,9.9,12.2,13.6c11.8,8.8,26.8,9.2,39.8,3.2
		c12.1-5.6,18.9-18.1,20.5-30.8c1.8-14-6.5-24.4-14.1-34.7C479,325.9,463.2,304.6,447.4,283.3z M472.7,399
		c-5.1,0.4-10.4-1.2-14.4-4.5c-0.8-0.7-3.7-3.9-2.9-2.9c-0.4-0.5-0.7-1-1.1-1.4c-11.8-15.9-23.6-31.9-35.4-47.8
		c-3.7-4.9-9.3-5.8-14.1-1.8c-19.2,15.8-38.3,31.7-57.5,47.5c-2.8,2.3-5.5,4.6-8.3,6.9c-7.6,6.3-19,5.1-26-1.3c0,0-3.1-3.5-1.5-1.5
		c-0.1-0.1-0.1-0.2-0.2-0.2c-0.3-0.4-0.7-0.9-1-1.3c-1.5-1.9-3-3.9-4.5-5.8c-4.6-6-9.2-12-13.8-18c-6.3-8.2-12.6-16.4-18.8-24.5
		c-3.7-4.8-9.3-5.9-14.1-1.8c-18.9,16-37.9,32-56.8,48c-2.5,2.1-5,4.2-7.4,6.3c-9.1,7.7-21.7,4.3-28.7-4c-7.2-8.6-14-17.6-21-26.3
		c-6.4-8-12.7-16-19.1-24c-3.2-4-9.4-2.9-12.7,0c-18.7,16.2-37.4,32.4-56.1,48.6c-2.2,1.9-4.3,3.8-6.5,5.6
		c-7.5,6.5-19.1,5.6-26.2-0.9c-7.9-7.1-8-18.4-2.4-26.8c1.6-2.5,4.7-4.6,6.9-6.5c21.6-18.7,43.1-37.3,64.7-56
		c5.9-5.1,11.6-10.8,17.9-15.4c9.2-6.8,21.4-4.3,28.3,4.4c2.3,2.9,4.7,5.9,7,8.8c11.1,13.9,22.2,27.9,33.3,41.8
		c3.2,4.1,9.3,2.9,12.7,0c18.9-16,37.9-32,56.8-48c2.6-2.2,5.2-4.4,7.8-6.6c7.6-6.4,19.1-5.3,26.1,1.1c0,0,3.1,3.6,1.6,1.5
		c0.1,0.1,0.1,0.2,0.2,0.2c0.3,0.4,0.7,0.9,1,1.3c1.5,1.9,3,3.9,4.5,5.8c4.6,6,9.3,12.1,13.9,18.1c6.3,8.2,12.6,16.5,18.9,24.7
		c3.7,4.9,9.3,5.8,14.1,1.8c14.1-11.6,28.2-23.3,42.3-34.9c7.3-6,14.7-12.1,22-18.1c9.9-8.2,22.6-7.2,30.8,2.8
		c14.4,19.5,28.8,39,43.3,58.5c5.5,7.4,14.4,16.4,14.9,26C491.6,388.7,483.3,398.1,472.7,399z"/>
</g>
</svg>
