<?xml version="1.0" encoding="utf-8"?>
<!-- Generator: Adobe Illustrator 23.0.1, SVG Export Plug-In . SVG Version: 6.00 Build 0)  -->
<svg version="1.1" id="aries" xmlns="http://www.w3.org/2000/svg" xmlns:xlink="http://www.w3.org/1999/xlink" x="0px" y="0px"
	 viewBox="0 0 508.9 508.9" style="enable-background:new 0 0 508.9 508.9;" xml:space="preserve">
<path id="aries_1_" d="M508.4,138.6c-6.2-34.6-29.5-68.4-62.2-82.4c-23.9-10.2-51.4-10.6-76.1-2.7c-24.2,7.7-44.3,24.6-59.8,44.3
	c-15.8,20.1-27.3,42.9-37,66.5c-7.3,17.7-13.4,35.9-18.6,54.4c-12.5-44.6-29.6-89.1-58.9-124.8c-15.8-19.2-36.5-34.7-60.5-41.6
	c-24.8-7.1-52-5.4-75.4,5.3C39.8,66.9,24,84.1,13.6,103.3c-6.7,12.6-12.2,26.9-13.5,41.2c-2.5,26.9,27,46.4,51.2,37.3
	c11.9-4.5,20.8-14.6,23.8-27c2-8.5,4.8-16.6,10.7-23.2c7.4-8.5,18.6-8.9,28.9-6.2c3.7,1,3.7,1.1,7.4,3.2c3.9,2.2,5.2,3.4,8.3,6.2
	c15.3,14,25,34,33.2,52.8c11.7,27,19.6,55.8,26.4,84.4c6.5,27.5,11.6,55.3,15.9,83.2c3.5,22.5,6.1,45.1,9.6,67.5
	c2,12.3,6.5,23.6,16.9,31.2c8.2,6,18.6,8.2,28.6,6.7c10.9-1.7,19.9-8.2,26-17.2c6.7-9.9,7.4-23.1,8.9-34.6c3.2-23,6.3-46,10.1-69
	c4.8-28.6,10.5-57.1,17.8-85.2c7.2-27.6,15.8-55.1,28.5-80.7c4.8-9.8,10.4-19.2,16.9-28c2.3-3.1,5-6,7.7-8.8
	c3.2-3.2,5.2-4.9,8.3-6.9c1.4-0.9,2.9-1.8,4.4-2.6c0.6-0.3,1.2-0.6,1.8-0.9c-0.9,0.4,1-0.4,1.2-0.4c5-1.8,10.3-2.2,15.5-2.1
	c11,0.3,17.6,8.9,22.1,18c3.9,7.9,4.3,16.9,9.1,24.5c6.5,10.3,17.3,15.9,29.1,17.3c11.3,1.4,23-3.9,30.6-11.9
	c8.4-8.7,11.1-20.4,9.6-32.1C508.5,139.4,508.4,139,508.4,138.6z M476.9,165.1c-10,3.2-19.7-2.3-24.2-11.2c-1.7-3.4-2-7.8-3.2-11.4
	c-1.8-5.3-4.2-10.5-7.1-15.3c-6.5-10.7-16.6-18.8-29.1-20.6c-46.2-6.8-71.1,43.2-85.9,78.5c-22.2,53.3-33.1,111.4-41.8,168.2
	c-3.5,22.5-5.8,45.2-9.7,67.6c-1.6,9.4-5.7,18-14.8,21c-6.5,2.2-13.8,1.4-19.8-3.8c-8.1-7.1-8.5-19.5-9.9-29.5
	c-1.6-11-3-22.1-4.5-33.1c-3.6-25.8-7.8-51.6-12.9-77.1c-5.9-29.5-13-58.8-22.5-87.3c-8.1-24.2-17.9-48.5-32.3-69.6
	c-9.6-14.2-22.2-27.9-39-33.2c-12-3.7-25.7-3.2-36.9,2.5c-10.7,5.4-17.6,16.9-22,27.6c-3.4,8.4-3.6,17.3-10.7,23.6
	c-7.1,6.3-18.8,5.3-25.7-0.6c-11.5-10.1-5.4-26.1-0.8-38c6.9-18,20-35.6,37.2-46.1c19.9-12.1,44.3-13.7,66.6-8.3
	c49.5,11.9,76.9,64.5,93.9,108c10.1,26,17.7,52.9,24.2,80c2.1,8.6,15.3,8.6,17.4,0c7.3-30.4,16.1-60.5,28-89.5
	c9.7-23.5,22.1-46.7,39.1-65.8C346.6,83.4,366.8,71,391,67c21.8-3.6,44.2,1.1,62.4,13.7c20,13.9,33,38,37.4,61.4
	c0,0.4,0.1,0.8,0.2,1.2C492.4,153.1,486,162.2,476.9,165.1z"/>
</svg>
