<svg id="leo" xmlns="http://www.w3.org/2000/svg" width="501" height="501" viewBox="0 0 501 501">
  <title>Artboard 1</title>
  <g>
    <path id="outside" d="M455.1,359a5.85,5.85,0,0,0-1.3-.2h-1a38.16,38.16,0,0,0-39,30c-1.3,6-.5,6-1.9,11.4a29.29,29.29,0,0,1-10,15.9c-6,5.2-16.6,7.9-25.4,8.6-11.6,1-23,.1-32.9-6.5-8-5.3-13.3-14.8-16.7-23.5-9.9-24.8-10.6-52.9-9.1-79.2,1.8-30.2,7.9-60,16.1-89,4.3-15.2,9.4-30.1,12.9-45.5a275.16,275.16,0,0,0,6.2-41.5c1.6-22.8-.8-46.6-9.8-67.8a111.22,111.22,0,0,0-41-49.7C282.1,8.6,257.9,2.8,234.2.7c-25.6-2.2-52,.3-76,9.8a125.4,125.4,0,0,0-55.3,42.8c-15.4,21.1-22.4,47.6-22.6,73.5-.2,23.3,5.6,46.6,14.6,68,7.5,17.7,17,34.4,26,51.4C79,248,39.8,273,21.9,311.7c-20,43.3-9.5,95.1,25,127.8C80,470.9,130,479,171.7,461c40.4-17.4,68.6-58.8,68.1-103.1v-.1c-.1-6.5-.2-12.9-.7-19.3-.6-7.4-2.4-14.1-4.4-21.1s-4.4-14.1-7-21.1c-7.4-20-16.3-39.4-25.6-58.5-6.1-12.5-12.5-24.9-19-37.2-7.3-13.8-15.6-27.3-20.9-42-7.6-21.1-10.3-48,6.1-65.8,16.3-17.6,43.9-18.3,66-15.7,10,1.2,20,4.3,28.3,10,6.2,4.3,9.8,11.2,11.9,18.1,6.9,22.6,1.1,48.7-4.8,70.8-4.2,15.7-9.5,31.1-13.5,46.8-3.9,15.2-7,30.5-9.5,46-8.6,53.6-10,112.5,13.4,162.8,10.1,21.7,26,40.5,46.4,53.1,22.1,13.6,48.5,17.7,74.1,15.9,34.5-2.5,66.4-16.9,87.5-44.8,12.4-16.4,19.4-37.3,20.8-57.8C490.5,377.7,474,361.9,455.1,359Zm6.6,73c-9.3,19-23.9,32.2-42.3,40.9-21.4,10.2-48.1,12.6-71.3,8.4-23.5-4.3-43.4-16.9-58.3-35.4-14.3-17.8-21.9-40.6-26.3-62.7-5.4-27.4-5.1-55.9-2.6-83.6,2.8-30.7,9.3-61.1,17.8-90.7,8-27.8,17.2-55.1,16.7-84.4-.4-20.6-6.5-40.3-23.6-52.9-8.8-6.4-19.9-9.7-30.5-11.5a133.25,133.25,0,0,0-41.8-.7c-23.2,3.3-45,15.5-54.9,37.5-11.5,25.6-5.4,54.3,5.4,79,4.4,10,10,19.4,15.2,29.1,4.9,9.3,9.8,18.6,14.5,27.9,7.6,15,14.8,30.1,21.6,45.5,4.8,11,9.2,22.2,13,33.5,1.9,5.7,3.8,11.5,5.3,17.4,2.4,9.3,2.1,19.1,2.3,28.6h0c.6,44-31.7,81.9-73.7,92.2-42.9,10.5-88-10.8-108.4-49.6-16-30.5-12.4-67.6,6.8-95.7,19.7-28.9,54.8-43.3,89.1-40.4,7.4.6,10.5-8,7.8-13.5-13.1-27-29.8-52.7-38.6-81.5-7.8-25.7-9.1-53.1-.8-78.8a100.74,100.74,0,0,1,40.3-52.7c19.9-13.1,43.6-19,67.1-19.7,23.9-.8,48.9,2.4,70.5,13a93,93,0,0,1,42.2,41.9c23.8,46.9,5.9,101.8-7.6,148.6a441.35,441.35,0,0,0-16.5,90.4c-2,27.3-1,56,7.6,82.2,7.3,22.4,22,42.4,46.2,47.3,21.3,4.3,48.6.3,64.1-16.1a49.35,49.35,0,0,0,12.5-26.9c.9-6.2,1.9-11.5,6.4-16.2s10.6-6.1,16.8-5.6c9.3,1.1,16.6,9.3,17.2,18.5C471.9,407.4,466.9,421.3,461.7,432Z"/>
    <path id="round" d="M118.8,304.4c-23.7,3-44.2,20.8-48.3,44.8s9,47.8,30.9,58c22.4,10.4,49.8,5.2,66.5-13.1a53.54,53.54,0,0,0,9.9-55.9C168.1,314.5,144.2,301.2,118.8,304.4Zm41.6,38.5c7.1,17.6,1.7,36.8-15.6,46.8-18.3,10.6-42.4,3.4-52.8-14.6s-1.3-39.8,16.1-49.1C126,316.5,152.4,323.5,160.4,342.9Z"/>
  </g>
</svg>
