<svg id="icons" xmlns="http://www.w3.org/2000/svg" width="658.13" height="585" viewBox="0 0 658.13 585">
  <defs>
    <style>
      .cls-1 {
        fill: #51a8ce;
      }

      .cls-2 {
        fill: #fff;
      }

      .cls-3 {
        fill: #232323;
      }
    </style>
  </defs>
  <title>Artboard 4</title>
  <g id="icons-2" data-name="icons">
    <g id="best_recipe" data-name="best recipe">
      <path id="bg" class="cls-1" d="M479.68,538.73c-10.85,6.43-21.5,13-34.74,13.62-11,.54-20.84-2.38-30.83-6.74a182.92,182.92,0,0,0-33-11.15c-15.79-3.51-31.58-1-46.13,5.85-14.34,6.75-27.84,15-39.4,26.29-8.1,7.9-18.81,9.3-29.48,7S245,567,238.81,557.41a76.23,76.23,0,0,1-10.26-22.35c-2.21-8.8-1.88-18.22-2.88-27.35A123.17,123.17,0,0,0,223.09,491c-.91-3.62-2.44-7.47-7.24-8.14-1-.14-1.85-1.26-2.83-1.82-4.43-2.48-8.74-5.26-13.37-7.3-9.78-4.32-16.67-11.89-23-20-16.87-21.54-18-46.36-14.4-72,1.9-13.63,3.87-27.24,5.81-40.86,1-7-.51-13.59-1.92-20.46-3.34-16.25-14.07-28.51-21.34-42.62a103.9,103.9,0,0,1-10.55-33.61,118.4,118.4,0,0,1,8.26-63c5-12.1,9.09-24.61,14.32-36.61,6.25-14.32,15.81-26.57,26.09-38.24,4.35-4.94,8.25-10.37,13.13-14.71,9-8,19.21-14.06,31.34-16.14,3.5-.6,7-1,10.51-1.63,14.81-2.82,29.44-.91,44,1.65A118.61,118.61,0,0,1,342.1,105c11.41,10.41,22.38,22,26.74,38.05,1.3,4.81,5.69,8.9,9,13,5.95,7.42,11.85,14.94,18.39,21.84a63.59,63.59,0,0,0,14.55,11.73c12.93,7.3,26.18,14,39.5,20.6,20.38,10.06,33.91,26.12,41.42,47.23,3.66,10.3,2.64,21.13.78,31.73-1.7,9.67-3.49,19.35-5.82,28.88-1.06,4.33-3.58,8.29-5.3,12.48-2.82,6.83-6.44,13.5-8,20.61a78.79,78.79,0,0,0-1.4,22.53c.32,4.34,2.88,8.85,5.4,12.65,9,13.6,19.46,26.36,27.51,40.49,12.42,21.82,14.62,45.89,6.1,69.24-5.15,14.11-12.57,28.13-25,38.12C483.94,535.79,481.78,537.21,479.68,538.73ZM134.9,65.08c-7.38,5.28-12.78,13-14.2,21.78-2,12.33-1.82,24.77,7.63,35.21,5.49,6.07,12.38,7.59,17.95,1.27,6.37-7.21,11.62-15.43,17.32-23.23,7.55-10.31,3.48-20.48.64-29C157.41,60.42,144.67,58.09,134.9,65.08ZM508.45,380c3-.18,6,.34,9,.44,3.81.12,7.21-.45,7.32-5.38a77.86,77.86,0,0,0,.06-8.64,50.11,50.11,0,0,0-7-21.86c-3.3-5.54-9.66-8.84-14.85-4.51-2.07,1.72-2.94,4.91-5,6.57-4.51,3.56-6.09,8.07-4.89,13.31s3.18,10.13,4.81,15.18C501.9,380.46,502.05,380.41,508.45,380Zm5.31,23.35a110.34,110.34,0,0,0,9.43,6.94c1.32.8,4.29,1.08,5,.28,1.65-1.93,3.53-4.76,3.28-7-.67-5.88-10.63-13.23-16.42-13-4.86.23-5.79,1.64-3.83,6,.93,2.05,2,4,3,6C514.07,402.88,513.92,403.13,513.76,403.37Z"/>
      <path id="bg-2" data-name="bg" class="cls-2" d="M355.22,523.09a36,36,0,0,1-4.7-.32c-11.12-1.45-23-3.07-34.84-5.48-15-3-32-6.5-48.45-11.1-9.82-2.75-19.56-5.92-29-9-10.42-3.38-21.19-6.88-31.79-9.71-17.92-4.79-36.53-8.81-54.53-12.7-4.15-.9-8.3-1.79-12.44-2.7-5.41-1.18-13.17-3.67-18.06-11.65-3.71-6.06-10.6-17.32-4.94-31.83,5.23-13.41,9.85-27.48,14.31-41.1l.32-1c7.91-24.12,15.58-48.25,22.76-70.89,1.18-3.7,2.22-7.43,3.33-11.38.93-3.31,1.89-6.74,2.93-10.16a26.21,26.21,0,0,1,3.86-7.49c.73-2.15,1.84-7.72,2.4-10.5s1-5.2,1.51-6.84c.78-2.7,1.7-5.17,2.59-7.56.34-.92.69-1.85,1-2.78l5.39-15.18.49.36c4.2-11.14,9.72-26.24,12.23-33.92,3.54-10.89,8-21.43,12.29-31.61,2.19-5.2,4.45-10.56,6.52-15.82,3.86-9.77,11.09-15.76,16.9-20.58a14.92,14.92,0,0,1,2.25-1.54c4.88-4.05,12.29-4.93,21.74-4.93,17.57,0,45.36,3.77,51.57,5.62a34.25,34.25,0,0,0,10,1.26c1.43,0,2.89,0,4.41-.14.7-3.05.66-6.71.61-10.78,0-1.06,0-2.13,0-3.19,0-2.14-.06-5.89-.12-10.17-.17-12.87-.28-22.25,0-25.82.9-12.68,6.91-22.32,12.2-30.83q1.35-2.14,2.66-4.32c8.84-14.79,21.27-26,35.94-32.42a44.07,44.07,0,0,1,17.54-3.53,43.46,43.46,0,0,1,28,9.9C426.78,43.66,429.9,64.17,426.47,79c-3.5,15.13-9.58,34.45-25.67,49.68-1.75,1.65-3.5,3.15-5.19,4.6a57.8,57.8,0,0,0-7,6.62c-3.74,4.57-7.45,9.62-11.08,15.08l8.17,2c13.09,3.19,26.64,6.49,39.95,9.88,7.84,2,15.92,4.06,23.81,7.39,7.15,3,11.92,9.89,13.84,14.86,2.52,6.51,3.7,13,4.84,19.32l.16.9a32.54,32.54,0,0,1-.45,13c-3.37,14.45-6.55,27.42-9.71,39.64q-2.3,8.89-4.55,17.8c-4.55,17.91-9.26,36.44-14.61,54.57-3.89,13.2-8.31,26.37-12.57,39.11-3.6,10.74-7.32,21.85-10.66,32.79-8.52,27.87-16.56,56.51-23.64,81.77-4.56,16.25-15.77,25.68-23.8,31.36C364.89,521.85,360.48,523.09,355.22,523.09Zm23.92-455c-3.8,2.89-7.32,7.15-11,11.66l-2.31,2.79a11.68,11.68,0,0,0-2.4,4.2A73.31,73.31,0,0,0,362,96.47c-.12,1.19-.24,2.37-.37,3.55,3.73-4.25,7.51-8.53,11.3-12.75,4.87-5.43,8.27-10.24,9-16a6.63,6.63,0,0,0-.58-3.32l-.54,0A6.87,6.87,0,0,0,379.14,68.09Z"/>
      <path id="chop_board" data-name="chop board" class="cls-3" d="M201,213.91c5.19-15.91,12.42-31.14,18.58-46.74,2.7-6.85,8-11.29,13.39-15.76.59-.49,1.47-.69,2-1.24,5.28-6.06,55.92.67,62.55,2.65,8.15,2.43,16.22,1.84,24.38,1.18,1-.08,2.13-1.45,2.7-2.49,4-7.24,3.29-15.2,3.28-23,0-6.91-.52-30.26-.18-35.13.82-11.57,7.53-20.39,13.19-29.85,7.42-12.41,17.85-22.07,30.46-27.6,9.11-4,23.1-3.81,33.06,4.57,10.3,8.66,13.12,24.18,10.42,35.84-3.79,16.4-9.64,31.76-22.23,43.68-4.38,4.14-9.42,7.71-13.2,12.33a211,211,0,0,0-15.77,22.25c-2.11,3.39,2.16,9.87,6.21,10.86,17.64,4.32,35.31,8.55,52.91,13,7.48,1.9,15,3.83,22.11,6.82,3.1,1.31,6.08,4.9,7.33,8.14,2.21,5.73,3.28,11.95,4.38,18a20.76,20.76,0,0,1-.32,8.19q-4.6,19.72-9.64,39.36c-6.22,24-12,48.18-19.06,72-7.11,24.11-15.85,47.74-23.2,71.79-8.32,27.22-16,54.63-23.71,82-3.09,11-10.36,18.57-19.18,24.8-2.3,1.63-6.29,1.67-9.35,1.27-11.38-1.49-22.77-3.07-34-5.35-15.95-3.24-31.94-6.51-47.6-10.9-20.45-5.73-40.4-13.24-60.9-18.72-22.3-6-44.95-10.6-67.51-15.53-4.37-.95-8.11-2.46-10.41-6.21-4-6.49-7.25-12.87-4-21.22,5.47-14,10.16-28.38,14.86-42.7,7.74-23.62,15.28-47.3,22.79-71,2.27-7.16,4.1-14.46,6.3-21.65a16.16,16.16,0,0,1,2.65-4.73c2-2.77,4.12-16.63,5.18-20.3.94-3.26,2.23-6.43,3.38-9.64C183.16,263.22,196.77,227,201,213.91Zm145.62-82.32,1.93.47a29.53,29.53,0,0,0,3.47-2.91c10-11.28,19.8-22.68,29.84-33.88,5.88-6.56,10.81-13.41,12-22.51.75-5.74-1.71-13.73-7.73-16-3.95-1.49-10.41-1-13.69,1.4-6.1,4.46-10.89,10.81-15.83,16.71A23.3,23.3,0,0,0,351.74,84c-1.27,5.34-1.49,10.92-2.18,16.39-.66,5.18-1.49,10.33-2,15.52S346.93,126.35,346.63,131.59Z"/>
      <path id="small_text" data-name="small text" class="cls-2" d="M310.45,224.09c-5.07,3.1-8.52,6.29-12.55,7.38s-10.24,1.83-12.81-.38c-2.94-2.54-4-8.53-3.93-13,.15-5.43,3.5-13.31,4.83-18.74-.2-.19-4.56.18-7.71.47a1.67,1.67,0,0,1-1.89-1.66,1.35,1.35,0,0,0,0-.35,1.69,1.69,0,0,1,1.11-2.05l10.29-2.72,4.36-8.87s.92-2.19,4,.28c2.05,1.67-.9,8.09-.9,8.09,4.36-.47,12-2.38,16.42-2.86a1.5,1.5,0,0,1,1.67,1.57v.05a4.51,4.51,0,0,1-3.1,4c-5.89,1.87-16.37,4.12-16.37,4.12s-9.18,23.24-3.15,26.25c3.48,1.74,10.79-1.5,14.92-4.49,5.11-3.7,8.91-9.33,12.9-14.42,1.91-2.44,2.61-5.82,4.5-8.28a8.11,8.11,0,0,1,.83-.93,3.3,3.3,0,0,1,5.5,2.78,9.12,9.12,0,0,1-.28,1.38c-1.71,5.52-5.82,11.41-8.38,17.91,2.84-.61,6.47-1.6,8.41-2,7.75-1.68,11.11,1.53,9.81,9.47-.32,1.9-1.56,7.24-1.7,8.05a4.56,4.56,0,0,0,5.25,5.23c3.1-.55,6.06-1.68,7.45-5.52A86.09,86.09,0,0,1,361.92,213c3.34-4.47,9.31-6.95,14.93-2.78s4.71,10.31,1.3,15c-4,5.54-9.57,10-14.34,15a8.6,8.6,0,0,0-.67.8c-1.48,2-4.49,7.25-2.19,8.1,10.37,3.85,11.94-.54,16-.92,2.52-.24,7.35,4.24,3.22,7.11l-.07.05c-13.36,9-22.56,6.58-31.32-7.6-6.66.72-15.48,5-19-2.7-1.94-4.21.61-13.16,1.62-19.79.29-1.94-9-1-12.05,2.12-1.67,1.72-4.73,13.2-6.57,14.6a4.87,4.87,0,0,1-.75.46,4.79,4.79,0,0,1-7.16-3.67,3.15,3.15,0,0,1,.08-1.23C306,233.42,308.12,229.55,310.45,224.09ZM363.4,232c4.12-2.7,7.52-5.9,9.1-10.35a4.68,4.68,0,0,0-1.77-5.43h0C367.52,221,362.63,231.48,363.4,232ZM249.62,284.28c9.34,16.43,6.13,28.1-11.1,35.39-8.74,3.71-18.62,5.27-28.16,6.4-8.43,1-11.41-3.16-8.49-11.16,6.48-17.8,13.6-35.37,20.29-53.09,1-2.61,9.26-24.52,16.88-24.85,5.77-.25,11.8-1.39,17.29-.2,11.92,2.6,16.69,12.38,12.88,24C265.8,271.25,258.48,278.49,249.62,284.28Zm-22.91-6.7a31.6,31.6,0,0,0,31.42-15c5.68-9.84,2.95-15.41-8.57-16.65-4.58-.49-10.34-2-12.75,3.78C233.12,258.64,230.19,267.86,226.71,277.58Zm-14.19,37.08c.7.9,19.24-3.06,27.17-7.17,2.76-1.43,5.38-7.07,4.71-10s-5.27-6.64-8.56-7.1c-4.8-.68-12.41-.49-14.47,2.41C217,299,215.31,307.24,212.52,314.66Zm56.6-35c4.23-10.23,12.22-17.87,23.27-20.35,4-.9,10.25.48,12.87,3.27,2.27,2.41,2.32,8.91.79,12.51-4.91,11.56-15,17.62-26.76,20.39-3.86.9-5.49,2.41-5.78,5.91-.39,4.8-1.09,9.63-.86,14.41.3,6.06,4.09,8.22,9.54,5.79,9.74-4.33,19.21-9.27,28.95-13.59a5.17,5.17,0,0,1,.69-.26c3.84-1.29,7.64,2.76,5.59,6.26a3,3,0,0,1-1,1c-11.23,7-22.43,14.42-34.56,19.48-9.46,3.94-18.37-3-20.21-13.23C259.26,310.26,265,289.62,269.12,279.67Zm25.33-10c-9,3.63-13.95,9.36-14.54,16.23,6.69-3.24,12.87-6.66,16.55-14.11A1.57,1.57,0,0,0,294.45,269.65ZM190.39,371.31c-3.77,11.49-7.07,22.66-11.22,33.51a10.83,10.83,0,0,1-1.86,3.06,3.47,3.47,0,0,1-6.19-2.21,10.18,10.18,0,0,1,.48-3.19q9.22-27.18,19.47-54c3.11-8.2,19.74-9.81,25.23-2.79,3.17,4,3.06,8.27-.08,12-2.77,3.28-6.23,6-9.64,9.17,8,8.21,8.36,18.27,5.17,28.77a171.76,171.76,0,0,1-7.34,20.54,6.06,6.06,0,0,1-2.09,2.3,3.47,3.47,0,0,1-5.49-2.49,6.79,6.79,0,0,1,.13-2.39c2.1-8,5.33-15.65,7.18-23.66C206.92,377.83,202.69,372.3,190.39,371.31Zm3.79-8.53c5.74-2.82,10.53-4.83,14.91-7.53a2.46,2.46,0,0,0,.86-1.05,4.25,4.25,0,0,0-2.87-5.93,3.49,3.49,0,0,0-1.63-.07C199.09,349.73,194.71,353.48,194.18,362.78Zm133.27-10.4c15.74-2.1,25.62-14.05,22.71-29.77-1.82-9.85-6.33-19.22-9.76-28.76-1.07-3-3.7-5.82-3.54-8.6.19-3,2.09-7.43,4.49-8.55,3.64-1.7,7.52.11,8.52,5.12a.11.11,0,0,0,0,.05c.6,2.88,4.65,3.05,5.81.34,1.67-3.89,1-7.53-2.65-10.16A24.48,24.48,0,0,0,337.82,268c-6.32.49-10.49,6-10.35,12.28.14,6.07,2,12.21,3.8,18.11,2.66,8.78,6.57,17.22,8.71,26.11a13.7,13.7,0,0,1-7.35,16c-5.84,3.05-11.19,2.45-15.57-3.11a2.79,2.79,0,0,0-.52-.51c-1.92-1.5-4.74.15-4.75,2.58C311.74,349,317.64,353.69,327.45,352.38ZM306.28,415.9c-2.31,6.37-4.91,14.45-8.25,22.21a5.36,5.36,0,0,1-.49.87c-2.18,3.1-7.47,1-6.94-2.71a4.36,4.36,0,0,1,.2-.81q10.76-30.87,22.36-61.44c1.12-2.95,3.89-6.93,6.43-7.37,6.33-1.09,13.41-1,16.92,6.17,6.26,12.76,3.75,35.57-15.32,42.86C317.24,417.19,312.22,415.9,306.28,415.9Zm3.58-7.81c15.88-2.71,24.57-16.1,19.47-29.82-.82-2.2-3.66-4-6-5.1-.62-.3-3.51,2.2-4,3.85C316,387.12,313.08,397.34,309.86,408.09Zm53.77-60.63a33.13,33.13,0,0,0-1.51,10,5.51,5.51,0,0,0,3,4.24c1.42.46,3.9-.4,5.05-1.55,1.44-1.45,2.25-3.7,2.92-5.74,4.77-14.53,9.56-29.05,14.1-43.65,3.69-11.85,3.12-12.27,3.12-12.27s15.38.2,16-.3,1.42-1.21,2.1-1.86a4.53,4.53,0,0,0-.77-7.17,3.15,3.15,0,0,0-1.5-.48q-21.1-.53-42.22,0a2.61,2.61,0,0,0-1.39.51c-2.83,1.87-2.62,6.44.52,7.73a2.93,2.93,0,0,0,.7.2c5,.79,10.11.7,16.08,1C374.15,315.27,368.78,331.33,363.63,347.46Zm2.43,41.59.61-.14c4.49-1.25,5.88-7.39,2-10a4.94,4.94,0,0,0-.79-.41c-7.35-2.95-14.49,1.15-17.05,8.73-2.78,8.26-5.76,16.44-8.59,24.68-4.25,12.36-8.49,24.73-12.63,37.14-1.25,3.75-2.51,8.72,2.58,9.73,5.54,1.1,11.54.31,17.27-.33a1.44,1.44,0,0,0,.84-.47,4.36,4.36,0,0,0-2.37-7.28c-2.74-.52-5.66-.14-9.27-.14,1.81-6,3.28-11.1,4.88-16.13,1.67-5.24,3.48-10.44,5.15-15.43,4.47.89,8.19,2.07,11.94,2.17,1.57,0,4.6-2.38,4.48-3.41a7.22,7.22,0,0,0-3.63-5.07c-2.77-1.18-6.06-1.17-9.58-1.73,2.17-7.7,4.24-15.07,6.51-23.14C361.36,388.4,363.87,389.51,366.06,389.05Zm-97.2-18.93a1.8,1.8,0,0,1,3.09,1.32,24.38,24.38,0,0,0,.29,5.52c.24,1.23,2.27,3.59,3.89,3.08,4.47-1.39,4.69-9.14,4-13.23-.7-4.37-4.95-9.44-8.48-10.15-2.54-.51-17.09,5.15-24.4,45.17-2.46,8.33-2.16,17.73-1.62,26.56.2,3.36,4.45,9,7,9.12,4.4.19,9.17-2.84,13.3-5.32.55-.33.62-1.47.56-2.8a4.14,4.14,0,0,0-4.18-3.93,10,10,0,0,0-2,.18,10.09,10.09,0,0,0-2.33.81,3,3,0,0,1-4.29-2.27C251.47,408.94,259.41,380.45,268.86,370.12Zm-18.68-11.71a5.56,5.56,0,0,0,4.16-2c.57-.73.1-3.52-.53-3.76-5.32-2-13.92-5-19.32-4.9-2.77,0-3.77,5.25-4.86,8.85-6.6,21.78-12.47,43.79-18.68,65.7-1.34,4.76.75,7.4,5.09,7.49a45.86,45.86,0,0,0,12.8-1.94c1.29-.35,2.89-3.07,2.67-4.43s-2.6-2.82-4.18-3c-2.77-.31-5.65.34-9.64.69,4.19-13.1,8.17-25.56,12.15-38,.47.58,7.37,1.16,7.83,1.74l.12,0a3.65,3.65,0,0,0,1.22-6.37l-6.14-4.87c.43-1.7,1.27-4.73,2-7.79.72-3.25,1.3-6.53,1.94-9.8C241.67,356.88,245.9,357.93,250.18,358.41Zm50.7,8.23c-2.14-.32-3.95,2.68-4.59,4.5-8.35,23.46-16.55,47-24.42,70.6-.74,2.22-1,7.19,1.67,7.95s4.55-3.35,5.41-5.57c4.45-11.51,8.66-23.12,12.52-34.84,4.16-12.62,7.83-25.4,11.81-38.42C302.4,369.32,302.4,366.87,300.88,366.64Z"/>
    </g>
  </g>
</svg>
