<svg id="icons" xmlns="http://www.w3.org/2000/svg" width="417.12" height="553.19" viewBox="0 0 417.12 553.19">
  <defs>
    <style>
      .cls-1 {
        fill: #51a8ce;
      }

      .cls-2 {
        fill: #fff;
      }

      .cls-3 {
        fill: #232323;
      }
    </style>
  </defs>
  <title>icon_market</title>
  <g id="icons-2" data-name="icons">
    <g id="best_recipe" data-name="best recipe">
      <path id="bestbg" class="cls-1" d="M365.34,517.33c-10.85,6.44-21.5,13-34.74,13.62-11,.54-20.84-2.38-30.82-6.73a183,183,0,0,0-33-11.16c-15.79-3.5-31.58-1-46.13,5.86-14.34,6.75-27.84,15-39.4,26.28-8.09,7.91-18.81,9.3-29.48,7s-21-6.57-27.26-16.14c-4.43-6.84-8.29-14.52-10.26-22.36-2.21-8.8-1.88-18.22-2.87-27.34a124.77,124.77,0,0,0-2.59-16.72c-.91-3.62-2.44-7.48-7.24-8.15-1-.14-1.85-1.26-2.83-1.81-4.43-2.48-8.74-5.27-13.36-7.31-9.78-4.32-16.68-11.89-23-20C45.43,410.8,44.32,386,47.9,360.3c1.9-13.62,3.87-27.24,5.81-40.86,1-7-.51-13.58-1.92-20.45-3.34-16.26-14.07-28.52-21.34-42.63a103.85,103.85,0,0,1-10.55-33.6,118.42,118.42,0,0,1,8.26-63c5-12.09,9.09-24.6,14.32-36.61,6.25-14.32,15.81-26.57,26.09-38.23C72.92,80,76.83,74.51,81.71,70.17c9-8,19.2-14.06,31.33-16.13,3.5-.6,7-1,10.51-1.63,14.81-2.82,29.44-.92,44,1.64a118.62,118.62,0,0,1,60.18,29.51c11.41,10.41,22.38,22,26.74,38,1.3,4.82,5.7,8.9,9,13,6,7.43,11.86,15,18.39,21.84a63.63,63.63,0,0,0,14.55,11.74c12.93,7.29,26.18,14,39.5,20.59,20.39,10.06,33.91,26.12,41.42,47.23,3.66,10.31,2.64,21.13.78,31.74-1.7,9.67-3.49,19.34-5.82,28.87-1.06,4.33-3.58,8.3-5.3,12.48-2.82,6.83-6.44,13.5-8,20.62a78.71,78.71,0,0,0-1.39,22.52c.31,4.35,2.87,8.86,5.39,12.65,9,13.6,19.46,26.36,27.51,40.5,12.42,21.82,14.62,45.88,6.1,69.24-5.15,14.1-12.56,28.12-25,38.11C369.6,514.39,367.44,515.82,365.34,517.33ZM20.56,43.69C13.18,49,7.78,56.71,6.36,65.46,4.36,77.8,4.54,90.23,14,100.68c5.49,6.07,12.38,7.58,18,1.27,6.37-7.22,11.61-15.43,17.31-23.23,7.55-10.32,3.48-20.49.64-29C43.07,39,30.33,36.69,20.56,43.69ZM394.11,358.62c3-.18,6,.34,9,.44,3.81.13,7.21-.45,7.32-5.38a77.7,77.7,0,0,0,.06-8.63,50.11,50.11,0,0,0-7-21.86c-3.3-5.55-9.66-8.84-14.85-4.51-2.07,1.72-2.94,4.9-5,6.56-4.5,3.56-6.09,8.07-4.88,13.32s3.17,10.12,4.81,15.17C387.56,359.07,387.72,359,394.11,358.62ZM399.42,382a114.8,114.8,0,0,0,9.43,6.94c1.32.8,4.29,1.07,5,.28,1.65-1.93,3.53-4.77,3.28-7-.67-5.87-10.63-13.22-16.42-12.95-4.86.23-5.79,1.63-3.83,6,.93,2.05,2,4,3,6Z"/>
      <path id="bg" class="cls-2" d="M240.88,501.69a36,36,0,0,1-4.7-.31c-11.12-1.45-23-3.08-34.84-5.49-15-3-32-6.5-48.45-11.1-9.81-2.75-19.56-5.91-29-9-10.42-3.38-21.19-6.88-31.78-9.71-17.93-4.8-36.54-8.82-54.53-12.7l-12.45-2.7C19.74,449.52,12,447,7.09,439.05c-3.7-6.05-10.6-17.31-4.94-31.82,5.23-13.41,9.85-27.49,14.31-41.11l.33-1c7.9-24.12,15.58-48.24,22.76-70.88,1.17-3.7,2.21-7.43,3.32-11.38.93-3.32,1.89-6.75,2.93-10.16a26.27,26.27,0,0,1,3.86-7.5c.73-2.14,1.84-7.72,2.4-10.5s1-5.2,1.52-6.83c.77-2.71,1.69-5.17,2.58-7.56.34-.93.69-1.85,1-2.78l5.39-15.19.49.36c4.2-11.14,9.73-26.23,12.23-33.91,3.55-10.9,8-21.43,12.29-31.62,2.19-5.19,4.45-10.56,6.53-15.82C98,131.61,105.19,125.61,111,120.8a14.2,14.2,0,0,1,2.25-1.54c4.88-4.05,12.29-4.94,21.74-4.94,17.57,0,45.36,3.77,51.57,5.63a34.62,34.62,0,0,0,10,1.25c1.44,0,2.89,0,4.41-.13.7-3.06.66-6.72.61-10.79,0-1.06,0-2.12,0-3.19,0-2.14-.06-5.89-.11-10.17-.18-12.86-.29-22.25,0-25.81.91-12.69,6.91-22.33,12.2-30.84q1.35-2.15,2.66-4.32c8.85-14.78,21.27-26,35.94-32.41a44.84,44.84,0,0,1,45.58,6.37c14.69,12.36,17.81,32.86,14.38,47.7-3.5,15.13-9.58,34.45-25.67,49.68-1.75,1.65-3.5,3.15-5.19,4.6a57.8,57.8,0,0,0-7,6.62c-3.73,4.57-7.45,9.63-11.08,15.09l8.17,2c13.09,3.18,26.64,6.48,40,9.88,7.84,2,15.91,4.06,23.8,7.39,7.15,3,11.93,9.89,13.85,14.85,2.51,6.51,3.69,13,4.83,19.32l.16.9a32.8,32.8,0,0,1-.44,13.06c-3.38,14.45-6.56,27.41-9.72,39.63q-2.29,8.9-4.55,17.8c-4.55,17.92-9.26,36.44-14.61,54.57-3.89,13.2-8.3,26.38-12.57,39.11-3.6,10.75-7.32,21.86-10.66,32.8-8.52,27.86-16.55,56.5-23.64,81.77C273.23,482.92,262,492.35,254,498,250.55,500.45,246.14,501.69,240.88,501.69Zm23.93-455c-3.81,2.89-7.32,7.16-11,11.66-.77.94-1.54,1.87-2.32,2.8a11.58,11.58,0,0,0-2.4,4.19,75.17,75.17,0,0,0-1.37,9.74c-.12,1.18-.24,2.36-.37,3.54,3.73-4.25,7.52-8.52,11.3-12.74,4.87-5.44,8.27-10.25,9-16.06a6.82,6.82,0,0,0-.58-3.31l-.55,0A6.82,6.82,0,0,0,264.81,46.69Z"/>
      <path id="chop_board" data-name="chop board" class="cls-3" d="M86.68,192.52c5.18-15.91,12.41-31.15,18.57-46.75,2.7-6.85,8-11.29,13.39-15.75.6-.49,1.47-.69,2-1.25,5.27-6.05,55.91.68,62.54,2.66,8.15,2.43,16.22,1.83,24.38,1.17,1-.08,2.13-1.44,2.7-2.49,4-7.24,3.29-15.19,3.28-23,0-6.91-.52-30.25-.18-35.12.83-11.58,7.53-20.39,13.19-29.86C233.94,29.69,244.37,20,257,14.51c9.11-4,23.1-3.82,33.07,4.57,10.29,8.65,13.11,24.18,10.42,35.83-3.8,16.41-9.65,31.77-22.24,43.68-4.38,4.15-9.42,7.72-13.2,12.34a211.26,211.26,0,0,0-15.77,22.24c-2.11,3.39,2.16,9.87,6.21,10.86,17.65,4.32,35.31,8.56,52.92,13,7.47,1.91,15,3.84,22.1,6.82,3.1,1.31,6.08,4.9,7.33,8.14,2.22,5.73,3.28,11.95,4.39,18a20.94,20.94,0,0,1-.33,8.19q-4.61,19.74-9.64,39.36c-6.22,24-12,48.19-19.06,72-7.11,24.12-15.85,47.75-23.2,71.8-8.32,27.22-16,54.62-23.71,82-3.09,11-10.36,18.58-19.18,24.81-2.3,1.62-6.29,1.66-9.35,1.26-11.38-1.49-22.77-3.06-34-5.35-15.95-3.24-31.94-6.51-47.6-10.89-20.45-5.73-40.4-13.24-60.9-18.73-22.3-6-44.95-10.6-67.51-15.52-4.37-1-8.11-2.47-10.4-6.22-4-6.49-7.26-12.86-4-21.21,5.48-14,10.16-28.39,14.86-42.71,7.74-23.61,15.28-47.3,22.79-71,2.28-7.16,4.1-14.47,6.3-21.66a16.52,16.52,0,0,1,2.65-4.73c2-2.76,4.12-16.63,5.18-20.29.94-3.27,2.24-6.43,3.38-9.64C68.83,241.82,82.43,205.56,86.68,192.52ZM232.29,110.2l1.93.47a30.62,30.62,0,0,0,3.47-2.92c10-11.27,19.8-22.67,29.85-33.88,5.87-6.55,10.8-13.4,12-22.5.75-5.74-1.71-13.73-7.73-16-4-1.5-10.41-1-13.69,1.39-6.1,4.46-10.89,10.81-15.83,16.71a23.41,23.41,0,0,0-4.87,9.12c-1.27,5.33-1.49,10.91-2.18,16.39-.66,5.17-1.48,10.33-2,15.52S232.6,105,232.29,110.2Z"/>
      <path id="br" class="cls-2" d="M196.11,202.69c-5.06,3.1-8.52,6.3-12.55,7.38s-10.24,1.84-12.81-.38c-2.94-2.54-4-8.52-3.92-13,.14-5.44,3.49-13.32,4.82-18.75-.2-.19-4.56.18-7.7.47a1.67,1.67,0,0,1-1.9-1.66,1.4,1.4,0,0,0,0-.35,1.69,1.69,0,0,1,1.11-2.05c2.22-.57,10.29-2.71,10.29-2.71l4.36-8.87s.92-2.19,4,.28c2.05,1.66-.89,8.09-.89,8.09,4.35-.48,12-2.38,16.42-2.87a1.5,1.5,0,0,1,1.66,1.57v.06a4.5,4.5,0,0,1-3.11,4c-5.89,1.88-16.37,4.13-16.37,4.13s-9.18,23.23-3.15,26.25c3.48,1.73,10.79-1.5,14.92-4.5,5.11-3.7,8.91-9.33,12.9-14.42,1.91-2.43,2.61-5.81,4.5-8.28a10.24,10.24,0,0,1,.83-.93A3.31,3.31,0,0,1,215,179a8.65,8.65,0,0,1-.28,1.38c-1.71,5.53-5.81,11.42-8.38,17.91,2.84-.6,6.47-1.59,8.41-2,7.75-1.68,11.11,1.52,9.81,9.46-.31,1.9-1.56,7.25-1.7,8a4.57,4.57,0,0,0,5.26,5.23c3.09-.54,6-1.68,7.44-5.51a86.32,86.32,0,0,1,12.06-21.94c3.34-4.46,9.31-6.95,14.93-2.78s4.71,10.32,1.3,15c-4.05,5.55-9.57,10-14.34,15a10.13,10.13,0,0,0-.67.8c-1.48,2-4.49,7.25-2.19,8.1,10.38,3.85,11.94-.54,16-.92,2.52-.24,7.35,4.24,3.23,7.12l-.08.05c-13.35,9-22.56,6.57-31.32-7.6-6.66.71-15.48,5-19-2.7-1.94-4.22.61-13.17,1.62-19.8.29-1.93-9-1-12,2.12-1.67,1.72-4.73,13.2-6.57,14.6a5.25,5.25,0,0,1-.75.47,4.79,4.79,0,0,1-7.16-3.68,3.1,3.1,0,0,1,.08-1.22C191.68,212,193.78,208.15,196.11,202.69Zm52.95,7.92c4.12-2.7,7.52-5.9,9.1-10.35a4.67,4.67,0,0,0-1.77-5.43h0C253.18,199.56,248.29,210.08,249.06,210.61ZM135.28,262.89c9.35,16.42,6.13,28.09-11.1,35.39-8.74,3.7-18.62,5.27-28.16,6.4-8.43,1-11.4-3.17-8.49-11.16,6.48-17.81,13.6-35.37,20.29-53.1,1-2.61,9.26-24.51,16.88-24.84,5.78-.25,11.8-1.4,17.29-.2,11.92,2.6,16.69,12.38,12.88,24C151.46,249.86,144.14,257.1,135.28,262.89Zm-22.9-6.71a31.6,31.6,0,0,0,31.41-15c5.68-9.84,3-15.41-8.57-16.65-4.58-.49-10.34-2-12.75,3.77C118.78,237.24,115.85,246.47,112.38,256.18ZM98.19,293.26c.69.9,19.23-3.06,27.16-7.17,2.76-1.43,5.38-7.06,4.72-10s-5.28-6.65-8.57-7.11c-4.8-.67-12.41-.49-14.47,2.42C102.61,277.63,101,285.85,98.19,293.26Zm56.59-35c4.23-10.22,12.22-17.86,23.27-20.35,4-.9,10.26.48,12.87,3.27,2.27,2.41,2.32,8.91.79,12.52-4.91,11.56-15,17.62-26.76,20.38-3.86.91-5.48,2.41-5.77,5.92-.4,4.8-1.1,9.63-.86,14.41.29,6.05,4.08,8.21,9.53,5.78,9.74-4.33,19.21-9.26,29-13.58a7.07,7.07,0,0,1,.69-.27c3.85-1.28,7.64,2.76,5.59,6.26a3,3,0,0,1-1,1.05c-11.23,7-22.43,14.42-34.56,19.47-9.46,3.94-18.37-2.95-20.21-13.23C144.92,288.86,150.66,268.23,154.78,258.27Zm25.33-10c-9,3.62-14,9.35-14.53,16.23,6.68-3.25,12.87-6.67,16.54-14.11A1.57,1.57,0,0,0,180.11,248.26ZM76.05,349.91C72.28,361.4,69,372.57,64.84,383.43A11,11,0,0,1,63,386.48a3.46,3.46,0,0,1-6.19-2.2,10.14,10.14,0,0,1,.48-3.19q9.23-27.19,19.47-54c3.11-8.21,19.74-9.81,25.23-2.8,3.17,4,3.06,8.27-.08,12-2.77,3.28-6.23,6-9.64,9.17,8,8.22,8.36,18.27,5.17,28.78a172.24,172.24,0,0,1-7.34,20.53A6,6,0,0,1,88,397a3.46,3.46,0,0,1-5.49-2.48,6.77,6.77,0,0,1,.14-2.39c2.09-8,5.32-15.65,7.17-23.66C92.58,356.43,88.36,350.9,76.05,349.91Zm3.79-8.52c5.74-2.82,10.54-4.84,14.91-7.54a2.45,2.45,0,0,0,.87-1,4.27,4.27,0,0,0-2.88-5.94,3.49,3.49,0,0,0-1.63-.06C84.75,328.33,80.37,332.09,79.84,341.39ZM213.11,331c15.74-2.1,25.62-14.06,22.71-29.77-1.82-9.86-6.33-19.23-9.76-28.77-1.06-2.95-3.7-5.81-3.53-8.59.18-3.05,2.08-7.44,4.48-8.56,3.65-1.7,7.52.12,8.52,5.12,0,0,0,0,0,.05.6,2.89,4.65,3,5.81.34,1.67-3.88,1-7.52-2.65-10.16a24.53,24.53,0,0,0-15.21-4.07c-6.33.49-10.5,6-10.35,12.28.13,6.07,2,12.21,3.79,18.11,2.66,8.78,6.58,17.23,8.71,26.12a13.7,13.7,0,0,1-7.35,16.05c-5.84,3.05-11.19,2.45-15.57-3.11a2.84,2.84,0,0,0-.52-.52c-1.92-1.49-4.74.16-4.75,2.59C197.4,327.6,203.3,332.29,213.11,331ZM191.94,394.5c-2.31,6.37-4.91,14.45-8.25,22.21a4.64,4.64,0,0,1-.49.87c-2.18,3.11-7.47,1.06-6.94-2.7a4.36,4.36,0,0,1,.2-.81q10.75-30.87,22.36-61.44c1.13-3,3.9-6.94,6.43-7.37,6.33-1.09,13.41-1,16.92,6.17,6.26,12.75,3.75,35.56-15.32,42.85C202.9,395.79,197.88,394.5,191.94,394.5Zm3.58-7.81C211.41,384,220.09,370.6,215,356.88c-.82-2.21-3.66-4-6-5.11-.61-.3-3.5,2.21-4,3.85C201.67,365.73,198.74,376,195.52,386.69Zm53.77-60.63a33.2,33.2,0,0,0-1.51,10,5.55,5.55,0,0,0,3,4.24c1.42.46,3.9-.4,5-1.55,1.45-1.46,2.25-3.71,2.92-5.75,4.77-14.52,9.56-29.05,14.1-43.64,3.69-11.86,3.12-12.28,3.12-12.28s15.38.21,16-.29,1.42-1.22,2.1-1.86a4.54,4.54,0,0,0-.77-7.18,3.24,3.24,0,0,0-1.5-.47q-21.11-.52-42.22,0a2.7,2.7,0,0,0-1.39.51c-2.82,1.88-2.62,6.45.52,7.74a3.49,3.49,0,0,0,.7.2c5,.79,10.11.7,16.08,1C259.81,293.87,254.44,309.93,249.29,326.06Zm2.43,41.6a6,6,0,0,0,.61-.15c4.49-1.25,5.88-7.38,2-9.94a4.29,4.29,0,0,0-.79-.42c-7.35-2.95-14.49,1.16-17.05,8.74-2.78,8.25-5.76,16.44-8.59,24.67-4.25,12.37-8.49,24.74-12.63,37.14-1.25,3.76-2.51,8.72,2.58,9.73,5.54,1.11,11.54.32,17.27-.33a1.48,1.48,0,0,0,.84-.46,4.38,4.38,0,0,0-1.47-7,4.7,4.7,0,0,0-.9-.28c-2.74-.52-5.65-.14-9.27-.14,1.82-6,3.28-11.09,4.88-16.13,1.67-5.24,3.48-10.44,5.15-15.43,4.48.9,8.19,2.08,11.94,2.18,1.57,0,4.6-2.38,4.49-3.41a7.24,7.24,0,0,0-3.64-5.07c-2.77-1.19-6.06-1.17-9.58-1.74,2.17-7.69,4.24-15.06,6.51-23.13C247,367,249.53,368.11,251.72,367.66Zm-97.2-18.94a1.8,1.8,0,0,1,3.09,1.32,24.32,24.32,0,0,0,.29,5.52c.24,1.24,2.27,3.59,3.89,3.09,4.47-1.39,4.69-9.14,4-13.23-.7-4.38-5-9.45-8.47-10.16-2.55-.51-17.1,5.15-24.41,45.17-2.45,8.34-2.16,17.74-1.62,26.57.21,3.36,4.45,9,7,9.11,4.4.19,9.16-2.83,13.29-5.31.55-.33.62-1.47.56-2.81a4.12,4.12,0,0,0-4.18-3.92,10.06,10.06,0,0,0-2,.17,9.9,9.9,0,0,0-2.32.82,3,3,0,0,1-4.3-2.28C137.14,387.54,145.07,359.06,154.52,348.72ZM135.84,337a5.49,5.49,0,0,0,4.16-2c.58-.72.1-3.51-.53-3.75-5.32-2-13.92-5-19.32-4.9-2.77,0-3.77,5.24-4.86,8.84-6.6,21.79-12.46,43.8-18.67,65.7-1.35,4.76.74,7.4,5.08,7.49a45.49,45.49,0,0,0,12.8-1.93c1.29-.36,2.9-3.07,2.67-4.43s-2.6-2.83-4.18-3c-2.77-.31-5.65.34-9.63.68l12.14-38c.47.57,7.37,1.16,7.83,1.73l.12,0a3.64,3.64,0,0,0,1.22-6.36l-6.14-4.88c.43-1.7,1.27-4.73,2-7.79.72-3.24,1.3-6.52,2-9.8C127.33,335.48,131.56,336.53,135.84,337Zm50.7,8.24c-2.14-.32-3.95,2.68-4.59,4.49-8.34,23.46-16.55,47-24.42,70.6-.74,2.22-1,7.19,1.68,8s4.55-3.35,5.41-5.57c4.45-11.5,8.65-23.11,12.51-34.83,4.16-12.62,7.83-25.41,11.81-38.42C188.06,347.92,188.06,345.47,186.54,345.25Z"/>
    </g>
  </g>
</svg>
