<?xml version="1.0" encoding="utf-8"?>
<!-- Generator: Adobe Illustrator 23.0.1, SVG Export Plug-In . SVG Version: 6.00 Build 0)  -->
<svg version="1.1" id="Cancer" xmlns="http://www.w3.org/2000/svg" xmlns:xlink="http://www.w3.org/1999/xlink" x="0px" y="0px"
	 viewBox="0 0 457.4 457.4" style="enable-background:new 0 0 457.4 457.4;" xml:space="preserve">
<g>
	<path id="top" d="M107.1,269.9c4.6,0.6,9.3,0.8,13.9,0.9c46.2-0.3,89.2-27.1,109.2-68.9c19.4-40.6,13.8-88.7-12.3-124.1
		c43.3,1.3,85.8,14.1,120.9,40.2c17.4,13,32.1,29.8,42.3,49c2.6,4.8,4.4,10,7.7,14.4c4,5.3,9.1,9.6,15.3,12.2
		c13.2,5.6,28.1,3.7,39.3-5.4c9.5-7.6,14.6-19.8,13.8-31.9c-0.8-12.5-8.5-24.6-14.7-35.1c-13.3-22.3-30.9-42-51-58.3
		c-44.7-36.5-100.8-56.3-158-60.6C168.4-2.6,102.1,14,49,52.6c-0.5,0.4-1.1,0.9-1.5,1.4c-19.7,15.6-34.3,36-42,60.1
		c-7.6,23.6-7.1,49.8,0.5,73.3C20.6,232.2,60.7,263.8,107.1,269.9z M58.2,68.2c0.3-0.2,0.6-0.5,0.9-0.8
		C103.5,35.5,156,20,210.5,19.5c57-0.5,113.6,16.3,160,49.7c20.6,14.8,38.6,33.5,52.5,54.7c6.3,9.5,13.9,20.8,16.2,32.1
		c2,9.5-5.1,18.9-13.8,21.9c-11.1,3.8-20.9-3.2-25.3-13c-4.5-10-10.4-19.4-17-28.1c-14.4-18.7-32.4-34.1-52.7-46.1
		c-39.5-23.5-86.4-33.1-132-30.8c-7.6,0.4-12.3,9.7-6.4,15.4c31.6,30.6,41.2,78.7,22.1,118.7c-17.1,35.7-53.6,58.6-93,58.8
		c-41.3-0.3-79.7-25.5-95.4-64C8.4,146.4,21.8,96.1,58.2,68.2z M121,212.8c23.8-0.3,45.8-13.7,56.4-35c10.9-21.9,7.7-48.6-7.6-67.6
		c-15.2-18.9-39.9-26.7-63.4-21.6c-22.9,5-41.2,24.2-46.7,46.7C50.2,174.5,81.3,212.2,121,212.8z M102.2,108.9
		c18.2-9.1,42-2.8,54.3,13.1c12.8,16.7,12.6,40.5-1,56.6c-8.6,10.2-21.1,15.9-34.4,16c-21.2-0.3-38.9-14.7-43.9-35.2
		C72,138.9,83.7,118.2,102.2,108.9z"/>
	<path id="Bot" d="M62.2,391.5c43.8,37.3,99.4,58,156.4,63.2c66.8,6.1,135.3-10.3,189.8-49.9c0.5-0.4,1.1-0.9,1.5-1.4
		c19.7-15.6,34.3-36,42-60.1c7.6-23.6,7.1-49.8-0.5-73.3c-14.6-44.9-54.7-76.5-101.1-82.6c-4.6-0.6-9.3-0.8-13.9-0.9
		c-46.2,0.3-89.2,27.1-109.2,68.9c-19.4,40.6-13.8,88.7,12.3,124.1c-43.3-1.3-85.8-14.1-120.9-40.2c-17.4-13-32.1-29.8-42.3-49
		c-2.5-4.7-4.3-9.8-7.5-14.2c-3.8-5.2-8.7-9.4-14.6-12.1c-11.7-5.4-25.1-4.6-36.2,2c-11,6.5-17,18.4-18,30.9
		c-0.9,12.5,6.6,24.7,12.5,35.2C25.3,354.8,42.5,374.8,62.2,391.5z M31.3,279.7c9.3-3.4,19.3,0.8,24.2,9.1c2.7,4.5,4.6,9.6,7.1,14.2
		c2.8,5,5.9,9.8,9.3,14.4c13.8,19,31.6,34.7,51.4,47.1c40.2,25.1,88.7,35.3,135.7,33c7.6-0.4,12.3-9.7,6.4-15.4
		c-31.6-30.6-41.2-78.7-22.1-118.7c17.1-35.7,53.6-58.6,93-58.8c41.3,0.3,79.7,25.5,95.4,64c17.2,42.4,3.9,92.7-32.5,120.6
		c-0.3,0.2-0.6,0.5-0.9,0.8c-44.4,31.9-96.9,47.5-151.4,47.9c-57,0.5-113.6-16.3-160-49.7c-20.6-14.8-38.6-33.5-52.5-54.7
		c-6.3-9.5-13.9-20.8-16.2-32.1C16.3,292.2,22.9,282.7,31.3,279.7z M351,368.8c22.9-5,41.2-24.2,46.7-46.7
		c9.6-39.2-21.6-77-61.3-77.5c-23.8,0.3-45.8,13.7-56.4,35c-10.9,21.9-7.7,48.6,7.6,67.6C302.8,366.1,327.5,373.9,351,368.8z
		 M302,278.6c8.6-10.2,21.1-15.9,34.4-16c21.2,0.3,38.9,14.7,43.9,35.2c5.1,20.7-6.6,41.4-25.1,50.6c-18.2,9.1-42,2.8-54.3-13.1
		C288.2,318.6,288.3,294.7,302,278.6z"/>
</g>
</svg>
