<?xml version="1.0" encoding="utf-8"?>
<!-- Generator: Adobe Illustrator 23.0.1, SVG Export Plug-In . SVG Version: 6.00 Build 0)  -->
<svg version="1.1" id="capicorn" xmlns="http://www.w3.org/2000/svg" xmlns:xlink="http://www.w3.org/1999/xlink" x="0px" y="0px"
	 viewBox="0 0 499 499" style="enable-background:new 0 0 499 499;" xml:space="preserve">
<path id="outside" d="M388.7,213.5c-16.7,0.1-33.1,3.9-48.1,11.1c-5-26.5-11.2-52.7-19.7-78.4c-8-24.5-18.2-49-33.5-69.8
	c-16.5-22.5-39.7-39.1-68.2-40.8c-27-1.6-52.3,11-72.2,28.3c-14.4,12.6-26.1,28.3-36.1,44.8c-7.6-16.5-16.8-32.1-28.6-46.1
	C75.5,54.4,67.3,46.5,58,40.9c-22.2-13.3-51.6-1-57.2,24.5C-2.1,78.9,3.1,92.2,13,101.5c1.9,1.8,4.1,3.4,6.3,4.9
	c0.6,0.5,1.1,1,1.7,1.5c1.1,1,2.1,2.1,3.1,3.1c0.6,0.7,1.2,1.3,1.8,2c0.3,0.3,1.2,1.5,1.6,2c3.2,4.3,6.1,8.8,8.7,13.5
	c8.8,15.5,14.3,31.7,18.9,49.3c3.3,12.6,5.7,25.5,7.6,38.4c1,6.9,1.5,14,2.7,20.9c1.1,6.4,4.7,12.2,8.8,17.1
	c17,20.6,51.1,14.5,62.4-8.6c2.8-5.7,4-12.2,5.8-18.3c3.5-11.8,7.5-23.4,12-34.8c9.8-25.1,22.3-51.8,42.1-70.7
	c3-2.9,6.1-5.2,9.7-7.3c1.7-1,3.2-1.6,3.9-1.8c0.8-0.3,1.7-0.5,2.6-0.8c0.5-0.1,1-0.2,1.5-0.3c0.1,0,0.2,0,0.3,0c0.4,0,1.1,0,1.7,0
	c0.1,0,0.1,0,0.2,0c0,0,0.1,0,0.1,0c0.8,0.4,1.5,0.9,2.2,1.4c0.1,0,0.1,0.1,0.1,0.1c0.1,0.1,0.3,0.2,0.5,0.4
	c0.8,0.7,1.5,1.4,2.2,2.1c0.8,0.8,1.6,1.7,2.3,2.5c0.4,0.5,0.8,1,1.2,1.4c0.2,0.2,0.3,0.3,0.4,0.5c0,0,0.1,0.1,0.3,0.4
	c4.3,5.8,7.9,12.2,11.1,18.7c14,28.3,21.4,60,27.7,90.8c5.8,28.3,10,57,13,85.7c-8.3,13.9-17.9,26.9-28.9,38.8
	c-7.5,8.1-15.8,15.6-25,21.9c-4.6,3.1-9.4,5.9-14.4,8.3c-5.4,2.7-11.3,4-16.8,6.4c-24.8,10.5-29.8,43.7-11,62.2
	c21.4,21.1,53.5,4.9,74.9-7.7c20-11.8,37.7-27.6,53.1-45.1c33.1,34.4,85.5,43.4,128.8,22.4c42.7-20.6,66.8-68.7,60.1-115.2
	C490.2,254.1,442.6,213.9,388.7,213.5z M19.9,106.8C20.3,107.1,20.7,107.4,19.9,106.8L19.9,106.8z M422.4,410.2
	c-38.4,14.9-81.5,2.1-107-29.8c-2.9-3.6-9.8-3.5-12.7,0c-15.9,19.3-34.2,36.6-55.7,49.6c-11.3,6.8-24.1,13.1-37.1,15.7
	c-10.3,2-19.5-6.4-22-15.6c-2.6-9.8,3.6-18.9,12.1-22.9c4.9-2.3,10.6-3.5,15.6-5.7c5.5-2.4,10.7-5.4,15.7-8.7
	c19-12.4,34.4-29.4,47.9-47.5c4.8-6.4,9.2-13.1,13.3-19.9c2.4-3.9,3-7.1,2.5-11.7c-0.5-4.7-1-9.5-1.6-14.2
	c-3.4-28.1-7.8-56-13.8-83.6c-5.7-26.5-13-52.7-23.8-77.6c-5.5-12.8-12.4-26.1-22.5-36c-28.4-27.8-62.4,18.8-75.3,40.9
	c-14.3,24.4-24.6,51.5-32.8,78.5c-1.6,5.2-2.5,11.3-4.9,16.2c-4.5,9.2-14.8,12.9-24.3,10.1c-11.7-3.4-13.3-14.9-14.5-25.2
	c-1.7-13.9-4-27.6-7.1-41.3c-4.4-19.3-10.7-38.3-19.6-56c-5-9.9-11.1-19.6-18.7-27.8c-2.1-2.3-4.4-4.3-6.9-6.2
	C22.6,86.4,17.8,80.8,18,71.9c0.3-13.4,15.7-22.3,27.7-17.1c2.1,0.9,4.1,2.3,6,3.6c0.4,0.3,1.9,1.4,2.3,1.7c1.2,1,2.5,2,3.6,3.1
	c20.4,18,33.8,43.3,43.4,68.5c2.6,6.8,12.5,9.6,16.4,2.1c13-24.5,29.1-48.7,52.2-64.8c19.8-13.8,46.4-20.6,69.4-10.6
	c24.1,10.4,39.1,33.9,50.2,56.6c11.9,24.6,19.6,51.2,26.1,77.7c3.9,16,7.1,32.1,10,48.3c1,5.7,8.6,8.3,13.2,5.4
	c15.2-9.6,32.1-14.6,50.1-14.8c44.5,0.3,82.3,32.2,91,75.6C488.2,350,462.8,394.5,422.4,410.2z"/>
<path id="round" d="M408.3,275.4c-23.3-9.7-49.5-0.4-63.5,19.9c-14,20.2-10,48,6.4,65.4c9.4,10,22.9,15.3,36.4,15.8
	c0.4,0,0.7,0,1.1,0c0.4,0,0.7,0,1.1,0c24.2-0.9,45.3-17.9,50.3-41.8C445.3,309.9,431.4,285,408.3,275.4z M388.7,358.5
	c-19-0.3-34.2-15.4-34.5-34.5c-0.3-18.4,15-33.7,33.1-34.5c18.9-0.9,35,14.4,35.9,33.1C424.1,342.2,407.9,358.2,388.7,358.5z"/>
</svg>
