<svg id="icons" xmlns="http://www.w3.org/2000/svg" width="480.27" height="519.33" viewBox="0 0 480.27 519.33">
  <defs>
    <style>
      .cls-1 {
        fill: #51a8ce;
      }

      .cls-2 {
        fill: #fff;
      }

      .cls-3 {
        fill: #232323;
      }
    </style>
  </defs>
  <title>Artboard 6</title>
  <g id="icons-2" data-name="icons">
    <g id="cook_at_home" data-name="cook at home">
      <path id="bluebg" class="cls-1" d="M46.58,272.28c3.8-25.93,6.94-49.62,10.81-73.18q5.7-34.68,12.67-69.16c2.65-13,6.54-25.83,10-38.69A85,85,0,0,1,85,77c1-2.05,3.61-3.73,5.86-4.68,29.58-12.52,60-21.12,92.52-21.49,20.37-.23,40.73-2.1,61.09-2,7.07,0,14.18,3.68,21.17,6C301.19,66.51,337,77.63,372.22,90.32c13,4.67,24.68,13,36.86,19.89,8.07,4.54,16.07,9.23,23.86,14.22a7.67,7.67,0,0,1,3.05,5.7c-.58,13.43-1.44,26.84-2.47,40.25-3,38.53-6.17,77.06-9.1,115.6-1.52,20.09-5.84,39.62-9.92,59.31-6.35,30.68-22.43,57.1-34.52,85.26-4.54,10.59-9.35,21.09-14.72,31.26a98.76,98.76,0,0,1-12.05,17.43c-2,2.35-5.74,3.74-8.94,4.48-25.41,5.88-50.88,11.51-76.33,17.2a24.48,24.48,0,0,0-4.44,1c-16.46,7.23-31.9,2.61-47.59-3.24-22-8.2-44.51-14.94-66.3-23.59-14.18-5.63-27.64-13.18-41.08-20.5-24.44-13.32-48.65-27.05-72.85-40.8-1.49-.86-3.06-3.46-2.9-5.09C37.33,362.42,42.09,316.2,46.58,272.28Zm107.18,233.4q-11.58-6.18-23.43-11.82c-9.38-4.47-19.07-8.33-28.28-13.12q-46.1-24-91.91-48.49c-9.5-5.1-13-4.05-14,6.49-1.5,15.46-2.24,31-3.49,46.46-1,12.26,1.09,15.15,13.4,17.41,2.24.41,4.52.57,6.76,1C24.91,505.83,37,508,49.12,510.4c18.75,3.7,37.43,7.76,56.22,11.25,8.74,1.62,17.73,1.84,26.46,3.47,8.44,1.56,16.87-1.08,25.32,1,4.85,1.2,10.12.63,15.18,1,8.41.68,10.18-.95,10.45-10.71-9,.31-16-7.47-26.27-7.47C156,508.45,155.23,506.46,153.76,505.68Zm258-490.26c-13.05-5.54-26.19-11-39.6-15.57C361.58-3.81,351.3-9,339.32-7.8c-12.32,1.25-24.77,2.42-37.11,2-9.93-.37-15.09,5.2-20.4,11.63-4.21,5.1-8.44,10.18-12.53,15.37a71.85,71.85,0,0,0-4.09,6.57c6.55,1,11.83,1,16.61,2.58,10.42,3.44,20.62,7.54,30.85,11.55,22,8.64,44.08,17.27,66,26.22,3.71,1.52,6.08,1,8.37-1.81,2.71-3.33,5.3-6.75,8.06-10,9.22-11,18.48-21.91,28.05-33.25C419.25,20.35,415.84,17.13,411.79,15.42Zm36.49,90.48,39.58-52.69L450.29,21.88,398.17,81Z"/>
      <path id="chopboardbg" class="cls-2" d="M360,499c-10.95,0-15.63-8.88-17.39-12.22l-.11-.23c-3-5.74-6-11.57-8.87-17.21-2.23-4.38-4.46-8.77-6.73-13.13l-.62-1.2c-2.18-4.19-4.24-8.15-6.56-11.7a5.51,5.51,0,0,0-3.08-2.52,2.32,2.32,0,0,0-.95.49c-11.9,8.49-24.32,13.69-36.91,15.44a108.63,108.63,0,0,0-16.16,4.07c-1.84.55-3.68,1.11-5.52,1.64a21.93,21.93,0,0,1-6.17.95,18.26,18.26,0,0,1-13.66-6.23c-8-8.54-16.28-17.18-24.26-25.54-14.52-15.21-29.54-30.93-43.93-46.86-13-14.36-24.6-30.13-34.26-43.66-13.44-18.82-26.63-38.44-39.22-58.3-6.21-9.82-11.65-20.06-16.91-30-1.81-3.4-3.61-6.79-5.44-10.17C67.41,232,61.63,221,56.07,210.16a37.41,37.41,0,0,1-3.1-9.64l-.18-.81c-1.06-4.84-.76-11.94,6.7-18.28a27,27,0,0,0,3.32-4.19c1-1.36,2-2.89,3.28-4.42l.81-1a84.81,84.81,0,0,1,8.06-9c4.63-4.31,9.39-8.48,14-12.52l5.39-4.73a16.6,16.6,0,0,1,1.55-1.21c.67-.52,1.35-1,2-1.44a5.06,5.06,0,0,0-.67-1.26C86,127.67,74,114.18,63.75,102.82c-3.61-4-8.55-9.46-8-17.23s6.36-12.73,9.16-15.1a347.88,347.88,0,0,1,35.7-27c7.25-4.69,14.9-8.11,22.3-11.41,3-1.34,5.83-2.61,8.63-3.95a37.78,37.78,0,0,1,4.56-1.77c.54-.18,1.14-.38,1.8-.62l10-3.61,11.73,21.14c5.5,9.88,10.95,19.7,16.4,29.54,1.23,2.23,2.43,4.47,3.62,6.71.94,1.75,1.85,3.45,2.76,5.12a52.72,52.72,0,0,0,6.65-3.44c1.59-.92,3.24-1.86,5-2.78l1-.53A31.26,31.26,0,0,1,201.73,75c2.83-.78,5.65-1.58,8.47-2.38,9.67-2.76,19.67-5.61,30-7.56a18.39,18.39,0,0,1,3.43-.32c7.87,0,15.81,4.89,19.85,9.43,5,5.59,9.41,11.47,13.69,17.16,2.65,3.53,5.16,6.86,7.79,10.13q13.45,16.69,27,33.33c12.64,15.57,25.7,31.66,38.44,47.61,10.82,13.55,21.32,27.6,31.47,41.18l2.09,2.79c6.38,8.54,12.51,17.37,18.19,25.64,15.41,22.49,27.51,46,38.3,68,4.51,9.22,3.77,18.79-2.07,26.95-1.78,2.47-3.46,5.19-5.24,8.07-3.28,5.32-6.67,10.82-11.31,15.86-6.35,6.9-13.51,12.55-20.44,18l-.06.05,5.45,5c5.81,5.31,11.82,10.8,17.66,16.37a109,109,0,0,1,10.87,12.42c7.54,9.76,7.1,23.31-1,31.52l-3.5,3.56c-7.39,7.51-15,15.28-23.34,22.4-14.57,12.48-32.26,16.57-44.29,18.56A19.63,19.63,0,0,1,360,499Z"/>
      <path id="chopboard" class="cls-3" d="M142.11,37.51c7.72,13.89,15.35,27.61,22.95,41.35,3.14,5.67,6.07,11.46,9.33,17.06,2.74,4.69,7.39,2,10.33,1.12,5.3-1.52,10.07-4.92,15.08-7.51a28.57,28.57,0,0,1,5.26-2.47c12.43-3.44,24.79-7.31,37.43-9.71,3.5-.67,9,2.18,11.61,5.14,7.55,8.47,13.94,18,21.07,26.8,21.75,27,43.77,53.81,65.41,80.91,11.42,14.3,22.35,29,33.31,43.66,6.18,8.25,12.06,16.72,17.89,25.22,14.42,21,26.2,43.57,37.39,66.43,2.38,4.86,2.38,9.44-1,14.15-5.37,7.48-9.44,16.06-15.6,22.76-7.05,7.66-15.65,13.94-23.83,20.51-5.35,4.3-5.69,6.2-.48,11,9.16,8.48,18.47,16.79,27.51,25.4a96.74,96.74,0,0,1,9.59,11c3.61,4.67,3.73,11.29,0,15.08-8.51,8.61-16.92,17.38-26.09,25.25C388.4,480,375,484.11,361.08,486.41c-4.29.7-6-2.75-7.53-5.68-5.29-10-10.32-20.21-15.56-30.28-2.47-4.74-4.9-9.53-7.82-14-4.39-6.68-13.22-11.45-21.77-5.35-9.11,6.51-19.59,11.59-31.36,13.24-7.94,1.1-15.67,3.84-23.42,6.08-3,.85-4.93.63-7.24-1.82-22.64-24.11-45.86-47.69-68-72.23C166.3,363,155.47,348.5,145,333.84q-20.22-28.3-38.83-57.73c-8-12.68-14.76-26.19-21.93-39.41q-8.71-16-17-32.26A30.26,30.26,0,0,1,65,197c-.56-2.55.32-4.16,2.57-6.07,3.27-2.78,5.43-6.84,8.2-10.24a84.43,84.43,0,0,1,7.7-8.74c6.25-5.82,12.75-11.38,19.15-17,.24-.22.53-.38.78-.58,2.79-2.21,7.87-4.4,7.9-6.65.05-4.67-1.42-10.3-4.31-13.9-10.85-13.51-22.35-26.53-34-39.4-5.94-6.57-6.9-8.61-.07-14.38A339.5,339.5,0,0,1,107.38,54c9.16-5.93,19.63-9.83,29.54-14.59C138.34,38.72,139.9,38.31,142.11,37.51Zm5.47,84.07c9.72-7,9.55-6.94,2.94-17S135.58,85.71,131.94,73.8c-.5-1.65-5.34-3.65-7.13-2.92-5.61,2.28-10.79,5.66-15.94,9-.75.47-1,3-.41,4.1,3.09,5.78,6.26,11.53,9.86,17,4.14,6.28,8.61,12.34,13.18,18.31C138.37,128.18,138.58,128.13,147.58,121.58ZM395.78,437.8c-3.59-4.69-6.29-9.4-10.07-12.94-8-7.46-16.52-14.35-24.95-21.33A4.2,4.2,0,0,0,357,403c-2.81,1.53-5.32,3.61-8,5.35-2.34,1.51-2.73,2.88-1.13,5.5,6.37,10.45,12.45,21.07,18.61,31.64,1.35,2.32,2.57,4.7,3.81,7Z"/>
      <path id="cah" class="cls-2" d="M261.84,281.79c15.4,9.25,46,26.61,46.78,26-2.22-5.78-4.16-11.67-6.7-17.31-4.73-10.51-9.9-20.83-14.63-31.35a6.3,6.3,0,0,1-.47-2.23,3.13,3.13,0,0,1,3.88-3.25,4.45,4.45,0,0,1,2.13,1.08,199.91,199.91,0,0,1,13,15.32q22.73,29.32,45.24,58.81a21,21,0,0,1,3.11,4.55c.45,1.09.38,3.28-.29,3.72-1.11.73-3.45,1.14-4.27.46a52.58,52.58,0,0,1-7.72-7.85c-10.61-13.38-21.07-26.88-32.7-39.82,1.8,4.94,3.67,9.86,5.39,14.83a35.61,35.61,0,0,1,2.2,8c.21,2,0,5.2-1.28,6.06-1.42,1-4.55.59-6.35-.34-8-4.12-15.73-8.63-25.32-14,1.53,2.71,2,3.81,2.7,4.75,10.57,14.59,21.25,29.1,31.63,43.82,1.3,1.85,3.46,5.87,1.41,7.29s-5-2.05-6.41-3.91c-11.85-15.93-23.25-32.21-35.22-48.06-4.55-6-10.28-11.14-15.43-16.71-1.7-1.85-3.8-3.56-5-5.61A3.13,3.13,0,0,1,261.84,281.79Zm-11,91.64a101.38,101.38,0,0,0,16.51,11.27,5.06,5.06,0,0,0,2.65.45,4.12,4.12,0,0,0,3.23-6.34,8.65,8.65,0,0,0-1.68-2c-8.91-7.29-18.83-13.45-27.13-21.34-13.9-13.19-26.84-27.41-40.23-41.14-1.31-1.35-2.59-3.79-4.47-3.51-4.09.61.39,6.5,2.07,8.62,5.88,7.43,12.07,14.61,18.1,21.92,6.18,7.48,6.12,7.79-2.14,14.52a6.57,6.57,0,0,1-1.71-.87c-10.9-10.33-21.71-20.75-32.71-30.95a7.16,7.16,0,0,0-1.8-1.17,2.83,2.83,0,0,0-3.94,3.15,5,5,0,0,0,.74,1.91,74.26,74.26,0,0,0,10.37,12.93c18.58,17.36,37.4,34.47,56.24,51.55a40.48,40.48,0,0,0,9.17,6.16,2.7,2.7,0,0,0,.57.18c3,.6,5.2-2.71,4.2-5.62a5.72,5.72,0,0,0-.28-.68c-.66-1.29-2.48-2-3.7-3-10.15-8.66-20.29-17.34-30.28-25.89l6.83-7.85C237.89,361.68,244.11,367.86,250.84,373.43ZM288.77,336c-9.24-12-18.89-24-29.74-34.54-5.45-5.32-13.71-8-21-11.11-4.58-2-8.18,0-10.61,4.83-5.32,10.56-2.63,20.18,2.76,29.53,11.16,19.36,28,32.13,48,41.31,11.38,5.23,17.93,1,17.47-15C294.29,348,292.67,341.11,288.77,336Zm-50.54-14.25c-3.24-5.07-5.19-11.27-6.42-17.23-1-4.64,1.79-7.68,7.11-5.49,3.8,1.57,8.44,2.68,11,5.53,11.45,12.91,22.57,26.16,33.15,39.79,1.7,2.19,2.36,5.17,3,8.2a2.86,2.86,0,0,1-3.8,3.23C263.29,348.86,248.58,337.94,238.23,321.78Zm91.34-83.37c1.84-.82,4.91-3.06,4.27-5.25-.69-2.35-5-2.81-6.86-2.24a140.63,140.63,0,0,0-17.3,6.94c-6.85,3.1-8.45,6.26-4.14,12.4,18.7,26.6,37.87,52.86,57,79.15,2.48,3.41,6.73,4.72,9.58,1.36,4.26-5,7.62-10.88,10.87-16.66.73-1.3.8-4.87-1-5.69s-4.12,1.62-5.26,3.13c-3,3.94-5.48,8.28-8.68,13.25l-26.37-34.12c4.21-3.41,7.8-5.92,10.84-9,1.08-1.09,2.47-4,1.17-5.35s-4.11.09-5.57,1.05c-3.39,2.21-6.41,5-10.3,8.14l-28.91-39.11C316.4,243.58,323.12,241.31,329.57,238.41ZM173.38,176.16c-12.59.55-21.24,9.88-21,22.63.28,14.44,9.91,25.05,22.41,24.71,13.32-.37,20.09-8.26,19.67-23C194.13,188.19,183.34,175.72,173.38,176.16ZM171,187.57c5.71-.46,12.7,6.9,13,13.75.34,6.67-3.73,11.79-9.55,12-6,.25-12.15-7.51-12.51-15.8C161.7,191,164.27,188.12,171,187.57Zm61.33-18.38c-1.42-9.77-8.19-15.15-16.27-19.15-7.34-3.63-12.59.68-17.92,5.15-7.48,6.28-7.39,14.3-6,22.74,2.07,12.36,10.77,21.06,20.53,20.66s18.21-9.87,19.63-21.8c.16-1.37.15-2.76.16-2.86C232.4,171.49,232.49,170.32,232.32,169.19Zm-23.93-8.93c4.47-.85,12,5.34,13,10.44a15.15,15.15,0,0,1,.11,4.8c-.77,5.7-2.58,11.36-8.87,12.49s-8.21-4.82-10.33-9.25c-1.25-2.62-1.53-5.7-2.25-8.57C199.22,163.66,203.16,161.25,208.39,160.26Zm24.78-26.1a3.56,3.56,0,0,0-.49-.6,4.23,4.23,0,0,0-6.65,1.3,8,8,0,0,0-.62,1.52,6.87,6.87,0,0,0,.73,4.71c6.7,11.84,13.4,23.69,20.53,35.28,1,1.55,5.37,2.93,6.22,2.18a9.26,9.26,0,0,0,2.71-6.93c-.28-2.72-2.31-5.25-3.79-8.31,6.24.6,11.95,1.6,17.64,1.45,1,0,2.06-.85,3.07-1.87a4.29,4.29,0,0,0,.19-5.81,10.82,10.82,0,0,0-2.17-2c-1.39-.93-3.56-.69-5.38-1l-18.49-3c3.18-6.41,6.24-11.62,8.26-17.21a4.2,4.2,0,0,0-.37-2.85,4.29,4.29,0,0,0-6.08-2.12,5,5,0,0,0-2.06,1.81c-2.42,4.37-3.84,9.29-6.4,15.87C237.15,141.31,235.43,137.56,233.17,134.16ZM139.85,208.8c1.49.3,4.09-.28,4.66-1.3s.09-4.32-.84-4.78c-3.95-1.95-8.49-4.83-12.32-4.24-3.36.52-7.73,4.72-8.77,8.17-3.65,12.08-.41,23.82,4.8,34.87,4.55,9.66,13.12,14.54,20.87,12.73C157.73,252,167.14,241,167,231.66a3.47,3.47,0,0,0-.1-.78c-.92-3.85-6.18-5-8.8-2l-.15.18c-2.73,3.4-4.44,7.63-7.26,10.93-4.77,5.59-10,5.49-13.36-1-3-5.74-4.66-12.15-6.65-18.39a14.73,14.73,0,0,1-.55-6.56C131,207.8,132.75,207.41,139.85,208.8Zm104.91,4.26a6.07,6.07,0,0,0,1-1c1.95-2.57.73-6.54-2.43-7.18a2.77,2.77,0,0,0-1.28,0c-10.83,3-18.13,10.64-24,19.71-.65,1,.18,3.5,1.1,4.71.43.55,3,0,4.16-.69a49,49,0,0,0,5.59-4.81,59.41,59.41,0,0,0,5.4,7.65c5,5.41,8.67,9.77,14.21,14.57a3.93,3.93,0,0,0,3,.41,4.59,4.59,0,0,0,4-5,9.34,9.34,0,0,0-.85-3.2c-1-1.89-3.53-2.89-5.15-4.52-4.67-4.71-7.53-9.35-13-15.05A40.3,40.3,0,0,0,244.76,213.06ZM290.39,192a202.48,202.48,0,0,0-18.87,15,2.09,2.09,0,0,0-.59,1.09c-.6,2.48,1.61,5,4.06,4.31a2.72,2.72,0,0,0,.58-.24q9.72-5.93,19-12.47a8.78,8.78,0,0,0,2.06-2.3,3.53,3.53,0,0,0-2.22-5.47C292.67,191.52,291.27,191.36,290.39,192ZM178.6,284.1a2.57,2.57,0,0,0,.68-1.65,4.48,4.48,0,0,0-4.75-5,2.92,2.92,0,0,0-1.28.4,173.85,173.85,0,0,0-16.08,11.73c-1,.79-1.39,3.58-.75,4.71.47.82,1.72,1.21,3.36,1.76a4.64,4.64,0,0,0,4.26-.67C169,291.73,174,288.14,178.6,284.1Zm50.31-20.77c-2.67,4.06-6.36,1.69-9.29-1-.68-.62-1.43-1.15-2.27-1.82-6.43,2.76-8.79,6.72-7.4,13.31a3,3,0,0,1,.06.74c-.13,3.62-5.34,4.14-6.75.8a6.61,6.61,0,0,1-.28-.74q-5-16.5-9.23-33.2a10.83,10.83,0,0,1,.17-4.58,3.43,3.43,0,0,1,3.46-2.78c1.93,0,3.83.12,5.09,1.06a304.19,304.19,0,0,1,24.08,19.61C228.49,256.53,230,261.63,228.91,263.33Zm-17-10.89-7.77-4.89c.92,2.53,1.9,7.59,2.82,10.12C207,257.43,211.49,252.33,211.86,252.44Z"/>
    </g>
  </g>
</svg>
