<svg id="cook" xmlns="http://www.w3.org/2000/svg" width="495.45" height="535.3" viewBox="0 0 495.45 535.3">
  <defs>
    <style>
      .cls-1 {
        fill: #51a8ce;
      }

      .cls-2 {
        fill: #fff;
      }

      .cls-3 {
        fill: #232323;
      }
    </style>
  </defs>
  <title>cook</title>
  <g id="cook_at_home" data-name="cook at home">
    <path id="bluebg" class="cls-1" d="M54.17,280.27C58,254.33,61.11,230.65,65,207.09q5.7-34.69,12.67-69.16c2.65-13,6.53-25.84,10-38.7A85,85,0,0,1,92.54,85c1-2,3.6-3.72,5.86-4.68,29.58-12.51,60-21.11,92.52-21.48,20.37-.23,40.73-2.11,61.09-2,7.07,0,14.17,3.68,21.17,6C308.78,74.5,344.57,85.62,379.8,98.3c13,4.68,24.68,13,36.87,19.9,8.07,4.54,16.07,9.22,23.86,14.22a7.67,7.67,0,0,1,3.05,5.7c-.58,13.42-1.44,26.84-2.48,40.24-3,38.54-6.17,77.06-9.09,115.61-1.52,20.09-5.85,39.62-9.92,59.31-6.35,30.67-22.43,57.09-34.52,85.26-4.54,10.58-9.35,21.08-14.73,31.26a98.47,98.47,0,0,1-12,17.42c-2,2.36-5.74,3.75-8.95,4.49-25.4,5.88-50.87,11.5-76.33,17.2a24.36,24.36,0,0,0-4.43.95c-16.46,7.24-31.9,2.62-47.59-3.24-22-8.2-44.51-14.94-66.3-23.58-14.18-5.63-27.65-13.19-41.09-20.51-24.43-13.31-48.64-27-72.84-40.8-1.5-.85-3.06-3.46-2.9-5.08C44.91,370.41,49.68,324.19,54.17,280.27ZM161.35,513.66q-11.58-6.16-23.44-11.81c-9.37-4.47-19.06-8.34-28.27-13.13q-46.1-24-91.91-48.49c-9.5-5.1-13-4.05-14,6.5-1.5,15.45-2.24,31-3.49,46.46-1,12.26,1.08,15.14,13.4,17.4,2.24.41,4.52.57,6.76,1,12.11,2.24,24.24,4.42,36.32,6.8,18.75,3.71,37.44,7.77,56.23,11.26,8.73,1.62,17.73,1.84,26.46,3.46,8.43,1.57,16.87-1.07,25.32,1,4.84,1.2,10.12.63,15.18,1,8.41.69,10.18-.94,10.45-10.7-9,.3-16-7.48-26.28-7.47C163.63,516.43,162.81,514.44,161.35,513.66Zm258-490.26c-13.06-5.53-26.2-11-39.6-15.57C369.16,4.18,358.89-1,346.91.18c-12.32,1.26-24.77,2.43-37.11,2-9.93-.37-15.09,5.2-20.41,11.64C285.19,18.88,281,24,276.87,29.15a75.79,75.79,0,0,0-4.1,6.58c6.56,1,11.84,1,16.61,2.58,10.43,3.43,20.63,7.54,30.86,11.55,22,8.64,44.08,17.27,66,26.22,3.71,1.51,6.07,1,8.37-1.82,2.7-3.33,5.3-6.75,8.06-10,9.21-11,18.48-21.9,28-33.24C426.83,28.33,423.42,25.12,419.38,23.4Zm36.48,90.49L495.45,61.2,457.87,29.86c-17.39,19.75-34.34,39-52.11,59.15Z"/>
    <path id="chopboardbg" class="cls-2" d="M367.58,507c-10.95,0-15.63-8.88-17.39-12.22l-.12-.22c-3-5.74-6-11.57-8.87-17.21q-3.33-6.59-6.73-13.14l-.62-1.19a132.51,132.51,0,0,0-6.56-11.7,5.42,5.42,0,0,0-3.07-2.52,2.46,2.46,0,0,0-1,.48c-11.9,8.5-24.31,13.69-36.91,15.45a108.85,108.85,0,0,0-16.16,4.06c-1.84.56-3.67,1.12-5.51,1.65a22.26,22.26,0,0,1-6.17.94,18.24,18.24,0,0,1-13.66-6.22c-8-8.55-16.28-17.19-24.26-25.54-14.53-15.21-29.55-30.94-43.93-46.86-13-14.37-24.6-30.13-34.26-43.66-13.44-18.83-26.64-38.44-39.22-58.31-6.21-9.81-11.65-20.06-16.92-30-1.8-3.39-3.6-6.79-5.43-10.16C75,239.93,69.22,229,63.66,218.14a37.41,37.41,0,0,1-3.1-9.64l-.18-.8c-1.06-4.84-.76-11.95,6.7-18.28a26.65,26.65,0,0,0,3.32-4.2c.95-1.35,2-2.89,3.28-4.41l.81-1a84.81,84.81,0,0,1,8.06-9c4.63-4.31,9.39-8.49,14-12.52,1.8-1.58,3.6-3.15,5.39-4.74a16.12,16.12,0,0,1,1.55-1.2c.67-.52,1.35-1,2-1.44a5,5,0,0,0-.67-1.27c-11.25-14-23.25-27.49-33.51-38.84-3.6-4-8.54-9.46-8-17.23s6.35-12.74,9.16-15.1a348.13,348.13,0,0,1,35.7-27c7.24-4.68,14.9-8.1,22.3-11.41,3-1.34,5.83-2.61,8.62-3.95a38.38,38.38,0,0,1,4.57-1.76l1.8-.62,10-3.61,11.74,21.13C172.7,61.13,178.16,71,183.6,80.78q1.85,3.34,3.63,6.72c.94,1.74,1.85,3.45,2.76,5.11a52,52,0,0,0,6.64-3.44c1.6-.91,3.25-1.86,5-2.77l1-.53A30.76,30.76,0,0,1,209.32,83c2.82-.78,5.65-1.59,8.47-2.39,9.67-2.75,19.67-5.6,30-7.55a18.57,18.57,0,0,1,3.44-.32c7.86,0,15.8,4.89,19.85,9.43,5,5.58,9.4,11.47,13.69,17.15,2.65,3.53,5.16,6.87,7.79,10.13q13.46,16.71,27,33.34c12.63,15.56,25.7,31.65,38.44,47.61,10.82,13.55,21.32,27.59,31.47,41.18l2.08,2.79c6.39,8.53,12.52,17.36,18.19,25.64,15.41,22.48,27.52,46,38.3,68,4.52,9.23,3.78,18.8-2.07,26.95-1.77,2.48-3.45,5.2-5.23,8.08-3.28,5.31-6.68,10.81-11.32,15.86-6.34,6.89-13.5,12.54-20.43,18l-.06.05q2.72,2.51,5.45,5c5.81,5.31,11.82,10.8,17.66,16.36a109,109,0,0,1,10.87,12.42c7.53,9.76,7.1,23.31-1,31.53l-3.5,3.55c-7.39,7.51-15,15.28-23.35,22.4-14.56,12.49-32.25,16.57-44.29,18.56A19.41,19.41,0,0,1,367.58,507Z"/>
    <path id="chopboard" class="cls-3" d="M149.7,45.49c7.71,13.89,15.35,27.61,23,41.35,3.14,5.67,6.07,11.47,9.33,17.07,2.74,4.69,7.39,2,10.32,1.11,5.31-1.51,10.08-4.92,15.09-7.5A28.62,28.62,0,0,1,212.65,95c12.43-3.43,24.79-7.31,37.43-9.71,3.5-.66,9,2.19,11.61,5.15,7.54,8.46,13.94,17.94,21.07,26.8,21.75,27,43.77,53.8,65.41,80.9,11.42,14.31,22.35,29,33.31,43.66,6.17,8.25,12.06,16.72,17.89,25.23,14.42,21,26.2,43.57,37.38,66.43,2.38,4.86,2.38,9.44-1,14.15-5.36,7.48-9.43,16.06-15.59,22.76-7.05,7.66-15.66,13.93-23.83,20.5-5.35,4.31-5.69,6.21-.48,11,9.15,8.48,18.47,16.79,27.5,25.4a94.91,94.91,0,0,1,9.6,11c3.61,4.67,3.73,11.3,0,15.08-8.51,8.61-16.92,17.39-26.09,25.25C396,488,382.59,492.09,368.67,494.39c-4.29.71-6-2.74-7.53-5.68-5.3-10-10.33-20.21-15.56-30.27a157.87,157.87,0,0,0-7.83-14c-4.38-6.68-13.21-11.46-21.76-5.35-9.11,6.5-19.59,11.59-31.36,13.23-7.94,1.11-15.67,3.85-23.43,6.09-2.95.85-4.92.63-7.23-1.83-22.64-24.11-45.86-47.69-68-72.22-12.05-13.35-22.89-27.89-33.35-42.54q-20.22-28.31-38.84-57.73c-8-12.68-14.75-26.2-21.93-39.41q-8.7-16-17-32.26A30.63,30.63,0,0,1,72.61,205c-.56-2.54.32-4.16,2.57-6.07,3.27-2.77,5.43-6.84,8.2-10.24a85.48,85.48,0,0,1,7.7-8.74c6.25-5.82,12.75-11.37,19.15-17,.24-.21.53-.38.78-.58,2.79-2.21,7.87-4.4,7.9-6.64,0-4.67-1.42-10.31-4.31-13.9-10.86-13.52-22.35-26.53-34-39.4-5.94-6.58-6.9-8.62-.07-14.39A340.49,340.49,0,0,1,115,62c9.16-5.92,19.64-9.83,29.55-14.58C145.93,46.7,147.49,46.29,149.7,45.49Zm5.47,84.08c9.71-7.06,9.54-6.95,2.94-17s-15-18.92-18.58-30.82c-.51-1.65-5.34-3.65-7.13-2.93-5.61,2.28-10.8,5.67-15.94,9-.75.48-1,3.06-.42,4.11,3.09,5.77,6.27,11.53,9.87,17,4.13,6.27,8.61,12.34,13.18,18.3C146,136.17,146.17,136.11,155.17,129.57Zm248.2,316.22c-3.59-4.7-6.29-9.4-10.08-12.94-8-7.46-16.52-14.35-24.94-21.33a4.17,4.17,0,0,0-3.76-.52c-2.81,1.52-5.32,3.6-8,5.34-2.34,1.51-2.73,2.89-1.13,5.51,6.37,10.44,12.45,21.06,18.61,31.64,1.35,2.31,2.57,4.7,3.81,7Z"/>
    <path id="cah" class="cls-2" d="M269.42,289.78c15.4,9.25,46.05,26.61,46.79,26-2.22-5.77-4.17-11.67-6.7-17.3-4.73-10.52-9.9-20.84-14.63-31.36a6.2,6.2,0,0,1-.47-2.22,3.13,3.13,0,0,1,3.88-3.26,4.46,4.46,0,0,1,2.13,1.09,200.26,200.26,0,0,1,13,15.32q22.72,29.31,45.24,58.81a21.29,21.29,0,0,1,3.11,4.54c.44,1.09.38,3.29-.29,3.73-1.11.73-3.45,1.13-4.28.45a52,52,0,0,1-7.71-7.85c-10.61-13.38-21.08-26.87-32.71-39.81,1.81,4.94,3.68,9.86,5.4,14.82a35.84,35.84,0,0,1,2.2,8c.2,2.05,0,5.19-1.28,6.06-1.42,1-4.55.58-6.35-.35-8-4.11-15.73-8.63-25.32-14,1.53,2.71,2,3.8,2.7,4.75,10.56,14.59,21.25,29.09,31.62,43.82,1.3,1.84,3.47,5.86,1.42,7.29s-5-2.05-6.41-3.91c-11.86-15.94-23.25-32.22-35.22-48.06-4.55-6-10.29-11.14-15.43-16.72-1.7-1.85-3.81-3.56-5-5.6A3.13,3.13,0,0,1,269.42,289.78Zm-11,91.63a101,101,0,0,0,16.51,11.27,5,5,0,0,0,2.65.46,4.12,4.12,0,0,0,3.22-6.34,8.18,8.18,0,0,0-1.68-2c-8.9-7.29-18.82-13.45-27.13-21.34-13.9-13.2-26.83-27.41-40.22-41.15-1.31-1.34-2.6-3.79-4.47-3.51-4.09.61.39,6.51,2.06,8.62,5.89,7.43,12.08,14.62,18.11,21.92,6.18,7.49,6.12,7.8-2.14,14.53a6.6,6.6,0,0,1-1.71-.88c-10.9-10.32-21.71-20.74-32.72-30.95a6.92,6.92,0,0,0-1.79-1.17,2.84,2.84,0,0,0-4,3.16,5.44,5.44,0,0,0,.74,1.91,74.24,74.24,0,0,0,10.38,12.92c18.58,17.36,37.39,34.48,56.24,51.55a39.94,39.94,0,0,0,9.17,6.16,2.25,2.25,0,0,0,.57.19c3,.59,5.2-2.72,4.2-5.62a5.72,5.72,0,0,0-.28-.68c-.66-1.3-2.48-2-3.7-3-10.16-8.66-20.29-17.34-30.29-25.88l6.84-7.85C245.48,369.66,251.7,375.84,258.43,381.41ZM296.36,344c-9.24-12.05-18.89-24-29.74-34.53-5.45-5.32-13.71-8-21-11.12-4.58-2-8.19,0-10.61,4.84-5.32,10.56-2.63,20.17,2.76,29.53,11.16,19.36,28,32.12,48,41.3,11.39,5.23,17.93,1,17.47-15C301.88,355.93,300.26,349.1,296.36,344Zm-50.54-14.25c-3.24-5.07-5.19-11.27-6.43-17.22-1-4.65,1.8-7.69,7.11-5.5,3.81,1.58,8.45,2.68,11,5.54,11.46,12.91,22.58,26.15,33.16,39.79,1.69,2.18,2.36,5.17,3,8.2a2.86,2.86,0,0,1-3.8,3.23C270.88,356.85,256.17,345.93,245.82,329.76Zm91.34-83.36c1.84-.83,4.91-3.06,4.27-5.25-.69-2.35-5-2.81-6.86-2.24a139.07,139.07,0,0,0-17.3,6.94c-6.85,3.09-8.45,6.26-4.14,12.4,18.7,26.59,37.87,52.86,57,79.15,2.48,3.4,6.73,4.71,9.58,1.35,4.26-5,7.62-10.87,10.87-16.66.73-1.3.8-4.86-1-5.68s-4.12,1.62-5.26,3.12c-3,4-5.49,8.29-8.68,13.25l-26.37-34.12c4.21-3.41,7.8-5.92,10.83-9,1.09-1.1,2.48-4,1.18-5.35s-4.11.09-5.57,1c-3.39,2.22-6.41,5-10.3,8.14l-28.91-39.1C324,251.57,330.71,249.29,337.16,246.4ZM181,184.14c-12.58.56-21.23,9.89-21,22.64.28,14.43,9.9,25,22.41,24.7,13.32-.36,20.08-8.25,19.67-22.95C201.71,196.17,190.92,183.71,181,184.14Zm-2.38,11.42c5.71-.47,12.7,6.9,13,13.75.34,6.66-3.72,11.79-9.54,12-6,.25-12.15-7.51-12.51-15.81C169.28,199,171.85,196.11,178.58,195.56Zm61.33-18.38c-1.42-9.77-8.19-15.16-16.28-19.16-7.33-3.63-12.58.69-17.91,5.16-7.49,6.28-7.39,14.3-6,22.74,2.07,12.35,10.77,21.05,20.53,20.65s18.21-9.87,19.62-21.8c.17-1.37.16-2.76.17-2.85C240,179.48,240.07,178.31,239.91,177.18ZM216,168.24c4.47-.84,12,5.35,13,10.45a15.39,15.39,0,0,1,.11,4.79c-.77,5.71-2.58,11.36-8.88,12.5s-8.21-4.82-10.32-9.25c-1.25-2.62-1.53-5.7-2.25-8.58C206.81,171.65,210.74,169.24,216,168.24Zm24.78-26.1a4.59,4.59,0,0,0-.49-.6,4.23,4.23,0,0,0-6.66,1.31,8.52,8.52,0,0,0-.61,1.51,6.8,6.8,0,0,0,.73,4.71c6.69,11.85,13.4,23.7,20.52,35.28,1,1.56,5.37,2.94,6.22,2.19a9.26,9.26,0,0,0,2.71-6.94c-.27-2.71-2.3-5.25-3.79-8.3,6.24.6,12,1.6,17.65,1.45,1,0,2-.86,3.06-1.87a4.28,4.28,0,0,0,.2-5.81,10.54,10.54,0,0,0-2.17-2c-1.4-.93-3.56-.69-5.38-1l-18.5-3c3.18-6.42,6.25-11.63,8.27-17.22a4.26,4.26,0,0,0-.37-2.85,4.3,4.3,0,0,0-6.09-2.12,5,5,0,0,0-2.06,1.82c-2.41,4.37-3.84,9.28-6.4,15.87C244.74,149.3,243,145.54,240.76,142.14Zm-93.32,74.65c1.49.29,4.09-.29,4.66-1.31s.09-4.32-.84-4.78c-3.95-1.94-8.49-4.83-12.33-4.23-3.35.51-7.72,4.72-8.76,8.16-3.65,12.09-.41,23.83,4.8,34.88,4.55,9.66,13.12,14.53,20.87,12.73,9.48-2.22,18.89-13.22,18.73-22.59a4.17,4.17,0,0,0-.1-.78c-.92-3.86-6.18-5-8.8-2l-.16.18c-2.72,3.4-4.43,7.63-7.25,10.93-4.77,5.58-10,5.49-13.37-1-3-5.75-4.65-12.16-6.65-18.4a14.73,14.73,0,0,1-.54-6.56C138.6,215.79,140.34,215.39,147.44,216.79ZM252.35,221a5.32,5.32,0,0,0,1-1c2-2.57.74-6.53-2.42-7.18a2.76,2.76,0,0,0-1.28,0c-10.84,2.95-18.13,10.63-24,19.71-.65,1,.18,3.5,1.1,4.7.42.56,3,.05,4.15-.68a47.36,47.36,0,0,0,5.6-4.82,58.61,58.61,0,0,0,5.4,7.66c5,5.4,8.67,9.77,14.21,14.57a3.93,3.93,0,0,0,3,.4,4.58,4.58,0,0,0,4-5,9.64,9.64,0,0,0-.85-3.2c-1-1.88-3.53-2.89-5.15-4.52-4.67-4.7-7.54-9.35-13-15.05A39.79,39.79,0,0,0,252.35,221ZM298,199.94a203,203,0,0,0-18.88,15,2.08,2.08,0,0,0-.58,1.1c-.6,2.47,1.61,5,4.06,4.31a2.31,2.31,0,0,0,.58-.25q9.7-5.91,19-12.46a8.62,8.62,0,0,0,2.07-2.3,3.54,3.54,0,0,0-2.22-5.48C300.25,199.51,298.86,199.34,298,199.94ZM186.19,292.08a2.54,2.54,0,0,0,.68-1.64,4.49,4.49,0,0,0-4.76-5,3,3,0,0,0-1.28.4,175.07,175.07,0,0,0-16.07,11.73c-1,.8-1.39,3.59-.75,4.71.47.83,1.72,1.21,3.36,1.77a4.62,4.62,0,0,0,4.25-.67C176.54,299.72,181.57,296.13,186.19,292.08Zm50.3-20.76c-2.66,4.06-6.36,1.69-9.29-1-.67-.61-1.42-1.14-2.27-1.82-6.42,2.77-8.79,6.72-7.39,13.31a3.08,3.08,0,0,1,.06.75c-.13,3.62-5.34,4.13-6.76.79-.1-.24-.19-.49-.27-.74q-5-16.49-9.24-33.19a11,11,0,0,1,.18-4.58,3.43,3.43,0,0,1,3.46-2.79c1.92.05,3.82.13,5.09,1.06a300.17,300.17,0,0,1,24.07,19.62C236.08,264.52,237.61,269.61,236.49,271.32Zm-17-10.9-7.77-4.88c.91,2.52,1.9,7.59,2.82,10.11C214.58,265.41,219.07,260.31,219.45,260.42Z"/>
  </g>
</svg>
