<svg id="icons" xmlns="http://www.w3.org/2000/svg" width="658.13" height="585" viewBox="0 0 658.13 585">
  <defs>
    <style>
      .cls-1 {
        fill: #e27227;
      }

      .cls-2 {
        fill: #fff;
      }

      .cls-3 {
        fill: #232323;
      }
    </style>
  </defs>
  <title>Artboard 4</title>
  <g id="icons-2" data-name="icons">
    <g id="eat_meal" data-name="eat meal">
      <path id="bg" class="cls-1" d="M151.4,279.2c-4.83-10.48-14.6-10.07-22.66-12.71-14.42-4.71-29.55-7.8-41.49-18.06-13.71-11.79-16.35-28.79-6.55-42.29,6.08-8.37,15.45-12.48,24.9-13.85,11-1.58,22.48-1.2,33.61-.1,14.63,1.45,27.64-3.76,40.91-8a10.21,10.21,0,0,0,5.75-6.67,120.75,120.75,0,0,0,2.22-23c-.14-10.64-2.16-21.17,1.92-31.7,6-15.36,19.05-21.33,30.85-12.68,3.2,2.35,5.53,6,8,9.17a33.64,33.64,0,0,0,19.27,12.42c2,.47,5.16.3,6.44-1,4.55-4.44,9.19-9,12.55-14.37,8.25-13,12-28.11,17.94-42.19a62.18,62.18,0,0,1,16.44-22.72c10.84-9.17,28.58-1.45,32.71,12.23,3.36,11.11,7.92,21.86,12,32.75a19.74,19.74,0,0,0,2.22,4.12c5.94,8.59,11.71,9.39,18,1.22,6.17-8,10.58-17.25,16.57-25.36,12.23-16.58,24.64-33,37.68-49,7.63-9.34,19.29-12.59,30.57-14,13.19-1.64,24.11,6.57,23.46,21C474.36,44.28,472,54,470,63.73c-1.92,9.33-4.79,18.47-6.57,27.82-.73,3.86.32,8.06.56,12.11,4.81-.41,9.85,0,14.4-1.38,9.41-2.75,18.37-7.38,27.91-9.3a30.4,30.4,0,0,1,18.1,2.58A35,35,0,0,1,542,116.46c2.52,7.76-1.55,14.77-5.69,21.32-3.74,5.91-7.93,11.62-10.93,17.89-4.51,9.42.94,21.56,10.6,25.73,6.51,2.81,13.09,2.86,20,2.33,5.86-.45,11.87.48,17.76,1.24,15.43,2,21.18,21.54,14.41,32.46a82,82,0,0,1-10.61,14.27c-8.28,8.47-12,18.46-12,30.06a7,7,0,0,0,1.06,3.87c6.73,9.3,13.45,18.61,20.5,27.66,1.43,1.83,4.15,2.83,6.46,3.73,4,1.55,8.05,3.26,12.24,3.94,13.55,2.23,21.09,11.78,27.56,22.38,8,13.11-1.66,32.57-17.3,35.18-5,.83-10.11.64-15.12,1.32-6.32.85-12.73,1.6-18.84,3.33-7.17,2-9.26,7.73-6.3,14.7,2.35,5.53,4.14,11.29,9.93,14.7,1.65,1,1.73,4.28,3.2,5.93a141.52,141.52,0,0,0,13.34,13.7c10.14,8.64,18.54,18.39,22.57,31.34,4.55,14.63-4.2,38.12-16.8,46.11-6.91,4.39-13.83,2.58-20.85,1-25.72-5.74-45.86-19.86-63.05-39.64-6.2-7.14-15.86-11.37-24.22-16.46-1.69-1-4.66.1-7,.23.17,1.91,0,3.92.58,5.72,2.66,8.73,0,19.28-7.67,24.1-8,5.05-15.74,12.24-26.16,10.51a135.66,135.66,0,0,1-26.83-7.23c-7.53-2.93-14.64-7.28-21.36-11.85a94.81,94.81,0,0,1-16.8-14.2c-14.27-15.64-26.58-33.41-42.39-47.23C335,379.5,315.1,367.18,295.48,355.05c-8.94-5.52-19.77-8.41-30.09-11.16-19-5.06-38.16-9.27-57.33-13.48-2.93-.64-6.28.93-9.43.91-17.94-.07-35.84-.09-52.66-8.05-11.48-5.43-16.93-15.83-13.09-27.74.76-2.34,3.22-4.3,5.25-6C142.44,285.92,147,282.61,151.4,279.2ZM120.69,397.93c-3.48,3-7,5.95-10.42,9-5.33,4.73-10.89,9.25-15.81,14.39-2.85,3-7.27,5.16-7,10.46.09,2.31,2.58,7,4.82,7.2,3.34.33,6.83.82,10.07.22C112,437.38,121,434,128.89,427.61c5.12-4.15,11.76-6.53,14.63-13.17a.78.78,0,0,1,.24-.24c5.29-4.57,6.62-10.51,6.71-17.25.09-6.45-5-9.1-9.43-7.61-7,2.32-13.73,5.19-20.58,7.83C120.53,397.43,120.61,397.68,120.69,397.93ZM557,161.43c-8.95-2.54-8.53-8.61-3.57-15.84,12-17.46,25.81-33.9,45.41-43.37,9.55-4.61,20.18-5,30.74-1.52,9.86,3.23,15,10.43,16.59,19.83.55,3.32-2,8-4.47,10.83a74.81,74.81,0,0,1-39.43,23.33c-9.24,2.2-18.23,5.58-27.54,7.23C569.05,162.94,563,161.67,557,161.43ZM142.16,175.37c-10.12-2.67-20.66-7.81-28-17.92-4.7-6.46-4.65-12.53-.19-19.46,3.53-5.49,12-9,18.44-7.34,5.82,1.54,11.61,3.23,14.89,9.22.82,1.5,3,2.64,4.76,3.15,7,2,10.58,8.3,14.19,13.22,3.15,4.28,3.46,11.62,2.84,17.38-.43,4-11.05,6.81-15.89,5.32C150,178,146.89,176.91,142.16,175.37Zm352.2,314.55c4.15-12,12.54-15.28,21.82-9.7a79,79,0,0,1,12.46,9.37c4.6,4.22,7,19.94,4.48,25.65-3.06,6.83-12.34,9.24-18.66,5.38-9.6-5.86-14.75-15.1-19.5-24.62C493.88,493.82,494.43,490.83,494.36,489.92Z"/>
      <path id="hole" class="cls-2" d="M197,351.36c-.12.47-.27.94-.39,1.4-5-1.38-11-1.49-14.55-4.52-3.25-2.78-4.49-8.59-5.38-13.29-1.15-6,9.05-15.1,17.11-16,9.84-1.08,18.48,5.18,19.55,14.13C214.49,343,208.17,350.08,197,351.36Z"/>
      <path id="knifebg" class="cls-2" d="M216,474.12c-3.76,0-7.45-.19-11-.38-2-.1-4-.2-6-.27-7.2-.24-12.85-3.81-16.34-10.34-2.88-5.36-6-10.84-9.11-16.14-4-7-8.21-14.18-12-21.59-4.31-8.43-7.89-17.13-11.34-25.55q-1.47-3.57-3-7.14C146,389.9,145,387.1,144,384.39l-.54-1.48c-13.29,6.24-27.1,9.66-40.48,13-3.84.95-7.68,1.9-11.51,2.92l-3.76,1c-6.48,1.74-13.19,3.54-20.1,4.83a50.67,50.67,0,0,1-9.25.87c-11.51,0-22-4.08-31.26-12.12-15.58-13.6-15.49-28.19-12.68-38,.46-1.6.81-3.53,1.18-5.56.91-5,1.94-10.78,5.31-16.12,3.85-6.09,10-9.17,18.44-9.17,1.21,0,2.45.06,3.69.12.84,0,1.69.09,2.51.09a5.54,5.54,0,0,0,1.06-.06c29-4.81,57.85-9.32,89.49-14.23.57-9.68,4.42-13.76,15.33-18.18l7.91-3.21c44.45-18,90.41-36.71,135.43-55.4,9.13-3.78,18.35-8.2,27.26-12.47,5.14-2.46,10.46-5,15.77-7.44,8.14-3.73,16.3-7.38,24.47-11,16.68-7.47,33.93-15.2,50.52-23.32,9.36-4.59,18.27-10.07,27.7-15.87,4.18-2.57,8.51-5.23,12.85-7.79l.15-.09c1-.56,1.94-1.13,3.71-2.17l16.3-9.61,3.42,27.23c1.78,14.06,3.45,27.34,5,40.8a15.08,15.08,0,0,1-2.08,9.21c3.66,3.36,5.23,8.24,6.09,10.91q1.89,5.92,3.79,11.84c5.37,16.8,10.92,34.17,16.92,50.94,6.9,19.27,14.46,38.76,21.77,57.6q2.73,7,5.45,14.08c2.56,6.61,4.59,11.84,2.51,17.9s-7,8.94-13.07,12.41l-.94.53c-17,9.71-34.79,16.13-54.6,22.94q-7.9,2.73-15.82,5.5c-16.72,5.82-34,11.85-51.28,17.25-12.52,3.93-25.14,6.7-40.24,9.65-21,4.14-45.83,8.89-70.52,12.76-18.84,2.95-38.93,5.52-65.16,8.32A82.4,82.4,0,0,1,216,474.12Z"/>
      <path id="knife" class="cls-3" d="M522.88,370.67c-9.24-23.93-18.68-47.81-27.32-71.95-7.47-20.86-14.06-42.05-20.85-63.15-2.25-7-3.14-7.67-10-4.8-10.27,4.26-20.55,8.56-30.84,12.8-1.5.61-3.07,1-4.62,1.55a68.79,68.79,0,0,1,12-9.66c8.86-6,17.8-12,26.57-18.17,1.22-.86,2.6-2.83,2.45-4.11-1.86-16.41-4-32.76-6.15-50.13-2.42,1.42-3.58,2.11-4.75,2.78-13.75,8.1-27.07,17.09-41.34,24.09-24.78,12.12-50.17,23-75.27,34.48-14.49,6.64-28.7,14-43.42,20.09-47.39,19.67-95,39-142.51,58.27-9.13,3.72-9.35,3.45-8.92,13.21.17,3.18-.61,4.62-4,5.14C112.1,326,80.28,331,48.54,336.25c-6,1-13.95-2.2-17.67,3.68-3.28,5.22-3.34,12.4-5.12,18.65-3.11,10.86,1.15,19,9.09,25.93,8.86,7.72,19.15,10.68,30.62,8.55,7.75-1.44,15.36-3.61,23-5.63,17.81-4.74,36.09-8.07,52.76-16.51a15.48,15.48,0,0,1,5.81-2c1.45-.08,3.81.83,4.3,1.95,2.51,5.64,4.35,11.58,6.75,17.3,4.47,10.68,8.64,21.57,13.91,31.87,6.53,12.76,14.24,24.92,21,37.55,1.59,3,3.58,4,6.36,4.12,8,.27,16.17,1.12,24.11.29,21.58-2.31,43.14-4.89,64.58-8.25,23.45-3.68,46.8-8.1,70.09-12.69,13.11-2.56,26.26-5.34,39-9.33,22.44-7,44.56-15,66.79-22.64,18-6.19,35.93-12.53,52.61-22C526.89,381.15,527.07,381.48,522.88,370.67ZM197,351.36c-.12.47-.27.94-.39,1.4-5-1.38-11-1.49-14.55-4.52-3.25-2.78-4.49-8.59-5.38-13.29-1.15-6,9.05-15.1,17.11-16,9.84-1.08,18.48,5.18,19.55,14.13C214.49,343,208.17,350.08,197,351.36Z"/>
      <path id="small_text" data-name="small text" class="cls-2" d="M367.73,149.39c-2.12,4.21-3.3,9.44-6.53,12.45-11.72,10.87-23.08,22.7-36.49,31.08-34,21.24-71.86,34.17-109.86,46.37l-.27,0-1.67-.27c-4.15-.66-5.15-6.48-1.31-8.19l.09,0c30-13,60.19-25.46,90.16-38.48,22.08-9.58,42.47-21.78,58.26-40.54,1.39-1.65,3.45-2.75,5.2-4.11Zm-90.41,269a6.26,6.26,0,0,0,3.21,2.62,4.9,4.9,0,0,0,6.82-3,7.15,7.15,0,0,0,.3-4.14c-5-15.5-10.54-30.83-16.23-46.09-.76-2.05-3.39-4.78-5.14-4.77-2.21,0-5.06,2.07-6.48,4.06a99.86,99.86,0,0,0-8.21,14.08c-2.71,5.54-6.36,6.4-12,4.39a132,132,0,0,0-19.29-5.19c-4.55-.89-6.34,2.4-5.3,6.25,3.64,13.47,7.43,26.93,11.81,40.17a3.58,3.58,0,0,0,.8,1.32c2.56,2.84,7.47,1.26,8.14-2.51A12.87,12.87,0,0,0,236,424c.12-1.92-1.15-3.92-1.77-5.9-2.75-8.78-5.48-17.56-8.21-26.28,7.51,2,14.32,4.43,21.34,5.41,9.87,1.38,9.86-9.69,15.61-14.05C267.74,395.12,272.09,407,277.32,418.37Zm110.63-19a7.66,7.66,0,0,0,2.71,2.21,4.53,4.53,0,0,0,6.64-3.42,5.5,5.5,0,0,0-.35-3c-8.16-16.46-16.75-32.72-25.59-48.82-1.28-2.32-4.72-4.9-7-4.75-1.81.12-4.56,4.08-4.82,6.56-1.92,18-3.34,36.05-4.83,54.09a26,26,0,0,0,.24,7.74c.32,1.4,2,3.4,3.2,3.46s3.24-1.52,3.9-2.86a12.79,12.79,0,0,0,1-6.09c-.73-12.32,4-19.56,18.4-18.52C383.39,390.16,385,395.21,388,399.37Zm-21.49-39c.69-.2,7.61,9.71,11,16l-12.19,2.86C365.7,372.32,366.08,366.34,366.46,360.35ZM326,365a5,5,0,0,0,1.76-1.34c2.14-2.38,1.2-6.4-1.89-7.21a2.67,2.67,0,0,0-1.31-.05,197.53,197.53,0,0,0-23.91,7.69c-5,2-6.08,6.66-4.62,11.78,3.84,13.45,7.63,26.92,11.54,40.35a7.62,7.62,0,0,0,9.54,5.15c6.68-2,13.57-3.75,19.77-6.82a8.68,8.68,0,0,0,3-2.76,4.7,4.7,0,0,0-3.14-7.44,13.4,13.4,0,0,0-4-.08c-4.91.76-9.6,3-14.56,4.7-1.93-5.3-3.49-9.61-5.23-14.38,4.84-1,9.37-1.32,13.26-3.05a7.5,7.5,0,0,0,2.13-1.5,4.67,4.67,0,0,0-1.85-7.83,6.57,6.57,0,0,0-2.22-.27c-5,.35-9.83,2-15.09,3.25l-3.74-13.29C312.83,369.51,319.57,367.68,326,365Zm6.6-48.85a8.8,8.8,0,0,0,3.32,3.32,4.15,4.15,0,0,0,5.89-1.31c1.12-1.88,2.06-3.69,1.59-5-5.79-16-12.09-31.94-19-47.53-1.19-2.69-6.18-5.31-9.19-5.07-2.45.19-6.19,4.5-6.54,7.33-2.19,17.7-3.74,35.49-5,53.28a2.46,2.46,0,0,0,.05.71c.66,3.36,5.4,4,7.31,1.13a21.85,21.85,0,0,0,1.48-5.95c.27-13.3.27-13.3,14.67-17.68C328.87,305,330.12,310.9,332.58,316.19ZM316,274.33l1.85-.57,6.5,16.09L314,293.37C314.71,286.52,315.37,280.42,316,274.33Zm107.56,95.4c-5.91-11.54-11.64-23.18-17.73-34.63l0-.06c-1.63-3-6.2-2.39-7.37.79q-.34.92-.63,1.86a5,5,0,0,0,.58,3c6.89,15.63,13.65,31.32,20.86,46.8,2.1,4.51,6.95,6.64,11.19,3.81,13.54-9,26.77-18.55,39.75-28.36a3,3,0,0,0,.85-1.1c1.77-3.69-2-7.91-5.92-6.73a5,5,0,0,0-1,.44c-11.9,6.82-23.53,14.12-36.17,21.82C426.34,374.63,424.86,372.23,423.58,369.73ZM267.26,295.4c8.7-6.74,14.5-11.3,14-12.08-3.82-5.85-9.05-1.29-12.73.6-5.45,2.81-13.41,7-14.14,11.55-1.92,12-1,24.65-.23,37,.39,6,5.51,10.59,11.39,9.24,8.65-2,17-5.76,25-9.59a2.24,2.24,0,0,0,1-1.22c1.63-3.81-2.14-8.14-6.07-6.82l-.06,0c-6.74,2.36-13.25,5.36-21.1,8.63l-2.78-13.83c5.63-2.54,10.58-4.23,14.87-7a4.11,4.11,0,0,0-2.92-7.44,4.54,4.54,0,0,0-.53.12c-3.7,1-7.17,2.88-11.09,4.54C258.33,302.1,261.9,299.55,267.26,295.4Zm100.13-16c1.73,7.28,3.32,14.71,6.26,21.53,1.27,2.95,6.26,6.8,8.66,6.25,5.38-1.22,3.79-6.25,2.31-10.28-.36-1-.88-1.89-1.16-2.88-3.82-13.59-7.62-27.18-11.33-40.45,4.82-2.85,9-4.65,12.2-7.48a4.29,4.29,0,0,0,1.1-1.74,5.12,5.12,0,0,0-4.18-7,3,3,0,0,0-1.47.22c-11,5.12-21.86,10.57-32.47,16.46a2.29,2.29,0,0,0-.83.86c-1.94,3.17.64,7.29,4.36,7.41a5.63,5.63,0,0,0,1.54-.13c3.38-.76,6.47-2.79,10.69-4.76C364.68,265.73,365.77,272.63,367.39,279.4Z"/>
    </g>
  </g>
</svg>
