<svg id="icons" xmlns="http://www.w3.org/2000/svg" width="633.28" height="509.19" viewBox="0 0 633.28 509.19">
  <defs>
    <style>
      .cls-1 {
        fill: #e27227;
      }

      .cls-2 {
        fill: #fff;
      }

      .cls-3 {
        fill: #232323;
      }
    </style>
  </defs>
  <title>icon_market</title>
  <g id="icons-2" data-name="icons">
    <g id="eat_meal" data-name="eat meal">
      <path id="eatbg" class="cls-1" d="M138.42,265.93c-4.84-10.48-14.6-10.07-22.67-12.71-14.42-4.71-29.55-7.81-41.48-18.07-13.71-11.78-16.36-28.78-6.56-42.28,6.09-8.38,15.46-12.48,24.9-13.85,11-1.59,22.49-1.2,33.61-.1,14.64,1.44,27.64-3.76,40.91-8,2.46-.78,5.29-4.11,5.76-6.66a120.74,120.74,0,0,0,2.21-23c-.13-10.64-2.16-21.17,1.92-31.7,5.95-15.36,19-21.33,30.85-12.69,3.21,2.35,5.53,6,8,9.18a33.59,33.59,0,0,0,19.27,12.41c2,.47,5.15.3,6.44-.95,4.54-4.44,9.18-9,12.55-14.37,8.25-13,12-28.1,17.94-42.18a62.18,62.18,0,0,1,16.43-22.72c10.84-9.17,28.58-1.45,32.72,12.23,3.36,11.11,7.92,21.86,12,32.75a18.94,18.94,0,0,0,2.21,4.11c5.94,8.6,11.71,9.4,18.05,1.22,6.17-8,10.58-17.24,16.57-25.36,12.23-16.58,24.65-33,37.68-49,7.63-9.34,19.29-12.59,30.57-14,13.2-1.64,24.12,6.57,23.46,21C461.38,31,459,40.77,457,50.46c-1.93,9.32-4.8,18.46-6.57,27.82-.74,3.86.31,8.06.55,12.1,4.82-.4,9.85,0,14.4-1.37,9.42-2.75,18.37-7.39,27.91-9.31a30.48,30.48,0,0,1,18.1,2.58A35,35,0,0,1,529,103.18c2.52,7.76-1.55,14.78-5.69,21.33-3.74,5.91-7.92,11.62-10.93,17.88-4.51,9.42.95,21.56,10.6,25.74,6.51,2.81,13.09,2.86,20,2.33,5.85-.45,11.87.48,17.75,1.23,15.43,2,21.18,21.55,14.41,32.47a81.84,81.84,0,0,1-10.61,14.27c-8.27,8.47-12,18.46-12,30.06a7,7,0,0,0,1.06,3.87c6.72,9.3,13.44,18.61,20.5,27.66,1.42,1.82,4.14,2.83,6.45,3.72,4,1.55,8,3.26,12.24,3.95,13.55,2.23,21.09,11.77,27.56,22.37,8,13.11-1.65,32.58-17.3,35.19-5,.83-10.11.64-15.12,1.31-6.32.86-12.73,1.61-18.83,3.34-7.18,2-9.26,7.73-6.3,14.69,2.35,5.54,4.13,11.3,9.92,14.7,1.65,1,1.74,4.29,3.21,5.93a141.53,141.53,0,0,0,13.33,13.71c10.14,8.64,18.55,18.38,22.58,31.34,4.55,14.63-4.21,38.12-16.81,46.11-6.91,4.39-13.82,2.58-20.85,1-25.72-5.74-45.85-19.86-63.05-39.65-6.2-7.13-15.85-11.36-24.22-16.45-1.68-1-4.66.09-7,.22.18,1.92,0,3.92.58,5.72,2.66,8.74,0,19.29-7.66,24.11-8,5.05-15.75,12.24-26.17,10.5a136.41,136.41,0,0,1-26.82-7.22c-7.54-2.93-14.65-7.28-21.37-11.85a95.29,95.29,0,0,1-16.8-14.21c-14.27-15.64-26.58-33.4-42.38-47.22-17.28-15.11-37.16-27.44-56.78-39.56-8.93-5.52-19.76-8.41-30.09-11.16-19-5.06-38.15-9.27-57.33-13.48-2.93-.64-6.27.92-9.42.91C167.71,318,149.81,318,133,310c-11.48-5.44-16.93-15.83-13.08-27.74.75-2.34,3.21-4.31,5.24-6C129.45,272.65,134,269.34,138.42,265.93ZM107.7,384.66c-3.47,3-7,5.94-10.42,9C92,398.37,86.39,402.9,81.48,408c-2.86,3-7.27,5.15-7.06,10.46.09,2.31,2.58,7,4.82,7.19,3.34.34,6.84.83,10.08.22,9.69-1.81,18.72-5.2,26.58-11.57,5.13-4.15,11.76-6.53,14.64-13.17,0-.1.15-.17.23-.24,5.29-4.57,6.62-10.52,6.72-17.25.09-6.45-5-9.1-9.44-7.61-7,2.31-13.73,5.19-20.58,7.83C107.55,384.15,107.62,384.41,107.7,384.66ZM544,148.16c-8.95-2.54-8.54-8.61-3.57-15.85,12-17.46,25.8-33.89,45.41-43.36,9.55-4.61,20.18-5,30.74-1.52,9.85,3.23,15,10.43,16.58,19.83.56,3.32-2,8-4.46,10.82a74.83,74.83,0,0,1-39.44,23.34c-9.23,2.2-18.22,5.58-27.53,7.23C556.07,149.66,550,148.4,544,148.16ZM129.17,162.1c-10.12-2.67-20.66-7.81-28-17.92-4.7-6.47-4.64-12.54-.19-19.47,3.53-5.48,12-9,18.45-7.33,5.82,1.54,11.6,3.23,14.89,9.22.81,1.49,3,2.64,4.75,3.15,7,2,10.58,8.3,14.19,13.21,3.15,4.29,3.47,11.63,2.85,17.38-.44,4-11.06,6.82-15.89,5.33C137,164.7,133.9,163.64,129.17,162.1Zm352.2,314.55c4.16-12,12.54-15.28,21.83-9.7a79.38,79.38,0,0,1,12.45,9.37c4.61,4.22,7,19.94,4.48,25.65-3,6.82-12.34,9.24-18.66,5.38-9.59-5.86-14.74-15.11-19.49-24.63C480.89,480.55,481.44,477.56,481.37,476.65Z"/>
      <path id="hole" class="cls-2" d="M184,338.08c-.13.47-.27.94-.4,1.41-5-1.39-11-1.5-14.54-4.53-3.25-2.78-4.5-8.59-5.38-13.28-1.16-6.05,9-15.1,17.11-16,9.83-1.08,18.48,5.18,19.54,14.13C201.5,329.75,195.19,336.8,184,338.08Z"/>
      <path id="knifebg" class="cls-2" d="M203,460.85c-3.77,0-7.46-.2-11-.38-2-.1-4-.21-6-.28-7.21-.23-12.86-3.8-16.34-10.33-2.89-5.37-6.06-10.85-9.12-16.15-4-7-8.2-14.17-12-21.58-4.31-8.43-7.88-17.14-11.34-25.55-1-2.38-2-4.77-2.95-7.14-1.18-2.82-2.22-5.62-3.22-8.32l-.54-1.48c-13.29,6.24-27.09,9.65-40.47,13-3.85.95-7.69,1.9-11.51,2.92l-3.76,1c-6.49,1.74-13.19,3.53-20.1,4.82a50.77,50.77,0,0,1-9.25.88c-11.52,0-22-4.08-31.27-12.13-15.57-13.59-15.49-28.18-12.67-38,.45-1.6.8-3.53,1.17-5.57.91-5.05,2-10.77,5.31-16.11,3.85-6.09,10.05-9.17,18.45-9.17,1.21,0,2.44,0,3.68.11.84.05,1.69.09,2.52.09a7.67,7.67,0,0,0,1.05-.05c29-4.81,57.85-9.32,89.49-14.23.57-9.68,4.42-13.76,15.33-18.18l7.92-3.22c44.44-18,90.4-36.7,135.42-55.39,9.14-3.79,18.35-8.2,27.26-12.47,5.14-2.46,10.46-5,15.77-7.44,8.14-3.73,16.31-7.38,24.47-11,16.68-7.47,33.93-15.2,50.53-23.32,9.35-4.59,18.26-10.07,27.69-15.87,4.19-2.57,8.51-5.23,12.85-7.79l.15-.09c1-.56,1.95-1.13,3.71-2.17l16.3-9.61L464,157.77c1.77,14.06,3.45,27.34,5,40.81a15,15,0,0,1-2.08,9.2c3.66,3.37,5.23,8.25,6.09,10.92q1.9,5.91,3.79,11.84c5.37,16.8,10.92,34.16,16.93,50.94,6.9,19.27,14.45,38.75,21.76,57.6q2.75,7,5.46,14.08c2.56,6.6,4.58,11.83,2.5,17.9s-7,8.93-13.07,12.41l-.94.53c-17,9.7-34.79,16.13-54.6,22.94l-15.82,5.49c-16.72,5.83-34,11.86-51.28,17.26-12.52,3.92-25.14,6.7-40.23,9.65-21,4.13-45.84,8.88-70.53,12.76-18.83,2.95-38.93,5.51-65.16,8.32A82.2,82.2,0,0,1,203,460.85Z"/>
      <path id="knife" class="cls-3" d="M509.89,357.39c-9.24-23.93-18.67-47.8-27.32-71.95-7.47-20.86-14.06-42-20.84-63.14-2.26-7-3.14-7.67-10.05-4.8-10.27,4.26-20.56,8.55-30.84,12.79-1.5.62-3.07,1-4.62,1.56a67.17,67.17,0,0,1,12-9.66c8.86-6,17.79-12,26.56-18.17,1.23-.87,2.6-2.83,2.45-4.11-1.85-16.41-4-32.76-6.15-50.14-2.42,1.43-3.57,2.11-4.75,2.78-13.75,8.1-27.06,17.09-41.34,24.09-24.78,12.13-50.17,23-75.27,34.49-14.49,6.64-28.69,14-43.42,20.09-47.39,19.67-95,39-142.51,58.27-9.13,3.71-9.35,3.44-8.91,13.21.16,3.17-.62,4.62-4,5.14-31.8,4.93-63.62,9.87-95.36,15.14-6,1-13.95-2.2-17.67,3.68-3.28,5.22-3.33,12.4-5.12,18.64-3.11,10.87,1.15,19,9.09,25.93C30.71,379,41,381.92,52.48,379.79c7.74-1.44,15.36-3.61,23-5.63,17.81-4.75,36.09-8.07,52.77-16.51a15.62,15.62,0,0,1,5.81-2c1.44-.07,3.8.83,4.29,1.95,2.51,5.65,4.35,11.59,6.75,17.31,4.48,10.68,8.65,21.56,13.91,31.87,6.54,12.76,14.24,24.92,21,37.55,1.59,3,3.57,4,6.35,4.12,8,.27,16.17,1.12,24.11.29,21.58-2.32,43.15-4.9,64.59-8.25,23.44-3.68,46.79-8.1,70.09-12.69,13.1-2.56,26.26-5.34,39-9.33,22.43-7,44.55-15,66.79-22.65,18-6.19,35.93-12.52,52.6-22C513.9,367.88,514.08,368.2,509.89,357.39ZM184,338.08c-.13.47-.27.94-.4,1.41-5-1.39-11-1.5-14.54-4.53-3.25-2.78-4.5-8.59-5.38-13.28-1.16-6.05,9-15.1,17.11-16,9.83-1.08,18.48,5.18,19.54,14.13C201.5,329.75,195.19,336.8,184,338.08Z"/>
      <path id="em" class="cls-2" d="M354.74,136.12c-2.12,4.21-3.29,9.44-6.53,12.44-11.72,10.88-23.07,22.7-36.49,31.08-34,21.25-71.85,34.18-109.86,46.38l-.27,0-1.67-.27c-4.15-.67-5.15-6.48-1.31-8.2l.09,0c30-13,60.19-25.46,90.16-38.47,22.08-9.58,42.47-21.78,58.26-40.54,1.39-1.66,3.45-2.76,5.2-4.11Zm-90.41,269a6.35,6.35,0,0,0,3.21,2.62,4.9,4.9,0,0,0,6.82-3,7.15,7.15,0,0,0,.3-4.14c-5-15.51-10.53-30.83-16.22-46.09-.77-2.06-3.4-4.79-5.14-4.77-2.22,0-5.06,2.07-6.48,4.06a99.36,99.36,0,0,0-8.22,14.08c-2.71,5.54-6.36,6.39-12,4.38a133.41,133.41,0,0,0-19.28-5.18c-4.56-.9-6.35,2.39-5.31,6.25,3.65,13.47,7.43,26.92,11.81,40.17a3.87,3.87,0,0,0,.8,1.32c2.57,2.84,7.47,1.25,8.15-2.52.09-.53.16-1.07.2-1.61.12-1.92-1.16-3.92-1.78-5.89q-4.12-13.17-8.2-26.29c7.5,2,14.31,4.44,21.33,5.42,9.88,1.38,9.86-9.69,15.61-14.06C254.75,381.85,259.1,393.68,264.33,405.1ZM375,386.1a7.7,7.7,0,0,0,2.72,2.21,4.52,4.52,0,0,0,6.63-3.42,5.53,5.53,0,0,0-.34-3.05c-8.17-16.45-16.76-32.71-25.6-48.82-1.27-2.31-4.72-4.89-7-4.74-1.82.12-4.57,4.08-4.83,6.56-1.92,18-3.34,36-4.83,54.08a26.08,26.08,0,0,0,.25,7.75c.31,1.4,2,3.4,3.2,3.46s3.24-1.52,3.89-2.87a12.76,12.76,0,0,0,1-6.08c-.73-12.32,4-19.56,18.4-18.53C370.41,376.88,372,381.94,375,386.1Zm-21.48-39c.68-.19,7.6,9.72,11,16l-12.18,2.87C352.71,359.05,353.1,353.06,353.48,347.07ZM313,351.77a5.07,5.07,0,0,0,1.76-1.34c2.14-2.38,1.2-6.4-1.89-7.21a2.67,2.67,0,0,0-1.31-.05,195.64,195.64,0,0,0-23.9,7.69c-5,2-6.09,6.66-4.63,11.78,3.84,13.45,7.63,26.92,11.54,40.35a7.63,7.63,0,0,0,9.54,5.15c6.68-2,13.57-3.75,19.77-6.83a8.41,8.41,0,0,0,3-2.76,4.68,4.68,0,0,0-3.14-7.43,13,13,0,0,0-4-.08c-4.92.76-9.6,3-14.57,4.7-1.92-5.3-3.49-9.61-5.22-14.38,4.83-1,9.36-1.32,13.26-3.06a7.56,7.56,0,0,0,2.12-1.49A4.67,4.67,0,0,0,313.4,369a6.57,6.57,0,0,0-2.22-.27c-5,.35-9.83,2-15.09,3.24-1.25-4.45-2.36-8.37-3.74-13.29C299.85,356.23,306.59,354.41,313,351.77Zm6.6-48.85a9,9,0,0,0,3.33,3.32,4.14,4.14,0,0,0,5.88-1.31c1.13-1.88,2.07-3.69,1.6-5-5.8-16.05-12.1-31.94-19-47.53-1.19-2.69-6.18-5.31-9.19-5.08-2.44.19-6.19,4.51-6.54,7.34-2.19,17.7-3.73,35.48-5,53.28a3.44,3.44,0,0,0,.05.71c.67,3.36,5.41,4,7.32,1.12a22.05,22.05,0,0,0,1.48-5.94c.26-13.3.26-13.3,14.66-17.68C315.88,291.77,317.13,297.62,319.59,302.92ZM303,261.06l1.84-.57,6.5,16.09L301,280.09C301.73,273.25,302.38,267.15,303,261.06Zm107.55,95.4c-5.9-11.55-11.64-23.18-17.72-34.64l0-.05c-1.63-3-6.21-2.39-7.38.78-.23.62-.44,1.24-.63,1.87a5,5,0,0,0,.59,3c6.88,15.63,13.64,31.32,20.85,46.8,2.1,4.52,7,6.65,11.19,3.82,13.54-9,26.77-18.56,39.76-28.37a2.86,2.86,0,0,0,.84-1.1c1.77-3.68-2-7.9-5.91-6.73a5.45,5.45,0,0,0-1,.45c-11.9,6.81-23.53,14.12-36.17,21.81C413.36,361.35,411.87,359,410.59,356.46ZM254.27,282.13c8.7-6.74,14.51-11.3,14-12.09-3.81-5.84-9.05-1.28-12.73.61-5.45,2.81-13.4,7-14.13,11.55-1.93,12-1,24.65-.23,37,.39,6,5.5,10.6,11.38,9.25,8.65-2,17-5.77,25.05-9.59a2.26,2.26,0,0,0,1-1.22c1.63-3.81-2.13-8.14-6.06-6.83l-.07,0c-6.73,2.36-13.25,5.36-21.1,8.63l-2.77-13.84c5.62-2.53,10.58-4.22,14.87-7a4,4,0,0,0,1.28-1.44,4,4,0,0,0-4.2-6l-.54.11c-3.7,1-7.17,2.88-11.09,4.55C245.35,288.83,248.91,286.28,254.27,282.13Zm100.13-16c1.73,7.29,3.33,14.72,6.26,21.54,1.27,2.95,6.26,6.79,8.66,6.25,5.38-1.22,3.79-6.25,2.31-10.28-.36-1-.87-1.89-1.15-2.89-3.83-13.58-7.62-27.17-11.34-40.45,4.83-2.84,9-4.64,12.2-7.48a4.16,4.16,0,0,0,1.1-1.73,5.11,5.11,0,0,0-4.17-7,3,3,0,0,0-1.48.21c-11,5.13-21.86,10.58-32.46,16.47a2.28,2.28,0,0,0-.84.85c-1.94,3.18.65,7.29,4.37,7.42a6.09,6.09,0,0,0,1.54-.13c3.37-.76,6.46-2.8,10.69-4.76C351.69,252.46,352.79,259.35,354.4,266.12Z"/>
    </g>
  </g>
</svg>
