<svg id="icons" xmlns="http://www.w3.org/2000/svg" width="627.75" height="585" viewBox="0 0 627.75 585">
  <defs>
    <style>
      .cls-1 {
        fill: #51a8ce;
      }

      .cls-2 {
        fill: #fff;
      }

      .cls-3 {
        fill: #232323;
      }
    </style>
  </defs>
  <title>Artboard 4</title>
  <g id="icons-2" data-name="icons">
    <g id="fast_food" data-name="fast food">
      <path id="_3_dot" data-name="3 dot" class="cls-1" d="M432.9,61.78c8.93-11.19,17.8-22.44,26.83-33.55,2.58-3.18,16.28-3.05,19.45-1.77,2.9,1.16,4.46,5.53,6.76,8.35,2.05,2.51,1.32,4.19-.95,6.12C471.92,52,458.81,63,446,74.41c-6.55,5.81-11.89,6.08-18.11-.44a4.11,4.11,0,0,1-.48-3.77C429,67.26,431,64.57,432.9,61.78ZM416,50.19c5.69-11.72,11.48-23.4,17-35.22,1.2-2.57.34-5.24-3-6-4.8-1.13-9.72-1.85-14.44-3.26-4.34-1.29-6,.38-7.08,4.34-1.19,4.5-2.79,8.89-4.32,13.29-4.62,13.33-9.35,26.61-13.84,40-.41,1.23.14,3.67,1.1,4.34,7.35,5.16,11.81,4.25,17-3.12A17.57,17.57,0,0,0,410,61.76C411.79,57.8,415.75,50.08,416,50.19Zm53.77,53.61c12.17-5.19,24.46-10.09,36.7-15.11,2.69-1.1,4.63-2.13,2.08-5.59-3.46-4.71-6.45-9.78-9.47-14.8-1.59-2.64-3.45-2.63-5.69-1.13C480.8,75.6,468,83.67,455.78,92.64c-8.38,6.17-8.72,10.4-4,19.78C457.76,109.53,463.65,106.4,469.75,103.8Z"/>
      <path id="fastfoodbg" class="cls-1" d="M393.53,504.14a205.93,205.93,0,0,1-70,.65c-9.64-1.52-18.84-5.24-28.42-7.15-13.55-2.7-24.6-10.41-36.12-17-20.39-11.68-40.88-23.33-60.31-36.5-19-12.89-37-27.39-52.91-44.2-9.09-9.6-18.58-18.86-27.07-29a109.67,109.67,0,0,1-14.1-21.87c-9-18.34-16.18-37.51-19.68-58-1.64-9.67,1.48-18.35,5.71-27.05,2.61-5.36,3.63-11.45,5.94-17,8.53-20.46,18.87-40,32.94-57.23,5.49-6.74,12.43-12.28,17.89-19,21.38-26.46,49.83-43.13,78.33-59.3,19.89-11.28,40.56-21.54,62.88-26.81a115.4,115.4,0,0,1,20-2.67c18.94-1.07,37.94-2.73,56.75-.14,3.05.41,5.83,2.28,8.83,3.18,1.45.44,3.27-.21,4.65.32,9.83,3.77,19.81,7.28,29.27,11.81,4,1.91,6.63,6.37,10.23,9.22,10.7,8.46,16.59,20.85,24.62,31.47,5.89,7.78,11.71,15.87,15.91,24.68,6,12.68,10.79,26.05,15.61,39.33,2,5.46,1.72,12,4.18,17.11,15.43,32.32,18.91,68.15,26.57,102.78,4.31,19.49,2.24,38.93-.06,58.57-1.74,14.92-3.55,29.71-8.63,44.12-6.38,18.09-15.28,34.08-29.76,47.3-16.78,15.32-36,24.34-57.31,29.5C407.93,501.59,397.25,503.45,393.53,504.14Z"/>
      <path id="small_text" data-name="small text" class="cls-2" d="M413,314.36c24.54.32,51.09,23.08,54.49,46.72C471,385.73,452.9,415.46,430,422.5c-9.9,3.05-14.31,1.08-17.26-8.58-8-26.07-15.51-84.84-15.91-86.72-2.45-11.54.6-12.61,12.79-12.84C410.76,314.34,411.89,314.36,413,314.36Zm11.25,94.75c20.64-3.48,31.18-30.19,29.58-44.06-2-17.73-24.52-35.84-44.9-35.2C414.06,356.32,419.11,382.48,424.26,409.11ZM300.37,244.3c-5.41,0-10.42-.41-15.3.21-1.75.22-3.75,2.65-4.65,4.55-2.87,6.05-5,12.49-8,18.43a3.76,3.76,0,0,1-.48.72c-2.65,3.21-8,1.66-9-2.37a4.32,4.32,0,0,1-.13-1.28c.31-4.66,2.05-9.22,3.2-13.82,6.93-27.91,13.72-55.86,21-83.68a7.62,7.62,0,0,1,.48-1.28c2.39-5,9.79-5.44,12.6-.64a6.25,6.25,0,0,1,.74,1.9c5.87,31.31,11.18,62.73,16.58,94.12.33,1.91.86,4.37,0,5.76a29.69,29.69,0,0,1-3.35,4.27,5.4,5.4,0,0,1-7.6.34c-1.5-1.33-2.79-2.71-3.17-4.32C301.48,260,301.27,252.39,300.37,244.3ZM294,203.67c-.64.08-6.11,18.76-8.45,29.12l13-3.47Zm-41.06-23c4.08-1.72,9.16-3,11.6-6.16,2.2-2.86,2.48-8.3,1.48-12-.48-1.78-6.46-3.89-9-3-8.07,2.83-15.66,7-23.5,10.56-2,.89-19.38.64-18.14,12,3.38,30.86,7.69,61.62,11.77,92.4.65,4.93,3.62,9.33,8.81,7.66,2.87-.93,6.34-5.9,6.27-9-.22-9.73-1.75-19.46-3.19-29.13-2.41-16.22-2.54-16.2,11.57-23.8,2.22-1.2,4.5-2.33,6.59-3.72,4.65-3.11,9.16-6.87,5.33-12.95-3.45-5.49-8.81-3.8-13.45-1.3-4.84,2.59-9.44,5.64-15,9-1.39-7.73-2.57-14.28-3.88-21.53C238.39,186.43,245.7,183.68,252.89,180.65ZM274.28,370a4.77,4.77,0,0,0,1.81-.73c3.92-2.46,3.73-8.34-.06-11a7.52,7.52,0,0,0-2.42-1.17c-3.85-1-8.27.21-12.45.48L247,358.5c-.46-8.83-.85-16.55-1.26-24.44,2.07-.41,3.12-.74,4.18-.82,10.88-.82,21.86-1,32.58-2.75a7.15,7.15,0,0,0,3.84-2.65,6.75,6.75,0,0,0-1.74-10.25,7.22,7.22,0,0,0-3.44-1.13c-7.47-.18-15,1.49-22.49,2.2-6,.56-23.75-.84-25,1-1.53,2.28-1.44,5.87-1.45,8.9q-.13,40.77,0,81.54a29.47,29.47,0,0,0,1.35,9.89c.81,2.2,3.25,5.21,5.06,5.28,2,.07,5.23-2.33,6.06-4.4a38.61,38.61,0,0,0,2.69-13c.34-11.72.12-23.46.12-35.76C257.12,371.5,265.8,371.37,274.28,370Zm72.33-191.29a.08.08,0,0,1,0,0,4.47,4.47,0,0,0,7.36,1.16,3.28,3.28,0,0,0,.48-.69c3.22-6.06,1-16.74-4.32-21.78-5.16-4.88-10.77-4.82-15.62.08a23.64,23.64,0,0,0-6,9.9c-6.13,22.66-5.81,42,16.51,57.2,6,4.07,9.84,11.62,13.67,18.16,1.25,2.14.4,7.51-1.43,8.94-2.25,1.77-7,2.16-9.82,1-6.74-2.64-8.77.57-9.3,6.08-.66,6.88,3.65,10.33,9.64,11.72,12.41,2.88,23.91-4.89,25.84-17.63,2.74-18.15-5.47-31.22-19.66-41.57-15.44-11.27-18.41-22.05-9.92-41C344.88,173.15,345.52,176,346.61,178.71Zm-13,187.74c-1,24.07-7.28,42.72-22.26,57.76-5,5-10.55,9.81-18.44,7.11s-11-9.8-11.27-17.2c-.87-25.93,5.65-49.85,22.6-70,7.39-8.78,21.7-5.52,26,5.88C332.6,356.1,333,363,333.63,366.45Zm-39.87,49a3.88,3.88,0,0,0,6,2.88l0,0c14.32-10.3,25.43-41.42,20.63-58.43-.67-2.34-3.53-6.2-4.44-5.95-3.69,1-8.5,2.47-10.21,5.36a92.66,92.66,0,0,0-12.8,43.88A81.28,81.28,0,0,0,293.76,415.43ZM348.3,353.9c1.93-7.25,8.86-14.8,16.43-13.73,12.75,1.07,21.93,2.46,25.84,14.27,2.88,8.67,3.43,18.75,2.33,27.88-1,8-4.91,16-8.89,23.23-4.41,8-10.82,14.67-21.41,13.16-7.29-1-16.06-12-17.54-21.77-.62-4.12-.53-8.36-.77-12.55C344,384.3,345.65,363.83,348.3,353.9ZM381.4,373c-.78-4.07-.48-8.87-2.62-12-2.54-3.71-7-8-11-8.38-5.43-.46-9.21,4.06-9.8,10.39-.56,6.09-2.82,12.17-2.53,18.17a63.09,63.09,0,0,0,4.39,20c2.29,5.73,7.57,6.43,10.65.62C375.26,392.9,379.52,392.4,381.4,373Zm.65-176.14c8.23,22.88,16.36,45.81,25.07,68.51a5.39,5.39,0,0,0,2.73,2.49,6.05,6.05,0,0,0,8.4-2.93,5.31,5.31,0,0,0,.49-2.83c-1-6.23-3.88-12.2-5.95-18.2q-7.91-23-17.12-45.48c-5.62-13.68-6.09-17.94-6.09-17.94s13.85-12.28,14-12.73c.26-1.16.51-2.32.76-3.48a6.09,6.09,0,0,0-6.21-7.43,4.76,4.76,0,0,0-2.61.83c-11.31,8.69-22.16,18-32.76,27.54a3.54,3.54,0,0,0-.92,1.57c-1.24,3.93,1.9,8.27,6,7.85a4,4,0,0,0,.85-.18c3.59-1.21,5.85-3.28,10.15-5.89C379.73,192.07,381.11,194.29,382.05,196.9ZM359.22,309.12c13-.47,24.86-4.21,34.49-13.22A5.94,5.94,0,0,0,395,294a5,5,0,0,0-4-6.93,14.35,14.35,0,0,0-2.45-.09,15.84,15.84,0,0,0-6.27,2.26c-10.94,5.92-22.68,7.72-34.92,7.12-9.48-.47-18.95-1.12-28.42-1.33-1.88,0-5.18,1.34-5.37,2.48-.33,2,.56,5.42,2.09,6.35a28.33,28.33,0,0,0,10.89,3.83c7.37,1,16.69,1.51,22.27,1.67h.45C351.73,309.35,356.13,309.24,359.22,309.12Z"/>
      <g id="knife">
        <path id="knifebg" class="cls-2" d="M106.11,580a34.26,34.26,0,0,1-4-.24c-1.8-.22-3.78-.32-5.88-.42s-4-.19-6.18-.4A23.78,23.78,0,0,1,80.52,576c-15.55-9-15-19.07-9.28-31.36,10-21.61,19.63-43.11,28.73-63.92a40,40,0,0,0,2.15-7l-3.74-2c-1.26-.66-2.55-1.33-3.88-2l-8.67-4.64,5.68-17.57c2-6.23,4-12.43,6-18.65q1.95-6,3.89-12.1c3.59-11.16,7.31-22.71,10.79-34.07l2.38-7.75c5.33-17.32,10.83-35.24,15.73-52.91,4.26-15.39,8.35-31.15,12.3-46.4q3.74-14.43,7.53-28.85c1.16-4.36,2.46-8.65,3.71-12.8s2.47-8.19,3.54-12.22c1.35-5.1,2.61-10.4,3.83-15.52,1-4.19,2-8.38,3.05-12.54a39.91,39.91,0,0,1,2.38-6.49c.26-.58.51-1.14.74-1.72l2.54-6.32,5.49-12.92,8,6.52a19.57,19.57,0,0,1,6.34,9.55l1.19,4c.72,2.44,1.5,4.86,2.28,7.29a167.23,167.23,0,0,1,5,17.88,742.49,742.49,0,0,1,12.31,81.61q.49,5.6,1,11.19c1.71,18.24,3.48,37.11,3.08,56.14,0,2.8-.07,5.61-.08,8.43a216.73,216.73,0,0,1-1,24.21C212,406.06,209.93,419,208,431.58q-1.27,8-2.49,15.93l-1.57,10.41q-2,13.35-4.06,26.68c-.39,2.44-1,4.66-1.49,6.8-.22.87-.45,1.77-.67,2.69l-3,12.69-43.55-15c-.2,1.38-.4,2.76-.58,4.15a389.57,389.57,0,0,1-12.49,60.18A33.13,33.13,0,0,1,106.11,580Z"/>
        <path id="knife-2" data-name="knife" class="cls-3" d="M186.22,491.42,141.7,476.08c-.94,6.18-2,12.23-2.78,18.31a380.74,380.74,0,0,1-12.11,58.39,21.43,21.43,0,0,1-23.34,15.31c-4.08-.49-8.23-.45-12.32-.85a11.84,11.84,0,0,1-4.73-1.38c-8.35-4.85-8.68-7.21-4.5-16.25q14.73-31.92,28.83-64.14c2.1-4.8,3.08-10.13,4.17-15.31.24-1.11-1-3.12-2-3.8-4-2.45-8.2-4.51-12.83-7,2.91-9,5.83-17.95,8.69-26.89,4.93-15.43,10-30.82,14.72-46.31,6.22-20.27,12.53-40.53,18.2-61,6.93-25,13.18-50.26,19.86-75.37,2.23-8.39,5-16.64,7.26-25,2.47-9.35,4.52-18.81,6.9-28.18a56.39,56.39,0,0,1,2.64-6.72l1.33-.19c2.38,8,5.37,16,7,24.17a732.07,732.07,0,0,1,12.12,80.31c1.95,22,4.53,43.92,4.07,66-.21,10.52.18,21.11-1.05,31.51-2.11,18.07-5.27,36-8,54-1.87,12.35-3.69,24.69-5.63,37C187.76,485.58,186.94,488.32,186.22,491.42Zm-20.83-204.9c-1.19,3.86-2.66,7.66-3.51,11.59-2.19,10.09-3.77,20.32-6.19,30.36-5.93,24.67-12.17,49.27-18.36,73.88-3.13,12.41-6.67,24.71-9.54,37.17-1.7,7.4-.54,8.42,6.52,8.31A552.78,552.78,0,0,0,165.39,286.52ZM106.81,537.75c-3.8-.09-6.73,1.6-8.14,4.67C96.74,546.65,97,553,100,555.18a14,14,0,0,0,8,2.68c1.21,0,2.6-3.42,3.4-5.48a42.91,42.91,0,0,0,1.49-6.66C113.93,540.93,111.58,537.85,106.81,537.75Z"/>
      </g>
      <g id="fork">
        <path id="forkbg" class="cls-2" d="M564.78,539.32c-.79,0-1.61,0-2.44-.08-25.24-1.78-38.42-14.13-41.48-38.89q-1.08-8.69-2.13-17.38c-5.88-48.26-12-98.13-24.67-145.72-14.75-.66-28.58-7-41.17-18.8-6-5.66-8.5-14-10.14-21.37-7.84-35.46-13.54-62.64-18.48-88.11-1.65-8.54-1.22-16.82-.53-26,.56-7.4,6.44-10.74,9.95-12.74.88-.51,1.8-1,2.44-1.48l2.37-1.67a9.91,9.91,0,0,1,15.44,6.29l.53,2.85c1,5.3,1.88,10.4,2.74,15.36,1.88,10.71,3.64,20.83,6,30.55A224.48,224.48,0,0,0,470.76,246c.8-7.09,0-14.54-.76-22.35-.36-3.49-.73-7.11-1-10.77-.5-7.76-1.35-15.75-2.18-23.48-.62-5.87-1.27-12-1.78-18,0-.15-.1-.45-.17-.75-2.56-11.49,2.93-17.4,8-20.34a20,20,0,0,1,10.11-3c5.69,0,12.67,3.28,15.19,12.48,2.62,9.51,5.09,19.17,7.48,28.52q1.86,7.26,3.74,14.52c1.55,6,3.37,12.89,5.33,19.65.48,1.63,1,3.27,1.44,4.9a265.86,265.86,0,0,0-4.84-44.41c0-.12-.09-.31-.14-.51a17.26,17.26,0,0,1-.4-9.92c.72-2.48,2.91-10,9.84-13.16a16.88,16.88,0,0,1,7-1.53,16.32,16.32,0,0,1,15.73,12.42c.72,2.67,1.45,5.33,2.18,8,2,7.28,4.06,14.81,5.9,22.34l1.54,6.29c3.52,14.35,7.16,29.19,10.2,44,3.14,15.31,5.46,33.4-1.16,51.52A32,32,0,0,1,552.69,316c-3.7,3-7.51,5.59-11.19,8.1-1.33.91-2.62,1.79-3.88,2.67q2.11,8,4.22,15.94c7.25,27.48,14.74,55.89,22.81,83.55,2.39,8.19,5.56,16.17,8.93,24.62,2.85,7.16,5.8,14.57,8.26,22.2a228.61,228.61,0,0,1,8.35,36.54c1.23,8.19-.69,15.73-5.43,21.24S572.94,539.32,564.78,539.32Z"/>
        <path id="fork-2" data-name="fork" class="cls-3" d="M442.9,178.4c3.16,17,5.33,31.91,8.86,46.52,2.75,11.36,7,22.38,11,33.4,1.25,3.44,2.73,8,7.89,7.14,4.69-.79,9.84-8,10.7-11.67,3.33-14,.34-27.84-.55-41.7s-2.81-27.79-4-41.7c-.28-3.3-2.71-7.21,2-9.93,4-2.33,6.83-2,8.05,2.38,3.91,14.25,7.45,28.6,11.17,42.9,1.74,6.67,3.51,13.33,5.42,19.95q3.27,11.26,6.85,22.43c.94,2.92,1.63,6.65,6.23,5.2s11.17-.62,11.38-7.64a291.38,291.38,0,0,0-5-65c-.33-1.64-1.2-3.45-.79-4.88.62-2.13,1.72-5,3.41-5.73,2.58-1.17,5.57-.25,6.51,3.24,2.71,10,5.55,20,8,30.08,4.05,16.58,8.21,33.15,11.64,49.86,3.08,15,4.75,30.22-.69,45.12a20.19,20.19,0,0,1-5.69,8.48c-5.9,4.76-12.47,8.68-18.53,13.25a5.72,5.72,0,0,0-1.81,4.82c9.28,34.93,18.28,69.94,28.39,104.64,4.68,16,12.15,31.22,17.29,47.13a219.8,219.8,0,0,1,7.92,34.69c1.58,10.48-4.88,16.9-15.39,16.16-19.25-1.35-28.21-9-30.64-28.6-7-56.58-12.95-113.37-28.16-168.59-.81-3-1.31-5-5.74-4.81-14.79.63-27.31-5.88-37.68-15.63-3.76-3.53-5.52-9.92-6.71-15.33-6.46-29.2-12.73-58.45-18.42-87.81-1.43-7.39-.92-15.27-.35-22.85C435.61,182.14,439.66,180.69,442.9,178.4ZM567.09,502.6c-3.1-7.65-3.43-15.51-11.51-18.44-2-.74-4.91-2-6.23-1.13a7.06,7.06,0,0,0-2.49,6.06c1.22,5.56,2.74,11.25,5.39,16.22,1.17,2.2,5.69,4.29,8,3.73C563,508.39,565,504.75,567.09,502.6Z"/>
      </g>
    </g>
  </g>
</svg>
