<svg id="fast_food" xmlns="http://www.w3.org/2000/svg" width="522.98" height="574.75" viewBox="0 0 522.98 574.75">
  <defs>
    <style>
      .cls-1 {
        fill: #51a8ce;
      }

      .cls-2 {
        fill: #fff;
      }

      .cls-3 {
        fill: #232323;
      }
    </style>
  </defs>
  <title>fast</title>
  <g id="fast_food-2" data-name="fast food">
    <path id="_3_dot" data-name="3 dot" class="cls-1" d="M365.33,56.52c8.93-11.2,17.8-22.44,26.83-33.55,2.58-3.18,16.28-3,19.45-1.77,2.9,1.16,4.46,5.53,6.76,8.35,2,2.51,1.32,4.19-.95,6.11-13.07,11.08-26.18,22.11-39,33.49-6.55,5.81-11.88,6.08-18.1-.44a4.08,4.08,0,0,1-.48-3.77C361.42,62,363.47,59.31,365.33,56.52ZM348.41,44.93c5.68-11.73,11.48-23.4,17-35.22,1.19-2.57.34-5.25-3-6C357.59,2.56,352.68,1.84,348,.43c-4.34-1.29-6,.38-7.09,4.34-1.18,4.5-2.79,8.89-4.31,13.29-4.62,13.32-9.36,26.61-13.84,40-.41,1.24.14,3.68,1.09,4.35,7.35,5.16,11.82,4.24,17-3.13a16,16,0,0,0,1.57-2.76C344.22,52.54,348.17,44.82,348.41,44.93Zm53.77,53.61c12.17-5.19,24.46-10.09,36.69-15.11,2.69-1.11,4.64-2.13,2.09-5.59-3.46-4.71-6.45-9.78-9.47-14.8-1.6-2.64-3.46-2.63-5.69-1.13-12.57,8.43-25.42,16.5-37.6,25.47-8.37,6.17-8.71,10.4-4,19.77C390.19,104.27,396.07,101.14,402.18,98.54Z"/>
    <path id="fastfoodbg" class="cls-1" d="M326,498.88a205.93,205.93,0,0,1-70,.65c-9.63-1.52-18.83-5.24-28.41-7.15-13.55-2.7-24.6-10.41-36.12-17C171,463.7,150.51,452,131.08,438.88c-19-12.89-37-27.39-52.91-44.2-9.1-9.6-18.59-18.86-27.07-29A109.23,109.23,0,0,1,37,343.82c-9-18.34-16.18-37.52-19.68-58-1.65-9.66,1.47-18.34,5.7-27,2.61-5.37,3.64-11.45,5.94-17,8.54-20.45,18.88-40,32.94-57.22,5.5-6.74,12.43-12.28,17.9-19,21.38-26.46,49.82-43.13,78.33-59.3C178,94.9,198.69,84.64,221,79.38a115.53,115.53,0,0,1,20-2.67C260,75.64,279,74,297.76,76.56c3.05.42,5.83,2.29,8.83,3.19,1.44.43,3.27-.21,4.65.32,9.83,3.77,19.8,7.27,29.27,11.81,4,1.91,6.62,6.37,10.23,9.22,10.7,8.45,16.59,20.85,24.62,31.47,5.88,7.78,11.71,15.86,15.9,24.68,6,12.68,10.79,26.05,15.61,39.32,2,5.47,1.73,12,4.18,17.12C426.48,246,430,281.84,437.62,316.47c4.31,19.49,2.24,38.92-.05,58.57-1.74,14.92-3.55,29.71-8.63,44.12-6.38,18.09-15.28,34.08-29.76,47.3-16.78,15.32-36.05,24.33-57.32,29.5C340.35,496.33,329.68,498.19,326,498.88Z"/>
    <path id="ff" class="cls-2" d="M345.43,309.1c24.54.31,51.1,23.08,54.49,46.72,3.54,24.65-14.59,54.38-37.47,61.42-9.91,3.05-14.31,1.08-17.27-8.59-8-26.07-15.5-84.83-15.9-86.71-2.45-11.54.6-12.61,12.79-12.84C343.19,309.08,344.31,309.1,345.43,309.1Zm11.25,94.75c20.65-3.48,31.18-30.19,29.59-44.07-2-17.72-24.52-35.83-44.9-35.19C346.48,351.05,351.54,377.22,356.68,403.85ZM232.8,239c-5.42,0-10.42-.4-15.3.22-1.75.22-3.75,2.65-4.65,4.55-2.87,6-5,12.48-8,18.43a4.75,4.75,0,0,1-.48.72c-2.65,3.21-8,1.66-9-2.37a4,4,0,0,1-.13-1.28c.31-4.66,2-9.22,3.2-13.82,6.93-27.91,13.71-55.86,21-83.68a6.55,6.55,0,0,1,.47-1.28c2.4-5,9.8-5.44,12.6-.64a5.78,5.78,0,0,1,.74,1.9c5.88,31.31,11.18,62.72,16.59,94.12.33,1.91.86,4.37,0,5.76a29.61,29.61,0,0,1-3.35,4.26,5.42,5.42,0,0,1-7.61.35,9.31,9.31,0,0,1-3.17-4.32C233.9,254.72,233.69,247.13,232.8,239Zm-6.43-40.62c-.64.07-6.1,18.76-8.44,29.12l13-3.48C229.34,215.2,227.85,206.81,226.37,198.41Zm-41.06-23c4.09-1.73,9.17-3,11.6-6.16,2.2-2.86,2.48-8.3,1.48-12-.47-1.78-6.45-3.89-8.94-3-8.08,2.83-15.67,7-23.51,10.56-2,.89-19.38.63-18.13,12,3.38,30.86,7.69,61.62,11.77,92.4.65,4.93,3.62,9.33,8.81,7.66,2.87-.93,6.34-5.9,6.27-9-.22-9.73-1.76-19.46-3.19-29.13-2.42-16.22-2.55-16.2,11.57-23.8,2.22-1.2,4.49-2.33,6.58-3.72,4.66-3.11,9.17-6.87,5.34-13-3.45-5.49-8.81-3.8-13.46-1.31-4.84,2.6-9.43,5.65-15,9-1.39-7.73-2.57-14.28-3.88-21.53C170.82,181.17,178.13,178.42,185.31,175.39Zm21.4,189.35a4.9,4.9,0,0,0,1.81-.73c3.91-2.46,3.73-8.34-.07-11a7.37,7.37,0,0,0-2.41-1.17c-3.85-1-8.28.21-12.45.48l-14.21.91c-.46-8.83-.86-16.55-1.26-24.44a41.43,41.43,0,0,1,4.18-.82c10.88-.82,21.86-1,32.58-2.75a7.13,7.13,0,0,0,3.83-2.66A6.74,6.74,0,0,0,217,312.33a7.38,7.38,0,0,0-3.44-1.14c-7.47-.17-15,1.5-22.49,2.2-6,.57-23.75-.83-25,1.05-1.52,2.28-1.44,5.87-1.45,8.89q-.14,40.77,0,81.54a29.19,29.19,0,0,0,1.35,9.89c.81,2.21,3.25,5.22,5.05,5.29,2,.07,5.24-2.33,6.06-4.4a38.61,38.61,0,0,0,2.69-13c.35-11.72.12-23.45.12-35.75C189.55,366.24,198.23,366.11,206.71,364.74ZM279,173.45l0,0a4.46,4.46,0,0,0,7.36,1.17,4,4,0,0,0,.47-.69c3.23-6.06,1-16.75-4.32-21.78-5.15-4.88-10.77-4.82-15.61.08a23.64,23.64,0,0,0-6,9.9c-6.13,22.66-5.82,42,16.5,57.2,6,4.06,9.84,11.62,13.68,18.16,1.25,2.14.39,7.51-1.43,8.94-2.26,1.77-7,2.16-9.82,1-6.74-2.64-8.78.56-9.31,6.08-.66,6.88,3.66,10.32,9.65,11.72,12.4,2.88,23.91-4.9,25.84-17.63,2.74-18.15-5.47-31.22-19.66-41.57-15.44-11.27-18.41-22.06-9.93-41C277.31,167.89,278,170.76,279,173.45Zm-13,187.74c-1,24.07-7.28,42.72-22.26,57.76-5,5-10.56,9.81-18.44,7.11s-11-9.8-11.27-17.2c-.88-25.93,5.65-49.85,22.6-70,7.39-8.78,21.7-5.53,26,5.88C265,350.84,265.39,357.69,266.06,361.19Zm-39.87,49a3.88,3.88,0,0,0,6,2.88l0,0c14.31-10.3,25.43-41.42,20.62-58.43-.66-2.34-3.52-6.2-4.43-6-3.69,1-8.5,2.47-10.22,5.36a92.77,92.77,0,0,0-12.79,43.88A80,80,0,0,0,226.19,410.17Zm54.53-61.53c1.93-7.26,8.87-14.8,16.44-13.73,12.74,1.07,21.92,2.46,25.84,14.27,2.87,8.66,3.42,18.75,2.33,27.88-1,8-4.91,16-8.89,23.23-4.41,8-10.83,14.67-21.41,13.16-7.29-1-16.06-12.05-17.54-21.77-.63-4.13-.54-8.36-.77-12.55C276.41,379,278.08,358.57,280.72,348.64Zm33.11,19.14c-.78-4.07-.48-8.88-2.62-12-2.54-3.71-7-8-11-8.38-5.42-.46-9.21,4.06-9.79,10.39-.57,6.09-2.82,12.17-2.53,18.16a63.09,63.09,0,0,0,4.39,20c2.29,5.73,7.56,6.43,10.65.61C307.68,387.63,311.94,387.14,313.83,367.78Zm.65-176.15c8.23,22.89,16.35,45.81,25.06,68.52a5.47,5.47,0,0,0,2.73,2.49,6.06,6.06,0,0,0,8.41-2.93,5.44,5.44,0,0,0,.49-2.84c-1-6.23-3.89-12.19-5.95-18.19q-7.91-23-17.12-45.48c-5.62-13.68-6.09-17.94-6.09-17.94S335.86,163,336,162.53c.27-1.16.52-2.32.77-3.48a6.1,6.1,0,0,0-6.22-7.43,4.75,4.75,0,0,0-2.6.83c-11.31,8.69-22.16,18-32.76,27.54a3.47,3.47,0,0,0-.92,1.56c-1.24,3.94,1.89,8.28,6,7.85a3.56,3.56,0,0,0,.86-.18c3.59-1.2,5.85-3.27,10.15-5.88C312.15,186.81,313.54,189,314.48,191.63ZM291.64,303.86c13-.48,24.87-4.21,34.49-13.23a5.76,5.76,0,0,0,1.29-1.89,5,5,0,0,0-4-6.93,14.4,14.4,0,0,0-2.45-.1c-2.13.11-4.32,1.22-6.27,2.27-10.94,5.92-22.68,7.72-34.93,7.12-9.47-.47-18.94-1.13-28.42-1.33-1.87,0-5.18,1.34-5.36,2.48-.34,2,.55,5.42,2.08,6.35a28.55,28.55,0,0,0,10.89,3.83c7.38.95,16.7,1.51,22.28,1.67h.45C284.16,304.08,288.56,304,291.64,303.86Z"/>
    <g id="knife_fast">
      <path id="knifebg" class="cls-2" d="M38.54,574.75a32.26,32.26,0,0,1-4-.25c-1.81-.21-3.79-.31-5.88-.41s-4-.19-6.18-.4a23.82,23.82,0,0,1-9.49-2.91c-15.54-9-14.95-19.07-9.28-31.36,10-21.61,19.64-43.11,28.74-63.92a40.84,40.84,0,0,0,2.15-7l-3.74-2c-1.26-.66-2.56-1.34-3.88-2l-8.68-4.63,5.69-17.57q3-9.34,6-18.65,1.93-6,3.89-12.11c3.59-11.16,7.31-22.7,10.79-34.06L47,369.7c5.32-17.32,10.83-35.23,15.73-52.9C67,301.41,71.09,285.64,75,270.4c2.49-9.63,5-19.25,7.54-28.85,1.16-4.36,2.45-8.65,3.71-12.8s2.47-8.19,3.54-12.22c1.35-5.11,2.61-10.4,3.82-15.52,1-4.19,2-8.38,3-12.55A41,41,0,0,1,99.09,182c.25-.58.51-1.15.74-1.72l2.53-6.32,5.5-12.92,8,6.52a19.48,19.48,0,0,1,6.35,9.55l1.18,4c.73,2.44,1.5,4.86,2.28,7.29a164.92,164.92,0,0,1,5,17.88,737.36,737.36,0,0,1,12.31,81.61q.51,5.6,1,11.19c1.7,18.24,3.47,37.11,3.08,56.13-.06,2.81-.07,5.62-.08,8.43a214.58,214.58,0,0,1-1,24.22c-1.51,12.93-3.57,25.91-5.56,38.46-.84,5.31-1.68,10.62-2.48,15.93l-1.57,10.41c-1.34,8.89-2.67,17.79-4.07,26.68-.38,2.43-.94,4.65-1.49,6.8-.22.87-.44,1.77-.66,2.69l-3,12.69-43.54-15c-.21,1.39-.4,2.77-.58,4.16a390.75,390.75,0,0,1-12.49,60.18A33.14,33.14,0,0,1,38.54,574.75Z"/>
      <path id="knife" class="cls-3" d="M118.64,486.16,74.13,470.82c-.95,6.18-2,12.23-2.79,18.31a380.71,380.71,0,0,1-12.1,58.39,21.43,21.43,0,0,1-23.34,15.3c-4.09-.49-8.23-.44-12.33-.84a11.84,11.84,0,0,1-4.72-1.38c-8.36-4.85-8.68-7.21-4.51-16.25q14.75-31.92,28.84-64.14c2.1-4.8,3.08-10.14,4.17-15.31.23-1.11-1-3.12-2.05-3.8-4-2.45-8.2-4.51-12.82-7,2.91-9,5.82-17.95,8.69-26.89,4.93-15.43,10-30.83,14.72-46.31,6.22-20.28,12.53-40.53,18.19-61C81,294.9,87.27,269.68,94,244.57c2.23-8.4,5-16.64,7.25-25,2.48-9.35,4.52-18.81,6.91-28.18a53.32,53.32,0,0,1,2.64-6.73l1.32-.18c2.38,8,5.37,16,7,24.16a730.23,730.23,0,0,1,12.13,80.32c2,22,4.52,43.91,4.07,66-.22,10.51.17,21.11-1.05,31.51-2.12,18.07-5.28,36-8,54-1.86,12.34-3.68,24.69-5.62,37C120.19,480.32,119.37,483.06,118.64,486.16ZM97.82,281.26c-1.19,3.86-2.67,7.65-3.52,11.59-2.18,10.09-3.76,20.32-6.18,30.35C82.18,347.88,76,372.48,69.75,397.09c-3.12,12.41-6.66,24.71-9.53,37.17-1.71,7.4-.54,8.42,6.51,8.31A552.46,552.46,0,0,0,97.82,281.26ZM39.24,532.49c-3.81-.09-6.73,1.59-8.14,4.67-1.94,4.23-1.66,10.59,1.32,12.76a13.87,13.87,0,0,0,8,2.67c1.2,0,2.59-3.41,3.4-5.47a44.35,44.35,0,0,0,1.48-6.66C46.36,535.67,44,532.59,39.24,532.49Z"/>
    </g>
    <g id="fork">
      <path id="forkbg" class="cls-2" d="M497.21,534.06c-.8,0-1.61,0-2.44-.08-25.24-1.78-38.42-14.13-41.49-38.9q-1.06-8.67-2.12-17.37c-5.88-48.26-12-98.13-24.67-145.73-14.75-.65-28.59-7-41.17-18.8-6-5.66-8.51-14-10.14-21.36-7.84-35.46-13.54-62.64-18.48-88.11-1.66-8.55-1.22-16.82-.53-26,.55-7.4,6.43-10.74,9.94-12.74.89-.51,1.81-1,2.44-1.48l2.37-1.67a9.91,9.91,0,0,1,15.45,6.28l.53,2.86c1,5.3,1.87,10.4,2.74,15.36,1.87,10.71,3.64,20.83,6,30.54a224.63,224.63,0,0,0,7.56,23.82c.8-7.09,0-14.54-.76-22.35-.36-3.49-.73-7.11-1-10.77-.5-7.76-1.35-15.75-2.17-23.48-.63-5.88-1.27-12-1.78-18l-.17-.75c-2.56-11.49,2.93-17.39,8-20.33a19.93,19.93,0,0,1,10.11-3c5.69,0,12.67,3.28,15.19,12.47,2.61,9.51,5.09,19.18,7.48,28.53q1.84,7.26,3.73,14.52c1.56,6,3.38,12.88,5.34,19.65q.7,2.44,1.43,4.89a264.7,264.7,0,0,0-4.83-44.4c0-.12-.09-.31-.15-.51a17.19,17.19,0,0,1-.39-9.92c.72-2.48,2.91-10,9.84-13.16a16.85,16.85,0,0,1,7-1.54,16.33,16.33,0,0,1,15.73,12.42q1.08,4,2.18,8c2,7.28,4.06,14.81,5.9,22.34l1.54,6.29c3.52,14.35,7.16,29.19,10.2,44,3.14,15.3,5.46,33.39-1.17,51.52a31.8,31.8,0,0,1-9.35,13.59c-3.7,3-7.5,5.59-11.18,8.1-1.33.91-2.62,1.79-3.88,2.67q2.11,8,4.21,15.94C481.51,364.89,489,393.3,497.08,421c2.38,8.18,5.56,16.17,8.92,24.62,2.85,7.16,5.8,14.57,8.26,22.2a229.67,229.67,0,0,1,8.36,36.54c1.23,8.19-.7,15.73-5.44,21.24S505.37,534.06,497.21,534.06Z"/>
      <path id="fork_fast" class="cls-3" d="M375.33,173.14c3.16,17,5.33,31.91,8.86,46.52,2.74,11.35,7,22.37,11,33.39,1.25,3.45,2.73,8,7.89,7.15,4.69-.79,9.84-8,10.7-11.67,3.33-14,.34-27.84-.56-41.7s-2.8-27.79-4-41.71c-.28-3.3-2.71-7.2,2-9.92,4-2.33,6.83-2,8,2.38,3.91,14.25,7.44,28.6,11.17,42.9,1.74,6.67,3.5,13.33,5.42,20q3.25,11.26,6.85,22.43c.94,2.92,1.63,6.65,6.23,5.2s11.17-.62,11.38-7.64a290.8,290.8,0,0,0-5-65c-.32-1.64-1.19-3.45-.78-4.89.62-2.12,1.72-5,3.41-5.72,2.58-1.17,5.57-.25,6.51,3.24,2.7,10,5.55,20,8,30.07,4.05,16.59,8.21,33.16,11.64,49.87,3.08,15,4.76,30.22-.69,45.11a20,20,0,0,1-5.68,8.49c-5.9,4.76-12.47,8.68-18.53,13.25a5.72,5.72,0,0,0-1.81,4.82c9.27,34.93,18.28,69.94,28.39,104.63,4.67,16,12.15,31.23,17.29,47.14A219.52,219.52,0,0,1,511,506.08c1.58,10.48-4.87,16.9-15.39,16.16-19.24-1.35-28.21-9-30.63-28.6C458,437.05,452,380.27,436.8,325.05c-.82-3-1.31-5-5.74-4.82-14.79.64-27.32-5.87-37.69-15.62-3.76-3.53-5.51-9.92-6.7-15.33-6.46-29.2-12.73-58.45-18.42-87.81-1.43-7.39-.92-15.27-.35-22.85C368,176.88,372.08,175.43,375.33,173.14Zm124.18,324.2c-3.09-7.65-3.42-15.51-11.5-18.44-2-.74-4.91-2-6.23-1.13a7.1,7.1,0,0,0-2.5,6.06c1.23,5.56,2.75,11.25,5.39,16.22,1.17,2.2,5.7,4.29,8.05,3.72C495.42,503.13,497.41,499.49,499.51,497.34Z"/>
    </g>
  </g>
</svg>
