<svg id="icon" id="hot" xmlns="http://www.w3.org/2000/svg" width="521.65" height="570.78" viewBox="0 0 521.65 570.78">
  <defs>
    <style>
      .cls-1 {
        fill: #e27227;
      }

      .cls-2 {
        fill: #fff;
      }

      .cls-3 {
        fill: #232323;
      }
    </style>
  </defs>
  <title>hot</title>
  <g id="Hot-2" data-name="Hot">
    <path id="Firebg" class="cls-1" d="M404.7,228.73c4.42-5.77,9.38-11.68,13.71-18,8.71-12.72,15.93-25.95,10.69-42.27-.72-2.24-1.07-4.59-1.86-6.8-4.76-13.27-3.4-26.49-.69-40,2.35-11.72,9.62-19.38,18.31-26.41,1.2-1,8.08-2.65,10.25-3.58,6.71-2.91,14-4.65,19.8-9.53a6.64,6.64,0,0,1,4.46-1.32c-.86,1.92-1.42,4.08-2.64,5.74-7.69,10.51-12.17,22-10.89,35.21,1.21,12.49,5.45,23.83,14.24,33.15,7.13,7.57,14.56,14.89,21.25,22.83,3.38,4,5.81,9,8,13.87,6.76,15.18,10,31.38,11.68,47.72a144.36,144.36,0,0,1-.5,32,400.45,400.45,0,0,1-8.31,46.53c-2.5,10.16-7,19.91-11.41,29.51-5.61,12.3-11.42,24.57-18.13,36.28-12.07,21.08-12.39,20.42-29.86,37.64-9.12,9-69.66-1.75-132.35,41.79-108,33.08-59.05,59.7-94,62.69-22.89,1.95-32.25,7.11-55.15,8.92a40.62,40.62,0,0,1-12.43-1c-20.21-4.88-40.4-9.83-60.47-15.24-9.18-2.48-16-8.72-21.56-16.39-7.25-10-15.13-19.6-21.84-29.95C44.67,456.29,37,439.23,36.07,420c-.62-13.35-1.73-26.81-.65-40.06.79-9.57,2.3-19.59,8.45-28,4-5.51,7.22-11.62,10.87-17.41A14.69,14.69,0,0,1,57.27,332c1,6.37,1.12,12.88,3.19,18.68,4.59,12.86,6.85,27,17.83,36.81,3.8,3.4,7.65,6.62,13.08,7.27-7.75-10.15-12.12-21.74-15.48-33.59a106.6,106.6,0,0,1-4.33-25.62c-.33-11.18.89-22.42,1.78-33.6A140.28,140.28,0,0,1,76,284.33c6-28.46-.57-54.79-13.23-80.12C60,198.7,57,193.31,53.44,186.6c3.1,0,5.92-.68,8.22.12a142.68,142.68,0,0,1,19.43,8c10.34,5.43,20.39,11.45,30.42,17.44,1.29.78,1.77,2.91,2.65,4.44,1.12.72,2.94,1.3,3.86,2.54,14.26,19.3,20.45,26.56,25.65,59.72,1.11-2.57,2.24-4.21,2.5-6,2.66-18,5.88-36.08.84-54-1.83-6.46-6.51-12.24-10.48-17.92-9.74-13.95-18.35-28.52-21.91-45.26-1.5-7.07-.87-14.72-.44-22.06a235.66,235.66,0,0,1,2.91-24.4c.7-4.25,11-31.77,16.21-40.79,2.59-4.52,7-8,10.75-11.82,1.15-1.17,2.87-1.77,4.77-2.9-1.1,7.63-1.56,14.47-3.1,21-7.89,33.61,16.24,62.2,43.19,71.77,7.18,2.55,14.32,4.59,22.1,2.75,1.57-.37,3.69.37,5.23,1.21,15.31,8.36,30.7,16.59,44,28.06,4.33,3.74,7.4,8.07,8,14,.25,2.25,1.37,4.4,2.27,7.16,1-1.22,4.52,24.53,4.78,26.39,1.89,13.09-.67,25.68-4.27,38.15a39.74,39.74,0,0,0-2,10.9c.53-.48,1.26-.87,1.58-1.47,6.8-12.74,13.06-25.47,14.75-40.31,2.24-19.54-1.95-37.92-9.65-55.2-7.88-17.67-18.24-34.24-27.5-51.3-.23-.42-.35-.91-.91-2.35,5.09,2.58,9.38,4.9,13.79,7,15.9,7.43,31.94,14.55,47.69,22.29A37.16,37.16,0,0,1,320.41,163c7.08,8.38,14.49,16.71,16.55,28.25l1.76-.16q1.25-8.67,2.47-17.35c.05-.31-.17-.67-.13-1,1.9-18.43-9.11-30.92-20.24-43.11-12.77-14-14.2-29.56-7.91-46.56,1.91-5.19,4.41-10.17,6.27-15.38,3.06-8.6,9.76-13.77,16.86-18.6.88-.6,2.78-.84,3.47-.3s.78,2.28.71,3.47a13.67,13.67,0,0,1-.91,4.91c-9.41,20.21,9.93,47.91,29.3,52.71,17.56,4.35,29.91,15,42.3,26.53a14.05,14.05,0,0,1,3.94,6.72c2.1,9.14,4.37,18.32,5.34,27.61.86,8.14,1.1,16.65-.33,24.65-1,5.73-5.15,10.93-8.05,16.28-1.59,2.94-3.86,5.55-5.14,8.6C405.49,223.07,405.24,226.25,404.7,228.73ZM2.9,217.67c0,2.17-.39,4.34-.51,6.52-.76,13.52-1.32,27.05-2.32,40.55-.36,4.78.69,8.55,4.3,11.67q8.58,7.39,17,14.91c6.42,5.71,11.25,12.37,12.66,21.15.49,3,1.56,6,2.7,10.16a79,79,0,0,0,4.39-6.81c2.59-5.27,5.31-10.51,7.38-16,5.37-14.27,4.94-28.24-3.2-41.52a10.34,10.34,0,0,0-2.64-2.8c-3.68-2.78-7.85-5-11.09-8.25a105.51,105.51,0,0,1-23-34C4.66,212.87,2.93,214.21,2.9,217.67ZM409.1,94.43c-.82-10.09.76-19.55,6-28.37,8.94-14.93,9.61-31.12,6.23-47.64a66.78,66.78,0,0,0-5.5-15.07c-.81-1.69-3.51-2.81-5.56-3.35-.54-.14-2.25,2.77-2.81,4.48-1.26,3.79-1.93,7.78-3.19,11.56-4.8,14.41-14,26.16-23.51,37.59-3,3.56-5.37,6.15-5.1,11.6.46,9.12,2.74,16.72,10.26,22.12s15,10.34,22.91,15.77A72.85,72.85,0,0,0,409.1,94.43ZM88,144.05c-2.49-4.55-5.9-8.74-7.62-13.55C75,115.21,69,100,70,83.17c.15-2.3-1.43-4.7-2.22-7.06l-2.08.16C61.51,87.17,56.89,97.94,53.25,109c-1.53,4.67-6.12,7.07-6.1,13.47,0,7.33,1.77,12.94,6.39,17.58,6.21,6.26,13.38,11.56,19.81,17.62,5.77,5.44,11.09,11.35,16.84,17.3A38.43,38.43,0,0,0,88,144.05ZM206.32,69.21c-.47,6.65-4.44,11.39-8.15,16.23-3.82,5-4.9,10.15-4,16.43,1,7,3.9,12.27,9.7,16.16,4,2.7,7.95,5.55,11.81,8.47,2.57,2,4.42,1.32,5.75-.48-.44-2.22-.68-3.84-1.1-5.4-.79-2.89-.92-6.38-2.67-8.49-5.88-7.07-4.26-14.77-2.18-22.19,2.9-10.37.78-19.27-6.11-28.57C208.07,64.64,206.49,66.88,206.32,69.21Zm278.05,44.92c.52,4.4.49,9,1.81,13.12.62,1.95,3.67,3.52,5.95,4.34.81.29,2.63-2.11,3.92-3.35a16.63,16.63,0,0,0,1.54-2q10-12.86,20.05-25.72c2.79-3.58,2.86-11.31-.09-14.47a3.44,3.44,0,0,0-3.29-.33c-5.47,3.56-11.59,6.6-15.93,11.27C493.54,102.17,484.84,114.19,484.37,114.13Z"/>
    <g>
      <path id="whitebg" class="cls-2" d="M231.56,515.13c-7.87,0-15.74-.31-23.36-.61-6.69-.27-13.61-.54-20.32-.59-22.93-.17-39.52-10.95-48-31.18-2-4.76-3.76-9.61-5.18-13.5-.55-1.51-1.06-2.92-1.53-4.16l-1-2.69.5-4.82c1.92-18.48,3.73-35.94,12.61-52.13a235.86,235.86,0,0,1,54.91-67.3c15.34-12.93,32.24-22.89,48.59-32.52,5.26-3.1,10.71-6.3,16-9.53,15.38-9.45,31.83-15.36,47.73-21.08l3.08-1.11a129.59,129.59,0,0,1,22-6,115.85,115.85,0,0,1,15.26-1.32c2-.08,4-.16,6.05-.3,3.91-.27,7.82-.59,11.73-.91,8.92-.72,18.13-1.47,27.4-1.64l2.41,0c8.89,0,17.63.86,26.07,1.7l2.47.25c4.93.48,8.82,2.71,11.67,4.34l.8.45c21.76,12.25,35.27,29.78,40.16,52.11,1.37,6.26.45,12.09-.37,17.22-.33,2.1-.65,4.08-.74,5.77A94.6,94.6,0,0,1,471,380.46c-5,10.56-12.41,19.25-19.58,27.66l-2.19,2.57c-17.4,20.52-39.68,34.89-61,47.85-25.11,15.25-52.6,30.83-83.47,41.47-22.8,7.87-42.05,12.37-60.58,14.19l-2.29.24a93.84,93.84,0,0,1-10,.69Z"/>
      <path id="bghot" class="cls-3" d="M144.59,460.8c1.94-18.59,3.4-34.94,11.37-49.5a222.67,222.67,0,0,1,52.09-63.83c19.4-16.37,41.7-27.85,63.07-41,15.24-9.37,31.93-15.12,48.55-21.11a118,118,0,0,1,19.9-5.45c6.58-1.13,13.38-1,20.07-1.47,12.84-.88,25.67-2.29,38.52-2.52,9.84-.18,19.72.9,29.54,1.87,2.65.26,5.25,1.92,7.68,3.29,17.58,9.89,29.89,24.25,34.24,44.09,1.35,6.16-1,13.09-1.38,19.68A83.12,83.12,0,0,1,460,375.25c-4.77,10.1-12.69,18.88-20,27.55-16.17,19.08-36.92,32.49-58,45.32-25.9,15.73-52.36,30.46-81.12,40.37-18.76,6.47-38,11.64-57.79,13.58-3.68.36-7.5.87-11.12.87-14.65,0-29.29-1.1-43.93-1.2-17.46-.13-30-7.4-36.84-23.69C148.49,471.73,146.27,465.25,144.59,460.8Zm69.26,17.5c20.69-.36,35.29-4.41,49.82-8.62,2.24-.65,5.57-1.45,3.8-5.54-2.41-5.6-3.75-6.67-8-5.12-14.49,5.26-29.17,9.06-44.81,7.45-15.14-1.56-27.94-6.46-33.72-22.23-.41-1.1-1.87-1.81-2.85-2.71-.68,1.27-1.93,2.53-1.94,3.79a25.2,25.2,0,0,0,6,16.56C191.77,473.58,204.13,479,213.85,478.3Zm177.51-74a74.84,74.84,0,0,0,29.2-23.38c2.52-3.37,3.9-8.11,9.33-8.33.47,0,1.06-.71,1.36-1.23,4.26-7.34,8.68-14.6,12.59-22.12,1.37-2.62,1.47-5.9,2.17-9-8.84-.74-8.84-.74-11.63,6.23-.18.44-.48.82-.68,1.25-7.77,17.27-20.91,30.68-32.51,45.2C397.84,397.16,394.17,401.09,391.36,404.31Z"/>
      <path class="cls-2" d="M377.7,533c-5.83,0-9.31-2.51-11.2-4.63a158.66,158.66,0,0,1-12.18-15.51,31.69,31.69,0,0,1-4.78-11.95c-.17-.81-.41-1.71-.65-2.62-1.42-5.35-3.56-13.44,1.79-20,4-5,9.16-7.9,13.68-10.49,1.46-.84,2.83-1.63,4-2.4l11.42-7.48,27.57,54.75-6.92,6.23c-1.08,1-2.12,1.94-3.15,2.9-2.88,2.66-5.85,5.41-9.19,7.94A17.43,17.43,0,0,1,377.7,533Z"/>
      <path class="cls-3" d="M392.29,509.81c-4,3.61-7.58,7.17-11.57,10.2-1.17.89-4.37,1-5.14.19a146.49,146.49,0,0,1-11.23-14.32,20.51,20.51,0,0,1-2.87-7.46c-.86-4.21-3.23-10.17-1.36-12.45,3.7-4.54,9.86-7.09,14.93-10.4C381.13,487.66,386.63,498.58,392.29,509.81Z"/>
      <path class="cls-2" d="M473.36,463.6a17.13,17.13,0,0,1-10.66-4c-6.61-5.16-13.24-10.29-20.13-15.62l-19.33-15,9.63-9.78c.92-.94,1.85-2,2.79-3a71.41,71.41,0,0,1,9.72-9.29,21.64,21.64,0,0,1,13.09-4.44c7.32,0,13.23,3.59,17,6.3,5.23,3.71,9.36,8.09,13.36,12.32,1,1,1.93,2,2.9,3.05,4.79,4.92,4.88,12.66,2.54,17.45-1.38,2.8-2.84,5.45-4.26,8-.88,1.59-1.77,3.17-2.61,4.77C483.08,462.7,476.14,463.6,473.36,463.6Z"/>
      <path class="cls-3" d="M441.55,427.79c3.43-3.48,6.86-7.87,11.16-11.1,5.44-4.1,11.29-1.11,15.73,2.05,5.43,3.86,9.89,9.11,14.58,13.93a3.92,3.92,0,0,1,.33,3.59c-2.07,4.24-4.51,8.29-6.71,12.48-1.67,3.18-3.71,3.4-6.44,1.27C460.92,442.76,451.59,435.57,441.55,427.79Z"/>
      <path class="cls-2" d="M268.86,567.08c-13.8,0-19.35-2.82-22.64-5.27-5.91-4.39-8.18-11.42-8.34-16.53-.34-11.52,2.18-23.2,7.71-35.71,3.28-7.43,10.58-11.45,15.83-12.63,4-.9,7.92-1.47,11.34-2,1.13-.17,2.23-.33,3.27-.5l19.45-3.1v27.94c0,9.45,0,18.38-.12,27.43s-7,17.46-15.62,19.44A54.11,54.11,0,0,1,268.86,567.08Z"/>
      <path class="cls-3" d="M278.68,511.07c0,12.41.08,23.9-.12,35.38a4.5,4.5,0,0,1-2.59,3.36c-2.88.66-16.47.93-19.71-1.48a5.11,5.11,0,0,1-1.58-3.56c-.3-10,2.29-19.38,6.28-28.4a6.55,6.55,0,0,1,4.15-3C269.81,512.29,274.62,511.72,278.68,511.07Z"/>
      <path class="cls-2" d="M210.08,570.78a16.2,16.2,0,0,1-12.24-5c-2.19-2.33-4.7-6.49-4.27-13.08.78-12.09,4.2-23.91,10.43-36.14,2.17-4.26,6.44-7.11,12-8,4-.67,7.91-1.23,12.05-1.82l4.44-.64,17.36-2.54L236.27,567l-12.6,2c-3.19.51-6.47,1-9.75,1.53A24.9,24.9,0,0,1,210.08,570.78Z"/>
      <path class="cls-3" d="M226.1,556.22c-4.5.71-9.27,1.47-14,2.2-3.84.6-6.64-.22-6.33-4.92.72-11.14,4.1-21.54,9.13-31.41.44-.85,2-1.36,3.17-1.55,5.26-.89,10.54-1.6,16.23-2.43Z"/>
      <path class="cls-2" d="M432.42,496.64c-4.69,0-8.06-2.22-11.31-4.37l-.23-.15c-11-7.23-18.34-16-22.54-26.9-1.44-3.75-1.9-9.88,1.57-14.83,1.94-2.75,4-5.3,6-7.76.69-.85,1.38-1.71,2.07-2.59l6.3-8,9,4.77c11.89,6.31,20,15.37,27.23,24.1,4.35,5.22,4.24,13,1.9,17.92a33.66,33.66,0,0,1-4.4,6.66c-.43.54-.86,1.06-1.24,1.62C443.91,491.14,440.09,496.64,432.42,496.64Z"/>
      <path class="cls-3" d="M417.51,447.59c10,5.32,16.92,13.13,23.57,21.14.87,1,.89,3.56.25,4.9-1.12,2.38-3.1,4.34-4.63,6.54-3.77,5.42-3.72,5.33-9.11,1.78-8-5.31-14.37-12-17.88-21.12a4.28,4.28,0,0,1,.18-3.43C412.23,454.07,414.87,450.94,417.51,447.59Z"/>
      <path class="cls-2" d="M325.74,550.27a26.57,26.57,0,0,1-9.53,2.14c-3.2,0-13.8-1.12-15.87-15.58a240,240,0,0,1-2.16-27.54c-.23-8.49,7.15-14.51,12.17-16.48A62.29,62.29,0,0,1,320.78,490c1.19-.25,2.42-.5,3.68-.8l11.9-2.8,2.77,11.9c.77,3.33,1.62,6.64,2.47,10,2,7.71,8.64,23.25,10,32Z"/>
      <path class="cls-3" d="M321.33,538.9c-6.13,2.38-8.12,1.8-8.92-3.79A228.62,228.62,0,0,1,310.36,509c0-1.61,2.55-4.06,4.45-4.8,3.75-1.47,7.86-2,12.45-3.11,2.54,10.93,5.81,21.67,7.65,33.49C328.76,532.21,321,537,321.33,538.9Z"/>
      <path class="cls-2" d="M213.85,478.3c-9.72.65-22.08-4.72-31.71-16.42a25.2,25.2,0,0,1-6-16.56c0-1.26,1.26-2.52,1.94-3.79,1,.9,2.44,1.61,2.85,2.71,5.78,15.77,18.58,20.67,33.72,22.23,15.64,1.61,30.32-2.19,44.81-7.45,4.28-1.55,5.62-.48,8,5.12,1.77,4.09-1.56,4.89-3.8,5.54C249.14,473.89,234.54,477.94,213.85,478.3Z"/>
      <path class="cls-2" d="M391.36,404.31c2.81-3.22,6.48-7.15,9.83-11.34,11.6-14.52,24.74-27.93,32.51-45.2.2-.43.5-.81.68-1.25,2.79-7,2.79-7,11.63-6.23-.7,3.06-.8,6.34-2.17,9-3.91,7.52-8.33,14.78-12.59,22.12-.3.52-.89,1.21-1.36,1.23-5.43.22-6.81,5-9.33,8.33A74.84,74.84,0,0,1,391.36,404.31Z"/>
    </g>
    <path id="hot-3" data-name="hot" class="cls-2" d="M351.59,402.12c-.71,13.33-3.27,25-13.26,33.89-8,7.08-16,7.77-24.95,1.91-25.17-16.43-40.53-55.7-32.92-84.21,2.85-10.71,10.68-15.47,24.45-13.28,6.16,1,13,3.08,17.66,6.92C339.94,361.77,349.8,380.44,351.59,402.12Zm-11.3,1c-.9-16-17.44-47.43-36.91-52.78-7.35-2-12.81,1.28-13.45,8.89a123.64,123.64,0,0,0,.1,19.05c1.44,20.63,12.34,36.23,27.69,49.38,5.29,4.53,10.83,4.71,14.37-1.2C336.3,419.39,340.64,409.25,340.29,403.08Zm-99.77-25.41a5.74,5.74,0,0,0-1.65-2.6,4.17,4.17,0,0,0-6.8,1.29,4.81,4.81,0,0,0-.41,2.13c.72,8.94,2,17.86,3.43,26.72,1.31,7.82,2.61,15.73,5,23.25a12.2,12.2,0,0,0,2.35,4,4.17,4.17,0,0,0,7.22-1.57,30.6,30.6,0,0,0,.87-4.72c.28-2.95-.91-6-1.51-9.45l17.08-3.83c3.29,9.69,6.07,19.06,9.77,28.08a7.57,7.57,0,0,0,2.76,3.05,3.67,3.67,0,0,0,5.7-2.11c.35-1.48.67-3,.94-4.47.16-.95-.5-2-.79-3.05-6.24-21.89-12.36-43.8-18.81-65.62a.56.56,0,0,0,0-.12c-1.22-4-7.31-2.8-7.12,1.41,0,.44.06.87.11,1.31,1.27,10.39,3.51,20.66,5.4,31.18l-17.86,5.6C244.27,397.36,242.8,387.43,240.52,377.67Zm132-2.51c1.24,2,2.31,4.49,4.16,5.77a9.51,9.51,0,0,0,1.7.9c3.29,1.37,7.17-1.36,6.4-4.79a3.57,3.57,0,0,0-.26-.78A180.74,180.74,0,0,0,375,359.7c-7.07-11.48-14.27-22.89-21.34-34.23,6-4.38,11.4-7.86,16.11-12.08,1.39-1.25,1.67-5,.83-6.88-.53-1.19-4.14-1.52-6.31-1.38-1.73.11-3.45,1.4-5.05,2.36C348.67,313.8,338,320,327.67,326.64a3.25,3.25,0,0,0-.61.5c-2.6,2.68-1,7.21,2.6,8.32a3.28,3.28,0,0,0,1.84.13c4.86-1.28,9.34-3.91,13.57-5.82C354.44,345.27,363.46,360.23,372.53,375.16Zm38.41-67.43a197.51,197.51,0,0,0-16.28,16.2c-.88,1-.81,3.79,0,4.94s3.19,1.93,4.77,1.78c4.6-.43,13.07-9,16.29-16.4a4.81,4.81,0,0,0-3.35-6.66A1.71,1.71,0,0,0,410.94,307.73ZM206.34,416.32l6.72-4.92a4.1,4.1,0,0,0,.13-6.57c-.56-.43-1.05-.67-1.39-.54a85.9,85.9,0,0,0-10.13,5,4.1,4.1,0,0,0-1,6.44l.06.06A4.3,4.3,0,0,0,206.34,416.32Z"/>
  </g>
</svg>
