<svg id="icons" xmlns="http://www.w3.org/2000/svg" width="627.75" height="585" viewBox="0 0 627.75 585">
  <defs>
    <style>
      .cls-1 {
        fill: #e27227;
      }

      .cls-2 {
        fill: #fff;
      }

      .cls-3 {
        fill: #232323;
      }
    </style>
  </defs>
  <title>Artboard 4</title>
  <g id="icons-2" data-name="icons">
    <g id="Hot">
      <g id="Fire">
        <path class="cls-1" d="M428.58,238.16c4.42-5.77,9.37-11.68,13.71-18,8.71-12.72,15.93-26,10.69-42.28-.72-2.23-1.07-4.58-1.86-6.79-4.76-13.27-3.4-26.49-.69-40,2.35-11.72,9.62-19.39,18.31-26.41,1.2-1,8.07-2.65,10.24-3.58,6.72-2.91,14-4.65,19.81-9.53a6.64,6.64,0,0,1,4.46-1.32c-.87,1.92-1.43,4.08-2.65,5.74-7.68,10.51-12.16,22-10.88,35.21,1.21,12.49,5.45,23.83,14.23,33.15,7.14,7.57,14.57,14.89,21.26,22.83,3.38,4,5.8,9,8,13.87,6.76,15.18,10,31.38,11.68,47.72a144.36,144.36,0,0,1-.5,32.05,399.91,399.91,0,0,1-8.31,46.52c-2.5,10.17-7,19.92-11.42,29.52-5.6,12.3-11.42,24.57-18.13,36.28-12.07,21.08-12.38,20.42-29.86,37.64-9.11,9-69.65-1.75-132.34,41.79-108,33.08-59.05,59.7-94,62.69-22.89,2-32.25,7.11-55.15,8.92a40.62,40.62,0,0,1-12.43-1c-20.21-4.88-40.41-9.83-60.47-15.25-9.18-2.47-16-8.71-21.56-16.38-7.25-10-15.13-19.6-21.84-29.95-10.27-15.85-18-32.91-18.87-52.19-.62-13.35-1.73-26.81-.65-40.06.78-9.58,2.3-19.59,8.45-28,4-5.51,7.21-11.62,10.87-17.41a14.34,14.34,0,0,1,2.53-2.43c1,6.36,1.12,12.88,3.19,18.68,4.59,12.86,6.85,27,17.83,36.81,3.8,3.4,7.65,6.62,13.08,7.27-7.75-10.15-12.12-21.75-15.48-33.59A106.69,106.69,0,0,1,95.44,345c-.33-11.18.89-22.42,1.78-33.6a138.48,138.48,0,0,1,2.61-17.66c6-28.46-.57-54.79-13.23-80.12-2.76-5.51-5.74-10.91-9.28-17.61,3.1,0,5.92-.68,8.22.12a142.68,142.68,0,0,1,19.43,8c10.34,5.43,20.38,11.45,30.41,17.44,1.3.78,1.78,2.91,2.66,4.44,1.12.72,2.94,1.3,3.86,2.54,14.26,19.3,20.45,26.56,25.65,59.72,1.11-2.57,2.24-4.21,2.5-6,2.66-18,5.88-36.09.83-54-1.82-6.45-6.51-12.23-10.47-17.91-9.74-14-18.35-28.52-21.91-45.26-1.5-7.07-.87-14.72-.44-22.06a235.64,235.64,0,0,1,2.9-24.4c.7-4.26,11-31.77,16.21-40.8,2.6-4.51,7-8,10.76-11.81,1.15-1.17,2.86-1.77,4.77-2.9-1.1,7.63-1.56,14.47-3.11,21-7.88,33.61,16.25,62.2,43.19,71.77,7.18,2.55,14.33,4.59,22.1,2.75,1.58-.37,3.7.37,5.24,1.21,15.31,8.36,30.7,16.59,44,28.06,4.33,3.74,7.4,8.07,8,14,.25,2.25,1.37,4.4,2.27,7.16,1-1.22,4.52,24.53,4.78,26.38,1.89,13.1-.67,25.68-4.28,38.16a40.5,40.5,0,0,0-2,10.9c.54-.48,1.27-.87,1.59-1.48,6.8-12.73,13.05-25.46,14.75-40.3,2.24-19.55-1.95-37.93-9.65-55.2-7.88-17.67-18.24-34.24-27.5-51.3-.23-.42-.36-.91-.91-2.35,5.09,2.58,9.38,4.9,13.79,6.95C301,148.38,317,155.5,332.76,163.24a37,37,0,0,1,11.52,9.19c7.09,8.38,14.5,16.71,16.56,28.25l1.76-.16q1.25-8.67,2.47-17.35c.05-.31-.17-.67-.14-1,1.91-18.43-9.1-30.92-20.24-43.11-12.76-14-14.19-29.57-7.91-46.57,1.92-5.18,4.42-10.16,6.28-15.37,3.05-8.6,9.76-13.77,16.86-18.6.88-.6,2.77-.84,3.47-.3s.78,2.28.71,3.47a13.67,13.67,0,0,1-.91,4.91c-9.41,20.21,9.92,47.91,29.3,52.71,17.56,4.34,29.91,15,42.3,26.53a14.05,14.05,0,0,1,3.94,6.72c2.1,9.14,4.36,18.32,5.34,27.61.86,8.14,1.09,16.64-.33,24.65-1,5.72-5.16,10.93-8.05,16.28-1.59,2.94-3.87,5.55-5.15,8.6C429.37,232.5,429.12,235.68,428.58,238.16Z"/>
        <path class="cls-1" d="M32.49,222.66a105.48,105.48,0,0,0,23,34c3.25,3.2,7.42,5.47,11.1,8.25a10.5,10.5,0,0,1,2.64,2.8c8.14,13.28,8.57,27.25,3.2,41.51-2.07,5.49-4.8,10.73-7.38,16a79,79,0,0,1-4.39,6.81c-1.14-4.2-2.22-7.13-2.7-10.16-1.41-8.78-6.24-15.44-12.66-21.15q-8.46-7.53-17-14.91c-3.61-3.12-4.66-6.89-4.31-11.67,1-13.5,1.57-27,2.33-40.56.12-2.17.48-4.34.5-6.51C26.8,223.64,28.54,222.3,32.49,222.66Z"/>
        <path class="cls-1" d="M432.75,112.54c-7.91-5.42-15.51-10.45-22.91-15.76s-9.8-13-10.26-22.12c-.28-5.45,2.14-8,5.1-11.6,9.51-11.43,18.71-23.18,23.51-37.59,1.26-3.78,1.93-7.77,3.18-11.56.57-1.71,2.28-4.62,2.82-4.48,2.05.54,4.75,1.66,5.56,3.35a66.78,66.78,0,0,1,5.5,15.07C448.63,44.36,448,60.56,439,75.49c-5.28,8.82-6.86,18.28-6,28.37A74.78,74.78,0,0,1,432.75,112.54Z"/>
        <path class="cls-1" d="M114.07,184.44c-5.75-5.95-11.07-11.86-16.85-17.3-6.42-6.06-13.6-11.36-19.81-17.62-4.61-4.65-6.35-10.25-6.38-17.58,0-6.4,4.57-8.8,6.1-13.48,3.64-11.09,8.26-21.86,12.49-32.76l2.08-.16c.79,2.36,2.37,4.76,2.22,7.06-1,16.8,4.92,32,10.37,47.33,1.71,4.81,5.13,9,7.62,13.55A38.43,38.43,0,0,1,114.07,184.44Z"/>
        <path class="cls-1" d="M233.28,70.8c6.89,9.3,9,18.2,6.11,28.57-2.08,7.42-3.7,15.12,2.18,22.19,1.75,2.11,1.88,5.6,2.67,8.49.42,1.56.66,3.18,1.1,5.4-1.33,1.79-3.18,2.44-5.75.48-3.86-2.92-7.79-5.77-11.81-8.47-5.8-3.89-8.67-9.18-9.7-16.16-.93-6.28.15-11.44,4-16.43s7.68-9.59,8.15-16.23C230.37,76.31,231.94,74.07,233.28,70.8Z"/>
        <path class="cls-1" d="M522.21,106.44c4.34-4.67,10.46-7.71,15.93-11.28a3.45,3.45,0,0,1,3.28.34c3,3.16,2.88,10.89.1,14.47l-20,25.72a16.63,16.63,0,0,1-1.54,2c-1.29,1.24-3.11,3.64-3.92,3.35-2.28-.82-5.34-2.39-5.95-4.34-1.32-4.14-1.29-8.72-1.81-13.12C508.71,123.62,517.41,111.59,522.21,106.44Z"/>
      </g>
      <g>
        <path id="whitebg" class="cls-2" d="M255.44,524.56c-7.87,0-15.75-.31-23.37-.61-6.69-.27-13.6-.55-20.31-.59-22.93-.17-39.53-11-48-31.18-2-4.76-3.76-9.61-5.18-13.5-.55-1.52-1.06-2.92-1.53-4.16l-1-2.7.5-4.81c1.92-18.48,3.73-35.94,12.6-52.13a236.06,236.06,0,0,1,54.92-67.3c15.33-12.93,32.24-22.89,48.59-32.52,5.26-3.1,10.7-6.3,15.95-9.53,15.38-9.45,31.82-15.36,47.73-21.08l3.08-1.11a129.59,129.59,0,0,1,22-6A115.85,115.85,0,0,1,376.63,276c2-.08,4.05-.16,6.06-.3,3.91-.27,7.82-.59,11.73-.91,8.91-.72,18.13-1.47,27.4-1.64l2.41,0c8.89,0,17.62.86,26.07,1.7l2.47.25c4.93.48,8.82,2.71,11.67,4.34l.8.45C487,292.15,500.51,309.68,505.4,332c1.37,6.26.45,12.08-.37,17.22-.33,2.1-.65,4.08-.75,5.77a94.38,94.38,0,0,1-9.36,34.89c-5,10.56-12.41,19.25-19.58,27.66l-2.19,2.57c-17.4,20.52-39.68,34.89-61,47.85-25.1,15.25-52.59,30.83-83.47,41.47-22.79,7.87-42,12.37-60.58,14.19l-2.28.24a93.84,93.84,0,0,1-10,.69Z"/>
        <path id="bg" class="cls-3" d="M168.47,470.23c1.94-18.59,3.4-34.94,11.37-49.5a222.67,222.67,0,0,1,52.09-63.83c19.4-16.37,41.7-27.85,63.07-41,15.24-9.37,31.93-15.12,48.55-21.11a118,118,0,0,1,19.9-5.45c6.58-1.13,13.37-1,20.07-1.47,12.84-.88,25.67-2.29,38.52-2.52,9.84-.18,19.72.9,29.54,1.87,2.65.26,5.25,1.92,7.68,3.29,17.58,9.89,29.89,24.25,34.24,44.09,1.34,6.16-1,13.08-1.39,19.68a82.91,82.91,0,0,1-8.21,30.38c-4.77,10.1-12.69,18.88-20,27.55-16.17,19.07-36.93,32.49-58,45.32-25.9,15.73-52.36,30.45-81.12,40.37-18.76,6.47-38,11.64-57.8,13.58-3.67.36-7.49.87-11.12.87-14.64,0-29.28-1.1-43.92-1.2-17.46-.13-30-7.4-36.84-23.7C172.37,481.16,170.14,474.68,168.47,470.23Zm69.26,17.5c20.69-.37,35.28-4.41,49.82-8.62,2.24-.65,5.57-1.45,3.8-5.54-2.41-5.6-3.75-6.67-8-5.12-14.48,5.26-29.16,9.05-44.8,7.45-15.15-1.56-27.94-6.46-33.72-22.23-.41-1.1-1.88-1.81-2.85-2.71-.68,1.27-1.93,2.52-1.94,3.79a25.15,25.15,0,0,0,6,16.56C215.64,483,228,488.38,237.73,487.73Zm177.51-74a74.84,74.84,0,0,0,29.2-23.38c2.52-3.37,3.9-8.12,9.33-8.33.47,0,1.06-.71,1.36-1.23,4.25-7.34,8.67-14.6,12.59-22.12,1.37-2.62,1.47-5.9,2.17-9-8.84-.74-8.84-.74-11.64,6.23-.17.43-.48.82-.67,1.25-7.77,17.27-20.91,30.68-32.51,45.2C421.72,406.58,418.05,410.52,415.24,413.74Z"/>
        <path class="cls-2" d="M401.58,542.38c-5.84,0-9.31-2.52-11.2-4.63a158.33,158.33,0,0,1-12.18-15.51,31.69,31.69,0,0,1-4.78-11.95c-.17-.81-.41-1.71-.66-2.62-1.41-5.35-3.55-13.44,1.8-20,4-5,9.16-7.9,13.68-10.49,1.45-.84,2.83-1.63,4-2.4l11.42-7.48,27.57,54.75-6.92,6.23c-1.08,1-2.12,1.94-3.16,2.9a121.05,121.05,0,0,1-9.18,7.94A17.43,17.43,0,0,1,401.58,542.38Z"/>
        <path class="cls-3" d="M416.17,519.24c-4,3.61-7.58,7.17-11.57,10.2-1.17.89-4.37,1-5.14.18a145.18,145.18,0,0,1-11.23-14.31,20.51,20.51,0,0,1-2.87-7.46c-.86-4.21-3.23-10.17-1.36-12.45,3.7-4.54,9.86-7.09,14.92-10.4Z"/>
        <path class="cls-2" d="M497.24,473a17.13,17.13,0,0,1-10.66-4c-6.61-5.16-13.24-10.29-20.13-15.62l-19.33-15,9.63-9.77c.92-.94,1.85-2,2.79-3a70.24,70.24,0,0,1,9.72-9.29,21.61,21.61,0,0,1,13.08-4.44c7.33,0,13.23,3.59,17,6.3,5.23,3.71,9.36,8.08,13.35,12.32,1,1,1.93,2,2.91,3.05,4.79,4.92,4.88,12.66,2.54,17.45-1.38,2.8-2.85,5.44-4.27,8-.88,1.59-1.76,3.17-2.6,4.77C507,472.13,500,473,497.24,473Z"/>
        <path class="cls-3" d="M465.43,437.22c3.43-3.48,6.86-7.87,11.16-11.1,5.44-4.1,11.28-1.11,15.73,2.05,5.43,3.86,9.89,9.11,14.58,13.93a4,4,0,0,1,.33,3.59c-2.08,4.24-4.52,8.29-6.71,12.48-1.68,3.18-3.71,3.4-6.44,1.27C484.8,452.19,475.47,445,465.43,437.22Z"/>
        <path class="cls-2" d="M292.73,576.5c-13.79,0-19.34-2.81-22.63-5.26-5.91-4.39-8.18-11.42-8.34-16.53-.34-11.52,2.18-23.2,7.7-35.71,3.29-7.43,10.59-11.45,15.84-12.63,4-.9,7.91-1.47,11.34-2l3.27-.5,19.45-3.1v27.94c0,9.45,0,18.38-.13,27.43s-7,17.46-15.61,19.44A54.19,54.19,0,0,1,292.73,576.5Z"/>
        <path class="cls-3" d="M302.56,520.5c0,12.41.07,23.9-.12,35.38a4.47,4.47,0,0,1-2.59,3.35c-2.88.67-16.48.94-19.71-1.47a5.11,5.11,0,0,1-1.58-3.56c-.3-10,2.29-19.38,6.28-28.4a6.56,6.56,0,0,1,4.14-3C293.68,521.71,298.49,521.15,302.56,520.5Z"/>
        <path class="cls-2" d="M234,580.21a16.16,16.16,0,0,1-12.24-5c-2.19-2.33-4.7-6.49-4.28-13.08.79-12.09,4.2-23.91,10.44-36.14,2.17-4.26,6.43-7.11,12-8,4-.67,7.91-1.23,12-1.82l4.45-.64,17.35-2.54-13.59,63.45-12.59,2c-3.19.51-6.47,1-9.75,1.53A24.9,24.9,0,0,1,234,580.21Z"/>
        <path class="cls-3" d="M250,565.65c-4.5.71-9.27,1.47-14,2.2-3.84.6-6.64-.22-6.33-4.93.72-11.13,4.1-21.53,9.13-31.4.43-.85,2-1.37,3.17-1.56,5.26-.88,10.54-1.59,16.23-2.42Z"/>
        <path class="cls-2" d="M456.3,506.07c-4.69,0-8.06-2.22-11.32-4.37l-.23-.15c-11-7.23-18.33-16-22.53-26.9-1.45-3.75-1.91-9.88,1.57-14.83,1.94-2.75,4-5.3,6-7.76.69-.85,1.37-1.71,2.06-2.59l6.31-8,9,4.77c11.89,6.31,20,15.37,27.23,24.1,4.35,5.22,4.24,13,1.9,17.92a33.66,33.66,0,0,1-4.4,6.66c-.43.53-.86,1.06-1.25,1.62C467.79,500.57,464,506.07,456.3,506.07Z"/>
        <path class="cls-3" d="M441.38,457c10,5.32,16.92,13.13,23.58,21.14.87,1,.89,3.56.25,4.9-1.13,2.38-3.11,4.34-4.63,6.54-3.77,5.42-3.72,5.33-9.11,1.77-8.05-5.3-14.37-12-17.88-21.11a4.32,4.32,0,0,1,.17-3.43C436.11,463.5,438.75,460.37,441.38,457Z"/>
        <path class="cls-2" d="M349.61,559.7a26.47,26.47,0,0,1-9.52,2.14c-3.2,0-13.8-1.12-15.87-15.58a237.8,237.8,0,0,1-2.16-27.54c-.23-8.49,7.15-14.51,12.17-16.48a61.25,61.25,0,0,1,10.42-2.82c1.2-.25,2.42-.5,3.69-.8l11.89-2.8,2.78,11.9c.77,3.33,1.62,6.64,2.47,10,2,7.71,8.64,23.25,10,31.95Z"/>
        <path class="cls-3" d="M345.21,548.33c-6.13,2.38-8.12,1.8-8.92-3.8a228.27,228.27,0,0,1-2.05-26.14c0-1.61,2.55-4.06,4.44-4.8,3.76-1.48,7.87-2,12.45-3.11,2.54,10.92,5.82,21.67,7.66,33.49C352.63,541.64,344.85,546.45,345.21,548.33Z"/>
        <path class="cls-2" d="M237.73,487.73c-9.72.65-22.09-4.72-31.71-16.42a25.15,25.15,0,0,1-6-16.56c0-1.27,1.26-2.52,1.94-3.79,1,.9,2.44,1.61,2.85,2.71,5.78,15.77,18.57,20.67,33.72,22.23,15.64,1.6,30.32-2.19,44.8-7.45,4.29-1.55,5.63-.48,8,5.12,1.77,4.09-1.56,4.89-3.8,5.54C273,483.32,258.42,487.36,237.73,487.73Z"/>
        <path class="cls-2" d="M415.24,413.74c2.81-3.22,6.48-7.16,9.83-11.34,11.6-14.52,24.74-27.93,32.51-45.2.19-.43.5-.82.67-1.25,2.8-7,2.8-7,11.64-6.23-.7,3.06-.8,6.34-2.17,9-3.92,7.52-8.34,14.78-12.59,22.12-.3.52-.89,1.21-1.36,1.23-5.43.21-6.81,5-9.33,8.33A74.84,74.84,0,0,1,415.24,413.74Z"/>
      </g>
      <path id="small_text" data-name="small text" class="cls-2" d="M375.47,411.55c-.71,13.33-3.27,25-13.26,33.89-8,7.08-16,7.77-24.95,1.91-25.18-16.43-40.53-55.7-32.93-84.21,2.86-10.71,10.69-15.48,24.46-13.28,6.16,1,13,3.08,17.66,6.92C363.81,371.2,373.68,389.87,375.47,411.55Zm-11.3,1c-.9-16-17.44-47.43-36.92-52.78-7.34-2-12.8,1.27-13.44,8.89a124.91,124.91,0,0,0,.09,19.05c1.45,20.63,12.35,36.23,27.7,49.38,5.28,4.53,10.83,4.71,14.37-1.2C360.18,428.82,364.52,418.67,364.17,412.51ZM264.4,387.1a5.74,5.74,0,0,0-1.65-2.6,4.17,4.17,0,0,0-6.8,1.29,4.81,4.81,0,0,0-.41,2.13c.72,8.94,2,17.86,3.43,26.72,1.3,7.82,2.61,15.73,5,23.25a12.06,12.06,0,0,0,2.35,3.94,4.17,4.17,0,0,0,7.22-1.56,30.6,30.6,0,0,0,.87-4.72c.28-2.95-.91-6-1.51-9.45L290,422.27c3.28,9.69,6.07,19.06,9.76,28.08a7.67,7.67,0,0,0,2.77,3,3.67,3.67,0,0,0,5.7-2.11c.35-1.49.67-3,.93-4.47.17-.95-.5-2-.79-3.05-6.23-21.89-12.35-43.8-18.8-65.62,0,0,0-.08,0-.12-1.22-4-7.31-2.8-7.12,1.41,0,.44.05.87.11,1.31,1.27,10.39,3.51,20.66,5.4,31.18l-17.86,5.6C268.15,406.79,266.67,396.86,264.4,387.1Zm132-2.51c1.24,2,2.31,4.49,4.16,5.77a9.51,9.51,0,0,0,1.7.9c3.29,1.37,7.17-1.36,6.4-4.79a3.57,3.57,0,0,0-.26-.78,181.73,181.73,0,0,0-9.52-16.56c-7.08-11.48-14.27-22.89-21.35-34.23,6-4.39,11.41-7.86,16.11-12.08,1.4-1.25,1.68-5,.84-6.88-.53-1.19-4.14-1.52-6.32-1.38-1.72.11-3.44,1.4-5,2.36-10.58,6.31-21.22,12.53-31.59,19.15a3.19,3.19,0,0,0-.6.5c-2.6,2.67-1,7.21,2.59,8.32a3.41,3.41,0,0,0,1.85.13c4.85-1.29,9.34-3.91,13.57-5.82C378.32,354.7,387.34,369.66,396.41,384.59Zm38.41-67.43a196,196,0,0,0-16.28,16.2c-.88,1-.81,3.79,0,4.94s3.2,1.93,4.78,1.78c4.6-.43,13.07-9,16.29-16.4a4.81,4.81,0,0,0-3.35-6.66A1.71,1.71,0,0,0,434.82,317.16ZM230.21,425.75l6.73-4.92a4.1,4.1,0,0,0,.13-6.57c-.57-.43-1.06-.67-1.39-.54a86,86,0,0,0-10.14,5,4.11,4.11,0,0,0-1,6.44l.06.06A4.29,4.29,0,0,0,230.21,425.75Z"/>
    </g>
  </g>
</svg>
