<?xml version="1.0" encoding="utf-8"?>
<!-- Generator: Adobe Illustrator 23.0.1, SVG Export Plug-In . SVG Version: 6.00 Build 0)  -->
<svg version="1.1" id="libra" xmlns="http://www.w3.org/2000/svg" xmlns:xlink="http://www.w3.org/1999/xlink" x="0px" y="0px"
	 viewBox="0 0 508.3 508.3" style="enable-background:new 0 0 508.3 508.3;" xml:space="preserve">
<g>
	<path id="top" d="M37.9,283.9c23.1,0,46.2,0,69.3,0c13.9,0,27.7,0,41.6,0c3.1,0,6.2,0,9.4,0c9.6,0,18-3.4,25.5-9.4
		c10.6-8.4,12.5-20.9,13.2-33.4c0.7-12.3,6.3-24.3,14.4-33.5c15.9-17.9,42.6-24.3,64.7-14.9c19.3,8.2,33.3,26.6,35.3,47.6
		c0.6,5.9,0.3,11.6,2.1,17.4c1.9,6.1,5.6,11.6,10.2,16c7,6.7,16.7,10.2,26.3,10.2c25,0,49.9,0,74.9,0c13,0,26,0,38.9,0
		c2.2,0,4.5,0,6.7,0c12.2,0,23.7-6.1,30.9-15.9c15.5-21.3,4-50.9-20.3-58.6c-9.4-3-21.5-1.5-31.2-1.5c-22.6,0-45.2,0-67.8,0
		c-13-43-47.3-77.2-90.6-90.1c-50.7-15.2-107.1,2.9-140.5,43.6c-11.3,13.7-19.6,29.6-24.7,46.5c-22.6,0-45.1,0-67.7,0
		c-10.1,0-21.3-1.1-31.2,1.5c-26.2,7-35.3,39.9-18.9,60.4C15.6,278.8,26.5,283.6,37.9,283.9z M30.5,227.2c3.5-1.7,7.7-1.3,11.5-1.3
		c5.5,0,11,0,16.5,0c24.8,0,49.7,0,74.5,0c3.9,0,7.7-2.7,8.7-6.6c12.6-51.5,59.2-88.8,112.4-88.8c45.7,0,86.7,27.6,105.7,68.8
		c2.9,6.4,5,13.2,6.7,20c1,3.9,4.8,6.6,8.7,6.6c24.9,0,49.7,0,74.6,0c5.5,0,11,0,16.5,0c3.9,0,7.9-0.2,11.5,1.3
		c9.1,3.9,14.3,13.4,12.2,23.1c-2,9.1-10.3,15.6-19.5,15.6c-23.4,0-46.9,0-70.3,0c-13.7,0-27.5,0-41.2,0c-10.5,0-20.6,0.2-26.8-10.3
		c-2.6-4.4-2.4-9-2.6-13.9c-0.3-6.2-1.5-12.5-3.3-18.4c-3.5-11.2-9.7-21.3-17.7-29.8c-16.8-17.8-42.2-25.8-66.2-22.1
		c-27.7,4.3-50.1,24.1-59.5,50.3c-2.2,6.2-3.2,12.8-3.8,19.4c-0.5,5.8-0.3,10.5-3.4,15.7c-3.6,6-10.5,9.2-17.3,9.2
		c-40.1,0-80.2,0-120.3,0c-9.5-0.2-17.1-6.4-19.5-15.6C15.7,240.5,21.9,231.3,30.5,227.2z"/>
	<path id="bot" d="M39.2,395.9c4.4,0,8.7,0,13.1,0c49.6,0,99.3,0,148.9,0c63.2,0,126.3,0,189.5,0c20.8,0,41.7,0,62.5,0
		c16.8,0,33.4,1.2,45.9-13.1c10.2-11.7,11.5-27.4,5.6-41.4c-5.5-13-19.4-20.8-33.1-21.5c-0.4,0-0.7-0.1-1.1-0.1
		c-32.6,0-65.3,0-97.9,0c-64.2,0-128.3,0-192.5,0c-45,0-90.1,0-135.1,0c-2.8,0-5.6,0-8.4,0c-12.8,0.3-24,7.6-31,18
		c-7.2,11-6.8,24.7-1.9,36.4C9.5,388.2,24.7,395.9,39.2,395.9z M25.9,341.8c5.1-3.7,10.5-3.9,16.4-3.9c42.8,0,85.5,0,128.3,0
		c64.4,0,128.8,0,193.2,0c35.4,0,70.8,0,106.3,0c0.1,0,0.2,0,0.3,0c10.2,0.2,17.7,7.1,19.8,16.9c2,9.1-4.4,18.8-12.8,21.9
		c-4.1,1.5-8.4,1.2-12.7,1.2c-16.2,0-32.5,0-48.7,0c-60.4,0-120.9,0-181.3,0c-55.5,0-111,0-166.5,0c-10.1,0-20.2,0-30.2,0
		C19.3,377.9,10.5,353,25.9,341.8z"/>
</g>
</svg>
