<svg id="icons" xmlns="http://www.w3.org/2000/svg" width="618.04" height="482.49" viewBox="0 0 618.04 482.49">
  <defs>
    <style>
      .cls-1 {
        fill: #51a8ce;
      }

      .cls-2 {
        fill: #fff;
      }

      .cls-3 {
        fill: #232323;
      }
    </style>
  </defs>
  <title>icon_market</title>
  <g id="icons-2" data-name="icons">
    <g id="lunch">
      <path id="lunchbg" class="cls-1" d="M17.46,261.74l2.24,4.75c.52-.46,1-.7,1-1,1.18-14.28,10.89-22.78,19.66-31.91,14.79-15.41,31.48-28,49.2-39.54,12.18-7.92,18.28-21.28,18.52-36.52.22-14.78.06-29.62,6-43.35,10-23.25,21.3-46,40.74-62.17,9.51-7.94,20.81-13.55,31.5-19.83,2.61-1.53,6-1.65,9-2.28,19.35-4,38.6-9.7,58.12-11.17,14.06-1.05,28.74,2.53,42.68,6,15.84,4,30.93,11.21,46.79,15,8.71,2.06,18.53,1,27.53-.64,16.26-3,30.25-11.81,44.09-21.06,7.06-4.71,15.34-7.48,23.16-10.87a82.62,82.62,0,0,1,54.83-4.42,43.15,43.15,0,0,1,13.79,6.66c17.31,12.36,29.37,29.95,40,48.24,4.93,8.46,7.27,19.18,8.63,29.21,2.34,17.38,2.8,35,4.49,52.53.6,6.22,1.3,12.92,4,18.31a144.45,144.45,0,0,0,27,37.46c9.91,10.08,18.9,21.54,23,36.12.7,2.49,2.17,4.74,2.27,7,.2,4.1.38,8.2.61,12.29.57,9.94,2.3,20,1.53,29.78-2,25.78-12.67,47.68-30.11,65.91-6.75,7.06-13.14,14.86-21,20.3-6.08,4.23-14.06,5.6-21.33,7.73-13.69,4-27.54,7.39-41.21,11.45-8.38,2.49-16.68,5.45-24.82,8.73C462.8,401.14,450,413.24,439,427.52c-9.67,12.63-20.53,23.88-33.66,32.2-16.5,10.45-34.31,18.77-53.35,21.47-13,1.85-26.83,2.87-39.4-5.17-3.56-2.29-9.17-.85-13.75-1.7a53.21,53.21,0,0,1-11.23-3.52,222,222,0,0,1-20.55-9.63c-18.91-10.54-36.49-23.66-57.32-30.42-10.51-3.42-21.06-3.79-31.57-2.54-23.34,2.77-46.54,6.84-69.88,9.6C101.68,438.6,94.73,437,88,436a139.24,139.24,0,0,1-17.24-4.09c-5.51-1.61-10.49-4-13.76-9.67-1.81-3.14-4.07-6.52-8.87-6.37-2,.07-4.38-2.25-6.09-4-12-12.35-22.34-25.95-29-42.33a8.37,8.37,0,0,0-.71-1.64c-13.89-19.44-13.6-41.8-10.76-64.22,1.06-8.38,5-16.41,8-24.45C11.7,273.63,14.45,268.35,17.46,261.74Z"/>
      <g>
        <path class="cls-2" d="M261.49,359c-12.46,0-24.07-2.51-35.29-4.94-2.12-.46-4.24-.92-6.36-1.36-17.78-3.69-35.84-7.53-53.29-11.24l-18.12-3.84c-.39-.08-.85-.12-1.31-.17-3.25-.36-10-1.11-13.59-7.34-2.68-4.66-3.62-9.66-4.37-13.68l-.23-1.23a30.58,30.58,0,0,1-.35-7.46c0-.46,0-.92,0-1.38-.64-14.17,2-28.31,8.23-44.48,1.12-2.89,2-6.1,2.93-9.49a102.58,102.58,0,0,1,4.55-13.93,366.67,366.67,0,0,1,18-36.82c6.34-11,13.52-21.5,20.47-31.65l3.47-5.08c20.62-30.27,50.64-45.62,74.5-55.6l2.81-1.19,4.32-1.81c-.84-.91-1.55-1.76-2.14-2.48l-.85-1a86,86,0,0,1-5.74-7.71c-.62-.91-1.25-1.83-1.9-2.73-5.5-7.71-4.24-14.06-3-17.16s4.56-8.4,13.38-10.1c17.2-3.33,31.33-5.83,44.47-7.88a51.25,51.25,0,0,1,8.07-.55c1.49,0,3,0,4.48.08,1.28,0,2.55.07,3.82.07h.36a26.06,26.06,0,0,1,7.77,1.34l.19.06,1-.59h3.19c6.84,0,13.51,6.2,14,13a38,38,0,0,1-.7,10.31,26.21,26.21,0,0,1-1.82,5.34,10,10,0,0,0-.4.95,32.52,32.52,0,0,1-4,10.55c1.27-.09,2.57-.14,3.89-.14a35.63,35.63,0,0,1,8.45.93A172.31,172.31,0,0,1,390,108.75c8,3.57,15.3,8.09,22.35,12.46l2.31,1.44a26.64,26.64,0,0,1,6.44,5.92,17.78,17.78,0,0,0,1.25,1.4l1.11.61a28.28,28.28,0,0,1,5.28,3.51c4.27,3.74,8.32,7.65,12.24,11.44l.93.89q3.24,3.14,6.43,6.31c2.57,2.54,5.22,5.17,7.84,7.66C472.61,176,484.38,194.21,493.73,210c10.72,18.1,15,37.44,19.22,56.14.6,2.67,1.19,5.33,1.8,8,.5,2.15.79,4.21,1,6a33.82,33.82,0,0,0,.87,4.8c1.72,5.56,1.79,13.44-7.57,19.41-11.36,7.24-23.46,11.16-35.17,14.94-4.18,1.35-8.13,2.63-12,4.05-6.67,2.42-13.45,5-20,7.44-6.77,2.55-13.77,5.18-20.71,7.7-4.59,1.66-9.18,3-13.61,4.25l-3.23.93a16.88,16.88,0,0,1-4.69.67,14.87,14.87,0,0,1-4.4-.65,16,16,0,0,1-6.44,3.3c-2.75.65-5.5,1.36-8.25,2a221.91,221.91,0,0,1-21.94,4.8,381.35,381.35,0,0,1-38.92,3.8c-9.11.41-18.27.52-27.14.62s-18,.21-26.85.63Q263.57,359,261.49,359Z"/>
        <path class="cls-3" d="M140.4,306.08c-.68-13.92,2.44-27.07,7.44-40,2.89-7.49,4.13-15.65,7.3-23a348,348,0,0,1,17.41-35.62c7.13-12.39,15.4-24.14,23.46-36,17.13-25.15,41.9-39.9,69.32-51.38,6.23-2.61,12.31-5.35,18.82-7.19,1.1-.31,2.39-2.76,2.24-4.07-.3-2.58,1.15-7-2.87-7.17-5-.19-7.11-3.63-9.68-6.61s-4.67-6.38-7-9.6c-3.26-4.56-2.36-7.82,3-8.86,14.64-2.83,29.32-5.5,44.06-7.81,4.89-.76,10-.22,15-.25,4,0,7.79,3.23,12.05.81.32-.19,2.27,1.29,2.33,2.08a26.23,26.23,0,0,1-.49,7.07c-.42,2-1.69,3.92-2.15,6-1.09,4.88-2.4,9.31-7.92,11.19-2.42.82-3.23,3-1.87,5.64a18.53,18.53,0,0,1,1.52,3.79c1.2,4.43,3.91,5.78,8.46,5.27,5.58-.62,11.54-1.66,16.83-.38a160.18,160.18,0,0,1,27.52,9.5c8.1,3.62,15.69,8.48,23.27,13.16,2.45,1.52,4,4.4,6.28,6.31,1.86,1.58,4.4,2.38,6.23,4,4.38,3.83,8.56,7.9,12.75,11.94,4.82,4.64,9.49,9.43,14.34,14,14.45,13.73,25.39,30,35.52,47.05,11.22,18.93,14.88,40,19.68,60.78.89,3.84,1,7.9,2.13,11.64,1,3.2-.07,4.38-2.66,6-13.85,8.83-29.76,12.35-44.9,17.85-13.61,5-27.11,10.2-40.72,15.14-5.27,1.91-10.72,3.38-16.12,4.95a3.56,3.56,0,0,1-2.68-.12c-4.31-3.1-7.29-.41-10.36,2.16a5.08,5.08,0,0,1-1.9,1.13c-9.73,2.3-19.37,5.18-29.23,6.65a366.52,366.52,0,0,1-37.71,3.68c-18,.82-36,.41-54,1.25-14.76.7-28.74-3-42.9-6-23.8-4.94-47.57-10-71.36-15.07-2.48-.53-6.28-.36-7.13-1.85-1.9-3.3-2.52-7.42-3.26-11.28C140.06,310.73,140.4,308.37,140.4,306.08Z"/>
        <path class="cls-2" d="M299.09,406.16c-5.29,0-10.5-.33-15.55-.65-3.22-.2-6.27-.39-9.31-.51a47.39,47.39,0,0,1-5.21-.54,27.34,27.34,0,0,0-2.81-.31c-11.63-.25-22-3.26-32.14-6.18-2.65-.76-5.3-1.53-8-2.24-15.71-4.18-31.84-8.07-47.44-11.85-9.68-2.33-19.69-4.75-29.54-7.22C130.23,371.92,114,365,99.54,355.36c-4.13-2.74-6.38-6.59-8-9.4-.31-.54-.62-1.07-1-1.58-.2-.32-.4-.62-.58-.92l-.15,0c-.68.11-1.37.21-2,.29a38.7,38.7,0,0,1-4.46.3c-14.11,0-17.27-11.84-18.31-15.73A161.08,161.08,0,0,1,61.52,311a13.73,13.73,0,0,1,2.87-10.44,14.74,14.74,0,0,1,9.57-6c16.37-2.22,32.43-4.19,46-5.83a20.12,20.12,0,0,1,2.3-.14,15.2,15.2,0,0,1,11.51,4.93c2.1,2.33,4.46,6.44,3.78,12.79-.12,1.14-.27,2.28-.42,3.41a49.89,49.89,0,0,0-.52,5.44h0a10,10,0,0,0,.53,1.7c.75,1.88,1.65,3.77,2.64,5.77l4.25,1.12c4.78,1.24,9.72,2.53,14.68,4.29,23.14,8.23,47.74,11,71.53,13.63,5.19.58,10.22,1.49,15.1,2.36,2,.37,4.11.74,6.17,1.08l.5.09q40-1.95,80-3.95l2.87-.15c8.06-.4,16.4-.82,24.49-1.49a18.89,18.89,0,0,0,2.13-.63,38.4,38.4,0,0,1,5.76-1.49c18.89-3,43.62-7.61,67.45-16.75,16-6.13,32.32-11.78,48.13-17.25,6.46-2.24,12.92-4.47,19.36-6.74,0-5.38,0-10.6,0-15.82-.05-9.74,6.39-16.41,16.4-17,8.33-.5,16.82-1.12,25-1.73,5.27-.39,10.54-.78,15.81-1.14.59,0,1.19-.06,1.79-.06,1.45,0,2.8.11,4.1.22.71.06,1.48.12,2.34.17l13.07.71-8.32,51.18-13,2.58-8.63,1.72a17,17,0,0,1-5.88,7l-.16.12c-18.3,12.72-37.21,25.88-57.82,36.53-10.9,5.63-22.14,9.63-33,13.49-3,1.07-6,2.14-9,3.25-29,10.7-59.29,15.4-88.54,19.94l-.74.12c-5.57.86-11.3,1.93-16.84,3-9.63,1.8-19.59,3.65-29.72,4.67C305.94,406,302.69,406.16,299.09,406.16Z"/>
        <path class="cls-3" d="M514,304.61c0-8.26,0-16,0-23.75,0-3.65,1.68-5,5.33-5.19,13.66-.81,27.3-1.94,41-2.87a62.61,62.61,0,0,1,6.79.34c-1.66,10.16-3.27,20.09-4.91,30.19-5.68,1.13-11.15,2.2-16.61,3.31-3,.63-6.21,1-5.41,5.6.14.79-1,2.11-1.91,2.72-18.36,12.77-36.68,25.52-56.66,35.84-13.11,6.78-27,11.11-40.7,16.16-28.18,10.38-57.57,14.9-87,19.47-15.33,2.38-30.51,6-45.92,7.56-10.94,1.09-22.14-.34-33.23-.74-2.73-.1-5.45-.81-8.19-.86-13-.28-25-4.75-37.34-8-25.59-6.8-51.44-12.67-77.14-19.11-16.34-4.1-31.86-10.36-45.94-19.69-2.46-1.63-3.89-4.91-5.59-7.55-3.49-5.42-2.9-7.36-10.87-6.37-1.06.13-2.11.32-3.18.44-6.49.77-8.28-.25-10-6.78a149.09,149.09,0,0,1-3.23-16.11c-.14-.89,1.43-2.84,2.4-3,15.25-2.07,30.53-4,45.81-5.8,3.32-.4,4.84,1.34,4.48,4.66s-1,6.66-1,10a16.83,16.83,0,0,0,1.36,6.16c1.3,3.24,2.88,6.37,4.47,9.47a4.36,4.36,0,0,0,2.1,2.19c7.31,2.15,14.82,3.7,22,6.24,24,8.55,49.07,11.44,74.17,14.25,6.93.77,13.78,2.21,20.66,3.35a7.14,7.14,0,0,0,1.31.32q40.86-2,81.71-4c9.25-.47,18.5-.9,27.73-1.66,3-.25,5.81-1.76,8.78-2.23,23.78-3.77,47.19-8.7,69.82-17.39,23.21-8.9,46.85-16.67,70.29-25C511.05,306.1,512.79,305.15,514,304.61Z"/>
      </g>
      <path id="lunch-text" class="cls-2" d="M295.88,246.75c-1.3,16.5-2.55,33-3.9,49.51-.43,5.14,1.25,12.72-6.57,12.53-7.65-.19-5.54-7.72-5.24-12.4q2.55-39.28,6-78.5c.23-2.63,2.55-6.19,4.83-7.16,1.59-.67,5.65,1.76,7,3.84a137.16,137.16,0,0,1,10,18.15c5.31,11.58,10.2,23.36,16.22,34.68q0-25.74,0-51.5c0-5.22-2.23-12.46,5.92-12.57,7.59-.11,6.05,7,6.11,12,.34,26.76.67,53.53.6,80.29,0,2.87-2.3,7.84-4.12,8.13-2.87.45-7.78-1.36-9.14-3.74-6-10.52-11.17-21.52-16.38-32.46C303.88,260.67,296.59,246.7,295.88,246.75Zm108.44-43.56c-2-3.78-3.79-10.59-9.69-7.93s-2.87,8.75-1.4,13.26q11.91,36.71,24.27,73.28c1.54,4.54,1.6,12.17,8.95,10.22,6.95-1.85,4-8.77,3.24-13.49-1.64-9.92-4.07-19.71-6.22-29.73l19.13-6c3.8,11.31,7.22,22.39,11.38,33.18a4.76,4.76,0,0,0,1.12,1.64c2.79,2.82,7.9,1.37,8.57-2.53a3.5,3.5,0,0,0,0-1.48c-6.48-26.71-13.1-53.43-27.28-77.45-1.13-1.92-1.87-4.41-3.53-5.6a12.93,12.93,0,0,0-2.3-1.29,6,6,0,0,0-8.27,3.46,4.87,4.87,0,0,0-.25,2.66c1.27,5.2,3.87,10.11,6.22,15,2.77,5.75,5.84,11.36,9.19,17.82L419,233.53C413.83,222.71,409.41,212.77,404.32,203.19ZM259.61,280.05c6.46,1,7.07-5.54,7.89-10.35,1.37-8.05,2.57-16.14,3.55-24.24,1.16-9.57,2.31-19.16,2.87-28.77.25-4.31-1.27-8.75-6.67-9.16-5.23-.4-6.38,3.69-7.12,7.79-1.2,6.57-2.77,13.1-3.5,19.72-1.49,13.48-6.57,25.77-20.61,28.39a28.79,28.79,0,0,1,.38-10.33c2.7-11.82,5.62-23.58,8.44-35.37,1-4,1.59-9-3.49-9.58-2.65-.3-7.26,3.17-8.44,6a171.28,171.28,0,0,0-8.39,26.09c-1.94,8.13-3.8,16.58-3.52,24.82.16,4.57,3.8,10.85,7.69,12.93,3.5,1.86,9.75-.29,14.31-2,3.26-1.18,5.73-4.49,7.23-5.74C253.72,274.11,256.28,279.54,259.61,280.05Zm108.16-60.77c1.37,3.68,2.12,7.78,4.28,10.9,1.69,2.43,6.07,5.65,7.59,4.95,2.66-1.23,5.22-5,5.64-8.09.5-3.69-.91-7.81-2.13-11.54-2.14-6.59-5.61-12.39-13.24-13.54-8.18-1.24-12.77,4.23-16.64,10.18a19.11,19.11,0,0,0-3.25,8.19c-.8,9.08-1.92,18.28-1.25,27.31.94,12.88,4.1,25.45,11.86,36.24,5.78,8,17.34,12.51,24.7,9.87,6-2.14,15.91-16.45,15.49-23.15-.15-2.39-1.56-6-3.31-6.66-2.21-.85-6.2-.15-7.9,1.48-2.94,2.8-4.87,6.75-6.94,10.38-3.34,5.87-6.69,6.5-11.28,1.47a22.39,22.39,0,0,1-4.14-7c-5.16-13.37-7.51-27.18-5.15-41.46.56-3.43.35-8.25,3.42-10C366.18,218.46,367,219.13,367.77,219.28Zm-173.51,63q10.5-30.45,21.17-60.86c1.47-4.19,3.27-8.29,4.41-12.57s-1.41-6.6-5.26-5.31a15.34,15.34,0,0,0-7.61,6c-4.23,7-8.74,14-11.26,21.69-6,18.25-11.66,36.68-16,55.38-2.59,11.09,1.78,15.65,13,16.67,8.61.77,17.29,1,25.94,1.06,8.12,0,12.76-3.85,12.45-9.6s-5.1-7.88-13.69-7.2c-7.78.62-15.65.13-23.85.13C193.82,285.64,193.72,283.86,194.26,282.29Zm54.23-111.63a21.57,21.57,0,0,0-8,1.31c-.23.09-.45.19-.67.3-4.1,2-4.19,8.21.09,9.78a5,5,0,0,0,.9.24c29,4.41,58.2,4.23,87.38,1.56q1.24-.1,2.34-.3c7.85-1.35,6.81-12.94-1.16-13C302.06,170.6,275.28,170.58,248.49,170.66Zm115.35,6.61c6.63-.49,13.18-2.86,19.53-5.15,1.17-.42,2.2-4.16,1.6-5.7s-3.39-3.19-5.14-3.11c-4.83.22-9.65.78-14.47,1.34a5.5,5.5,0,0,0-4.55,7.24C361.76,174.7,363,177.33,363.84,177.27Z"/>
    </g>
  </g>
</svg>
