<svg id="icons" xmlns="http://www.w3.org/2000/svg" width="658.13" height="585" viewBox="0 0 658.13 585">
  <defs>
    <style>
      .cls-1 {
        fill: #51a8ce;
      }

      .cls-2 {
        fill: #fff;
      }

      .cls-3 {
        fill: #232323;
      }
    </style>
  </defs>
  <title>Artboard 4</title>
  <g id="icons-2" data-name="icons">
    <g id="lunch">
      <path id="bg" class="cls-1" d="M37.5,310.41c1.31,2.75,1.76,3.71,2.25,4.75.51-.47,1-.7,1-1C42,299.9,51.67,291.41,60.44,282.27c14.79-15.4,31.48-28,49.2-39.53,12.18-7.93,18.29-21.28,18.52-36.52.23-14.78.06-29.62,6-43.36,10-23.24,21.3-46,40.74-62.17,9.51-7.93,20.81-13.54,31.5-19.82,2.61-1.53,6-1.66,9.05-2.28,19.36-4,38.61-9.71,58.13-11.17,14.06-1.06,28.73,2.53,42.68,6,15.83,4,30.92,11.21,46.79,15,8.71,2.06,18.52,1,27.52-.63,16.26-3,30.26-11.82,44.1-21.06C441.71,62,450,59.24,457.8,55.84a82.69,82.69,0,0,1,54.83-4.42,43.43,43.43,0,0,1,13.8,6.67c17.31,12.35,29.36,30,40,48.24,4.93,8.46,7.28,19.18,8.63,29.21,2.35,17.38,2.81,35,4.49,52.53.6,6.21,1.31,12.92,4,18.3a144.43,144.43,0,0,0,27,37.47c9.9,10.08,18.89,21.54,23,36.12.69,2.49,2.16,4.73,2.27,7,.2,4.09.37,8.19.6,12.29.57,9.93,2.3,19.95,1.54,29.78-2,25.77-12.68,47.67-30.11,65.91-6.76,7.06-13.15,14.86-21,20.3-6.09,4.22-14.06,5.6-21.34,7.72-13.69,4-27.53,7.4-41.2,11.46-8.39,2.49-16.68,5.45-24.82,8.72-16.61,6.69-29.45,18.78-40.38,33.07-9.67,12.62-20.53,23.88-33.65,32.19-16.5,10.45-34.32,18.77-53.35,21.48-13,1.84-26.84,2.87-39.4-5.18-3.57-2.28-9.18-.84-13.75-1.69a53.21,53.21,0,0,1-11.23-3.52,220.86,220.86,0,0,1-20.55-9.64c-18.91-10.54-36.49-23.65-57.33-30.42-10.5-3.41-21.06-3.78-31.56-2.53-23.34,2.76-46.55,6.83-69.89,9.6-6.63.78-13.58-.79-20.3-1.85a138.35,138.35,0,0,1-17.24-4.08c-5.51-1.62-10.49-4-13.76-9.68-1.81-3.13-4.08-6.52-8.88-6.36-2,.06-4.38-2.26-6.09-4-12-12.35-22.34-26-29-42.34a8,8,0,0,0-.71-1.63C18.48,397.07,18.77,374.71,21.6,352.3c1.06-8.38,5-16.42,8-24.45C31.74,322.3,34.5,317,37.5,310.41Z"/>
      <g>
        <path class="cls-2" d="M281.54,407.63c-12.47,0-24.07-2.51-35.29-4.94-2.12-.46-4.24-.92-6.36-1.36-17.79-3.7-35.84-7.53-53.3-11.24l-18.11-3.85c-.39-.07-.85-.11-1.31-.16-3.26-.36-10-1.11-13.6-7.34-2.67-4.67-3.61-9.67-4.36-13.69l-.24-1.22a31.1,31.1,0,0,1-.34-7.47c0-.46,0-.91.05-1.37-.65-14.17,2-28.32,8.23-44.48a96.52,96.52,0,0,0,2.92-9.5,102.55,102.55,0,0,1,4.56-13.92,361.37,361.37,0,0,1,18-36.82c6.33-11,13.51-21.5,20.46-31.65l3.47-5.08c20.63-30.27,50.65-45.62,74.5-55.6l2.82-1.19q2.13-.92,4.32-1.82c-.85-.9-1.55-1.76-2.15-2.48-.27-.34-.55-.68-.84-1a83.67,83.67,0,0,1-5.74-7.71c-.63-.92-1.26-1.84-1.9-2.74-5.5-7.7-4.25-14.06-3-17.16s4.57-8.39,13.38-10.1c17.2-3.32,31.34-5.82,44.48-7.87a51.08,51.08,0,0,1,8.07-.56c1.48,0,3,0,4.48.09,1.27,0,2.54.07,3.81.07h.36a25.82,25.82,0,0,1,7.78,1.34l.19.06,1-.59,3.18,0c6.84,0,13.51,6.21,14,13a37.69,37.69,0,0,1-.71,10.31,25.5,25.5,0,0,1-1.82,5.33c-.13.32-.28.63-.4,1a32.58,32.58,0,0,1-4,10.56c1.27-.09,2.57-.15,3.88-.15a35.56,35.56,0,0,1,8.45.94,171.39,171.39,0,0,1,29.55,10.19c8,3.57,15.3,8.1,22.35,12.47l2.31,1.43a26.73,26.73,0,0,1,6.45,5.93c.42.5,1,1.19,1.24,1.4l1.11.61a27.79,27.79,0,0,1,5.28,3.51c4.28,3.74,8.33,7.65,12.25,11.43l.93.9c2.16,2.08,4.29,4.2,6.42,6.31,2.57,2.54,5.22,5.17,7.84,7.66,16.43,15.59,28.2,33.81,37.54,49.58,10.73,18.1,15.05,37.44,19.23,56.14.59,2.66,1.18,5.33,1.8,8,.5,2.15.78,4.21,1,6a35.15,35.15,0,0,0,.88,4.8c1.71,5.55,1.79,13.43-7.58,19.4C517.77,360.25,505.67,364.16,494,368c-4.18,1.35-8.13,2.63-12.05,4.05-6.67,2.42-13.45,5-20,7.44-6.77,2.54-13.77,5.18-20.71,7.69-4.59,1.67-9.18,3-13.61,4.26l-3.23.93a16.86,16.86,0,0,1-4.68.67,14.46,14.46,0,0,1-4.4-.66,16,16,0,0,1-6.45,3.31c-2.75.65-5.49,1.35-8.24,2.05a219.3,219.3,0,0,1-21.95,4.79,381.07,381.07,0,0,1-38.92,3.8c-9.1.42-18.27.53-27.14.63s-18,.2-26.85.62C284.33,407.6,282.93,407.63,281.54,407.63Z"/>
        <path class="cls-3" d="M160.44,354.74c-.68-13.92,2.44-27.07,7.44-40,2.9-7.49,4.13-15.66,7.31-23a346.91,346.91,0,0,1,17.4-35.62c7.13-12.39,15.4-24.14,23.47-36C233.19,195,258,180.27,285.37,168.79c6.24-2.61,12.31-5.36,18.83-7.19,1.1-.31,2.39-2.77,2.24-4.07-.31-2.58,1.15-7-2.87-7.17-5.05-.2-7.12-3.64-9.69-6.61s-4.67-6.38-7-9.6c-3.26-4.56-2.36-7.82,3-8.87,14.64-2.82,29.32-5.5,44.05-7.8,4.89-.76,10-.23,15-.26,4,0,7.79,3.23,12,.81.32-.18,2.27,1.3,2.33,2.08a25.83,25.83,0,0,1-.48,7.07c-.43,2-1.69,3.92-2.15,6-1.1,4.87-2.41,9.31-7.93,11.19-2.41.82-3.23,3-1.86,5.64a19.12,19.12,0,0,1,1.52,3.79c1.19,4.43,3.9,5.78,8.45,5.27,5.59-.62,11.55-1.66,16.83-.39a161.07,161.07,0,0,1,27.52,9.51c8.11,3.61,15.69,8.48,23.27,13.16,2.45,1.52,4,4.4,6.28,6.31,1.87,1.58,4.4,2.38,6.24,4,4.38,3.84,8.56,7.9,12.75,11.95,4.81,4.64,9.48,9.43,14.33,14,14.46,13.72,25.39,30,35.52,47,11.22,18.93,14.88,40,19.69,60.77.88,3.85,1,7.9,2.13,11.65,1,3.2-.08,4.37-2.66,6-13.86,8.84-29.76,12.36-44.9,17.86-13.61,4.94-27.11,10.2-40.72,15.14-5.28,1.91-10.73,3.37-16.12,4.95a3.6,3.6,0,0,1-2.68-.12c-4.32-3.1-7.29-.42-10.36,2.15a5,5,0,0,1-1.9,1.13c-9.73,2.31-19.38,5.18-29.23,6.66a366.79,366.79,0,0,1-37.71,3.68c-18,.82-36,.4-54,1.25-14.77.69-28.75-3-42.9-6-23.81-4.95-47.58-10-71.36-15.08-2.48-.52-6.28-.35-7.14-1.84-1.9-3.31-2.51-7.43-3.25-11.29C160.1,359.39,160.45,357,160.44,354.74Z"/>
        <path class="cls-2" d="M319.14,454.82c-5.29,0-10.51-.33-15.55-.64-3.23-.21-6.27-.4-9.32-.51a47.39,47.39,0,0,1-5.21-.54c-1.08-.15-2.11-.3-2.81-.32-11.62-.25-22.05-3.26-32.14-6.17-2.64-.77-5.3-1.53-8-2.24-15.71-4.18-31.84-8.08-47.45-11.85-9.68-2.34-19.69-4.76-29.54-7.23-18.88-4.73-35.1-11.7-49.58-21.29-4.13-2.74-6.38-6.59-8-9.4-.32-.54-.63-1.08-1-1.59l-.57-.91-.16,0c-.68.1-1.36.2-2.05.28a36.44,36.44,0,0,1-4.46.3c-14.11,0-17.27-11.84-18.3-15.73a158.49,158.49,0,0,1-3.5-17.37,13.79,13.79,0,0,1,2.87-10.43,14.81,14.81,0,0,1,9.58-6c16.36-2.22,32.43-4.19,46-5.82a20.3,20.3,0,0,1,2.31-.14,15.22,15.22,0,0,1,11.51,4.93c2.09,2.33,4.45,6.43,3.78,12.78-.12,1.15-.27,2.28-.42,3.42a47.1,47.1,0,0,0-.52,5.44h0a7.85,7.85,0,0,0,.53,1.69c.75,1.89,1.64,3.78,2.64,5.78l4.24,1.11c4.78,1.25,9.73,2.53,14.68,4.3,23.14,8.23,47.74,11,71.54,13.63,5.18.58,10.22,1.48,15.09,2.36,2.06.37,4.12.74,6.18,1.08l.5.09q40-2,80-4l2.87-.14c8.06-.41,16.4-.82,24.49-1.49a22.12,22.12,0,0,0,2.14-.63,36.63,36.63,0,0,1,5.76-1.49c18.88-3,43.62-7.61,67.45-16.75,16-6.13,32.31-11.79,48.13-17.26q9.67-3.34,19.36-6.74c0-5.38,0-10.6,0-15.82-.05-9.73,6.38-16.41,16.4-17,8.32-.49,16.82-1.12,25-1.72,5.27-.39,10.54-.78,15.81-1.14.59,0,1.18-.06,1.78-.06,1.45,0,2.8.11,4.1.22.71.05,1.48.12,2.34.17l13.08.71L592.45,362l-13,2.58-8.63,1.71a17,17,0,0,1-5.87,7l-.16.11c-18.3,12.73-37.22,25.89-57.82,36.53-10.91,5.64-22.14,9.63-33,13.5-3,1.07-6,2.14-9,3.25-29,10.69-59.29,15.39-88.54,19.94l-.74.11c-5.57.87-11.3,1.94-16.84,3-9.63,1.8-19.58,3.66-29.71,4.67C326,454.67,322.73,454.82,319.14,454.82Z"/>
        <path class="cls-3" d="M534,353.28c0-8.26,0-16,0-23.75,0-3.65,1.69-5,5.33-5.19,13.66-.81,27.3-1.94,41-2.87a62.09,62.09,0,0,1,6.78.33c-1.65,10.17-3.27,20.1-4.91,30.2-5.67,1.13-11.14,2.19-16.61,3.31-3,.62-6.21,1-5.41,5.6.14.78-1,2.1-1.91,2.72-18.36,12.77-36.68,25.52-56.65,35.84-13.12,6.78-27,11.11-40.7,16.16-28.18,10.37-57.58,14.89-87,19.47-15.33,2.38-30.52,6-45.92,7.55-10.95,1.1-22.15-.33-33.23-.74-2.74-.1-5.46-.8-8.19-.86-13-.28-25-4.74-37.34-8-25.6-6.81-51.45-12.67-77.15-19.12-16.34-4.1-31.85-10.35-45.94-19.69-2.45-1.63-3.88-4.9-5.59-7.55-3.48-5.41-2.9-7.35-10.87-6.37-1.06.13-2.11.32-3.17.45-6.5.76-8.29-.25-10-6.78a152,152,0,0,1-3.23-16.11c-.13-.89,1.44-2.85,2.4-3,15.25-2.07,30.53-4,45.81-5.8,3.33-.4,4.84,1.34,4.49,4.66s-1,6.65-1,10a16.8,16.8,0,0,0,1.37,6.16c1.29,3.24,2.87,6.37,4.47,9.48a4.36,4.36,0,0,0,2.1,2.19c7.31,2.15,14.82,3.69,22,6.24,24,8.54,49.07,11.44,74.17,14.24,6.92.78,13.77,2.21,20.65,3.35a6.66,6.66,0,0,0,1.32.32q40.85-2,81.7-4c9.25-.47,18.51-.9,27.74-1.65,3-.25,5.8-1.76,8.77-2.23,23.78-3.77,47.19-8.71,69.82-17.39,23.21-8.91,46.85-16.67,70.29-25C531.1,354.76,532.83,353.81,534,353.28Z"/>
      </g>
      <path id="small_text" data-name="small text" class="cls-2" d="M315.92,295.41c-1.29,16.51-2.55,33-3.9,49.52-.42,5.14,1.25,12.72-6.57,12.52-7.65-.19-5.54-7.71-5.23-12.39q2.53-39.29,6-78.5c.23-2.63,2.56-6.2,4.83-7.16,1.59-.67,5.66,1.75,7,3.84a135.91,135.91,0,0,1,10,18.15c5.32,11.58,10.2,23.36,16.23,34.68q0-25.76,0-51.51c0-5.21-2.24-12.46,5.92-12.57,7.58-.1,6,7.05,6.1,12,.34,26.76.67,53.52.6,80.28,0,2.88-2.3,7.85-4.11,8.14-2.88.45-7.78-1.36-9.15-3.75-6-10.51-11.16-21.51-16.38-32.46C323.93,309.34,316.64,295.36,315.92,295.41Zm108.45-43.56c-2-3.77-3.79-10.59-9.69-7.92s-2.87,8.75-1.41,13.25q11.91,36.72,24.27,73.28c1.54,4.55,1.6,12.18,9,10.23,6.95-1.85,4-8.77,3.23-13.49-1.64-9.92-4.07-19.71-6.21-29.73l19.13-6c3.79,11.3,7.21,22.39,11.38,33.18a4.87,4.87,0,0,0,1.11,1.64c2.79,2.81,7.91,1.37,8.58-2.54a3.63,3.63,0,0,0,0-1.47c-6.49-26.72-13.1-53.44-27.29-77.45-1.13-1.92-1.86-4.41-3.52-5.6a13.63,13.63,0,0,0-2.3-1.3,6,6,0,0,0-8.28,3.47,4.85,4.85,0,0,0-.25,2.65c1.27,5.2,3.88,10.11,6.23,15,2.76,5.75,5.83,11.36,9.18,17.81l-18.42,5.33C433.87,271.38,429.45,261.44,424.37,251.85ZM279.65,328.72c6.46,1,7.08-5.54,7.9-10.36q2.06-12.08,3.54-24.24c1.16-9.56,2.31-19.15,2.87-28.77.26-4.31-1.26-8.75-6.66-9.15-5.24-.4-6.38,3.68-7.13,7.79-1.19,6.57-2.77,13.1-3.5,19.72-1.49,13.47-6.56,25.77-20.6,28.39a29.08,29.08,0,0,1,.37-10.34c2.7-11.81,5.62-23.58,8.44-35.37,1-4,1.6-9-3.49-9.58-2.65-.3-7.25,3.17-8.44,6a169.43,169.43,0,0,0-8.38,26.09c-1.95,8.13-3.81,16.58-3.52,24.81.16,4.58,3.79,10.86,7.69,12.94,3.49,1.86,9.74-.3,14.31-2,3.25-1.18,5.73-4.49,7.23-5.75C273.76,322.78,276.33,328.21,279.65,328.72ZM387.82,268c1.36,3.68,2.11,7.78,4.28,10.9,1.68,2.43,6.06,5.65,7.59,4.94,2.65-1.22,5.22-5.05,5.63-8.08.5-3.7-.91-7.81-2.12-11.54-2.14-6.59-5.62-12.39-13.24-13.55-8.19-1.23-12.77,4.23-16.65,10.19a19.12,19.12,0,0,0-3.24,8.19c-.8,9.08-1.92,18.27-1.26,27.3.95,12.89,4.1,25.46,11.87,36.25,5.77,8,17.34,12.51,24.69,9.87,6-2.14,15.91-16.45,15.5-23.15-.15-2.39-1.57-6-3.31-6.67-2.22-.84-6.21-.14-7.91,1.48-2.94,2.81-4.87,6.76-6.93,10.39-3.34,5.86-6.7,6.5-11.29,1.47a22.39,22.39,0,0,1-4.14-7c-5.15-13.37-7.51-27.18-5.15-41.46.57-3.43.36-8.26,3.42-10C386.23,267.13,387.07,267.8,387.82,268ZM214.3,331q10.5-30.46,21.18-60.86c1.46-4.2,3.27-8.29,4.4-12.57s-1.41-6.6-5.25-5.31a15.31,15.31,0,0,0-7.62,6c-4.23,7-8.74,14-11.26,21.69-6,18.25-11.65,36.68-16,55.37-2.59,11.1,1.77,15.66,13,16.67,8.61.78,17.28,1,25.93,1.07,8.12,0,12.76-3.86,12.45-9.6s-5.1-7.89-13.68-7.2c-7.78.61-15.65.13-23.85.13C213.86,334.31,213.76,332.52,214.3,331Zm54.23-111.63a21.56,21.56,0,0,0-8,1.3l-.67.3c-4.1,2-4.19,8.22.09,9.79a4.19,4.19,0,0,0,.91.23c29,4.41,58.2,4.23,87.37,1.57q1.26-.12,2.34-.3c7.86-1.36,6.81-12.95-1.16-12.95C322.11,219.27,295.32,219.25,268.53,219.33Zm115.36,6.6c6.62-.48,13.17-2.85,19.53-5.14,1.16-.42,2.2-4.16,1.59-5.7s-3.38-3.2-5.13-3.12c-4.83.23-9.65.78-14.47,1.35a5.5,5.5,0,0,0-4.55,7.24C381.8,223.37,383,226,383.89,225.93Z"/>
    </g>
  </g>
</svg>
