<svg id="menu_otd" xmlns="http://www.w3.org/2000/svg" width="480.27" height="519.33" viewBox="0 0 480.27 519.33">
  <defs>
    <style>
      .cls-1 {
        fill: #e27227;
      }

      .cls-2 {
        fill: #232323;
      }

      .cls-3 {
        fill: #fff;
      }
    </style>
  </defs>
  <title>menu</title>
  <g id="menu_of_the_day" data-name="menu of the day">
    <path id="bg" class="cls-1" d="M358.91,126.29c45.37,20,66.74,56.47,81.22,101.7,21.48,67.11,2.34,122.73-39.62,173.51-17.18,20.79-40.43,35-68.61,33.89-18.89-.77-21.06,14.52-27.57,24.4-21,31.84-49.27,51.4-87,56.3a369,369,0,0,1-52.62,3.21c-35.07-.49-57.67-20.86-71-51-6.89-15.55-8.51-33.38-13.33-49.94-1.13-3.86-5-8.38-8.63-9.84-35.3-14-59.92-39.55-67.45-75.76C-5.5,285.55.7,238.8,30.43,198.71c12-16.21,28.56-29,42.32-44a28.07,28.07,0,0,0,6.93-16c1.83-29.81,11.75-55,36.26-73.83,14.84-11.39,31.62-9.66,48-8.72,11,.64,18,.52,25.64-10.36a152.08,152.08,0,0,1,39.29-38.1c15-9.94,34.11-9,51.26-4.15,30.55,8.65,54,27.91,71.85,53.86,12.42,18.09,7.84,39.08,8.52,59.08C360.58,119.33,359.6,122.21,358.91,126.29Zm107.71-88c-5.26-8.57-13.53-14.89-23.87-16.19-13.44-1.68-18.14-.16-24.41,11.46-3.16,5.85-4.17,12.91-5.82,19.51-.59,2.37-.85,4.38-3.7,4.95a10.39,10.39,0,0,0-3.24,1.66c-14.58,9.23-20.64,24.38-16.39,42a36.23,36.23,0,0,0,10.56,18.72c7.88,7.25,27.3,9.33,38.52-.73,3.17-2.85,6.56-2.69,10.57-2.46,4.55.26,10.14.19,13.59-2.18a43.19,43.19,0,0,0,15.43-17.94c4-9,3.11-22.31-3.06-27.78-4.32-3.83-6.84-7.61-4.36-14.15C469.36,49.92,469.58,43.15,466.62,38.32Z"/>
    <path id="ladle" class="cls-2" d="M386.13,160.29c-.29-9.62-.52-19.23-.93-28.84-.07-1.94-.15-4.36-1.26-5.67a190.5,190.5,0,0,0-14.72-15.61c-1.67-1.55-5.46-3-7-2.14-12.82,7-25.26,14.71-38,21.8-4.15,2.29-4.94,5.06-4.71,9.45.85,16,1.33,32,1.84,48,.26,8.22-.32,16.52.55,24.67,2,18.09,4.74,36.09,6.86,54.17,2.59,22.19,4.89,44.42,7.22,66.64.61,5.73.86,11.48,1.33,17.92-3.85-1.16-6.7-2.59-9.63-2.79-14.89-1.05-29.78-2.37-44.67-2.34a43.63,43.63,0,0,0-26.84,9c-9.19,7-18.47,14-28.1,20.4-4.86,3.23-7.82,6.54-7.3,12.71.78,9.36-.74,19.35,2,28,4.28,13.66,10.57,26.85,17.31,39.56,8.44,15.88,20.17,29.07,37.71,35.41A49.42,49.42,0,0,0,294.9,494c9.23-.14,18.45-1.52,27.61-2.78,3.48-.48,7.7-1.16,10.07-3.36,13.34-12.5,26.27-25.48,39.3-38.32,7-6.89,12.43-14.37,8.85-25a6.11,6.11,0,0,1-.07-1.36c-1.29-11.33-2.47-22.66-3.93-33.95-1.93-14.73-4.12-29.42-6.13-44.12-1.77-12.92-3.36-25.87-5.16-38.77-1.56-11.1-3.5-22.15-4.89-33.28-1-8.14-1.11-16.39-2.2-24.51-1.79-13.12-4.81-26.11-5.94-39.27-1.53-18-3.22-36-7-53.72a5.88,5.88,0,0,1,.57-3.44,56.49,56.49,0,0,1,3.34-6.1,9,9,0,0,1,2.25-2.42c1-.69,2.68-.79,3.15-1.63,2.74-5.05,6.33-3.1,9.64-1.2a37.06,37.06,0,0,1,6.46,5.08c5.28,4.81,7.7,11.21,9.86,17.78.39,1.19,1.8,2.07,2.76,3.08A28.28,28.28,0,0,0,386,163,6.44,6.44,0,0,0,386.13,160.29ZM311.52,389.65a38.23,38.23,0,0,1-27.41,3.41c-5.6-1.46-11.68-1-17.46-1.93a145.54,145.54,0,0,1-15.16-3.82c-4.37-1.21-8.67-2.64-14.47-4.42,3.24-2.82,5.8-5.33,8.64-7.46,8.64-6.51,17.73-12.27,28.25-15.31a13.37,13.37,0,0,1,3.12-.56c19.67-.64,39.27.05,58.68,3.52a49.52,49.52,0,0,1,5.48,1.66C332.36,375.09,322.8,383.85,311.52,389.65Z"/>
    <path id="mtd" class="cls-3" d="M54.23,302.85c-.3.56-.65,1.14-1,1.71-2.08,3.22-7.22,1.17-6.41-2.58a12.23,12.23,0,0,1,.45-1.57c1.57-4.32,4.65-8.09,7.17-12a3,3,0,0,1,2-1.21c8.26-.57,16.58-1.91,24.76-1.33,21.27,1.48,35.61,21.58,31,43.24-3.65,17.17-12.37,31.48-26.57,42.1-11,8.26-18,5.56-20.61-7.85q-2.85-14.81-5.52-29.66C57.81,324.08,56.22,314.47,54.23,302.85ZM76,363.2c11.33-7.75,18.06-16.72,22.31-27.59,4.05-10.36,5.76-20.67-2.84-29.78s-19.45-9.36-31.84-6.26C67.76,320.61,71.78,341.31,76,363.2Zm39.47-244c-.58-2-.66-4-1.64-5.27-.15-.2-.31-.39-.47-.57-2.28-2.51-6.59-2.09-7.91,1a2.73,2.73,0,0,0-.25,1.31q2.34,24.1,5.72,48.11a3.45,3.45,0,0,0,.68,1.54,5,5,0,0,0,8.25-.5,4.94,4.94,0,0,0,.82-2.13c.61-6.84-.31-13.82.26-20.67.65-7.86,1.54-15.81,7.28-22.11A2.75,2.75,0,0,1,133,121.2c1.7,7.83,2.6,15.64,3.93,23.38a6.25,6.25,0,0,0,.36,1.24c1.34,3.42,6.22,3.46,7.91.2a7.34,7.34,0,0,0,.67-1.75c.89-3.79.37-8,.61-11.87,1-16.13,5.47-20.89,6.43-21,3-.16,2.92,2.44,3,4.11.55,10,1,20.1,1.35,30.16.21,5.83-.18,11.72.55,17.47a3,3,0,0,0,.55,1.32,4.85,4.85,0,0,0,8.12-.33,2.38,2.38,0,0,0,.34-1.22c-.7-17.44-1.58-34.9-3.23-52.27-.29-3-4.26-7.87-6.86-8.09-3.78-.33-11.82,2.52-15.63,10.4C131.58,103.53,128.64,104.25,115.51,119.18Zm6,237.09a3.68,3.68,0,0,1-.39-2.5c5.12-26.13,10-51.4,15.22-76.58.53-2.52,3.62-6.17,5.67-6.27,2.35-.12,6.05,2.63,7.1,5,5.79,13.33,11.3,26.82,16.21,40.5a208,208,0,0,1,8.15,29,7.66,7.66,0,0,1-.92,4.56,4.69,4.69,0,0,1-7.3,1.73,14.5,14.5,0,0,1-3-3.39c-1.86-3.06-2.25-7-3.27-10.58-1.35-4.7-1.45-9.79-9.16-9-15,1.48-15,1.07-16.5,10.54a137.8,137.8,0,0,1-3,15.59c-.07.24-.15.48-.23.72a4.71,4.71,0,0,1-8.54.72Zm32-39.08c-3.47-9.88-6.53-18.57-9.59-27.26-.69.11-5.38,19.11-7.25,29.63ZM193,348.94c-1.57,4.23-7.92,10.1-.84,13.49,2.31,1.11,10.2-4.4,12.19-8.51,8-16.59,15.78-33.48,21.52-51,2.92-8.9,1.69-19.28,1.6-29a4.92,4.92,0,0,0-.83-2.5,4.56,4.56,0,0,0-7.46-.43,8.32,8.32,0,0,0-1.54,2.88c-1.77,6.62-2.32,13.55-3.8,20.27-2.14,9.78-5.4,10.92-12.37,4.17C196,293,191.16,287,185.68,281.64l-.29-.27c-3.25-2.8-8.66.24-7.52,4.38a3.12,3.12,0,0,0,.3.73c6.86,12.06,15.14,22.95,29.33,29.09C202.4,327.1,199.36,337.86,193,348.94Zm28.41-247.29c-.36-.46-.73-.92-1.12-1.36a3.89,3.89,0,0,0-6.86,2.87h0c1.86,17.12,3.93,34.21,6.46,51.24a6.53,6.53,0,0,0,2.08,3.33,4,4,0,0,0,6.11-.57,6.34,6.34,0,0,0,1.32-3.45A184.53,184.53,0,0,0,227.1,130c-1.54-10.41,1.52-16.94,7.86-24.58a2.61,2.61,0,0,1,4.6,1.31c1.36,10.14,2.54,19.08,3.85,28,.92,6.27,1.7,12.62,3.41,18.7a6.28,6.28,0,0,0,2.26,2.89,4,4,0,0,0,5.93-1,6.43,6.43,0,0,0,1.15-3.13,89.46,89.46,0,0,0-1.55-15.77c-1.93-11.76-3.65-23.59-6.45-35.15-.91-3.76-4.61-9.06-7.61-9.48-3.2-.43-7.42,3.69-10.57,6.53-2.43,2.2-3.9,5.48-6.38,9.15C222.56,104.58,222.34,102.85,221.42,101.65Zm49.12,24.18c-1.15-10.8-1.93-21.65-3.2-32.43a4,4,0,0,0-.21-.82c-1-2.75-5-3-6.52-.53a4.35,4.35,0,0,0-.69,1.68,52.44,52.44,0,0,0-.19,12.71c.91,10.55,1.55,21.18,3.57,31.53.64,3.34,4.89,7.77,8.08,8.32s7.11-3,10.29-5.34c1.87-1.38,3.72-4.95,5.39-7.36.78,1.41,2.42,15.07,9.39,13.61,6.32-1.32,4.8-7.61,4.25-12.1-1.85-15-4-30-6.47-44.89-.22-1.29-1.4-2.42-2.71-3.53a3.74,3.74,0,0,0-5,.1c-1.11,1-2.06,2.08-2.17,3.21-.55,5.75.88,11.22,1.71,16.93,1.51,10.49-4,19-10.85,27.45a1.79,1.79,0,0,1-3.13-.71A66.35,66.35,0,0,1,270.54,125.83ZM94.58,241c-.66,3-1.16,8.69-3.13,13.79-2.86,7.4-9.52,9-16.28,4.75-11.53-7.24-18.73-33-12.66-45.35,2.65-5.41,6.93-7,12.54-5C84.57,212.45,95.18,228.36,94.58,241Zm-11.25,5.21c2.89-11.13.12-19.76-8.16-22.82a3,3,0,0,0-4.12,2.84,37.52,37.52,0,0,0,6.34,21A3.31,3.31,0,0,0,83.33,246.25Zm92.35-5.73c6.8.13,14.13-3.16,20.33-6.55a3,3,0,0,0,1-1c2.59-4-1.43-9.07-6-8-.58.13-3,1.46-3.74,1.68-3.41,1.06-7.51,3.57-10.08,2.5-2.2-.92-2.65-6-4-9.45,4.29-1.3,7.61-1.71,10.21-3.3a4.73,4.73,0,0,0,.86-.69,4.87,4.87,0,0,0-2.37-8.1h-.06c-2.76-.51-6.64,1.6-9.56,1.6-.41-1.71.43-4.8-.11-6l-.12-.26a4.39,4.39,0,0,0-7.95.09c-.14.31-.28.62-.41.93-1.26,2.88-1.4,7.69-1.4,7.69a41,41,0,0,0-3.32,2.94,5,5,0,0,0,2.07,7.56l2.4,1C165.47,230.11,165.37,240.31,175.68,240.52Zm-58.52-48.06a5.45,5.45,0,0,0,2.84-2.29,4.09,4.09,0,0,0-1.9-6.34,6.77,6.77,0,0,0-3.13-.39c-11.72,1.9-16.61,8.51-16.72,20.28,0,3.91,1.8,5.71,1.23,9.65-.09.62-.86,1.17-1.81,1.62-1.2.57-1.35,4.33-.1,4.75l4.84-.52s3.39,20.35,5.54,25.13a7.14,7.14,0,0,0,1.55,2.12,3.67,3.67,0,0,0,6.21-1.83,6,6,0,0,0,.07-2.11c-1-6.25-2.75-12.38-4.31-18.53a61.78,61.78,0,0,1-1.38-7.07s5.25-2.09,5.44-2.23c2.41-1.79,1.4-5.66-1.44-6.61-.48-.16-4,2.29-5.32,2.22C106.73,202.27,108.56,194.4,117.16,192.46ZM190.7,393.84a4.25,4.25,0,0,0-.24-1.1c-1-2.87-5.23-3.18-6.46-.4a2.43,2.43,0,0,0-.22.76c-1.13,10.76-2.95,21.64-2.28,32.33,1.16,18.52,9.74,34.48,20.95,49a3.08,3.08,0,0,0,.51.51c2.49,2,6.18-.6,5.45-3.72l-.12-.44a59.56,59.56,0,0,0-4.35-9.35C195.17,445,189,428,190.84,407.46,190.84,403.91,191.13,398.85,190.7,393.84Zm205.17-64.65a6.21,6.21,0,0,0,.78,2.31,3.43,3.43,0,0,0,6.26-.57,5.62,5.62,0,0,0,.26-2c-2-25.53-4.17-51.05-6.75-76.52,0-.31-.07-.62-.13-.93a4.14,4.14,0,0,0-8-.56c-.15.47-.29.94-.44,1.42C388.15,252.45,393.29,303.72,395.87,329.19ZM288.24,313.48a4.23,4.23,0,0,0,2.09-7.46,2.81,2.81,0,0,0-1.89-.76c-14.35,1.1-28.64,3.06-42.87,5.25a1.6,1.6,0,0,0-.89.49c-2.53,2.41-.45,7,3,6.74h.1C257.23,316.86,277.24,315.05,288.24,313.48Zm-5.07-97c-.5-.81-4.06-.58-5.62.29C273.18,219.23,270,225,265,225c-1.17,0-1.09-.69-2.08-1.32.46-2.7.6-5.52,1.6-8,2.24-5.62,5.72-10.83,7.31-16.59,1.51-5.46,1.15-11.63-6-13.58-6.54-1.78-11.32,1.79-13,7.57A67.11,67.11,0,0,0,250,213.28c.18,7.15-2.65,10.62-8.86,12.34-2.85-6.92-4.69-14-8.48-19.8-3.9-6-9.56-5-18.5,1.65-1.53-6.94-2.84-13.87-4.72-20.64-.45-1.64-2.21-4.33-4.19-4.14-1.64.15-2.9,2.81-2.73,4,2.42,16.22,5,32.41,7.93,48.55.27,1.5,3.24,3.91,4.17,3.59a8,8,0,0,0,4.49-4.49c.79-2.41-2.76-14.59-1.55-19.67a8.28,8.28,0,0,0,2.26-.75,6.28,6.28,0,0,1,8.42,3.91l2.34,7.56c3.21,10.3,9.58,12.6,18.68,6.7,1.3-.84,2.55-1.77,3.75-2.6,10.69,9.77,25.77,6.51,30.91-6.56A8.12,8.12,0,0,0,283.17,216.52Zm-25.34-6.92a16.86,16.86,0,0,1,1-11.7c1.15-2.25,3.46-5.3,4.63-4.87,1.41.53,1.16,6.11-.85,10.48A17.48,17.48,0,0,1,257.83,209.6Zm-48-69.8a3.93,3.93,0,0,0-6.49-2.45c-.15.14-.3.28-.43.42-3.36,3.6-6.56,7.34-10.44,11.82a2.86,2.86,0,0,1-4.83-.85c-2.19-5.85-1.79-9.47,3.08-14.1,5.52-5.26,8.37-13.61,11.52-21,2.14-5,.71-10.1-4.49-13-5.63-3.14-9.57.34-13.11,4.15-10.2,11-13.68,37.13-6.68,50.19,3,5.65,7.49,9,14.24,7.47,8.65-1.93,17.75-13.33,17.65-22.27C209.82,140.07,209.81,139.94,209.8,139.8ZM186,121.9c1.2-5.66,4.24-11.79,5.73-11.45,1.13.25,1.3,4.19,1,6.82-.81,6.55-5.41,10.75-7.3,12.3A30.06,30.06,0,0,1,186,121.9Z"/>
  </g>
</svg>
