<svg id="icons" xmlns="http://www.w3.org/2000/svg" width="643.5" height="660.25" viewBox="0 0 643.5 660.25">
  <defs>
    <style>
      .cls-1 {
        fill: #e27227;
      }

      .cls-2 {
        fill: #fff;
      }

      .cls-3 {
        fill: #232323;
      }
    </style>
  </defs>
  <title>Artboard 4</title>
  <g id="icons-2" data-name="icons">
    <g id="menu_pan" data-name="menu pan">
      <g id="fire">
        <path class="cls-1" d="M77.82,405.24a169.12,169.12,0,0,1,.32-55.17,36,36,0,0,0,.67-9.05c-.76-7.87,1.28-14.82,4-22,6.69-17.49,11.51-35.46,10-54.86-.54-6.85-.07-13.81.26-20.71.5-10.22-3.54-18.57-8.75-26.47-3.7-5.6-7.65-11-11.39-16.59-.86-1.28-1.93-2.93-1.85-4.34.54-9.12,1.38-18.21,2.24-28.86,1.91,2.68,3.09,3.8,3.66,5.21,5.89,14.68,18.08,21.22,30.26,27.63a12,12,0,0,0,7.24,1c13.76-2.39,18.53,0,25.07,13.43,1.77,3.63,3.07,7.52,4.91,12.09,3.11-16.27,1.74-30.42-6.93-43.78-5.92-9.11-10.67-19.22-15.13-29.31-1.48-3.33-.27-8-.58-12-1.41-17.8,3.63-34.31,7.55-51.24C133.33,73.1,143,59.73,150.7,45c1.86-3.55,3.79-7.06,5.69-10.58l1.85.19c.25,3.65.75,7.3.69,10.94-.11,8.31-1.29,16.69-.59,24.89,1,11.55,8.79,18.83,16.5,25.55,6,5.21,12.08,10.58,18.87,14.22,14.15,7.57,24,20.83,37.21,31.49,4.86-3.74,10.29-7.51,15.29-11.88,5.4-4.72,5.59-12.22,6.26-18.75.56-5.48-1.37-11.26-2.13-16.91a10.87,10.87,0,0,1-.16-4.23c2-6.78,3.68-13.75,6.45-20.16s6.76-12.44,10.4-19c1.38,8.1,2.39,15.69,4,23.12,3,14.12,12.84,23.53,20.75,34.22C303,123.3,313.86,142.73,316.36,162c1.13,8.76-1.45,24.05-1.45,24.05s7-6.12,8.6-8c5.37-7.15,9.23-11.35,4.87-22.16-4.29-10.66-5.42-18.56-1-28,3-6.41,6.36-12.61,10.07-19.89,3.75,6.81,6.24,12.84,10,17.77a161.51,161.51,0,0,0,17.6,19.8c5.18,4.9,9.3,10.1,11.31,17.3,1.54,5.5,3.45,10.87,5.5,17.23,5.62-10.58,5.67-21,2.88-31.21-2.08-7.63-5.68-14.75-8.23-22.26-6.84-20.18-5.76-40.31-.65-60.9,3.81-15.35,13-26.24,22.06-37.55,3.92-4.89,7.82-9.81,11.73-14.71l1.57.42c-.13,2.62.13,5.35-.45,7.86-5,21.46-3.71,42.42,2.41,63.54,5.85,20.21,18.1,33.67,33.94,44.85,12.17,8.59,19.52,22.11,23.09,37,3.08,12.86,3.9,26.4,5.23,39.7.63,6.28.11,12.69.11,20,4.76-1.83,8-4.24,9.13-9.25.53-2.46.8-5,1.1-7.51,1.07-9.23,5.38-16.34,11.22-23,6.73-7.69,12.57-16.31,19.65-25.64-1.15,8.58-2.08,15.66-3.06,22.74a108.79,108.79,0,0,0,6.93,56.88c5.74,14.13,11.26,28.37,17,42.52,7,17.36,7,35.64,6.1,54-.34,7-1.23,14-.89,21,.87,17.74-3.85,34.37-7.63,51.22-4.13,18.37-12,34.9-21.29,50.65-1.44,2.43-14.48,21.15-15.56,22.17-6.13,5.8-12,11.91-18.23,17.59-28.26,25.77-61,43.07-94.52,58.86-3.91,1.84-8,4.37-12,4.46-7.21.17-13.57,4.53-20.6,4.29-31.19-1.08-62.44-1.92-93.16-8.5-22.52-4.83-43.72-14.17-64.52-24.57Q167.42,521,139.77,507a13.51,13.51,0,0,1-3.54-2c-7.89-7.73-16-15.22-23.42-23.47-5.09-5.67-9.43-12-11.92-20-1.91-6.17-6.78-11.18-9.57-17.12-3.78-8-6.9-16.45-10.1-24.79C80.79,418.55,78.42,408.84,77.82,405.24Z"/>
        <path class="cls-1" d="M563.06,198.1c4.65,4.25,4.28,8.83-.13,13.7-4.55,5-9,10.23-13.55,15.27a4.09,4.09,0,0,1-2.55,1.44c-3.39.07-8.86-8.78-7.56-12.2,2.43-6.43,4.74-12.95,7.62-19.14C547.85,195.08,560.25,195.52,563.06,198.1Z"/>
        <path class="cls-1" d="M101.37,122.47c-.28,4.5.08,9.21-1.05,13.44-.75,2.8-3.41,5.3-5.76,7.06-.54.41-3.88-2.4-5-4.36-2.89-5-5.26-10.44-7.85-15.68-1.67-3.38-1.44-6,2-8a38.22,38.22,0,0,0,5.62-4.48c4.09-3.55,7.78-3,10,2.14C100.65,115.61,101.61,122.41,101.37,122.47Z"/>
        <path class="cls-1" d="M57.52,239.69a11.69,11.69,0,0,1,8.75,6.07c1.79,3.15,2.75,6.9,3.88,10.46a4.69,4.69,0,0,1-.39,3c-1.24,2.7-3,5.17-3.92,8-1.28,3.9-4.4,4.43-6.25,2.58-3.79-3.78-7.5-8.21-9.63-13.19-.92-2.17,2-6.42,3.4-9.6C54.29,244.85,55.62,243,57.52,239.69Z"/>
        <path class="cls-1" d="M243.42,110.11a8.64,8.64,0,0,1,0,5.85,6,6,0,0,1-1.08,2.05,78.88,78.88,0,0,1-7.49,7c-3.53,2.93-7.17,1.32-8.06-3.48a42.19,42.19,0,0,1-.65-5.39c-.41-8.11,7.36-15.59,13.63-12.31C241.54,104.77,242.48,107.53,243.42,110.11Z"/>
        <path class="cls-1" d="M83.19,279.07c-.14,3.12-3.13,5.12-5.75,3.85s-5-2.43-7.58-3.61-3.81-3.16-2.8-5.88,2.21-6.31,4.16-7.1,5.6.51,7.55,2.19A12.53,12.53,0,0,1,83.19,279.07Z"/>
      </g>
      <path id="bg" class="cls-2" d="M490,658.92a13,13,0,0,1-6.44-1.64l-.19-.11c-1.75-1-3.54-2-5.32-3a112.59,112.59,0,0,1-15.56-9.77,153.47,153.47,0,0,1-15.24-14.29c-1.34-1.38-2.69-2.76-4-4.12-3.78-3.79-7.28-7.77-10.2-11.15-2.49-2.86-5-5.75-7.57-8.63-7.83-8.93-15.94-18.16-23.65-27.58-3.88-4.73-9.36-11.68-14.2-17.8l-3.54-4.47-.34.25-7.07-9.34L372,541c-3.87-5.17-7.88-10.51-11.92-15.59-.32-.4-.58-.7-.79-.92a21.14,21.14,0,0,0-2.28.82L350.61,528c-10.78,4.54-21.92,9.23-33.58,12.66a52,52,0,0,1-14.62,1.93,83.72,83.72,0,0,1-12.91-1.08,449.15,449.15,0,0,1-44.39-9.34A74.37,74.37,0,0,1,231,526.42a78,78,0,0,0-7.56-3.43c-14.47-5.27-25.31-14.87-34-23.56-1.29-1.29-2.87-2.61-4.53-4-2-1.66-4-3.37-6.05-5.39-13.07-13-23-28.08-31.37-41.2-6.85-10.81-13.73-22.06-21-34.4a32.71,32.71,0,0,1-4.53-13.59c-.56-6.6-1-13.24-1.32-19.66-.26-4.52-.52-9-.84-13.56-.11-1.47-.36-3.12-.62-4.87a75.85,75.85,0,0,1-.9-8,31.63,31.63,0,0,1,.65-7.15c.13-.73.31-1.72.32-2.09a54.66,54.66,0,0,0-.67-8.26c-1.13-7.59.82-13.67,3.09-19.1,5.07-12.14,12.49-21.89,19.67-31.31l.29-.39c15.79-20.8,36.05-39,65.67-59,3.86-2.61,7.69-5.25,11.53-7.88,8.28-5.68,16.85-11.56,25.55-17.09a149.48,149.48,0,0,1,23.37-12.13c4.73-1.94,9.48-2.2,13.92-2.2l3.17,0c43.52.22,84.05,14.29,123.92,43,17.24,12.44,29,26.08,36,41.71,10.34,23.16,21.8,50.81,28.39,80.39a27.53,27.53,0,0,0,1.14,3.19,36.53,36.53,0,0,1,2.63,8.88c.21,1.59.5,3.19.77,4.79,1.18,6.73,2.51,14.36.21,22.06-9.15,30.67-22.18,54.87-39.82,74-1.69,1.82-3.42,3.47-5.16,5q7.32,10.23,14.58,20.46c7.78,10.95,15.82,22.28,23.84,33.3,5.87,8.08,12,16.26,17.88,24.17,8.9,11.93,18.11,24.26,26.86,36.7a81.28,81.28,0,0,1,12.16,26.38c2.82,11.22-.17,22.16-8,29.23a28.05,28.05,0,0,0-4,4.22c-7.4,11.07-19.11,12.49-23.16,12.94a17.92,17.92,0,0,1-3,.28ZM424.51,306.37a3.16,3.16,0,0,0-.71-1.19c-12.45-18.1-26.69-34.54-44.72-47.36-28.47-20.25-60.67-29.95-95.08-33.18-3-.28-6.08.89-9.14,1.38,0,.44.05.87.09,1.31a38.29,38.29,0,0,0,4.38.67c18,.89,34.81,6.41,50.51,14.88,13.76,7.42,27.14,15.64,40.48,23.83,18.95,11.59,34.42,27.29,49.94,42.91,1.12,1.12,3.07,1.42,4.62,2.11C424.76,309.93,424.69,308.15,424.51,306.37ZM183.42,436.19c6.89,8.84,13.76,17.64,21.56,25.58C216,473,229.53,481.18,244,487c10,4,20.79,6.12,31.3,8.81,1,.25,2.92-1.06,3.73-2.17a26.23,26.23,0,0,0,2.55-5.26C245.2,477.72,212.12,461.25,183.42,436.19ZM498.61,610.42c-6.87-9.26-13.53-18.65-20.52-27.81a13.54,13.54,0,0,0-6.15-4.42c-3-1-16.79,9.09-17.55,12.33s3.9,15.58,6.62,17.57l9.53,7-.6.78c1.21,1.59,2.38,3.21,3.63,4.77,8.57,10.86,16.28,7.63,23.56-.87C498.93,617.68,501.33,614.1,498.61,610.42Z"/>
      <path id="pan" class="cls-3" d="M516.83,615.09a69,69,0,0,0-10.37-22.45c-14.46-20.54-29.87-40.4-44.64-60.72-14.22-19.56-28.07-39.4-42.2-59-1.83-2.53-1.75-4.23.6-6.23a106.52,106.52,0,0,0,9.21-8.42c18.37-19.9,29.58-43.85,37.2-69.36,2-6.61-.39-14.63-1.36-21.9-.53-3.8-2.76-7.33-3.6-11.11C455.62,328.71,445.3,303,434,277.73c-6.81-15.19-18.49-27.11-32.17-37-35-25.25-73.41-40.59-117.09-40.81-4.22,0-8.82-.23-12.55,1.3a138.34,138.34,0,0,0-21.55,11.17c-12.47,7.94-24.54,16.51-36.81,24.79-23.54,15.92-45.54,33.57-62.89,56.41-7,9.16-13.91,18.2-18.47,29.1-1.88,4.51-3,8.24-2.3,12.86a65.79,65.79,0,0,1,.79,10.1c0,2.88-1.09,5.75-1,8.59.19,4.19,1.2,8.34,1.5,12.52.79,11,1.21,22,2.15,33.06a21,21,0,0,0,2.94,8.61q10.17,17.19,20.83,34.08c8.8,13.88,18,27.5,29.73,39.16,3.34,3.33,7.26,6.08,10.6,9.41,8.69,8.69,17.85,16.51,29.7,20.82,7,2.56,13.48,7,20.64,8.85a436.1,436.1,0,0,0,43.23,9.09c7.31,1.14,15.44,1.53,22.4-.52,13.23-3.89,25.95-9.58,38.72-14.89,7.53-3.15,11.8-2.69,16.81,3.63,5.76,7.24,11.23,14.7,16.81,22.08.26-.2,16.48,20.77,24.87,31,10,12.25,20.6,24,31,36,3.11,3.59,6.27,7.15,9.63,10.53,5.95,6,11.63,12.31,18.22,17.47,5.95,4.67,12.95,8,19.54,11.86.57.32,1.51,0,2.27,0,5.95-.66,11.23-2.42,14.82-7.8a36.66,36.66,0,0,1,5.94-6.4C517.8,627.83,518.26,620.79,516.83,615.09ZM279.05,493.68c-.81,1.11-2.71,2.42-3.73,2.17C264.81,493.16,254,491.09,244,487c-14.49-5.86-28-14-39-25.27-7.8-7.94-14.67-16.74-21.56-25.58,28.7,25.06,61.78,41.53,98.18,52.23A26.23,26.23,0,0,1,279.05,493.68Zm91.27-227c-13.34-8.19-26.72-16.41-40.48-23.83-15.7-8.47-32.47-14-50.51-14.88a38.29,38.29,0,0,1-4.38-.67c0-.44-.05-.87-.09-1.31,3.06-.49,6.17-1.66,9.14-1.38,34.41,3.23,66.61,12.93,95.08,33.18,18,12.82,32.27,29.26,44.72,47.36a3.16,3.16,0,0,1,.71,1.19c.18,1.78.25,3.56.37,5.36-1.55-.69-3.5-1-4.62-2.11C404.74,294,389.27,278.3,370.32,266.71ZM497.13,619.77c-7.28,8.5-15,11.73-23.56.87-1.25-1.56-2.42-3.18-3.63-4.77l.6-.78-9.53-7c-2.72-2-7.38-14.34-6.62-17.57s14.51-13.34,17.55-12.33a13.54,13.54,0,0,1,6.15,4.42c7,9.16,13.65,18.55,20.52,27.81C501.33,614.1,498.93,617.68,497.13,619.77Z"/>
      <path id="small_text" data-name="small text" class="cls-2" d="M337.11,404.77c1.7-21.76,3.34-41.44,4.76-61.15.79-10.87,1.22-21.77,1.8-32.65.28-5.31,1.13-10.93,7.8-10.75s7.62,6,7.24,11.18c-2.3,30.93-4.81,61.85-7.36,92.76-.87,10.58-1.57,21.21-3.3,31.66a10.54,10.54,0,0,1-1.17,3.21,8.43,8.43,0,0,1-13.06,2.37,5.75,5.75,0,0,1-1.35-1.83c-6.27-14-12-28.27-17.1-42.72-5-14.19-9.07-28.72-15.51-42.88.86,8.5,1.52,17,2.63,25.47,1.78,13.58,3.91,27.11,5.77,40.67.41,3,1.14,6.43.21,9.14-.09.26-.19.51-.3.77-2.4,5.57-10,6.93-13.58,2a5.55,5.55,0,0,1-.69-1.26c-2.22-5.91-3-12.5-3.56-18.88-3-32.83-6-65.66-8.39-98.54-.61-8.28.4-16.77,1.56-25a7.24,7.24,0,0,1,1.16-2.86,5.33,5.33,0,0,1,8.86-.41,7.81,7.81,0,0,1,1.11,2c13.34,37.66,26.41,75.41,39.58,113.13C334.56,401.18,335.32,402,337.11,404.77Zm-169.39-86a12.75,12.75,0,0,0-2.11-2.24,5.94,5.94,0,0,0-9.63,4.11c-.41,23.48-.51,47-.14,70.44,0,2.58.5,5.43,2.39,7.43,2.86,3,8,.74,8-3.42V354.71l3.46-.79c1.84,3.82,3.49,7.78,5.93,11.17,2.29,3.16,6.23,7.81,8.8,7.44,3.38-.5,6.92-4.81,9-8.31,2.76-4.75,4.59-10.05,6.65-15.21l3.33.52c1.59,20.48.4,53.11,4.77,61.44.61,1.15,1.34,1.3,2.63,1.07,3.17-.55,5.51-4,6.61-6.69A29.77,29.77,0,0,0,219.08,393c-1.46-33-3-65.95-5-98.9-.22-3.76-.71-8.9-4.05-11.07-1.08-.69-1.38,0-2.65.06-7.53,19.33-15.06,38.66-23.43,60.13C177.58,333.52,172.87,326,167.72,318.74Zm217.64,87c0-6.69,0-13.38,0-20.07.12-14.28.44-28.56.34-42.84a54.73,54.73,0,0,0-2-14.06c-.52-1.88-3.46-4.48-5.07-4.33a8.69,8.69,0,0,0-6,4.37c-1.38,2.92-1.69,6.51-1.81,9.83-.75,19.86-1.41,39.73-1.87,59.6a63.1,63.1,0,0,0,1.32,11.64c1.24,7.54,4,14.5,12.23,16.4,9,2.06,13.63-4.48,18.25-10.69,4.95-6.64,10.15-13.08,16.55-21.28,1.54,7.74,2.08,13.32,3.88,18.46,1.4,4,3.71,8.26,6.86,10.94,1.93,1.64,6.38,1.12,9.36.32,1.06-.29,1.75-4.28,1.59-6.52q-2.25-32.17-4.93-64.33c-.35-4.24-1.41-8.43-2.14-12.64-.7,0-1.76-.74-2.1-.12C418.88,360.62,386.13,406,385.36,405.73ZM267.94,287.66c1.21-4.05-2.29-8.85-5.11-11.48-7.31-6.8-16.42-5.05-24.41-1.5-3.14,1.4-6.56,6.73-6.46,10.18,1.2,44.12,3,88.22,4.83,132.32a13.37,13.37,0,0,0,3.64,8c6.38,6.56,27,8.86,35.09,4.38,5.83-3.23,6.3-9.06.58-12.47a38.08,38.08,0,0,0-10.91-3.9c-4.27-1-8.7-1.33-14.05-2.08V373.35a3.77,3.77,0,0,1,1.5-.22c6.9,1.84,13.77,2.88,16.63-5.82,2-6-3.66-11.82-13.22-12.75-6.41-.62-7.74-3.69-7.91-9.13-.23-7-1-13.92-1.53-20.88-.72-9.19-1.73-18.36-2.11-27.56-.4-9.68,1.75-11.31,11.38-9.65,3.23.56,6.43,1.29,9.64,1.94C266.33,288.74,267.67,288.59,267.94,287.66Z"/>
    </g>
  </g>
</svg>
