<svg id="icons" xmlns="http://www.w3.org/2000/svg" width="516.61" height="645.37" viewBox="0 0 516.61 645.37">
  <defs>
    <style>
      .cls-1 {
        fill: #e27227;
      }

      .cls-2 {
        fill: #fff;
      }

      .cls-3 {
        fill: #232323;
      }
    </style>
  </defs>
  <title>icon_market</title>
  <g id="icons-2" data-name="icons">
    <g id="menu_pan" data-name="menu pan">
      <g id="firepanbg">
        <path class="cls-1" d="M28,391.69a169.39,169.39,0,0,1,.31-55.17,36,36,0,0,0,.67-9c-.76-7.87,1.28-14.82,4-22C39.74,288,44.56,270,43,250.6c-.55-6.85-.08-13.81.26-20.71.49-10.22-3.54-18.57-8.76-26.46-3.7-5.61-7.65-11-11.39-16.6-.86-1.28-1.93-2.93-1.84-4.34.54-9.12,1.37-18.21,2.23-28.85,1.91,2.67,3.1,3.79,3.66,5.21,5.9,14.67,18.08,21.21,30.27,27.63a12,12,0,0,0,7.24,1c13.76-2.39,18.52,0,25.07,13.43,1.76,3.63,3.06,7.52,4.9,12.09,3.11-16.27,1.74-30.42-6.93-43.78-5.92-9.11-10.66-19.22-15.13-29.31-1.47-3.33-.26-8-.58-12-1.41-17.8,3.64-34.31,7.56-51.24,4-17.1,13.65-30.47,21.33-45.19,1.85-3.55,3.78-7,5.68-10.58l1.85.19c.25,3.65.75,7.3.7,10.94-.12,8.31-1.29,16.69-.6,24.89,1,11.55,8.79,18.83,16.5,25.56,6,5.2,12.08,10.57,18.87,14.21,14.15,7.58,24,20.84,37.21,31.49,4.86-3.74,10.3-7.51,15.29-11.88,5.4-4.72,5.59-12.22,6.26-18.75.57-5.48-1.36-11.26-2.13-16.91a10.86,10.86,0,0,1-.15-4.23c2-6.78,3.67-13.75,6.44-20.15s6.77-12.45,10.41-19c1.37,8.1,2.38,15.69,4,23.13,3,14.11,12.84,23.52,20.75,34.22,11.2,15.13,22.09,34.56,24.59,53.87,1.13,8.76-1.44,24-1.44,24s7-6.12,8.6-7.95c5.36-7.15,9.22-11.35,4.86-22.16-4.29-10.66-5.42-18.56-1-28,3-6.41,6.37-12.61,10.07-19.89,3.75,6.81,6.25,12.84,10,17.77a160.61,160.61,0,0,0,17.59,19.8c5.19,4.9,9.31,10.1,11.32,17.3,1.53,5.5,3.44,10.87,5.49,17.23,5.63-10.58,5.68-20.94,2.88-31.2-2.08-7.64-5.68-14.76-8.22-22.27-6.85-20.18-5.77-40.31-.66-60.9C329.85,36.91,339,26,348.1,14.71,352,9.82,355.91,4.9,359.82,0l1.57.42c-.13,2.62.13,5.36-.45,7.86-4.95,21.46-3.71,42.42,2.41,63.54,5.85,20.21,18.11,33.67,33.94,44.85,12.17,8.59,19.53,22.12,23.1,37,3.08,12.86,3.89,26.4,5.22,39.71.63,6.27.11,12.68.11,20,4.76-1.82,8-4.24,9.13-9.25a75,75,0,0,0,1.1-7.51c1.08-9.22,5.38-16.34,11.22-23,6.73-7.69,12.58-16.3,19.66-25.64-1.16,8.58-2.09,15.67-3.06,22.74a108.94,108.94,0,0,0,6.92,56.89c5.75,14.12,11.26,28.36,17,42.51,7,17.37,7,35.64,6.1,54-.34,7-1.24,14-.89,21,.87,17.74-3.85,34.37-7.64,51.22-4.13,18.37-12,34.9-21.29,50.65-1.44,2.43-14.47,21.15-15.55,22.17-6.13,5.8-12,11.92-18.23,17.59-28.27,25.77-61,43.07-94.53,58.86-3.9,1.84-8,4.37-12,4.46-7.21.17-13.56,4.53-20.6,4.29-31.18-1.07-62.44-1.91-93.16-8.5-22.51-4.83-43.72-14.17-64.51-24.57Q117.63,507.44,90,493.48a13.51,13.51,0,0,1-3.54-2c-7.88-7.73-16-15.22-23.41-23.47-5.1-5.67-9.44-12-11.93-20-1.91-6.17-6.77-11.18-9.57-17.12-3.77-8-6.9-16.45-10.1-24.79C31,405,28.64,395.29,28,391.69Z"/>
        <path class="cls-1" d="M513.27,184.55c4.65,4.26,4.28,8.83-.12,13.7-4.56,5.05-9,10.23-13.55,15.27A4.13,4.13,0,0,1,497,215c-3.39.07-8.85-8.78-7.56-12.2,2.44-6.43,4.74-12.94,7.62-19.14C498.07,181.53,510.46,182,513.27,184.55Z"/>
        <path class="cls-1" d="M51.58,108.92c-.27,4.5.09,9.21-1,13.44-.75,2.81-3.41,5.3-5.76,7.07-.54.4-3.87-2.41-5-4.37-2.89-5-5.26-10.44-7.85-15.68-1.67-3.38-1.43-6,2-8a38.22,38.22,0,0,0,5.62-4.48c4.09-3.55,7.79-2.95,10,2.14C50.86,102.06,51.82,108.86,51.58,108.92Z"/>
        <path class="cls-1" d="M7.73,226.14a11.66,11.66,0,0,1,8.75,6.07c1.8,3.16,2.75,6.9,3.89,10.46a4.68,4.68,0,0,1-.4,3c-1.24,2.7-3,5.17-3.91,8-1.28,3.9-4.4,4.43-6.25,2.58C6,252.41,2.31,248,.18,243c-.93-2.17,2-6.42,3.4-9.6C4.5,231.3,5.83,229.41,7.73,226.14Z"/>
        <path class="cls-1" d="M193.64,96.56a8.64,8.64,0,0,1,0,5.85,6.06,6.06,0,0,1-1.07,2,80.22,80.22,0,0,1-7.5,7c-3.53,2.93-7.16,1.32-8.06-3.47a40.85,40.85,0,0,1-.64-5.39C176,94.51,183.74,87,190,90.31,191.76,91.22,192.7,94,193.64,96.56Z"/>
        <path class="cls-1" d="M33.4,265.52c-.14,3.12-3.13,5.12-5.75,3.85s-5-2.43-7.58-3.61-3.81-3.16-2.8-5.88,2.21-6.31,4.16-7.1S27,253.29,29,255A12.47,12.47,0,0,1,33.4,265.52Z"/>
      </g>
      <path id="bg" class="cls-2" d="M440.24,645.37a13,13,0,0,1-6.43-1.64l-.2-.11c-1.75-1-3.53-2-5.32-3a112.59,112.59,0,0,1-15.56-9.77,152.3,152.3,0,0,1-15.24-14.29c-1.34-1.38-2.68-2.76-4-4.12-3.77-3.79-7.27-7.76-10.2-11.15-2.49-2.86-5-5.75-7.56-8.63-7.84-8.93-15.95-18.16-23.65-27.58-3.88-4.73-9.37-11.67-14.21-17.8l-3.53-4.47-.34.25-7.07-9.34q-2.37-3.13-4.71-6.27c-3.88-5.17-7.88-10.51-11.92-15.59-.33-.4-.59-.7-.8-.92a20.43,20.43,0,0,0-2.27.82l-6.37,2.67c-10.77,4.54-21.92,9.24-33.57,12.66A52.08,52.08,0,0,1,252.62,529a83.72,83.72,0,0,1-12.91-1.08,449.65,449.65,0,0,1-44.39-9.33,74.54,74.54,0,0,1-14.11-5.74,79.26,79.26,0,0,0-7.57-3.43c-14.47-5.27-25.3-14.87-34-23.56-1.3-1.29-2.87-2.61-4.54-4-2-1.66-4-3.37-6.05-5.39-13.07-13-23-28.08-31.36-41.2-6.86-10.81-13.73-22.06-21-34.4a32.74,32.74,0,0,1-4.54-13.58c-.56-6.61-.94-13.25-1.31-19.67-.27-4.52-.53-9-.85-13.56-.11-1.46-.36-3.12-.62-4.86a73.88,73.88,0,0,1-.89-8,31.12,31.12,0,0,1,.65-7.15,19.3,19.3,0,0,0,.31-2.09,53.39,53.39,0,0,0-.67-8.26c-1.13-7.58.82-13.66,3.09-19.1,5.07-12.14,12.49-21.89,19.67-31.31l.3-.39c15.79-20.8,36-39,65.66-59Q163.27,210,169,206c8.29-5.68,16.85-11.56,25.55-17.09a149.14,149.14,0,0,1,23.38-12.13c4.72-1.94,9.48-2.2,13.91-2.2l3.17,0c43.52.22,84.06,14.29,123.93,43,17.24,12.43,29,26.07,36,41.7,10.35,23.16,21.81,50.81,28.4,80.39a24.2,24.2,0,0,0,1.14,3.19,37.44,37.44,0,0,1,2.63,8.88c.21,1.59.49,3.19.77,4.8,1.17,6.72,2.5,14.35.21,22.05-9.16,30.68-22.18,54.87-39.83,74-1.69,1.82-3.42,3.47-5.16,5,4.89,6.82,9.73,13.64,14.58,20.47,7.78,10.95,15.83,22.27,23.84,33.29,5.88,8.09,12,16.26,17.88,24.17,8.9,11.93,18.11,24.26,26.86,36.7a81.19,81.19,0,0,1,12.17,26.38c2.81,11.22-.17,22.16-8,29.24a27,27,0,0,0-4,4.22c-7.4,11.07-19.11,12.48-23.17,12.93a17.81,17.81,0,0,1-3,.28ZM374.72,292.82a3.13,3.13,0,0,0-.7-1.19c-12.46-18.1-26.69-34.54-44.73-47.36-28.47-20.25-60.67-30-95.07-33.18-3-.28-6.09.89-9.14,1.38,0,.44,0,.87.08,1.31a36.36,36.36,0,0,0,4.39.67c18,.89,34.8,6.41,50.5,14.88,13.77,7.43,27.14,15.64,40.49,23.83,18.94,11.6,34.42,27.29,49.93,42.91,1.13,1.12,3.08,1.43,4.62,2.11C375,296.39,374.91,294.6,374.72,292.82ZM133.63,422.64c6.89,8.84,13.76,17.65,21.56,25.58,11.06,11.28,24.56,19.41,39.05,25.28,10,4.05,20.79,6.11,31.29,8.8,1,.25,2.92-1.06,3.73-2.17a26.86,26.86,0,0,0,2.56-5.26C195.41,464.17,162.34,447.7,133.63,422.64ZM448.82,596.87c-6.87-9.26-13.53-18.65-20.52-27.81a13.48,13.48,0,0,0-6.15-4.42c-3-1-16.79,9.09-17.54,12.33s3.89,15.58,6.62,17.57l9.53,7c-.21.25-.41.5-.61.77,1.21,1.6,2.39,3.21,3.63,4.77,8.57,10.86,16.29,7.63,23.56-.87C449.14,604.13,451.55,600.55,448.82,596.87Z"/>
      <path id="pan" class="cls-3" d="M467,601.55a68.79,68.79,0,0,0-10.37-22.46c-14.45-20.54-29.86-40.4-44.64-60.72-14.21-19.56-28.06-39.4-42.2-59-1.83-2.53-1.75-4.23.61-6.23a108,108,0,0,0,9.21-8.42c18.37-19.9,29.58-43.85,37.19-69.36,2-6.61-.39-14.62-1.36-21.9-.52-3.8-2.76-7.33-3.6-11.11-6.05-27.16-16.37-52.89-27.64-78.14-6.81-15.19-18.49-27.1-32.17-37C317,202,278.66,186.62,235,186.4c-4.21,0-8.82-.23-12.55,1.3a138.79,138.79,0,0,0-21.55,11.17c-12.47,7.94-24.53,16.51-36.8,24.79-23.55,15.92-45.55,33.57-62.89,56.41-7,9.16-13.92,18.2-18.47,29.11-1.89,4.5-3,8.23-2.31,12.85a64.56,64.56,0,0,1,.79,10.1c0,2.88-1.09,5.75-1,8.59.18,4.19,1.19,8.34,1.49,12.52.79,11,1.21,22.05,2.16,33.06a21,21,0,0,0,2.94,8.61Q97,412.1,107.63,429c8.81,13.88,18,27.5,29.73,39.16,3.35,3.33,7.26,6.09,10.61,9.41,8.69,8.69,17.85,16.51,29.69,20.83,7,2.55,13.48,7,20.64,8.84a436.71,436.71,0,0,0,43.23,9.09c7.31,1.14,15.44,1.53,22.4-.52,13.23-3.88,25.95-9.58,38.73-14.89,7.53-3.15,11.79-2.69,16.8,3.63,5.77,7.24,11.23,14.7,16.81,22.08.27-.2,16.49,20.77,24.87,31,10,12.25,20.61,24,31,36,3.11,3.59,6.27,7.16,9.63,10.53,6,6,11.63,12.31,18.22,17.47,5.95,4.67,13,8,19.55,11.86.57.32,1.51,0,2.27-.05,5.94-.65,11.22-2.42,14.82-7.8a36.6,36.6,0,0,1,5.93-6.4C468,614.29,468.47,607.24,467,601.55ZM229.26,480.13c-.81,1.11-2.71,2.42-3.73,2.17-10.5-2.69-21.31-4.75-31.29-8.8-14.49-5.87-28-14-39.05-25.28-7.8-7.93-14.67-16.74-21.56-25.58,28.71,25.06,61.78,41.53,98.19,52.23A26.86,26.86,0,0,1,229.26,480.13Zm91.28-227c-13.35-8.19-26.72-16.4-40.49-23.83-15.7-8.47-32.47-14-50.5-14.88a36.36,36.36,0,0,1-4.39-.67c0-.44,0-.87-.08-1.31,3-.49,6.16-1.66,9.14-1.38,34.4,3.23,66.6,12.93,95.07,33.18,18,12.82,32.27,29.26,44.73,47.36a3.13,3.13,0,0,1,.7,1.19c.19,1.78.25,3.57.37,5.36-1.54-.68-3.49-1-4.62-2.11C355,280.45,339.48,264.76,320.54,253.16Zm126.8,353.06c-7.27,8.5-15,11.73-23.56.87-1.24-1.56-2.42-3.17-3.63-4.77.2-.27.4-.52.61-.77l-9.53-7c-2.73-2-7.38-14.34-6.62-17.57s14.5-13.34,17.54-12.33a13.48,13.48,0,0,1,6.15,4.42c7,9.16,13.65,18.55,20.52,27.81C451.55,600.55,449.14,604.13,447.34,606.22Z"/>
      <path id="mp" class="cls-2" d="M287.32,391.22c1.71-21.75,3.34-41.44,4.77-61.15.78-10.87,1.21-21.77,1.79-32.65.28-5.31,1.14-10.93,7.8-10.75s7.63,6,7.24,11.18c-2.3,30.93-4.81,61.85-7.35,92.76-.87,10.58-1.58,21.21-3.31,31.66a10.28,10.28,0,0,1-1.17,3.21,8.41,8.41,0,0,1-13,2.37,5.64,5.64,0,0,1-1.36-1.83c-6.26-14-12-28.27-17.09-42.72-5-14.19-9.07-28.72-15.52-42.87.86,8.49,1.52,17,2.63,25.46,1.78,13.58,3.91,27.11,5.77,40.67.41,3,1.15,6.43.21,9.14-.09.26-.19.51-.3.77-2.4,5.57-10,6.93-13.57,2a5.19,5.19,0,0,1-.69-1.26c-2.22-5.91-3-12.5-3.57-18.87-3-32.84-6-65.67-8.38-98.55-.61-8.28.39-16.77,1.55-25a7.24,7.24,0,0,1,1.16-2.86,5.33,5.33,0,0,1,8.86-.41,8.15,8.15,0,0,1,1.12,2c13.33,37.66,26.4,75.42,39.58,113.14C284.77,387.63,285.54,388.44,287.32,391.22Zm-169.39-86a12.39,12.39,0,0,0-2.11-2.24,5.95,5.95,0,0,0-9.63,4.11c-.41,23.48-.51,47-.13,70.45,0,2.57.5,5.42,2.39,7.42,2.85,3,8,.74,8-3.41V341.16l3.47-.79c1.83,3.83,3.49,7.78,5.93,11.17,2.28,3.16,6.22,7.81,8.79,7.44,3.38-.5,6.93-4.81,9-8.31,2.76-4.75,4.59-10.05,6.66-15.2l3.32.52c1.59,20.47.4,53.1,4.77,61.43.61,1.16,1.35,1.3,2.64,1.08,3.16-.56,5.5-4,6.6-6.7a29.77,29.77,0,0,0,1.72-12.34c-1.47-33-3.05-65.95-5-98.9-.22-3.76-.71-8.89-4.05-11.07-1.07-.69-1.37,0-2.65.06-7.53,19.33-15.06,38.66-23.43,60.13C127.79,320,123.09,312.42,117.93,305.19Zm217.64,87c0-6.69,0-13.38,0-20.06.12-14.28.45-28.57.34-42.84a54.8,54.8,0,0,0-2-14.07c-.52-1.88-3.45-4.48-5.07-4.33a8.71,8.71,0,0,0-6,4.37c-1.38,2.92-1.68,6.51-1.81,9.83-.75,19.86-1.41,39.73-1.87,59.6a63,63,0,0,0,1.32,11.64c1.25,7.54,4,14.5,12.24,16.4,9,2.06,13.62-4.48,18.25-10.69,4.94-6.64,10.15-13.08,16.54-21.28,1.55,7.74,2.09,13.32,3.88,18.46,1.4,4,3.71,8.26,6.86,10.94,1.94,1.64,6.38,1.12,9.36.32,1.07-.28,1.75-4.28,1.59-6.51q-2.25-32.19-4.93-64.34c-.35-4.24-1.4-8.43-2.14-12.64-.7,0-1.76-.74-2.1-.12C369.1,347.08,336.34,392.4,335.57,392.18ZM218.16,274.11c1.2-4.05-2.3-8.85-5.12-11.48-7.3-6.8-16.41-5.05-24.41-1.5-3.14,1.4-6.55,6.73-6.46,10.18,1.21,44.12,3,88.22,4.83,132.32a13.43,13.43,0,0,0,3.64,8c6.38,6.56,27,8.86,35.1,4.38,5.83-3.23,6.29-9.06.57-12.47a38.08,38.08,0,0,0-10.91-3.9c-4.27-1-8.69-1.32-14-2.08V359.8a3.7,3.7,0,0,1,1.49-.22c6.9,1.84,13.78,2.88,16.63-5.82,2-6-3.65-11.82-13.22-12.75-6.4-.62-7.73-3.68-7.91-9.13-.23-7-1-13.92-1.53-20.88-.72-9.19-1.73-18.36-2.11-27.56-.4-9.68,1.76-11.31,11.38-9.64,3.23.55,6.43,1.28,9.65,1.94C216.54,275.19,217.88,275,218.16,274.11Z"/>
    </g>
  </g>
</svg>
