<?xml version="1.0" encoding="utf-8"?>
<!-- Generator: Adobe Illustrator 23.0.1, SVG Export Plug-In . SVG Version: 6.00 Build 0)  -->
<svg version="1.1" id="pisces" xmlns="http://www.w3.org/2000/svg" xmlns:xlink="http://www.w3.org/1999/xlink" x="0px" y="0px"
	 viewBox="0 0 499.3 499.3" style="enable-background:new 0 0 499.3 499.3;" xml:space="preserve">
<path id="pisces_1_" d="M438.6,248.3c-1.2-21.5-18.6-36-39.8-36c-8.8,0-17.6,0-26.4,0c1.8-26.1,5.5-52,11.9-77.4
	c5.5-22.3,13.1-44.5,25.3-64.1c2.3-3.7,4.8-7.1,7.2-10.2c4.3-5.6,6.9-11.8,7.8-18.8c1.6-12.2-3.4-24.7-12.8-32.7
	c-9.8-8.4-23.1-10.9-35.4-7.3c-12.3,3.6-19.7,13.8-26.6,23.9C331.8,52,320.6,83.2,312.6,114c-8.4,32.1-12.9,65.2-15,98.4
	c-31.9,0-63.9,0-95.8,0c-3.4-56.2-13.8-113.5-39.1-164.1c-5.3-10.6-11.5-20.8-18.7-30.2c-8-10.5-17.7-17.2-31.3-18
	C85.2-1.5,67.1,28.7,77.7,52.8c2.4,5.5,6.2,9.4,9.5,14.2c3.4,5,6.4,10.2,9.2,15.6c6.3,12.3,11,25.4,14.9,38.7
	c8.8,29.6,13.5,60.3,15.6,91.1c-8.8,0-17.6,0-26.4,0c-21.6,0-39.3,15.1-39.9,37.4c-0.3,11.9,6.1,23.4,15.7,30.4
	c7.2,5.2,15.5,7,24.2,7c8.8,0,17.6,0,26.4,0c-1.8,26.1-5.5,52-11.9,77.4c-5.5,22.3-13.1,44.5-25.3,64.1c-2.3,3.7-4.8,7.1-7.2,10.2
	c-4.3,5.6-6.9,11.8-7.8,18.8c-1.6,12.2,3.4,24.7,12.8,32.7c11.1,9.5,26.9,11.6,40.1,5.4c11.3-5.3,18.4-16.5,24.9-26.7
	c16.9-26.4,27.5-56.8,35.1-87c7.8-31.1,12.2-63.1,14.1-95c31.9,0,63.9,0,95.8,0c3.4,56.2,13.8,113.5,39.1,164.1
	c10.6,21.1,25.4,48.9,52.5,48.1c28.7-0.8,44.7-33.9,29.8-57.5c-2.9-4.6-6.4-8.4-9.5-13.2c-3.1-4.9-5.8-10-8.4-15.2
	c-5.9-12.2-10.3-25.1-14.1-38.2c-8.3-28.7-12.7-58.4-14.7-88.2c8.8,0,17.6,0,26.4,0c21.2,0,38.6-14.5,39.8-36c0-0.4,0.1-0.9,0.1-1.4
	C438.7,249.2,438.6,248.8,438.6,248.3z M408.4,267.8c-3.9,1.9-9.2,1.3-13.5,1.3c-10.7,0-21.4,0-32,0c-4.7,0-9.3,4.1-9,9
	c1.6,29.6,5.4,59.2,12.3,88.1c5.6,23.3,13.4,46.6,25.4,67.5c4.8,8.3,13,15.7,15.1,25.1c2.4,10.4-5.6,19.8-15.2,22.3
	c-11.8,3-19.4-6.8-25.3-15.2c-7-10.1-12.9-21-18-32.1c-22.2-48.2-30.6-103-33.1-155.6c-0.2-4.9-3.9-9-9-9c-37.6,0-75.2,0-112.8,0
	c-5.1,0-8.8,4.1-9,9c-2.8,57.6-12.6,118-40,169.4c-5.3,9.9-11.2,20.3-19,28.4c-8.4,8.7-21.7,6.3-29.1-2.1c-6.3-7.3-4.2-18,1.2-24.9
	c6.4-8.1,11.7-17,16.2-26.3c21.6-44.4,29.2-95.6,31.8-144.4c0.3-4.9-4.3-9-9-9c-10.7,0-21.4,0-32,0c-4.6,0-8.8,0.2-13.2-1.2
	c-7.7-2.4-12.4-10.4-12.5-18.2c-0.2-8.2,5.2-14.7,12.3-18.1c3.9-1.9,9.2-1.3,13.5-1.3c10.7,0,21.4,0,32,0c4.7,0,9.3-4.1,9-9
	c-1.6-29.6-5.4-59.2-12.3-88.1c-5.6-23.3-13.4-46.6-25.4-67.5c-4.8-8.3-13-15.7-15.1-25.1c-2.1-9.4,4.5-18.9,13.2-21.8
	c10.2-3.4,18.3,2.5,24.1,10.3c7.2,9.6,13.2,20.1,18.5,30.9c24.3,49.4,33.2,106.7,35.8,161.2c0.2,4.9,3.9,9,9,9
	c37.6,0,75.2,0,112.8,0c5.1,0,8.8-4.1,9-9c2.8-57.6,12.6-118,40-169.4c5.2-9.8,11.1-20.1,18.8-28.2c6.4-6.8,17.9-7.7,25.3-2
	c8,6.2,10,16.9,5.1,25.6c-2.3,4.1-5.7,7.6-8.3,11.4c-2.9,4.3-5.5,8.9-7.9,13.5c-23.6,45.1-31.4,98.8-34.1,149c-0.3,4.9,4.3,9,9,9
	c10.7,0,21.4,0,32,0c4.6,0,8.8-0.2,13.2,1.2c7.7,2.4,12.4,10.4,12.5,18.2C420.5,258,415.8,264.3,408.4,267.8z"/>
</svg>
