<svg id="icons" xmlns="http://www.w3.org/2000/svg" width="627.75" height="585" viewBox="0 0 627.75 585">
  <defs>
    <style>
      .cls-1 {
        fill: #e27227;
      }

      .cls-2 {
        fill: #fff;
      }

      .cls-3 {
        fill: #232323;
      }
    </style>
  </defs>
  <title>Artboard 4</title>
  <g id="icons-2" data-name="icons">
    <g id="menu-roller">
      <g id="bgorange">
        <path id="bg" class="cls-1" d="M544.42,251.91c1.52,18.41,1.16,36.8-3,54.6-2.89,12.3-8.95,23.88-13.78,35.7a121.41,121.41,0,0,1-7,14.56c-2.84,4.92-6.45,9.4-9.45,14.25-1.6,2.58-2.54,5.56-3.91,8.29a20,20,0,0,1-2.72,4.22c-10.19,11.55-19.83,23.67-30.88,34.34-7.91,7.65-17.33,14-26.78,19.74C427.77,449.29,407.3,458,385,461.9c-10.13,1.77-20.27,3.52-30.33,5.61-6.38,1.33-12.53,4.14-18.94,4.77-12.2,1.22-24.51,1.58-36.78,1.86-8.94.2-18.12.91-26.79-.75-19.1-3.65-38.16-7.9-56.82-13.33-17.77-5.17-35-12.16-52.48-18.35a7.25,7.25,0,0,1-1.84-.81q-16.44-12.25-32.86-24.55c-5.49-4.11-11.35-7.81-16.34-12.45C106,398.45,100,392.76,95.64,386.11a209.07,209.07,0,0,1-16.89-31.36C74.56,345,71,334.62,69.4,324.18c-4.32-28.18-4.91-56.44,3.24-84.24,6.73-23,16.07-44.78,29-65,1.24-1.94,4.59-2.4,6.28-4.18,8.93-9.46,17.42-19.34,26.52-28.62,4.45-4.55,9.88-8.16,14.91-12.13,28.32-22.37,60.54-37.41,94.47-48.68,30-10,61.05-13.09,92.43-8.22,20.95,3.26,42,6.79,62.43,12.14,12.24,3.19,23.59,9.95,35.19,15.42,9.77,4.6,19.73,9,28.92,14.61,30.75,18.76,54.68,43.74,67.91,77.85,3.23,8.31,6.71,16.64,8.64,25.29C541.78,229.44,542.79,240.74,544.42,251.91Z"/>
        <path id="small_detail" data-name="small detail" class="cls-1" d="M512.14,494.6l-25.43,29.12c-3.65-6.84-7.11-12.59-9.89-18.65-5.65-12.34-11-24.84-16.37-37.3-4.25-9.79-4.08-9.64,4.21-16.65,3.87-3.27,6.55-4,10.29.37,11.93,13.91,24.23,27.51,36.36,41.24A7.18,7.18,0,0,1,512.14,494.6ZM88.46,77.24c-2.87,2-3.89,4-1,7.69C95.67,95.7,103.22,107,111,118.14c1.25,1.8,1.88,4,3.2,5.76,3.47,4.49,7,8.9,10.86,13.09.8.88,2.75.75,4.19,1,.11,0,.31-.51.53-.87l-2.51-1.32,3.19-4.42c.13.29.27.58.4.86l7.83-3.2c-1.25-12.4-10.44-21.06-15.43-31.68-5.12-10.89-11.31-21.28-17-31.83C99.91,69.67,94.09,73.32,88.46,77.24Zm-24.5,50c9.72,8.51,19.41,17,29.19,25.48,5.52,4.76,8.54,4.51,12.6-.6,1.28-1.63,2.77-3.1,4.88-5.43-.89-1-2.13-2.51-3.57-3.83-2.92-2.69-6.3-4.95-8.82-7.95-2.68-3.2-4.49-7.11-6.84-10.61-5-7.47-10.15-14.88-15.58-22.83L62,125.16A24.73,24.73,0,0,0,64,127.26ZM456,502.86l-15.1-35.33-12.07,6,8.71,38.37Zm44.59-64.59c5.92,4.42,10.63,10.68,18.36,12.81l9.56-14.1L502.6,416.39,491.75,431C495,433.66,497.7,436.1,500.62,438.27Z"/>
      </g>
      <g id="roller">
        <path id="bg-2" data-name="bg" class="cls-2" d="M203.06,409.48a16.32,16.32,0,0,1-10.92-3.34c-6.28-4.79-12.44-10.31-15-18.12-6.22-19.2-11.78-38.85-17.15-57.85l-2.56-9a98.38,98.38,0,0,1-2.29-11.26c-.18-1.19-.36-2.33-.56-3.39l-.28-1.48.08-1.51c.08-1.72.13-3.36.18-4.94a121.55,121.55,0,0,1,.82-12.35c.71-5.32,4.28-12,10.66-15.1,11.52-5.53,21.87-10.21,31.63-14.3l13.62-5.75c16.81-7.11,34.19-14.47,51.7-21,20.31-7.57,41.11-14.58,61.22-21.35q8.58-2.9,17.16-5.8l4.57-1.56c11.67-4,23.75-8.09,36-11.45,11.62-3.17,23.44-5.75,34.87-8.24,3.27-.72,6.54-1.43,9.81-2.16a22.62,22.62,0,0,1,3.44-.49,18.61,18.61,0,0,1,19.11,12.45l.49,1.34a179.88,179.88,0,0,1,5.65,17.57c4.49,17.93,8.29,34,11.63,49.05,2.69,12.15,4.5,22.08,5.71,31.27,2.07,15.66-9.56,33.25-25.4,38.4-10.92,3.55-22,6.88-32.78,10.11-7.09,2.13-14.19,4.26-21.25,6.46-8.73,2.71-17.43,5.49-26.13,8.26C355,357.8,342.45,361.8,330,365.57c-6.86,2.09-13.82,4-20.54,5.79-9.66,2.61-18.78,5.08-27.79,8.12-11.82,4-23.79,8.65-35.37,13.16-6.44,2.5-13.09,5.09-19.7,7.56-3.69,1.38-7.28,2.39-10.75,3.36C215.54,403.65,207.38,409.21,203.06,409.48Z"/>
        <path id="bg-3" data-name="bg" class="cls-2" d="M473.64,266c-.36,0-.73,0-1.1,0-14.81,0-19.68-3.47-24.79-17.63a115,115,0,0,1-3.58-11.4c-1.48-6-.84-11.26,1.89-15.69a17.75,17.75,0,0,1,6.06-5.91c4.15-7.23,11.21-10.14,15.43-11.88,1.06-.44,2.07-.85,2.71-1.2,12.77-6.83,25.86-13.35,38.52-19.66q7.38-3.68,14.74-7.37a39.54,39.54,0,0,1,23.72-4c3,.4,6.21.53,9.64.67,2.9.11,5.89.23,9,.53a20.23,20.23,0,0,1,13.36,7.52,65.16,65.16,0,0,1,3.91,5.68,35.12,35.12,0,0,0,2.67,3.87c11.79,13.75,7.65,28.45,4.9,38.18-5.53,19.62-22.25,23.58-33.31,26.2l-1.12.26c-8.14,1.95-16.34,3.33-24.26,4.66-3.36.57-6.72,1.13-10.08,1.74l-13.3.4q-14.29,1.75-28.6,3.55l-.25.09A22.1,22.1,0,0,1,473.64,266Z"/>
        <path id="bg-4" data-name="bg" class="cls-2" d="M84.75,411.52c-3.37.21-6.65.21-9.47.19-4.52,0-9.36-.3-14.79-.82a24.29,24.29,0,0,1-11.94-4C37.71,399.14,33.94,385,34,374.29c.09-12.25,4.85-22.5,13-28.14,1.92-1.32,3.83-2.69,5.74-4,12-8.56,25.53-18.26,44.16-19.46,12.26-.79,24.83-2.17,37-3.51q6.67-.74,13.36-1.45c1.61-.16,3.43-.51,5.72-.94,1.35-.26,2.8-.53,4.41-.81l9.78-1.69,4.24,9c.27.57.58,1.18.91,1.83a61,61,0,0,1,3.46,7.76c1,2.75,1.64,5.35,2.29,7.86.47,1.8.92,3.5,1.41,5,5.42,16.89-5.46,23.8-12.43,26.42-17.44,6.53-33.13,16.44-49.75,26.93-2.78,1.75-5.55,3.51-8.33,5.24C99.93,410,90.82,411.14,84.75,411.52Z"/>
        <path id="roller-2" data-name="roller" class="cls-3" d="M519.42,246.45c-13.87,1.71-27.74,3.39-41.59,5.15-1.79.23-3.53,1.34-5.28,1.34-9.27,0-9.3-.06-12.53-9a102.06,102.06,0,0,1-3.2-10.1c-.92-3.72,1.92-12.95,19.59-20,17.46-9.34,35.29-18,53-26.88a26.57,26.57,0,0,1,16.08-2.78c6.33.87,12.8.66,19.18,1.27A7.13,7.13,0,0,1,569,188c2.5,3.17,4.3,6.92,6.92,10,7.1,8.27,4.81,17.08,2.25,26.15-3.58,12.7-14.56,14.85-24.9,17.32C542.19,244.07,519.49,246.86,519.42,246.45Zm-370.75,84.2c-16.95,1.77-33.87,3.91-50.86,5-17.55,1.13-30.1,12.12-43.35,21.24-10.92,7.51-9.24,31.59,1.66,39.36a12.1,12.1,0,0,0,5.63,1.66c4.52.44,9.07.73,13.62.76,9.27.07,18.29-.15,26.76-5.43,19.52-12.17,38.63-25.17,60.4-33.32,5.6-2.1,6.43-4.53,4.6-10.23-1.33-4.16-2.17-8.48-3.6-12.6a81.74,81.74,0,0,0-3.85-8.31C155.12,329.56,151.92,330.31,148.67,330.65ZM170,317.59c6.3,22.21,12.46,44.47,19.57,66.41,1.49,4.63,6.33,8.61,10.47,11.77,2.6,2,17.38-6.06,22-7.78,18.51-6.91,36.76-14.54,55.47-20.86,16-5.4,32.54-9.13,48.72-14,21.12-6.41,42.09-13.33,63.16-19.88,17.94-5.58,36-10.71,53.88-16.52,9.81-3.19,17.75-14.93,16.51-24.29-1.33-10.12-3.31-20.19-5.52-30.16q-5.42-24.43-11.54-48.71c-1.5-6-3.67-11.83-5.76-17.65-1.23-3.4-4.24-4.37-7.46-3.65-14.72,3.27-29.53,6.28-44.08,10.25-13.43,3.67-26.62,8.28-39.82,12.77-26.06,8.85-52.24,17.41-78,27-21.88,8.15-43.3,17.52-64.84,26.55-10.47,4.39-20.8,9.12-31,14a7.49,7.49,0,0,0-3.37,5.07c-.66,5-.62,10.1-.9,16.17C168.15,308,168.68,312.91,170,317.59Z"/>
      </g>
      <path id="menu" class="cls-2" d="M300.5,270.52a7.43,7.43,0,0,1,.07-3.07,4.32,4.32,0,0,1,5.34-3.43,6.08,6.08,0,0,1,2.48,1.13c5.46,4.51,10.11,10.05,15.77,14.26,7.38,5.48,15.42,10,24.8,16.06C346.31,285.79,344,277.91,342,270a176.43,176.43,0,0,1-3.79-18.56,3.35,3.35,0,0,1,.16-1.42,4.83,4.83,0,0,1,7-2.5,6.33,6.33,0,0,1,1.14.84c1.2,1.13,1.51,3.3,2,5.06q6.6,23.22,13.11,46.44c.43,1.52,3.17,12.14-1.22,13.46-2.84.9-7.13-.3-9.88-2.06-12.11-7.74-23.89-16-36.88-24.79,1.23,13,7.68,23.87,8.44,35.46a2.94,2.94,0,0,1-4.9,2.38C315.15,322.33,304.28,286.4,300.5,270.52ZM199.83,297.25a15.08,15.08,0,0,0,.27,4.13c4.1,17.16,8.4,34.27,12.75,51.37a15.85,15.85,0,0,0,2.66,5.68c.8,1,2.83,2,3.87,1.67s2.19-2.35,2.16-3.61a33.8,33.8,0,0,0-1.41-7.73c-3.15-11.65-6.38-23.29-9.58-34.93,4,3.2,6.25,7.36,9.39,10.71,2.27,2.43,6.09,5.66,8.45,5.13s4.63-4.95,5.89-8.07c1.6-4,2.15-8.35,3.68-14.75,3.32,10.7,5.48,19.14,8.62,27.2a25.89,25.89,0,0,0,3.14,5.51,3.35,3.35,0,0,0,6-1.24,18.18,18.18,0,0,0,.4-8.08c-3.74-15.35-8.6-30.44-13.41-45.51a7,7,0,0,0-2.36-3,3.67,3.67,0,0,0-5.34.71,10.29,10.29,0,0,0-1.73,3.37c-2.45,9.71-4.46,19.54-6.89,30.51C219,308.41,215.2,298.42,205,294A3.68,3.68,0,0,0,199.83,297.25Zm71.47-94.59C237.44,215,203.45,227,169.86,240.08c-6.78,2.64-12.16,9-18,13.94-1.75,1.47-3.51,3.7-3.87,5.81a5.45,5.45,0,0,0,0,1.71c.5,3.37,4.24,5.6,7.06,3.69a2.92,2.92,0,0,0,.53-.46c9.58-10.86,22-17,35.22-22,23-8.57,46-16.82,69.1-25.17,5.93-2.15,12.06-3.86,17.75-6.5,1.7-.79,3.13-4.16,3-6.22-.1-1.37-3.21-2.52-4.43-3.39A47.75,47.75,0,0,0,271.3,202.66Zm94.88,37.68c-1.42.38-1.51,2.89-1.3,4.18,2.43,15.15,5.89,30.14,15.42,42.5,2.54,3.31,9.57,6.62,12.51,5.33,4.21-1.85,7.1-7.66,9.49-12.32,1.61-3.12,1.37-7.19,2.26-12.66,5.52,9.24,9.66,16.88,14.61,24a3.76,3.76,0,0,0,1.24,1.09,5.41,5.41,0,0,0,8-4.27,4.39,4.39,0,0,0-.36-2.44c-8.74-16.51-18-32.76-27.33-48.93-.9-1.57-4.1-3.21-5.51-2.72s-2.84,3.43-3.07,5.44,1.09,4,1.72,6c3.75,12.13,3,21.62-.82,34.31a2.45,2.45,0,0,1-3.94,1.17C373.08,267,369.92,239.32,366.18,240.34Zm1.42,141.88c25.42-9.37,50.88-18.64,76.18-28.3,5.6-2.14,10.8-5.48,15.88-8.73a20,20,0,0,0,6.56-6.68,4.45,4.45,0,0,0,.49-1.85c.25-3.17-3.06-5.78-5.92-4.39a2.39,2.39,0,0,0-.59.38c-11.64,9.72-25.66,13.94-39.62,18.94-20.52,7.35-40.48,16.28-60.57,24.78a4.68,4.68,0,0,0-1.6,1.24,4.39,4.39,0,0,0,.72,6.35l.61.46C363.06,383.51,365.39,383,367.6,382.22Zm-89.2-113c-9.56-1.24-20.39,4.08-22.31,11.4a11,11,0,0,0,.4,5.28q5.7,22.17,11.58,44.31c2.05,7.77,5.83,9.82,13.56,6.9,5.16-2,10.42-4,15-7a9.38,9.38,0,0,0,2.58-2.76,4.08,4.08,0,0,0-2.91-6.28,9.23,9.23,0,0,0-3.41.18c-5.14,1.41-10,4.06-15.6,6.49-1.94-7-3.6-13-5.07-18.27,6.08-3.41,11.41-6.18,16.44-9.4a1.67,1.67,0,0,0,.44-.4,3.35,3.35,0,0,0-2.76-5.22,2.05,2.05,0,0,0-.65.1c-5.21,1.59-10.28,3.64-15.83,5.68-2.4-6.26-4.6-12-6.89-18l16.12-7.84A2.74,2.74,0,0,0,278.4,269.21Z"/>
    </g>
  </g>
</svg>
