<svg id="icon" id="roller" xmlns="http://www.w3.org/2000/svg" width="559.7" height="458.18" viewBox="0 0 559.7 458.18">
  <defs>
    <style>
      .cls-1 {
        fill: #e27227;
      }

      .cls-2 {
        fill: #fff;
      }

      .cls-3 {
        fill: #232323;
      }
    </style>
  </defs>
  <title>roller</title>
  <g id="menu-roller">
    <g id="bgorange">
      <path id="rollerbg" class="cls-1" d="M510.39,186.37c1.53,18.4,1.16,36.8-3,54.6-2.88,12.3-8.94,23.88-13.78,35.7a122.08,122.08,0,0,1-6.94,14.56c-2.84,4.92-6.46,9.4-9.45,14.24-1.6,2.59-2.54,5.57-3.92,8.3a20,20,0,0,1-2.71,4.22c-10.19,11.55-19.83,23.67-30.88,34.34-7.92,7.64-17.34,14-26.79,19.74-19.15,11.68-39.62,20.4-61.91,24.29-10.13,1.77-20.27,3.52-30.34,5.61-6.37,1.33-12.53,4.14-18.93,4.77-12.21,1.22-24.52,1.58-36.79,1.86-8.93.2-18.12.91-26.78-.75-19.1-3.65-38.17-7.9-56.83-13.33-17.76-5.17-35-12.16-52.47-18.36a6.88,6.88,0,0,1-1.84-.81q-16.45-12.24-32.86-24.54C88.66,346.7,82.79,343,77.8,338.36c-5.86-5.46-11.87-11.15-16.18-17.79a209.55,209.55,0,0,1-16.9-31.36c-4.18-9.76-7.75-20.13-9.35-30.57-4.32-28.18-4.9-56.44,3.25-84.24,6.73-23,16.06-44.79,29-65,1.24-1.94,4.59-2.4,6.28-4.18,8.93-9.46,17.41-19.34,26.51-28.62,4.46-4.55,9.89-8.16,14.92-12.13,28.32-22.37,60.54-37.41,94.47-48.68,30-10,61-13.09,92.43-8.22,20.94,3.26,42,6.79,62.43,12.14,12.24,3.19,23.58,10,35.19,15.42,9.77,4.6,19.73,9,28.92,14.6,30.75,18.77,54.68,43.74,67.91,77.86,3.22,8.31,6.7,16.64,8.64,25.29C507.76,163.9,508.76,175.2,510.39,186.37Z"/>
      <path id="small_detail" data-name="small detail" class="cls-1" d="M478.11,429.05l-25.42,29.13c-3.66-6.84-7.12-12.59-9.89-18.65-5.66-12.34-11-24.84-16.37-37.3-4.25-9.79-4.08-9.64,4.2-16.65,3.87-3.28,6.56-4,10.29.37,11.94,13.91,24.24,27.5,36.37,41.24A7,7,0,0,1,478.11,429.05ZM54.43,11.7c-2.87,2-3.88,4-1,7.69C61.64,30.16,69.19,41.46,76.94,52.6c1.25,1.8,1.87,4,3.2,5.76,3.47,4.49,7,8.89,10.86,13.09.8.88,2.75.74,4.19,1,.1,0,.31-.51.52-.87L93.2,70.27l3.2-4.42c.13.29.26.57.4.86l7.83-3.2C103.37,51.1,94.19,42.45,89.19,31.83,84.07,20.94,77.88,10.55,72.19,0,65.89,4.13,60.06,7.77,54.43,11.7Zm-24.49,50Q44.51,74.46,59.13,87.18c5.51,4.76,8.53,4.51,12.59-.6C73,85,74.49,83.5,76.6,81.17A48.93,48.93,0,0,0,73,77.34c-2.92-2.69-6.31-5-8.82-8-2.68-3.19-4.49-7.1-6.84-10.6C52.35,51.3,47.23,43.9,41.8,36L28,59.62a24.12,24.12,0,0,0,1.94,2.1ZM422,437.31c-5-11.79-10-23.44-15.1-35.31l-12.06,6,8.71,38.36Zm44.58-64.58c5.93,4.42,10.64,10.68,18.37,12.81l9.56-14.1-25.94-20.59-10.85,14.59c3.28,2.67,6,5.12,8.87,7.29Z"/>
    </g>
    <g id="roller_" data-name="roller ">
      <path id="white_bg" data-name="white bg" class="cls-2" d="M169,343.94a16.27,16.27,0,0,1-10.92-3.35c-6.28-4.79-12.44-10.3-15-18.11-6.22-19.21-11.78-38.85-17.15-57.85l-2.56-9a95.57,95.57,0,0,1-2.29-11.26c-.19-1.2-.37-2.34-.56-3.39l-.28-1.49.07-1.5c.08-1.72.13-3.36.19-4.94a121.34,121.34,0,0,1,.81-12.35c.71-5.32,4.28-12,10.66-15.1,11.53-5.53,21.88-10.21,31.64-14.3l13.61-5.75c16.81-7.11,34.2-14.47,51.71-21C249.24,157,270,150,290.14,143.19q8.6-2.88,17.17-5.8l4.56-1.55c11.68-4,23.75-8.1,36-11.45,11.63-3.17,23.45-5.75,34.88-8.24,3.27-.72,6.54-1.43,9.81-2.16a22.14,22.14,0,0,1,3.43-.49A18.64,18.64,0,0,1,415.11,126l.48,1.34a176.87,176.87,0,0,1,5.66,17.56c4.49,17.94,8.29,34,11.62,49.06,2.69,12.14,4.51,22.08,5.72,31.27,2.07,15.66-9.57,33.25-25.4,38.39-10.92,3.56-22,6.89-32.79,10.12-7.09,2.13-14.18,4.26-21.25,6.46-8.72,2.71-17.42,5.49-26.13,8.26-12,3.85-24.59,7.85-37,11.59-6.87,2.08-13.82,4-20.54,5.79-9.66,2.61-18.79,5.08-27.8,8.12-11.81,4-23.79,8.65-35.37,13.16-6.43,2.5-13.08,5.09-19.7,7.56C188.9,336,185.31,337,181.84,338,181.52,338.11,173.36,343.67,169,343.94Z"/>
      <path id="rightgrip" class="cls-2" d="M439.62,200.41h-1.1c-14.82,0-19.68-3.47-24.79-17.64a115.73,115.73,0,0,1-3.59-11.39c-1.47-6-.84-11.26,1.9-15.69a17.49,17.49,0,0,1,6.06-5.91c4.15-7.23,11.21-10.14,15.42-11.88,1.07-.44,2.07-.85,2.72-1.2C449,129.87,462.1,123.35,474.76,117q7.38-3.67,14.74-7.37a39.59,39.59,0,0,1,23.72-4c3,.4,6.21.53,9.63.67,2.9.11,5.9.23,9,.53a20.24,20.24,0,0,1,13.36,7.52,66.4,66.4,0,0,1,3.9,5.68,38,38,0,0,0,2.67,3.87c11.8,13.75,7.65,28.45,4.91,38.18-5.53,19.62-22.26,23.57-33.32,26.2l-1.11.26c-8.15,1.94-16.34,3.32-24.27,4.66-3.36.56-6.72,1.13-10.07,1.74l-13.3.4q-14.31,1.76-28.6,3.55l-.26.09A22,22,0,0,1,439.62,200.41Z"/>
      <path id="leftgrip" class="cls-2" d="M50.73,346c-3.37.21-6.66.21-9.47.19-4.53,0-9.36-.3-14.79-.83a24.09,24.09,0,0,1-11.94-4C3.69,333.6-.09,319.43,0,308.75c.1-12.25,4.85-22.5,13.05-28.14,1.92-1.32,3.83-2.69,5.74-4.06C30.75,268,44.31,258.3,63,257.1c12.25-.79,24.82-2.17,37-3.51q6.68-.74,13.36-1.45c1.62-.17,3.43-.51,5.73-.94,1.35-.26,2.8-.53,4.41-.81l9.78-1.69,4.23,9c.27.57.59,1.18.92,1.83a63.27,63.27,0,0,1,3.46,7.76c1,2.74,1.63,5.35,2.29,7.86.47,1.8.91,3.5,1.41,5.05,5.42,16.89-5.47,23.8-12.44,26.41C115.65,313.12,100,323,83.34,333.52c-2.78,1.75-5.55,3.51-8.34,5.24C65.91,344.43,56.8,345.59,50.73,346Z"/>
      <path id="roller-2" class="cls-3" d="M485.39,180.91c-13.86,1.71-27.73,3.38-41.59,5.15-1.79.23-3.52,1.34-5.28,1.34-9.26,0-9.3-.06-12.53-9a102,102,0,0,1-3.19-10.1c-.92-3.72,1.91-13,19.59-20.05,17.45-9.34,35.29-18,53-26.88a26.63,26.63,0,0,1,16.09-2.78c6.33.87,12.8.66,19.17,1.27a7.18,7.18,0,0,1,4.36,2.61c2.5,3.17,4.3,6.92,6.92,10,7.09,8.27,4.81,17.08,2.25,26.15-3.58,12.7-14.57,14.85-24.91,17.32C508.16,178.53,485.46,181.32,485.39,180.91Zm-370.74,84.2c-17,1.77-33.88,3.91-50.87,5-17.55,1.13-30.1,12.12-43.35,21.24-10.91,7.51-9.24,31.59,1.66,39.35a12.06,12.06,0,0,0,5.64,1.67c4.52.43,9.07.73,13.61.76,9.27.06,18.29-.15,26.76-5.43,19.53-12.18,38.64-25.17,60.41-33.32,5.6-2.1,6.42-4.53,4.6-10.23-1.34-4.16-2.17-8.48-3.6-12.6a82.5,82.5,0,0,0-3.86-8.32c-4.55.77-7.76,1.54-11,1.88ZM136,252.05c6.31,22.2,12.46,44.46,19.57,66.41,1.5,4.63,6.33,8.61,10.48,11.77,2.6,2,17.37-6.06,22-7.78,18.5-6.92,36.76-14.54,55.46-20.86,16-5.4,32.55-9.13,48.72-14,21.13-6.41,42.09-13.33,63.17-19.88,17.94-5.58,36-10.71,53.87-16.52,9.82-3.2,17.75-14.93,16.52-24.29-1.34-10.13-3.32-20.19-5.52-30.16-3.61-16.29-7.5-32.53-11.55-48.71A184.57,184.57,0,0,0,403,130.38c-1.22-3.4-4.23-4.37-7.45-3.65C380.75,130,365.94,133,351.4,137c-13.43,3.67-26.62,8.28-39.82,12.77-26.07,8.85-52.24,17.41-78,27-21.87,8.16-43.29,17.52-64.83,26.56-10.47,4.39-20.8,9.12-31,14a7.43,7.43,0,0,0-3.37,5.07c-.67,5-.62,10.1-.91,16.17C134.13,242.46,134.65,247.37,136,252.05Z"/>
    </g>
    <path id="menu" class="cls-2" d="M266.48,205a7.22,7.22,0,0,1,.07-3.07,4.33,4.33,0,0,1,5-3.51l.32.07a6.29,6.29,0,0,1,2.48,1.13c5.45,4.52,10.11,10.06,15.77,14.27,7.37,5.48,15.42,10,24.8,16-2.65-9.67-4.95-17.55-6.93-25.5a173.09,173.09,0,0,1-3.79-18.57,2.94,2.94,0,0,1,.16-1.41,4.82,4.82,0,0,1,6.17-2.89,4.19,4.19,0,0,1,.83.39,6.21,6.21,0,0,1,1.14.84c1.21,1.12,1.51,3.3,2,5.06q6.59,23.2,13.11,46.44c.43,1.52,3.17,12.14-1.22,13.45-2.84.9-7.13-.29-9.89-2.06-12.11-7.73-23.89-16-36.88-24.78,1.23,13,7.68,23.87,8.45,35.46a2.94,2.94,0,0,1-4.91,2.38C281.13,256.78,270.26,220.86,266.48,205ZM165.8,231.7a15.53,15.53,0,0,0,.28,4.14c4.09,17.16,8.4,34.27,12.74,51.37a15.73,15.73,0,0,0,2.67,5.67c.8,1,2.82,2,3.87,1.68s2.18-2.35,2.15-3.61a32.8,32.8,0,0,0-1.41-7.73c-3.14-11.66-6.37-23.29-9.58-34.93,4,3.2,6.25,7.35,9.39,10.71,2.27,2.42,6.09,5.66,8.46,5.13s4.63-4.95,5.89-8.07c1.6-4,2.15-8.35,3.68-14.76,3.32,10.71,5.48,19.14,8.61,27.2a26,26,0,0,0,3.14,5.52,3.36,3.36,0,0,0,6-1.24,18.38,18.38,0,0,0,.4-8.08c-3.74-15.35-8.6-30.44-13.42-45.51a6.93,6.93,0,0,0-2.35-3,3.67,3.67,0,0,0-5.17.48,1.84,1.84,0,0,0-.17.22,10.27,10.27,0,0,0-1.73,3.37c-2.46,9.72-4.46,19.55-6.9,30.52-7.42-7.95-11.17-17.94-21.43-22.33a3.68,3.68,0,0,0-4.83,1.94A4,4,0,0,0,165.8,231.7Zm71.47-94.59c-33.85,12.36-67.84,24.39-101.43,37.43-6.78,2.63-12.17,9-18,13.94-1.74,1.47-3.51,3.69-3.86,5.81a5.45,5.45,0,0,0,0,1.71c.5,3.37,4.24,5.6,7.06,3.69a3.23,3.23,0,0,0,.52-.46c9.59-10.86,22-17.06,35.23-22,23-8.57,46.05-16.82,69.1-25.17,5.93-2.15,12.05-3.86,17.75-6.5,1.69-.79,3.12-4.16,3-6.22-.1-1.37-3.21-2.53-4.43-3.39A49.18,49.18,0,0,0,237.27,137.11Zm94.88,37.69c-1.42.38-1.5,2.89-1.29,4.18,2.42,15.15,5.89,30.14,15.41,42.5,2.55,3.31,9.57,6.62,12.52,5.33,4.2-1.85,7.09-7.66,9.49-12.32,1.6-3.12,1.37-7.19,2.25-12.66,5.53,9.24,9.67,16.88,14.62,24a3.89,3.89,0,0,0,1.23,1.09,5.43,5.43,0,0,0,7.36-2.15,5.67,5.67,0,0,0,.64-2.12,4.36,4.36,0,0,0-.36-2.44c-8.74-16.51-18-32.76-27.33-48.94-.91-1.56-4.1-3.2-5.51-2.71S358.33,172,358.1,174s1.1,4,1.72,6c3.76,12.13,3.05,21.62-.82,34.31a2.45,2.45,0,0,1-3,1.66,2.55,2.55,0,0,1-.9-.49C339.06,201.47,335.9,173.78,332.15,174.8Zm1.43,141.88c25.42-9.37,50.87-18.64,76.18-28.3,5.59-2.14,10.79-5.48,15.87-8.73a19.86,19.86,0,0,0,6.56-6.68,4.4,4.4,0,0,0,.5-1.85c.25-3.17-3.07-5.79-5.93-4.39a2.83,2.83,0,0,0-.59.38c-11.63,9.72-25.66,13.93-39.61,18.94C366,293.4,346.08,302.33,326,310.83a4.79,4.79,0,0,0-1.59,1.24,4.38,4.38,0,0,0,.49,6.16l.23.18.61.47C329,318,331.37,317.49,333.58,316.68Zm-89.21-113c-9.56-1.24-20.38,4.08-22.31,11.4a11.25,11.25,0,0,0,.4,5.28q5.72,22.17,11.59,44.31c2,7.76,5.83,9.82,13.55,6.9,5.17-1.95,10.43-4,15-7a9.47,9.47,0,0,0,2.59-2.76,4.07,4.07,0,0,0-2.91-6.28,9.32,9.32,0,0,0-3.41.18c-5.15,1.41-10,4.06-15.61,6.49-1.93-7-3.59-13-5.07-18.28,6.08-3.41,11.41-6.17,16.45-9.39a1.64,1.64,0,0,0,.43-.4,3.36,3.36,0,0,0-.92-4.66,3.41,3.41,0,0,0-1.83-.57,2.39,2.39,0,0,0-.65.11c-5.21,1.58-10.28,3.64-15.84,5.68l-6.88-18,16.12-7.84a2.74,2.74,0,0,0-.7-5.18Z"/>
  </g>
</svg>
