<?xml version="1.0" encoding="utf-8"?>
<!-- Generator: Adobe Illustrator 23.0.1, SVG Export Plug-In . SVG Version: 6.00 Build 0)  -->
<svg version="1.1" id="sagitarius" xmlns="http://www.w3.org/2000/svg" xmlns:xlink="http://www.w3.org/1999/xlink" x="0px" y="0px"
	 viewBox="0 0 447.9 447.9" style="enable-background:new 0 0 447.9 447.9;" xml:space="preserve">
<path id="sagitarius_1_" d="M26.2,330.8c6.2,6.2,12.4,12.4,18.5,18.5c-5.5,5.5-10.9,10.9-16.4,16.4c-15,15-16.6,36.4-3.5,53.2
	c7.3,9.4,20.2,14,31.8,13.1c9.8-0.7,18.3-5.3,25.1-12.2c5.6-5.6,11.1-11.1,16.7-16.7c6.2,6.2,12.4,12.4,18.5,18.5
	c10.3,10.3,20.1,22.9,35.2,25.7c28.2,5.1,51.9-22.7,42.8-49.7c-4.3-12.8-17.1-22.5-26.3-31.8c-5.5-5.5-11-11-16.5-16.5
	c25-25,50.1-50.1,75.1-75.1c43.3-43.3,86.6-86.6,129.9-129.9c4.9-4.9,9.7-9.7,14.6-14.6c0,16.8,0,33.6,0,50.4c0,11.3,0,22.7,0,34
	c0,20,13.4,37.2,33.8,39.7c22.4,2.7,42.2-15.7,42.2-38.1c0-6.8,0-13.6,0-20.4c0-30.4,0-60.7,0-91.1c0-22.1-0.2-44.1,0-66.2
	c0-0.4,0-0.8-0.1-1.2C446.7,16.2,430.1,0,409.2,0c-7.4,0-14.7,0-22.1,0c-30.6,0-61.2,0-91.8,0c-21,0-42,0-63,0
	c-22,0-39.9,18.7-38.3,40.8c1.5,20.8,19.3,35.2,39.5,35.2c28.2,0,56.4,0,84.7,0c-22,22-44.1,44.1-66.1,66.1
	c-43.3,43.3-86.6,86.6-129.9,129.9c-7.9,7.9-15.7,15.7-23.6,23.6c-6.2-6.2-12.4-12.4-18.5-18.5c-9.9-9.9-19.4-22-33.6-25.4
	c-12.8-3-25.9,1.3-35.3,10.2C1.5,271-1.5,284.6,0.8,297.2C3.5,311.2,16.7,321.3,26.2,330.8z M35.9,268.8c7.1-0.7,12.8,2.4,17.7,7.3
	c9.9,9.9,19.9,19.9,29.8,29.8c2.9,2.9,5.9,5.9,8.8,8.8c3.5,3.5,9.3,3.5,12.7,0c27.2-27.2,54.3-54.3,81.5-81.5
	c43.3-43.3,86.6-86.6,129.9-129.9c10-10,20-20,30-30c5.6-5.6,1.5-15.4-6.4-15.4c-24,0-48.1,0-72.1,0c-11.3,0-22.7,0-34,0
	c-5.1,0-10-0.8-14.2-4.1c-7.8-6.2-10-16.9-5.3-25.6C219.4,18.7,229,18,238.4,18c10.8,0,21.6,0,32.4,0c31.7,0,63.3,0,95,0
	c12.6,0,25.3,0,37.9,0c2.1,0,4.1,0,6.2,0c11.1,0,19.7,9.1,20,20c-0.5,49.8,0,99.6,0,149.4c0,8.8,0,17.6,0,26.4c0,3.3,0,6.6-1.3,9.7
	c-3.9,9.1-13.4,14.3-23.1,12.2c-9.1-2-15.6-10.3-15.6-19.5c0-2.5,0-4.9,0-7.4c0-13.7,0-27.5,0-41.2c0-19.8,0-39.7,0-59.5
	c0-7.8-9.8-11.9-15.4-6.4c-27.2,27.2-54.3,54.3-81.5,81.5c-43.3,43.3-86.6,86.6-129.9,129.9c-10,10-20,20-30,30
	c-3.5,3.5-3.5,9.3,0,12.7c8.3,8.3,16.6,16.6,24.9,24.9c8.3,8.3,21.1,17.2,21.1,30c0,10.9-9.6,19.1-20,19.3c-6.9,0.2-12-3.7-16.6-8.3
	c-10.2-10.2-20.4-20.4-30.6-30.6c-2.4-2.4-4.7-4.7-7.1-7.1c-3.5-3.5-9.3-3.5-12.7,0c-6.6,6.6-13.3,13.3-19.9,19.9
	c-3.2,3.2-6,6.2-10,8.4c-8,4.3-17.7,1.1-23.6-5.1c-5.3-5.6-5.8-13.7-3.4-20.7c1.4-4.2,5.2-7.3,8.2-10.4c6.8-6.8,13.6-13.6,20.5-20.5
	c3.5-3.5,3.5-9.3,0-12.7c-8.3-8.3-16.6-16.6-24.9-24.9c-8.3-8.3-21.1-17.2-21.1-30C17.9,278.3,26.2,269.7,35.9,268.8z"/>
</svg>
