<?xml version="1.0" encoding="utf-8"?>
<!-- Generator: Adobe Illustrator 23.0.1, SVG Export Plug-In . SVG Version: 6.00 Build 0)  -->
<svg version="1.1" id="scorpio" xmlns="http://www.w3.org/2000/svg" xmlns:xlink="http://www.w3.org/1999/xlink" x="0px" y="0px"
	 viewBox="0 0 501.9 501.9" style="enable-background:new 0 0 501.9 501.9;" xml:space="preserve">
<path id="scorpio_1_" d="M500.3,348.1c-7.9-23.6-15.8-47.2-23.6-70.9c-1.2-3.7-2.5-7.5-3.7-11.2c-3.2-9.6-9.3-17.4-18.2-22.3
	c-13.6-7.6-26.9-3.5-40.3,1c-23.9,8-47.8,15.9-71.6,23.9c-10.1,3.4-17.9,10.5-22.4,19.8c0-20.9,0-41.8,0-62.7c0-23.7,0-47.4,0-71.2
	c0-41.5-24.5-77.7-62.8-93.4c-32.4-13.3-70.1-6.3-97.4,14.8c-19.1-14.9-42.9-22.7-67.4-21.4C69.4,55.9,47.3,65.9,30.3,82
	C13.2,98.1,3.2,120,0.5,143.2c-0.7,6.1-0.5,12.4-0.5,18.6c0,56.2,0,112.3,0,168.5c0,23.6,0,47.2,0,70.8c0,6.5-0.2,12.9,1.5,19.2
	c6.9,25.8,39.4,34.8,59.6,18.6c10.2-8.1,13.9-20.1,13.9-32.6c0-7.7,0-15.3,0-23c0-28.7,0-57.3,0-86c0-48,0-96,0-144
	c0-17.7,17.4-27.8,33.3-21.9c10.2,3.8,14.5,14.4,14.5,24.4c0,19.9,0,39.8,0,59.7c0,58.9,0,117.8,0,176.7c0,5.7,0,11.4,0,17
	c0,20.3,14.9,35.7,34.7,38.1c21.6,2.6,40.2-16.8,40.2-37.7c0-5.1,0-10.2,0-15.3c0-58.4,0-116.8,0-175.2c0-20.7,0-41.4,0-62.2
	c0-9.3,2.4-17.6,10.6-23.2c15.6-10.6,37.1,0.6,37.1,19.5c0,50.8,0,101.6,0,152.4c0,6.3-0.1,12.6,0,18.9c0.5,23.4,10,45.6,25.5,63
	c32.1,36.2,88.4,42.7,128.3,16c12.4-8.2,22.5-19.2,30-31.9c3.9,9,9.3,17,18.9,21.7c14.2,6.9,30.7,3.8,42.3-6.6
	c10.2-9.2,13.6-24.3,10.1-37.3C500.5,348.9,500.4,348.5,500.3,348.1z M356.6,341.6c-2.2,1.3-4.7,2.3-7.4,3
	c-9.5,2.3-19.7-2.9-25-10.7c-2.9-4.3-3.7-9.1-3.8-13.9c1.6,3.3,3.5,6.5,5.8,9.3C333.4,338.1,345.4,342.3,356.6,341.6z M476.8,374.8
	c-6.6,6-17.8,5.4-24.4,0c-4.9-4-6.4-9.6-8.3-15.3c-1.7-4.9-3.3-9.9-5-14.8c-2.8-8.4-14.7-8.7-17.4,0c-6.5,21.3-21.3,38.6-40.9,48.8
	c-19.9,10.4-43.6,10.9-64.5,3.5c-19.8-7-35.8-22.4-45.1-41c-6-12.1-7.8-25.2-7.8-38.5c0-52.5,0-105.1,0-157.6
	c0-12-1.4-23.1-9.2-32.9c-16-20.2-46.8-20-63.9-1.3c-13.6,14.9-10.7,36-10.7,54.6c0,60.2,0,120.4,0,180.6c0,16.3,0,32.5,0,48.8
	c0,17.3-20.8,26-33.2,14.1c-5.8-5.6-5.7-12.8-5.7-20.1c0-54.8,0-109.6,0-164.4c0-24.8,0-49.6,0-74.4c0-3.9,0-7.9,0-11.8
	c0-25.5-24.1-44.6-48.7-41c-20.2,3-35,21.1-35,41.3c0,5.3,0,10.5,0,15.8c0,26.2,0,52.5,0,78.7c0,52.8,0,105.7,0,158.5
	c0,9.9-3.5,19-13.9,22.2c-13.6,4.3-25.1-7-25.1-20.1c0-18.4,0-36.7,0-55.1c0-59.6,0-119.2,0-178.8c0-6.6,0-13.3,0-19.9
	c0-14.1,3-27.6,9.7-40.1C37.7,96,55,82.1,75.2,75.9c23.7-7.3,49.2-2.7,69.7,11c3.2,2.2,6.2,4.6,9,7.2c3.7,3.4,9,3.4,12.7,0
	c18.2-16.7,43.6-24.7,68.2-20.7c20.9,3.4,40,15.1,52.4,32.3c10.2,14.1,15.3,30.8,15.3,48.1c0,7.9,0,15.8,0,23.8
	c0,31.1,0,62.2,0,93.3c0,12.8,0,25.5,0,38.3c0,7.8-0.5,15.7,1.5,23.3c4.9,18.5,23.4,31,42.2,30.6c19.1-0.4,35.8-15.1,39.3-33.8
	c1.2-6.3-4-13.4-11.1-11.1c-5.8,1.9-11.6,4.3-17.6,5.5c-9.5,1.9-18.6-5.5-21.3-14.1c-2.7-8.9,2.1-19.5,10.8-23.1
	c2.8-1.2,5.8-2,8.6-2.9c24.9-8.3,49.8-16.6,74.7-24.9c10.9-3.6,22.3,1.1,26,12.4c2.7,8.1,5.4,16.3,8.2,24.4
	c6.4,19.1,12.8,38.3,19.2,57.4C485.4,361.2,483.2,369,476.8,374.8z"/>
</svg>
