<?xml version="1.0" encoding="utf-8"?>
<!-- Generator: Adobe Illustrator 23.0.1, SVG Export Plug-In . SVG Version: 6.00 Build 0)  -->
<svg version="1.1" id="taurus" xmlns="http://www.w3.org/2000/svg" xmlns:xlink="http://www.w3.org/1999/xlink" x="0px" y="0px"
	 viewBox="0 0 497.6 497.6" style="enable-background:new 0 0 497.6 497.6;" xml:space="preserve">
<g>
	<path id="outside" d="M83.3,284.6c-11.9,46-3.3,96.2,22.7,135.8c24.8,37.8,64.6,64.8,108.9,73.8c45.1,9.2,93-0.6,130.8-26.8
		c37.3-25.7,63.4-66,71.3-110.7c8.7-49.3-5-99.6-36.4-138.5c-11.5-14.2-25.5-26.4-41-36.1c36.7-23.2,63.8-60.1,74.8-102.3
		c3.2-12.3,4.8-25,5.2-37.7c0.4-12.6-3.1-24.4-12.9-32.9c-9.6-8.4-22.8-11.1-35.1-7.8c-12.1,3.2-21.1,13-25.3,24.5
		c-2,5.5-1.7,11.5-2,17.3c-0.3,5.6-1.2,11.1-2.4,16.5c-2.5,10.5-6.8,20.3-12.6,29.5c-11.1,17.6-28.5,31.3-48.1,38.4
		c-41.6,15-88.9-1.4-112.9-38.4c-5.9-9.1-10-19-12.6-29.5c-1.2-5-2-10-2.4-15.1c-0.5-6.3-0.1-12.5-2.1-18.7
		C147.6,14.1,137.8,5.3,126,1.5c-12.3-3.9-25.3,0-35.1,7.8c-10,8-13.1,20.7-12.9,32.9c0.3,12.7,2.2,25.4,5.2,37.7
		c6,23.9,17.6,45.9,32.9,65.2c11.6,14.6,26,27.2,41.9,37.2C121.3,205.5,94.2,242.3,83.3,284.6z M169.5,196.3
		c3.7-2.2,7.4-4.3,11.2-6.2c5.9-3,5.9-12.6,0-15.5c-42.4-21.6-72.6-61.2-82.1-107.9c-1.1-5.5-1.8-11.1-2.3-16.8
		C96,44,95.3,37.7,96.8,32c2.6-9.7,12.1-14.5,21.5-13.8c9.1,0.6,16.2,9.5,16.8,18.1c0.9,11.9,1.5,23.3,5,34.8
		c13.7,45.1,55.1,76.6,101.6,80c46.4,3.4,91.5-24.5,110.5-66.6c4.9-11,7.9-22.3,9.4-34.3c0.6-5.1,0.1-10.5,0.9-15.5
		c0.9-5.2,3.6-9.2,7.5-12.6c6.9-6.1,18.3-4.9,24.9,0.9c8.7,7.6,6.9,19.5,6,29.9c-4.1,46.9-32,89.9-71.6,114.7c-4,2.5-8.2,4.8-12.5,7
		c-3.5,1.8-4.8,4.8-4.5,7.8c-0.3,3,1,6,4.5,7.8c42.4,21.6,72.6,61.2,82.1,107.9c8.8,43.8-3.4,90.8-31.5,125.3
		c-27.7,33.9-69.2,54.7-113,56.3c-43.7,1.7-86.1-16.1-116.4-47.5c-31.1-32.4-45.6-77.3-41.2-121.8
		C101.4,263.4,129.7,220.7,169.5,196.3z"/>
	<path id="round" d="M248.8,440.5c47.5-0.3,89.3-29.9,106.4-73.9c17.1-43.8,2.9-95.4-32.4-125.8c-36.1-31.1-88.8-36-130.2-12.7
		c-41.6,23.4-62.9,71.1-55.8,117.7C145.1,400,194.7,440.1,248.8,440.5z M206.4,241.2c39.7-20.4,88.4-8.2,116.6,25.4
		c28,33.3,28.2,84.5,1.6,118.6c-18.2,23.4-46.2,37.1-75.8,37.3c-44.1-0.3-82.4-30.8-93-73.5C145.1,305.9,167.4,261.1,206.4,241.2z"
		/>
</g>
</svg>
