<svg id="icon" id="tea" xmlns="http://www.w3.org/2000/svg" width="517.6" height="566.56" viewBox="0 0 517.6 566.56">
  <defs>
    <style>
      .cls-1 {
        fill: #ffc248;
      }

      .cls-2 {
        fill: #fff;
      }

      .cls-3 {
        fill: #232323;
      }
    </style>
  </defs>
  <title>tea</title>
  <g id="tea_time" data-name="tea time">
    <path id="bg_teatime" class="cls-1" d="M410.38,499.53c-3.69-4.77-6.73-1-7.84,1.13-6.75,13.14-17.53,21.86-30.16,28.58-12.22,6.5-24.55,12.81-37,18.82A187.81,187.81,0,0,1,265.84,566c-14.9,1-30,.51-44.91-.07-15.32-.6-29.43-6.36-42.89-13-15.33-7.62-31-14.84-43.83-26.72-2.78-2.57-5.07-5.69-7.89-8.2-3-2.65-5.59-5.31-9.76-7.14-4.79-2.1-7.55-8.85-11.14-13.62-1.11-1.48-1.74-3.42-3.07-4.6-16.85-15.06-27.67-34-35.47-54.87-5.07-13.57-10.66-27-14.77-40.85-4-13.33-5.8-27.27-9.5-40.68C36.77,335,40.26,313.71,41,292.52A227.76,227.76,0,0,1,55,219.75c14.2-37.91,35.43-71.17,66.19-98.15,26.82-23.51,56-42.5,91.18-50.57,9.5-2.17,19.59-2.46,29.4-2.46,33.31,0,65.77,6.12,97.28,16.42,11.89,3.89,23.15,10.1,34.11,16.28,13.7,7.72,27.56,15.53,40,25.1a187.65,187.65,0,0,1,32.18,31C467.1,184.62,475.73,217.59,483,251c3.4,15.62,3.45,31.28,3.51,47.06.19,45.3-11,88-28.81,129.31a225.17,225.17,0,0,1-28.61,49.3C423.25,484.21,417,491.44,410.38,499.53ZM94.82,71.14c-4.19,3.68-7.47,8-11.07,12.2C69,100.42,61.15,120.89,54.42,141.93a42.3,42.3,0,0,0-1,6c5.67,1.93,5.77,2,8.43-1.28a510.68,510.68,0,0,1,49.39-53.33c5.44-5.06,10.1-11.21,16.18-15.26,12.31-8.2,25.3-15.37,38.12-22.76,1.64-1,4.17-.3,5.92-1.14,4-1.93,7.68-4.74,11.79-6.44,11.73-4.85,23.62-9.34,36.42-14.35-4-10.92-7.68-21.3-11.87-31.45-.52-1.27-4.09-2.16-6-1.82-7.38,1.34-14.76,2.93-22,5C164,9.58,149.34,16.72,136.68,27.27c-9.86,8.21-19,17.24-28.47,26a5.58,5.58,0,0,0-1.61,2.53c-1.07,4.56-3.89,7.11-7.27,7.57C97.56,66.51,96.74,69.46,94.82,71.14ZM489,514.62c.56-1.12,1.27-2.28,1.75-3.52C496,497.53,501.32,484,506.2,470.34c7.74-21.71,12.86-43.86,11-67.24-.7-8.88-.17-9-9-10.74-.85-.17-1.7-.32-2.56-.41-3.74-.37-6.46.41-8.11,4.52-6.24,15.54-12.07,31.31-19.49,46.28-7.77,15.67-17.2,30.52-26.07,46ZM39,469.12c-3.36,1.7-6.72,3.41-10.18,4.89-4.38,1.87-5.13,4.89-3,8.77,8.58,15.47,17.15,31,33.27,40.23,3.55,2,6.81,4.61,11.16,7.6,4-3.08,8.63-7,13.63-10.3,3.3-2.19,3.2-4.26,1.38-7.19q-5.88-9.44-11.51-19c-2-3.36-3.47-7-5.56-10.31-3.81-6-7.9-11.83-11.9-17.71-.95-1.41-2-2.74-3.16-4.29C48,464.47,43.48,466.84,39,469.12Zm394.49,77.8a4.3,4.3,0,0,0,3.63.68c9.82-3.83,20-5.14,30.48-5a7,7,0,0,0,4.88-2.11c3.27-4,6.1-8.33,9.33-12.86-11.84-8.39-23.35-16.6-34.94-24.69-1.37-1-3.55-2.1-4.78-1.64-1.94.73-5.05,3.6-4.79,4.1,2.22,4.33-.75,7.06-2.77,9.76-4.63,6.18-9.66,12.07-15.26,19C424,538.49,428.63,542.81,433.44,546.92ZM38.25,445c3.82-2.16,4.25-5.91,1.63-9.24s-4.91-6.47-7.23-9.8c-3.47-5-3.92-12.46-11.73-13.71-1.76-.28-3.76-1.28-5.24-.77-4.8,1.68-9.41,3.86-14,6-.7.32-1.65,1.22-1.63,1.81.25,5.89-.36,12.09,1.31,17.58,2.34,7.66,6.43,14.78,10.11,22.88C20.74,454.59,29.56,449.88,38.25,445Z"/>
    <g id="tea_cup" data-name="tea cup">
      <path id="cupbg" class="cls-2" d="M477.43,274.16c-.53-12.71-4.06-25.25-10.82-38.33-3.73-7.21-9.93-11.18-17.48-11.18a24.48,24.48,0,0,0-6.78,1c-4.7,1.35-9.24,2.93-13.63,4.46q-2.34.83-4.69,1.62l-9.94,3.4-8.92-47.31s-25-9-31-10.74l-1.47-.44c-5.52-1.64-11.22-3.34-17.22-4.52-3.76-.74-7.41-1.16-10.93-1.55-2.62-.3-5.08-.58-7.44-1-4.67-.78-9.32-1.77-14.24-2.82-10.36-2.2-21.07-4.48-32.21-4.76-13.55-.33-30.41-.74-46.67-.74-21,0-38.45.66-55,2.06l-.68.06c-19.72,1.68-40.12,3.42-60.12,9.8a123.62,123.62,0,0,1-12.32,3c-2.56.53-5.21,1.08-7.88,1.72C98.85,180.14,80,186.52,80,186.52l-1.59,13q-1.11,9-2.22,17.91c-1.74,14-3.38,27.28-4.93,40.84-.3,2.61-.62,5.21-.94,7.82-1.23,10.1-2.5,20.55-2.67,31.16-.23,15.15.65,30.35,1.5,45.05l.32,5.49c.39,7,.83,14.95,3.94,22.47a439.07,439.07,0,0,0,19.71,40.92c13.09,24.23,32.46,41.48,57.57,51.26q14.72,5.73,29.46,11.42l3.37,1.31c-1.49,5.18-3,10.48-4.77,15.71-.7,2.12-2.82,8.57.77,14.89,2.35,4.14,6.32,6.85,11.8,8.08a20.23,20.23,0,0,1,1.94.64,34.74,34.74,0,0,0,5.6,1.65c15.53,3,28.37,5.32,40.4,7.43,1,.17,2,.38,3,.6a49.81,49.81,0,0,0,10.49,1.42,25.3,25.3,0,0,0,5.45-.57c9.89-2.16,19.64-4.93,29.07-7.6,3.67-1,7.35-2.08,11-3.09l11.59-3.18-3.42-11.52c-.61-2.06-1.21-4.14-1.8-6.22-1.37-4.75-2.78-9.66-4.42-14.55,0-.09-.06-.19-.1-.29l.63-.16c14.59-3.59,26.07-8.14,36.11-14.32,27.34-16.83,46.39-37,58.25-61.57q1-2,2.06-4l8.62-5.09c.87-.51,1.74-1,2.61-1.49a77.31,77.31,0,0,0,7-4.3c7.57-5.35,14.14-10.18,20.09-14.76l1.05-.8A93.1,93.1,0,0,0,449,361.27c8.8-9.65,14.81-21.58,18.37-36.46,1-4.16,2.22-8.31,3.51-12.69C474.38,300.27,478,288,477.43,274.16Z"/>
      <path id="tea_cup-2" data-name="tea cup" class="cls-3" d="M197.78,468.09q-21.45-8.29-42.86-16.6c-23-9-40-24.63-51.49-45.89a430.94,430.94,0,0,1-19.19-39.82c-2.52-6.12-2.76-13.32-3.15-20.08-.92-16.07-2-32.18-1.72-48.26.2-12.62,2.09-25.23,3.54-37.82C85.12,240.29,87.59,221,90,201c6,1.39,11.81,2.87,17.72,4.1,8.13,1.7,16.26,3.47,24.47,4.7,4.48.67,6.25,2.18,6.65,6.94.78,9.18,2.63,18.28,4.06,27.4.43,2.72.95,5.42,1.7,9.61,3.66-5.24,7.22-9.16,9.4-13.72,3.59-7.5,7.72-14.44,14-20,.58-.51,1-1.47,1.64-1.6,4.27-.89,8.61-2.41,12.87-2.26,22.25.79,44.5,3,66.73,2.84,28.13-.25,56.38-.55,84.19-6.08,15.26-3,30.62-5.5,45.93-8.25,5.3-.95,10.58-2,16.37-3,3.06,16.2,6,32,9.27,49.12,8-2.72,15.36-5.27,22.77-7.79,5.91-2,11.77-4.19,17.77-5.91,4.43-1.27,8.06-.6,10.57,4.25,5.46,10.57,9,21.48,9.51,33.41.69,16.64-6,31.72-9.74,47.43-2.79,11.64-7.48,22.34-15.63,31.27-3.5,3.84-7.8,7-12,10.23-6.46,5-13.06,9.77-19.71,14.48-2.77,1.95-5.83,3.49-8.82,5.26l-3.13-5c-.91.55-1.8.79-2.13,1.34-3.42,5.87-7.1,11.63-10,17.73-11.82,24.53-30.69,42.43-53.81,56.66-10.21,6.28-21.25,10.09-32.76,12.92-12.32,3-12.8,3.91-8.87,15.61,2.26,6.73,4.08,13.61,6.09,20.38-13.22,3.62-26.24,7.65-39.51,10.55-4.47,1-9.62-.72-14.4-1.55-13.43-2.35-26.84-4.84-40.23-7.39-2.45-.47-4.74-1.68-7.17-2.23-4.72-1.05-5.38-3.51-4-7.81C192.88,485.47,195.38,476.22,197.78,468.09ZM406.35,343.17c8.23-4.09,14.75-9.55,16.67-14.42,4.57-11.61,9.29-23.19,13.1-35.05,2.08-6.48,2.44-13.5,3.78-21.49-3.95,1.61-6.84,2.4-9.3,3.88-6.3,3.81-12.34,8-18.63,11.87-2.77,1.68-3.66,3.86-3.72,6.86q-.24,12.53-.74,25.05C407.21,327.35,406.77,334.83,406.35,343.17ZM146.51,208.33c.51,2.28,1.06,4.56,1.7,6.81.44,1.54,1.06,3,1.6,4.56,1.75-.62,4.18-.74,5.12-2,3.71-4.77,7-9.86,10.33-14.9,1.38-2.09,2.69-3.4,5.29-1.66a6.5,6.5,0,0,0,3.08.9c8.48.59,17,1.45,25.44,1.55q34.52.42,69,.25c25.83-.15,51.73,1.32,77.42-2.74,9.75-1.54,19.53-2.93,29.18-4.38A53.69,53.69,0,0,0,373,190.9a4.55,4.55,0,0,0-2.16-2.52c-5.82-1.73-11.66-3.52-17.61-4.7s-12.06-1.46-18-2.46c-14.95-2.5-29.82-7.05-44.8-7.41C257,173,223.46,172.24,190,175.09c-19.69,1.67-39.27,3.29-58.22,9.34-6.83,2.18-14,3.25-21,4.94-2.59.62-5.38,1.3-4.72,5.35h37.42C144.39,198.85,145.43,203.6,146.51,208.33Z"/>
    </g>
    <path id="tt" class="cls-2" d="M262,379.13l27.72-36.37c2.36-3.09,7.55-2,8,1.84v.07c3,25.3-.69,50.13-4.34,75.22-.89,6.13-9.77,6.19-10.68.07a28.38,28.38,0,0,1-.26-3.35c-.3-13.69-.1-27.39-1.71-41.75-3.07,5.68-5.57,11.8-9.42,16.91-2.91,3.87-7.58,9-11.42,8.9s-8.56-5.08-11.67-8.91-5-9.12-8.81-13.31c.68,6.77,1.49,13.54,2,20.33.46,6.14,1.4,12.42.54,18.41-.28,1.92-1.61,3.7-3.11,5.44a5.41,5.41,0,0,1-7.4.69c-2.17-1.66-4.14-3.35-4.27-5.17-1.67-22.59-2.63-45.25-3.17-67.91-.15-6.1,5.08-8.36,9.89-4.08C241.8,353.15,259.35,374.67,262,379.13Zm68.35-39.89c-5.76,1.68-9.44,6.17-9.83,12.85-.34,5.72-1.54,11.39-2,17.11-1.21,14.33-2.45,28.66-3.23,43-.31,5.5.55,13.57,7.5,12,11.42-2.63,22.27-8.08,33-13.17a3.36,3.36,0,0,0,1.4-2.27c1.11-4-2-8.24-6.16-7.92a5.38,5.38,0,0,0-1,.16c-6.34,1.64-12.45,4.18-18.9,6.44-.11-16.62-.11-16.61,13.76-21.58,2.42-.87,4.83-1.83,7.17-2.91,7.62-3.49,10-5.36,9.68-11.5a6.33,6.33,0,0,0-8.19-5.74l-19.74,6.15V355c4.54-1,8.61-1.88,12.66-2.86,4.31-1.06,8.63-2.14,12.89-3.37,9.55-2.76,11.79-4.27,10.28-12.41a6.33,6.33,0,0,0-7.67-5C351.38,333.83,340.77,336.21,330.35,339.24Zm11.42-30.56c-.38-21.06.9-41.34-6-61a28.62,28.62,0,0,0-5.61-9.25c-5.69-6.37-14.08-6.23-17.32,1.37-9.29,21.83-17.61,44.09-25.78,66.37-.43,1.16.26,2.74,1.17,4.39a5.17,5.17,0,0,0,6.49,2.28,7.1,7.1,0,0,0,3.66-2.56c3-5.28,4.52-11.42,7.21-16.94,1-2,3.55-4.47,5.47-4.54,5.46-.19,10.95.74,15.46,1.15,4.43,6.46.51,16.92,6.65,22.54A5.14,5.14,0,0,0,341.77,308.68ZM318.3,273.53c-1.31.1-2.64,0-5.12,0,2.43-6.26,4.54-11.71,6.66-17.15l1.55.11c1.17,5,2.34,10.06,3.78,16.23C322,273.11,320.18,273.39,318.3,273.53Zm-54.65-22.6c1.93-.45,5.23-2.57,5.08-3.11-.71-2.43-1.89-5.54-3.88-6.64-8.28-4.59-16.88-3.69-24.66,1.18-3.23,2-7.36,5.63-7.64,8.83-1.84,20.61-2.76,41.3-3.9,62-.38,7.11,3.86,10.33,10.28,10.6,8.38.36,16.8.26,25.2.06,5.18-.12,9.83-2,9.74-8.08-.09-6.44-5.18-7.11-10.25-7.13H241.91c.8-8.11,1.48-14.86,2.15-21.6,6.24,0,11.58,1,16.18-.34a11,11,0,0,0,4.45-3.07,6,6,0,0,0-.95-9.16,9.65,9.65,0,0,0-3.81-1.72c-4.75-.81-9.85.41-15.37.8v-19C251.6,253.24,257.68,252.31,263.65,250.93ZM119.18,344.87c6.49,1.48,7.6,4.57,8.65,10.66,3.19,18.39,7.41,36.63,12.09,54.71a5.42,5.42,0,0,0,2.52,2.83,5.34,5.34,0,0,0,8.27-3.62,10.63,10.63,0,0,0,0-2.87c-2-14.36-5.44-28.57-6.84-43-1.38-14.2-.59-14.27,13.56-16.38a7.85,7.85,0,0,0,3.22-.88c.48-.34.95-.69,1.42-1,3.65-2.74,4.11-8.4.47-11.16a3.41,3.41,0,0,0-1.48-.7c-15.92-3-32-5.25-48-7.67a4.65,4.65,0,0,0-5.29,4.08C106.57,340.64,108.38,342.41,119.18,344.87Zm61.64-50.71c0,4.19-1.32,8.63-.28,12.48a9.61,9.61,0,0,0,1.13,2.52,7.4,7.4,0,0,0,11.94.69,8.23,8.23,0,0,0,1.3-2.17c1.56-4,1.21-8.79,1.25-13.24.13-13.66.05-27.32.05-41.8,2.71-.24,5.41-.52,8.11-.7,1.45-.1,2.9-.18,4.32-.25a6.25,6.25,0,0,0,5.76-4.85c2.72-11.51.11-13.28-13.1-11.92a189.82,189.82,0,0,0-32,6.06,4.16,4.16,0,0,0-1.47.77c-4.59,3.59-2.71,10.86,2.79,12.77.5.17,1,.33,1.51.46,2.54.66,5.47-.22,8.71-.44C180.85,268.55,180.9,281.35,180.82,294.16ZM204,406.64c-1.58-13-2.59-23.51-4.35-33.84-1.43-8.45-7.39-9.07-13.27-8.16-6.44,1-5.09,7.06-4.35,11.6,1.84,11.31,3.62,22.76,6.77,33.61a18,18,0,0,0,2.68,5.27c3,4.24,8.68,3.43,10.83-1.45l1-2.36A8.92,8.92,0,0,0,204,406.64Zm-7.61-60.26c0-2.38-4.35-6.16-7.25-6.68-2-.35-6.75,3.76-6.78,5.93,0,1.7,1,3.41,2.49,5.5a5.32,5.32,0,0,0,8.22.59C195,349.68,196.43,348,196.43,346.38Z"/>
  </g>
</svg>
