<?xml version="1.0" encoding="utf-8"?>
<!-- Generator: Adobe Illustrator 23.0.1, SVG Export Plug-In . SVG Version: 6.00 Build 0)  -->
<svg version="1.1" id="virgo" xmlns="http://www.w3.org/2000/svg" xmlns:xlink="http://www.w3.org/1999/xlink" x="0px" y="0px"
	 viewBox="0 0 477.9 477.9" style="enable-background:new 0 0 477.9 477.9;" xml:space="preserve">
<g>
	<path id="outside" d="M392.8,74.1c-17-3.6-34.8-2.8-51.4,2c-10.1-30.8-34.1-55.2-64.6-66.7c-35-13.1-75-4.8-103.5,18.5
		C136-2.6,81-5.3,42,24.4c-18.4,14-31.8,33.5-38.2,55.8C0.8,90.7,0,101.6,0,112.4c0,51.7,0,103.4,0,155.1c0,29.4,0,58.7,0,88.1
		c0,9.1,0,18.2,0,27.3c0,5.7-0.1,11.1,0.8,16.8c4.4,26.3,36.9,37.7,58.2,23.7c11.8-7.8,17-20.8,17-34.5c0-18.8,0-37.5,0-56.3
		c0-61.5,0-123,0-184.5c0-13.2,0-26.4,0-39.7C76,87.2,98.7,73,117.8,82c11.3,5.3,17.4,16.1,17.4,28.3c0,49.1,0,98.2,0,147.3
		c0,44.7,0,89.3,0,134c0,24.6,22.5,41.2,45.9,37.3c18.1-3,30.1-20.7,30.1-38.2c0-16.6,0-33.3,0-50c0-61.7,0-123.4,0-185.1
		c0-15.5,0-31.1,0-46.6c0-15.8,13-28.9,28.7-29.7c16.8-0.9,30.6,13.1,30.6,29.7c0,48,0,95.9,0,143.9c0,37.9,0,75.8,0,113.7
		c-6.2,8.8-12.4,17.6-18.7,26.3c-7.1,10-16.1,20.2-20.6,31.8c-10.4,26.9,15.7,54.5,42.8,49.6c18.1-3.3,27.1-19.4,37-33
		c1.5-2,2.9-4,4.4-6c5.8,6.6,11.6,13.2,17.4,19.8c3.8,4.3,7.3,8.6,11.8,12.1c11.7,9,26.6,9.5,39.7,3.8c12.5-5.5,19.6-18.5,21-31.6
		c1.1-10.4-3.4-20.8-10.1-28.4c-8.6-9.8-17.2-19.5-25.8-29.3c-2.7-3.1-5.4-6.1-8.1-9.2c28.2-38.5,56.3-77.1,84.5-115.6
		c3.8-5.3,7.7-10.5,11.5-15.8c12.9-17.7,19.9-38.8,20.5-60.7C479.2,129.6,442.1,84.4,392.8,74.1z M453.1,212.5
		c-4.1,9.5-10.1,17.7-16.1,26c-31.1,42.5-62.1,85-93.2,127.5c-0.6,0.8-1.2,1.6-1.8,2.4c-2.5,3.4-1.1,8.1,1.4,10.9
		c7.7,8.7,15.3,17.4,23,26c4.5,5.1,9,10.2,13.5,15.3c3.4,3.9,6.7,7.8,7.4,13.2c1.4,11.6-6.4,20.7-17.5,22.9
		c-7.9,1.5-14.5-3.5-19.4-9c-9.1-10.3-18.2-20.6-27.3-30.9c-0.7-0.8-1.3-1.5-2-2.3c-4.2-4.7-10.9-2.6-14.1,1.8
		c-7.3,9.9-14.5,19.9-21.8,29.8c-3.8,5.3-8.2,10-16.5,10.6c-10.7,0.8-20.5-7.4-21.4-18.1c-1-11.6,10.5-23.2,16.8-32
		c7.4-10.5,14.8-20.9,22.2-31.4c0.6-0.6,1.1-1.4,1.5-2.2c0.8-1.4,1-3,0.8-4.6c0-44.5,0-89.1,0-133.6c0-30,0-60,0-90.1
		c0-9.3,0-18.7,0-28c0-6.9,0.1-13.4-1.5-20.2c-5.9-25-32.1-39-56.3-34.1c-21.2,4.3-37.4,24.7-37.4,46.1c0,14.2,0,28.3,0,42.5
		c0,61.6,0,123.2,0,184.8c0,17.9,0,35.9,0,53.8c0,12.5-8.4,22.3-21.4,22c-12.2-0.3-18.6-11.5-18.6-22.4c0-49.9,0-99.8,0-149.7
		c0-43.7,0-87.4,0-131.1c0-22.8-17.8-42.9-40.1-46.6c-24.9-4.1-49.2,12.4-54.2,37.2c-1.2,5.8-0.9,11.8-0.9,17.7c0,9,0,18,0,27
		c0,61.2,0,122.5,0,183.7c0,20,0,39.9,0,59.9c0,8.9-1.9,16.8-10.3,21.8C34,417.3,18,405.7,18,390.9c0-47.1,0-94.2,0-141.4
		c0-46.8,0-93.7,0-140.5c0-30.6,15.7-58.9,41.7-75c33.9-21,78.6-15.2,107.2,12.2c3.6,3.4,9.1,3.4,12.7,0c24.2-23.3,59.3-30.9,91-20
		c28.4,9.7,49.3,34.8,55.9,63.7c1,4.4,6.6,8,11.1,6.3c24.1-9.2,50.7-8.4,73.8,3.3c20.5,10.4,36.4,28.7,43.7,50.4
		C462,170.1,461.4,192.9,453.1,212.5z"/>
	<path id="inside" d="M378.2,130.6c-17.2-2.4-36.1,3.2-47,17.3c0,0,0,0,0,0c-1.6,1.4-2.6,3.6-2.6,6.4c0,45.6,0,91.2,0,136.8
		c0,0.1,0,0.2,0,0.3c0,9.6,11.8,11.4,16.8,4.5c14.1-19.3,28.2-38.5,42.2-57.8c7.1-9.7,14.1-19.4,21.2-29c10-13.7,14.1-30,8.5-46.4
		C411.5,145.5,396,133.1,378.2,130.6z M400.5,187.2c-1.3,4.6-4.1,8.5-6.9,12.3c-15.7,21.5-31.4,43-47.1,64.4c0-35.4,0-70.9,0-106.3
		c13.5-13.6,36.7-12.6,49.3,2.3C402,167.4,403.1,178.2,400.5,187.2z"/>
</g>
</svg>
